<?xml version="1.0" encoding="UTF-8" standalone="no"?>
<!DOCTYPE svg PUBLIC "-//W3C//DTD SVG 1.1//EN"
 "http://www.w3.org/Graphics/SVG/1.1/DTD/svg11.dtd">
<!-- Generated by graphviz version 3.0.0 (20220226.1711)
 -->
<!-- Title: dependencies Pages: 1 -->
<svg width="479pt" height="247pt"
 viewBox="0.00 0.00 479.00 246.80" xmlns="http://www.w3.org/2000/svg" xmlns:xlink="http://www.w3.org/1999/xlink">
<g id="graph0" class="graph" transform="scale(1 1) rotate(0) translate(4 242.8)">
<title>dependencies</title>
<polygon fill="white" stroke="transparent" points="-4,4 -4,-242.8 475,-242.8 475,4 -4,4"/>
<text text-anchor="middle" x="235.5" y="-8.2" font-family="sans-serif" font-size="14.00">dependencies</text>
<g id="clust1" class="cluster">
<title>cluster_SchoolAdminModule</title>
<polygon fill="none" stroke="black" stroke-dasharray="1,5" points="8,-32.8 8,-230.8 463,-230.8 463,-32.8 8,-32.8"/>
</g>
<g id="clust6" class="cluster">
<title>cluster_SchoolAdminModule_providers</title>
<polygon fill="none" stroke="black" points="251,-40.8 251,-92.8 455,-92.8 455,-40.8 251,-40.8"/>
</g>
<g id="clust4" class="cluster">
<title>cluster_SchoolAdminModule_exports</title>
<polygon fill="none" stroke="black" points="102,-170.8 102,-222.8 258,-222.8 258,-170.8 102,-170.8"/>
</g>
<g id="clust3" class="cluster">
<title>cluster_SchoolAdminModule_imports</title>
<polygon fill="none" stroke="black" points="16,-40.8 16,-92.8 243,-92.8 243,-40.8 16,-40.8"/>
</g>
<!-- DatabaseModule -->
<g id="node1" class="node">
<title>DatabaseModule</title>
<polygon fill="#8dd3c7" stroke="black" points="235.36,-84.8 232.36,-88.8 211.36,-88.8 208.36,-84.8 124.64,-84.8 124.64,-48.8 235.36,-48.8 235.36,-84.8"/>
<text text-anchor="middle" x="180" y="-62.6" font-family="Times,serif" font-size="14.00">DatabaseModule</text>
</g>
<!-- SchoolAdminModule -->
<g id="node3" class="node">
<title>SchoolAdminModule</title>
<polygon fill="#8dd3c7" stroke="black" points="248.83,-149.8 245.83,-153.8 224.83,-153.8 221.83,-149.8 111.17,-149.8 111.17,-113.8 248.83,-113.8 248.83,-149.8"/>
<text text-anchor="middle" x="180" y="-127.6" font-family="Times,serif" font-size="14.00">SchoolAdminModule</text>
</g>
<!-- DatabaseModule&#45;&gt;SchoolAdminModule -->
<g id="edge1" class="edge">
<title>DatabaseModule&#45;&gt;SchoolAdminModule</title>
<path fill="none" stroke="black" d="M180,-84.91C180,-84.91 180,-103.79 180,-103.79"/>
<polygon fill="black" stroke="black" points="176.5,-103.79 180,-113.79 183.5,-103.79 176.5,-103.79"/>
</g>
<!-- RolesGuard -->
<g id="node2" class="node">
<title>RolesGuard</title>
<polygon fill="#8dd3c7" stroke="black" points="106.38,-84.8 103.38,-88.8 82.38,-88.8 79.38,-84.8 23.62,-84.8 23.62,-48.8 106.38,-48.8 106.38,-84.8"/>
<text text-anchor="middle" x="65" y="-62.6" font-family="Times,serif" font-size="14.00">RolesGuard</text>
</g>
<!-- RolesGuard&#45;&gt;SchoolAdminModule -->
<g id="edge2" class="edge">
<title>RolesGuard&#45;&gt;SchoolAdminModule</title>
<path fill="none" stroke="black" d="M106.46,-66.8C113.16,-66.8 117.95,-66.8 117.95,-66.8 117.95,-66.8 117.95,-103.69 117.95,-103.69"/>
<polygon fill="black" stroke="black" points="114.45,-103.69 117.95,-113.69 121.45,-103.69 114.45,-103.69"/>
</g>
<!-- SchoolAdminService  -->
<g id="node4" class="node">
<title>SchoolAdminService </title>
<polygon fill="#fb8072" stroke="black" points="249.76,-214.8 110.24,-214.8 110.24,-178.8 249.76,-178.8 249.76,-214.8"/>
<text text-anchor="middle" x="180" y="-192.6" font-family="Times,serif" font-size="14.00">SchoolAdminService </text>
</g>
<!-- SchoolAdminModule&#45;&gt;SchoolAdminService  -->
<g id="edge3" class="edge">
<title>SchoolAdminModule&#45;&gt;SchoolAdminService </title>
<path fill="none" stroke="black" stroke-dasharray="5,2" d="M180,-149.91C180,-149.91 180,-168.79 180,-168.79"/>
<polygon fill="black" stroke="black" points="176.5,-168.79 180,-178.79 183.5,-168.79 176.5,-168.79"/>
</g>
<!-- SchoolAdminService -->
<g id="node5" class="node">
<title>SchoolAdminService</title>
<ellipse fill="#fdb462" stroke="black" cx="353" cy="-66.8" rx="93.79" ry="18"/>
<text text-anchor="middle" x="353" y="-62.6" font-family="Times,serif" font-size="14.00">SchoolAdminService</text>
</g>
<!-- SchoolAdminService&#45;&gt;SchoolAdminModule -->
<g id="edge4" class="edge">
<title>SchoolAdminService&#45;&gt;SchoolAdminModule</title>
<path fill="none" stroke="black" d="M258.9,-66.8C248.77,-66.8 242.05,-66.8 242.05,-66.8 242.05,-66.8 242.05,-103.69 242.05,-103.69"/>
<polygon fill="black" stroke="black" points="238.55,-103.69 242.05,-113.69 245.55,-103.69 238.55,-103.69"/>
</g>
</g>
</svg>
