<?xml version="1.0" encoding="UTF-8" standalone="no"?>
<!DOCTYPE svg PUBLIC "-//W3C//DTD SVG 1.1//EN"
 "http://www.w3.org/Graphics/SVG/1.1/DTD/svg11.dtd">
<!-- Generated by graphviz version 3.0.0 (20220226.1711)
 -->
<!-- Title: dependencies Pages: 1 -->
<svg width="848pt" height="247pt"
 viewBox="0.00 0.00 848.00 246.80" xmlns="http://www.w3.org/2000/svg" xmlns:xlink="http://www.w3.org/1999/xlink">
<g id="graph0" class="graph" transform="scale(1 1) rotate(0) translate(4 242.8)">
<title>dependencies</title>
<polygon fill="white" stroke="transparent" points="-4,4 -4,-242.8 844,-242.8 844,4 -4,4"/>
<text text-anchor="middle" x="420" y="-8.2" font-family="sans-serif" font-size="14.00">dependencies</text>
<g id="clust1" class="cluster">
<title>cluster_AuthModule</title>
<polygon fill="none" stroke="black" stroke-dasharray="1,5" points="8,-32.8 8,-230.8 832,-230.8 832,-32.8 8,-32.8"/>
</g>
<g id="clust3" class="cluster">
<title>cluster_AuthModule_imports</title>
<polygon fill="none" stroke="black" points="438,-40.8 438,-92.8 824,-92.8 824,-40.8 438,-40.8"/>
</g>
<g id="clust6" class="cluster">
<title>cluster_AuthModule_providers</title>
<polygon fill="none" stroke="black" points="16,-40.8 16,-92.8 430,-92.8 430,-40.8 16,-40.8"/>
</g>
<g id="clust4" class="cluster">
<title>cluster_AuthModule_exports</title>
<polygon fill="none" stroke="black" points="386,-170.8 386,-222.8 492,-222.8 492,-170.8 386,-170.8"/>
</g>
<!-- DatabaseModule -->
<g id="node1" class="node">
<title>DatabaseModule</title>
<polygon fill="#8dd3c7" stroke="black" points="816.36,-84.8 813.36,-88.8 792.36,-88.8 789.36,-84.8 705.64,-84.8 705.64,-48.8 816.36,-48.8 816.36,-84.8"/>
<text text-anchor="middle" x="761" y="-62.6" font-family="Times,serif" font-size="14.00">DatabaseModule</text>
</g>
<!-- AuthModule -->
<g id="node4" class="node">
<title>AuthModule</title>
<polygon fill="#8dd3c7" stroke="black" points="482.55,-149.8 479.55,-153.8 458.55,-153.8 455.55,-149.8 395.45,-149.8 395.45,-113.8 482.55,-113.8 482.55,-149.8"/>
<text text-anchor="middle" x="439" y="-127.6" font-family="Times,serif" font-size="14.00">AuthModule</text>
</g>
<!-- DatabaseModule&#45;&gt;AuthModule -->
<g id="edge1" class="edge">
<title>DatabaseModule&#45;&gt;AuthModule</title>
<path fill="none" stroke="black" d="M761,-85.08C761,-106.12 761,-137.8 761,-137.8 761,-137.8 492.76,-137.8 492.76,-137.8"/>
<polygon fill="black" stroke="black" points="492.76,-134.3 482.76,-137.8 492.76,-141.3 492.76,-134.3"/>
</g>
<!-- MailModule -->
<g id="node2" class="node">
<title>MailModule</title>
<polygon fill="#8dd3c7" stroke="black" points="687.99,-84.8 684.99,-88.8 663.99,-88.8 660.99,-84.8 602.01,-84.8 602.01,-48.8 687.99,-48.8 687.99,-84.8"/>
<text text-anchor="middle" x="645" y="-62.6" font-family="Times,serif" font-size="14.00">MailModule</text>
</g>
<!-- MailModule&#45;&gt;AuthModule -->
<g id="edge2" class="edge">
<title>MailModule&#45;&gt;AuthModule</title>
<path fill="none" stroke="black" d="M645,-84.82C645,-102.17 645,-125.8 645,-125.8 645,-125.8 492.69,-125.8 492.69,-125.8"/>
<polygon fill="black" stroke="black" points="492.69,-122.3 482.69,-125.8 492.69,-129.3 492.69,-122.3"/>
</g>
<!-- RefreshTokenModule -->
<g id="node3" class="node">
<title>RefreshTokenModule</title>
<polygon fill="#8dd3c7" stroke="black" points="584.36,-84.8 581.36,-88.8 560.36,-88.8 557.36,-84.8 445.64,-84.8 445.64,-48.8 584.36,-48.8 584.36,-84.8"/>
<text text-anchor="middle" x="515" y="-62.6" font-family="Times,serif" font-size="14.00">RefreshTokenModule</text>
</g>
<!-- RefreshTokenModule&#45;&gt;AuthModule -->
<g id="edge3" class="edge">
<title>RefreshTokenModule&#45;&gt;AuthModule</title>
<path fill="none" stroke="black" d="M464.17,-84.91C464.17,-84.91 464.17,-103.79 464.17,-103.79"/>
<polygon fill="black" stroke="black" points="460.67,-103.79 464.17,-113.79 467.67,-103.79 460.67,-103.79"/>
</g>
<!-- AuthService  -->
<g id="node5" class="node">
<title>AuthService </title>
<polygon fill="#fb8072" stroke="black" points="483.98,-214.8 394.02,-214.8 394.02,-178.8 483.98,-178.8 483.98,-214.8"/>
<text text-anchor="middle" x="439" y="-192.6" font-family="Times,serif" font-size="14.00">AuthService </text>
</g>
<!-- AuthModule&#45;&gt;AuthService  -->
<g id="edge4" class="edge">
<title>AuthModule&#45;&gt;AuthService </title>
<path fill="none" stroke="black" stroke-dasharray="5,2" d="M439,-149.91C439,-149.91 439,-168.79 439,-168.79"/>
<polygon fill="black" stroke="black" points="435.5,-168.79 439,-178.79 442.5,-168.79 435.5,-168.79"/>
</g>
<!-- AuthService -->
<g id="node6" class="node">
<title>AuthService</title>
<ellipse fill="#fdb462" stroke="black" cx="363" cy="-66.8" rx="59.11" ry="18"/>
<text text-anchor="middle" x="363" y="-62.6" font-family="Times,serif" font-size="14.00">AuthService</text>
</g>
<!-- AuthService&#45;&gt;AuthModule -->
<g id="edge5" class="edge">
<title>AuthService&#45;&gt;AuthModule</title>
<path fill="none" stroke="black" d="M408.77,-78.42C408.77,-78.42 408.77,-103.65 408.77,-103.65"/>
<polygon fill="black" stroke="black" points="405.27,-103.65 408.77,-113.65 412.27,-103.65 405.27,-103.65"/>
</g>
<!-- JwtStrategy -->
<g id="node7" class="node">
<title>JwtStrategy</title>
<ellipse fill="#fdb462" stroke="black" cx="229" cy="-66.8" rx="56.77" ry="18"/>
<text text-anchor="middle" x="229" y="-62.6" font-family="Times,serif" font-size="14.00">JwtStrategy</text>
</g>
<!-- JwtStrategy&#45;&gt;AuthModule -->
<g id="edge6" class="edge">
<title>JwtStrategy&#45;&gt;AuthModule</title>
<path fill="none" stroke="black" d="M229,-84.82C229,-102.17 229,-125.8 229,-125.8 229,-125.8 385.23,-125.8 385.23,-125.8"/>
<polygon fill="black" stroke="black" points="385.23,-129.3 395.23,-125.8 385.23,-122.3 385.23,-129.3"/>
</g>
<!-- LocalStrategy -->
<g id="node8" class="node">
<title>LocalStrategy</title>
<ellipse fill="#fdb462" stroke="black" cx="89" cy="-66.8" rx="65.4" ry="18"/>
<text text-anchor="middle" x="89" y="-62.6" font-family="Times,serif" font-size="14.00">LocalStrategy</text>
</g>
<!-- LocalStrategy&#45;&gt;AuthModule -->
<g id="edge7" class="edge">
<title>LocalStrategy&#45;&gt;AuthModule</title>
<path fill="none" stroke="black" d="M89,-85.08C89,-106.12 89,-137.8 89,-137.8 89,-137.8 385.38,-137.8 385.38,-137.8"/>
<polygon fill="black" stroke="black" points="385.38,-141.3 395.38,-137.8 385.38,-134.3 385.38,-141.3"/>
</g>
</g>
</svg>
