<?xml version="1.0" encoding="UTF-8" standalone="no"?>
<!DOCTYPE svg PUBLIC "-//W3C//DTD SVG 1.1//EN"
 "http://www.w3.org/Graphics/SVG/1.1/DTD/svg11.dtd">
<!-- Generated by graphviz version 3.0.0 (20220226.1711)
 -->
<!-- Title: dependencies Pages: 1 -->
<svg width="306pt" height="247pt"
 viewBox="0.00 0.00 306.00 246.80" xmlns="http://www.w3.org/2000/svg" xmlns:xlink="http://www.w3.org/1999/xlink">
<g id="graph0" class="graph" transform="scale(1 1) rotate(0) translate(4 242.8)">
<title>dependencies</title>
<polygon fill="white" stroke="transparent" points="-4,4 -4,-242.8 302,-242.8 302,4 -4,4"/>
<text text-anchor="middle" x="149" y="-8.2" font-family="sans-serif" font-size="14.00">dependencies</text>
<g id="clust1" class="cluster">
<title>cluster_MailModule</title>
<polygon fill="none" stroke="black" stroke-dasharray="1,5" points="8,-32.8 8,-230.8 290,-230.8 290,-32.8 8,-32.8"/>
</g>
<g id="clust4" class="cluster">
<title>cluster_MailModule_exports</title>
<polygon fill="none" stroke="black" points="95,-170.8 95,-222.8 199,-222.8 199,-170.8 95,-170.8"/>
</g>
<g id="clust6" class="cluster">
<title>cluster_MailModule_providers</title>
<polygon fill="none" stroke="black" points="150,-40.8 150,-92.8 282,-92.8 282,-40.8 150,-40.8"/>
</g>
<g id="clust3" class="cluster">
<title>cluster_MailModule_imports</title>
<polygon fill="none" stroke="black" points="16,-40.8 16,-92.8 142,-92.8 142,-40.8 16,-40.8"/>
</g>
<!-- DatabaseModule -->
<g id="node1" class="node">
<title>DatabaseModule</title>
<polygon fill="#8dd3c7" stroke="black" points="134.36,-84.8 131.36,-88.8 110.36,-88.8 107.36,-84.8 23.64,-84.8 23.64,-48.8 134.36,-48.8 134.36,-84.8"/>
<text text-anchor="middle" x="79" y="-62.6" font-family="Times,serif" font-size="14.00">DatabaseModule</text>
</g>
<!-- MailModule -->
<g id="node2" class="node">
<title>MailModule</title>
<polygon fill="#8dd3c7" stroke="black" points="189.99,-149.8 186.99,-153.8 165.99,-153.8 162.99,-149.8 104.01,-149.8 104.01,-113.8 189.99,-113.8 189.99,-149.8"/>
<text text-anchor="middle" x="147" y="-127.6" font-family="Times,serif" font-size="14.00">MailModule</text>
</g>
<!-- DatabaseModule&#45;&gt;MailModule -->
<g id="edge1" class="edge">
<title>DatabaseModule&#45;&gt;MailModule</title>
<path fill="none" stroke="black" d="M119.22,-84.91C119.22,-84.91 119.22,-103.79 119.22,-103.79"/>
<polygon fill="black" stroke="black" points="115.72,-103.79 119.22,-113.79 122.72,-103.79 115.72,-103.79"/>
</g>
<!-- MailService  -->
<g id="node3" class="node">
<title>MailService </title>
<polygon fill="#fb8072" stroke="black" points="190.92,-214.8 103.08,-214.8 103.08,-178.8 190.92,-178.8 190.92,-214.8"/>
<text text-anchor="middle" x="147" y="-192.6" font-family="Times,serif" font-size="14.00">MailService </text>
</g>
<!-- MailModule&#45;&gt;MailService  -->
<g id="edge2" class="edge">
<title>MailModule&#45;&gt;MailService </title>
<path fill="none" stroke="black" stroke-dasharray="5,2" d="M147,-149.91C147,-149.91 147,-168.79 147,-168.79"/>
<polygon fill="black" stroke="black" points="143.5,-168.79 147,-178.79 150.5,-168.79 143.5,-168.79"/>
</g>
<!-- MailService -->
<g id="node4" class="node">
<title>MailService</title>
<ellipse fill="#fdb462" stroke="black" cx="216" cy="-66.8" rx="58.46" ry="18"/>
<text text-anchor="middle" x="216" y="-62.6" font-family="Times,serif" font-size="14.00">MailService</text>
</g>
<!-- MailService&#45;&gt;MailModule -->
<g id="edge3" class="edge">
<title>MailService&#45;&gt;MailModule</title>
<path fill="none" stroke="black" d="M173.88,-79.33C173.88,-79.33 173.88,-103.65 173.88,-103.65"/>
<polygon fill="black" stroke="black" points="170.38,-103.65 173.88,-113.65 177.38,-103.65 170.38,-103.65"/>
</g>
</g>
</svg>
