<?xml version="1.0" encoding="iso-8859-1"?>
<!-- Generator: Adobe Illustrator 19.0.0, SVG Export Plug-In . SVG Version: 6.00 Build 0)  -->
<svg version="1.1" id="Capa_1" xmlns="http://www.w3.org/2000/svg" xmlns:xlink="http://www.w3.org/1999/xlink" x="0px" y="0px"
	 viewBox="0 0 512 512" style="enable-background:new 0 0 512 512;" xml:space="preserve">
<g>
	<g>
		<path d="M396.911,0H115.089C87.93,0,65.834,22.096,65.834,49.255v413.49c0,27.159,22.096,49.255,49.255,49.255h281.822
			c27.159,0,49.255-22.096,49.255-49.255V49.255C446.166,22.096,424.07,0,396.911,0z M416.166,462.745
			c0,10.617-8.638,19.255-19.255,19.255H115.089c-10.617,0-19.255-8.638-19.255-19.255V49.255c0-10.617,8.638-19.255,19.255-19.255
			h281.822c10.617,0,19.255,8.638,19.255,19.255V462.745z"/>
	</g>
</g>
<g>
	<g>
		<path d="M378.657,55.096H133.344c-8.284,0-15,6.716-15,15v59.618c0,8.284,6.716,15,15,15h245.313c8.284,0,15-6.716,15-15V70.096
			C393.657,61.812,386.941,55.096,378.657,55.096z M363.657,114.714H148.344V85.096h215.313V114.714z"/>
	</g>
</g>
<g>
	<g>
		<path d="M282.479,200.163H133.344c-8.284,0-15,6.716-15,15v44.212c0,8.284,6.716,15,15,15h149.135c8.284,0,15-6.716,15-15v-44.212
			C297.479,206.879,290.763,200.163,282.479,200.163z M267.479,244.375H148.344v-14.212h119.135V244.375z"/>
	</g>
</g>
<g>
	<g>
		<path d="M381.114,200.163h-50.5c-8.284,0-15,6.716-15,15v44.212c0,8.284,6.716,15,15,15h50.5c8.284,0,15-6.716,15-15v-44.212
			C396.114,206.879,389.398,200.163,381.114,200.163z M366.114,244.375h-20.5v-14.212h20.5V244.375z"/>
	</g>
</g>
<g>
	<g>
		<path d="M381.114,288.934h-50.5c-8.284,0-15,6.716-15,15v44.212c0,8.284,6.716,15,15,15h50.5c8.284,0,15-6.716,15-15v-44.212
			C396.114,295.65,389.398,288.934,381.114,288.934z M366.114,333.146h-20.5v-14.212h20.5V333.146z"/>
	</g>
</g>
<g>
	<g>
		<path d="M282.479,288.934h-50.5c-8.284,0-15,6.716-15,15v44.212c0,8.284,6.716,15,15,15h50.5c8.284,0,15-6.716,15-15v-44.212
			C297.479,295.65,290.763,288.934,282.479,288.934z M267.479,333.146h-20.5v-14.212h20.5V333.146z"/>
	</g>
</g>
<g>
	<g>
		<path d="M183.844,288.934h-50.5c-8.284,0-15,6.716-15,15v44.212c0,8.284,6.716,15,15,15h50.5c8.284,0,15-6.716,15-15v-44.212
			C198.844,295.65,192.128,288.934,183.844,288.934z M168.844,333.146h-20.5v-14.212h20.5V333.146z"/>
	</g>
</g>
<g>
	<g>
		<path d="M381.114,377.705h-50.5c-8.284,0-15,6.716-15,15v44.212c0,8.284,6.716,15,15,15h50.5c8.284,0,15-6.716,15-15v-44.212
			C396.114,384.42,389.398,377.705,381.114,377.705z M366.114,421.917h-20.5v-14.212h20.5V421.917z"/>
	</g>
</g>
<g>
	<g>
		<path d="M282.479,377.705h-50.5c-8.284,0-15,6.716-15,15v44.212c0,8.284,6.716,15,15,15h50.5c8.284,0,15-6.716,15-15v-44.212
			C297.479,384.42,290.763,377.705,282.479,377.705z M267.479,421.917h-20.5v-14.212h20.5V421.917z"/>
	</g>
</g>
<g>
	<g>
		<path d="M183.844,377.705h-50.5c-8.284,0-15,6.716-15,15v44.212c0,8.284,6.716,15,15,15h50.5c8.284,0,15-6.716,15-15v-44.212
			C198.844,384.42,192.128,377.705,183.844,377.705z M168.844,421.917h-20.5v-14.212h20.5V421.917z"/>
	</g>
</g>
<g>
</g>
<g>
</g>
<g>
</g>
<g>
</g>
<g>
</g>
<g>
</g>
<g>
</g>
<g>
</g>
<g>
</g>
<g>
</g>
<g>
</g>
<g>
</g>
<g>
</g>
<g>
</g>
<g>
</g>
</svg>
