<?xml version="1.0" encoding="iso-8859-1"?>
<!-- Generator: Adobe Illustrator 19.0.0, SVG Export Plug-In . SVG Version: 6.00 Build 0)  -->
<svg version="1.1" id="Layer_1" xmlns="http://www.w3.org/2000/svg" xmlns:xlink="http://www.w3.org/1999/xlink" x="0px" y="0px"
	 viewBox="0 0 512 512" style="enable-background:new 0 0 512 512;" xml:space="preserve">
<g>
	<g>
		<path d="M377.749,17.393h-17.936v-9.24c0-4.503-3.65-8.153-8.153-8.153c-4.503,0-8.153,3.65-8.153,8.153v9.24h-18.48v-9.24
			c0-4.503-3.65-8.153-8.153-8.153s-8.153,3.65-8.153,8.153v9.24h-18.48v-9.24c0-4.503-3.65-8.153-8.153-8.153
			s-8.153,3.65-8.153,8.153v9.24h-18.48v-9.24c0-4.503-3.65-8.153-8.153-8.153c-4.503,0-8.153,3.65-8.153,8.153v9.24h-18.48v-9.24
			c0-4.503-3.65-8.153-8.153-8.153s-8.153,3.65-8.153,8.153v9.24h-18.48v-9.24c0-4.503-3.65-8.153-8.153-8.153
			s-8.153,3.65-8.153,8.153v9.24H151.1v-9.24c0-4.503-3.65-8.153-8.153-8.153c-4.503,0-8.153,3.65-8.153,8.153v9.24h-18.48v-9.24
			c0-4.503-3.65-8.153-8.153-8.153s-8.153,3.65-8.153,8.153v9.24H82.072c-14.086,0-25.546,11.46-25.546,25.546v391.338
			c0,14.086,11.46,25.546,25.546,25.546h165.231c4.503,0,8.153-3.65,8.153-8.153s-3.65-8.153-8.153-8.153H82.072
			c-5.095,0-9.24-4.145-9.24-9.24V42.938c0-5.095,4.145-9.24,9.24-9.24h17.936v9.24c0,4.503,3.65,8.153,8.153,8.153
			s8.153-3.65,8.153-8.153v-9.24h18.48v9.24c0,4.503,3.65,8.153,8.153,8.153c4.503,0,8.153-3.65,8.153-8.153v-9.24h18.48v9.24
			c0,4.503,3.65,8.153,8.153,8.153s8.153-3.65,8.153-8.153v-9.24h18.48v9.24c0,4.503,3.65,8.153,8.153,8.153s8.153-3.65,8.153-8.153
			v-9.24h18.48v9.24c0,4.503,3.65,8.153,8.153,8.153c4.503,0,8.153-3.65,8.153-8.153v-9.24h18.48v9.24
			c0,4.503,3.65,8.153,8.153,8.153s8.153-3.65,8.153-8.153v-9.24h18.48v9.24c0,4.503,3.65,8.153,8.153,8.153s8.153-3.65,8.153-8.153
			v-9.24h18.48v9.24c0,4.503,3.65,8.153,8.153,8.153c4.503,0,8.153-3.65,8.153-8.153v-9.24h17.936c5.095,0,9.24,4.145,9.24,9.24
			v260.894c0,4.503,3.65,8.153,8.153,8.153s8.153-3.65,8.153-8.153V42.938C403.295,28.852,391.835,17.393,377.749,17.393z"/>
	</g>
</g>
<g>
	<g>
		<path d="M360.357,321.766c-52.448,0-95.117,42.669-95.117,95.117S307.909,512,360.357,512c52.448,0,95.117-42.669,95.117-95.117
			S412.805,321.766,360.357,321.766z M360.357,495.694c-43.457,0-78.811-35.354-78.811-78.811c0-43.457,35.354-78.811,78.811-78.811
			c43.457,0,78.811,35.354,78.811,78.811C439.168,460.34,403.814,495.694,360.357,495.694z"/>
	</g>
</g>
<g>
	<g>
		<path d="M417.371,399.936c-0.983-3.025-3.635-5.203-6.794-5.577l-30.116-3.571l-12.702-27.538
			c-1.333-2.888-4.223-4.737-7.404-4.737c-3.181,0-6.071,1.849-7.404,4.737l-12.702,27.538l-30.115,3.571
			c-3.158,0.374-5.81,2.551-6.794,5.577c-0.983,3.024-0.116,6.345,2.219,8.505l22.265,20.59l-5.91,29.745
			c-0.62,3.12,0.632,6.316,3.205,8.185c2.573,1.87,5.999,2.072,8.774,0.519l26.463-14.812l26.463,14.812
			c1.241,0.695,2.613,1.039,3.982,1.039c1.688,0,3.371-0.524,4.793-1.557c2.573-1.87,3.824-5.065,3.205-8.185l-5.91-29.745
			l22.265-20.59C417.489,406.281,418.355,402.96,417.371,399.936z M378.467,420.159c-2.082,1.925-3.013,4.794-2.461,7.575
			l3.355,16.885l-15.022-8.408c-1.237-0.692-2.609-1.038-3.982-1.038c-1.373,0-2.745,0.346-3.982,1.038l-15.022,8.408l3.355-16.885
			c0.552-2.781-0.379-5.649-2.461-7.575l-12.639-11.688l17.096-2.026c2.815-0.335,5.255-2.107,6.443-4.682l7.21-15.632l7.21,15.632
			c1.188,2.575,3.628,4.347,6.443,4.682l17.096,2.026L378.467,420.159z"/>
	</g>
</g>
<g>
	<g>
		<path d="M360.357,69.571H99.465c-4.503,0-8.153,3.65-8.153,8.153s3.65,8.153,8.153,8.153h260.892c4.503,0,8.153-3.65,8.153-8.153
			S364.859,69.571,360.357,69.571z"/>
	</g>
</g>
<g>
	<g>
		<path d="M169.036,156.535c-4.503,0-8.153,3.65-8.153,8.153c0,9.89-8.046,17.936-17.936,17.936c-9.89,0-17.936-8.046-17.936-17.936
			c0-9.89,8.046-17.936,17.936-17.936c4.503,0,8.153-3.65,8.153-8.153s-3.65-8.153-8.153-8.153
			c-18.881,0-34.242,15.361-34.242,34.242c0,18.881,15.361,34.242,34.242,34.242c18.881,0,34.242-15.361,34.242-34.242
			C177.189,160.185,173.539,156.535,169.036,156.535z"/>
	</g>
</g>
<g>
	<g>
		<path d="M169.036,252.195c-4.503,0-8.153,3.65-8.153,8.153c0,9.89-8.046,17.936-17.936,17.936c-9.89,0-17.936-8.046-17.936-17.936
			s8.046-17.936,17.936-17.936c4.503,0,8.153-3.65,8.153-8.153s-3.65-8.153-8.153-8.153c-18.881,0-34.242,15.361-34.242,34.242
			s15.361,34.242,34.242,34.242c18.881,0,34.242-15.361,34.242-34.242C177.189,255.846,173.539,252.195,169.036,252.195z"/>
	</g>
</g>
<g>
	<g>
		<path d="M342.964,269.588H203.822c-4.503,0-8.153,3.65-8.153,8.153c0,4.503,3.65,8.153,8.153,8.153h139.142
			c4.503,0,8.153-3.65,8.153-8.153C351.117,273.238,347.466,269.588,342.964,269.588z"/>
	</g>
</g>
<g>
	<g>
		<path d="M308.178,234.803H203.822c-4.503,0-8.153,3.65-8.153,8.153s3.65,8.153,8.153,8.153h104.357
			c4.503,0,8.153-3.65,8.153-8.153S312.681,234.803,308.178,234.803z"/>
	</g>
</g>
<g>
	<g>
		<path d="M247.304,365.248h-43.482c-4.503,0-8.153,3.65-8.153,8.153s3.65,8.153,8.153,8.153h43.482c4.503,0,8.153-3.65,8.153-8.153
			S251.806,365.248,247.304,365.248z"/>
	</g>
</g>
<g>
	<g>
		<path d="M264.696,330.463h-60.875c-4.503,0-8.153,3.65-8.153,8.153s3.65,8.153,8.153,8.153h60.875c4.503,0,8.153-3.65,8.153-8.153
			S269.199,330.463,264.696,330.463z"/>
	</g>
</g>
<g>
	<g>
		<path d="M342.964,173.928H203.822c-4.503,0-8.153,3.65-8.153,8.153s3.65,8.153,8.153,8.153h139.142
			c4.503,0,8.153-3.65,8.153-8.153S347.466,173.928,342.964,173.928z"/>
	</g>
</g>
<g>
	<g>
		<path d="M308.178,139.142H203.822c-4.503,0-8.153,3.65-8.153,8.153s3.65,8.153,8.153,8.153h104.357
			c4.503,0,8.153-3.65,8.153-8.153S312.681,139.142,308.178,139.142z"/>
	</g>
</g>
<g>
	<g>
		<path d="M169.036,347.856c-4.503,0-8.153,3.65-8.153,8.153c0,9.89-8.046,17.936-17.936,17.936c-9.89,0-17.936-8.046-17.936-17.936
			c0-9.89,8.046-17.936,17.936-17.936c4.503,0,8.153-3.65,8.153-8.153c0-4.503-3.65-8.153-8.153-8.153
			c-18.881,0-34.242,15.361-34.242,34.242c0,18.881,15.361,34.242,34.242,34.242c18.881,0,34.242-15.361,34.242-34.242
			C177.189,351.506,173.539,347.856,169.036,347.856z"/>
	</g>
</g>
<g>
</g>
<g>
</g>
<g>
</g>
<g>
</g>
<g>
</g>
<g>
</g>
<g>
</g>
<g>
</g>
<g>
</g>
<g>
</g>
<g>
</g>
<g>
</g>
<g>
</g>
<g>
</g>
<g>
</g>
</svg>
