<?xml version="1.0"?>
<svg xmlns="http://www.w3.org/2000/svg" id="Layer_1" data-name="Layer 1" viewBox="0 0 512 512" width="512" height="512"><path d="M476,43.051H442.585V30.634a6,6,0,0,0-6-6H255.453a6,6,0,0,0-6,6V43.051H206.038a26.027,26.027,0,0,0-26,26v43.232A88.807,88.807,0,0,0,37.083,182.717V209.61a21.454,21.454,0,0,0-13.778,15.269A26.863,26.863,0,0,0,39.75,256.331v5.738a87.274,87.274,0,0,0,45.194,76.4v26.359l-47.333,20.2c-.111.048-.22.1-.327.152a49.92,49.92,0,0,0-27.263,40.268c-.014.165-.021.332-.021.5v55.421a6,6,0,0,0,6,6H242.769a6,6,0,0,0,6-6V426.878H476a26.028,26.028,0,0,0,26-26V69.049A26.028,26.028,0,0,0,476,43.051ZM261.453,36.634H430.585V59.019H261.453ZM49.083,182.717a76.856,76.856,0,1,1,153.712,0v27.316c-14.868,1.607-60.255,4.032-96.7-20.134,25.042-3.338,55.568-11.026,78.208-28.389a6,6,0,1,0-7.3-9.521c-41.187,31.589-114.766,28.257-115.5,28.218a6.008,6.008,0,0,0-6.3,5.627l-1.8,29.633-3.915-2.01a.762.762,0,0,1-.4-.519Zm2.667,79.352V251.788a6,6,0,0,0-4.965-5.911A14.848,14.848,0,0,1,34.96,227.735a9.348,9.348,0,0,1,5.344-6.49,12.668,12.668,0,0,0,3.7,2.888l9.8,5.031a7.676,7.676,0,0,0,11.16-6.217c0-.038.006-.075.008-.113l1.857-30.485c4.9.046,12.478-.034,21.69-.676,49.005,41.688,118.357,30.048,121.323,29.527a5.979,5.979,0,0,0,1.776-.629,9.506,9.506,0,0,1,7.343,7.164,14.844,14.844,0,0,1-11.824,18.142,6,6,0,0,0-4.965,5.911v10.281a75.209,75.209,0,0,1-150.417,0Zm128.291,69.14v36.269l-6.216-2.652V335.584Q177.032,333.532,180.041,331.209ZM161.825,342v21.542a85.4,85.4,0,0,1-64.881,0V343.954A87.19,87.19,0,0,0,161.825,342Zm74.944,133.371H22V426.2A37.86,37.86,0,0,1,42.5,395.99l49.964-21.324a97.348,97.348,0,0,0,73.851,0l49.965,21.325A37.856,37.856,0,0,1,236.769,426.2ZM490,400.88a14.013,14.013,0,0,1-14,14H246.652a49.945,49.945,0,0,0-25.167-29.7c-.107-.055-.216-.1-.327-.152L192.041,372.6V320.052a86.854,86.854,0,0,0,22.126-57.983v-5.738a26.861,26.861,0,0,0,16.445-31.45,21.5,21.5,0,0,0-15.817-15.9V182.717A88.506,88.506,0,0,0,192.041,123.4V69.049a14.013,14.013,0,0,1,14-14h43.415v9.968a6,6,0,0,0,6,6H436.585a6,6,0,0,0,6-6V55.051H476a14.013,14.013,0,0,1,14,14Z"/><path d="M446.584,221.686H402.718a6,6,0,0,0,0,12h43.866a6,6,0,0,0,0-12Z"/><path d="M362.157,233.686h14.715a6,6,0,0,0,0-12H362.157a6,6,0,0,0,0,12Z"/><path d="M446.584,286.582H431.689a6,6,0,1,0,0,12h14.895a6,6,0,0,0,0-12Z"/><path d="M410.937,298.582a6,6,0,0,0,0-12H331.478a6,6,0,1,0,0,12Z"/><path d="M310.437,286.582h-5.361a6,6,0,0,0,0,12h5.361a6,6,0,0,0,0-12Z"/><path d="M245.212,286.582a6,6,0,0,0,0,12H279.23a6,6,0,0,0,0-12Z"/><path d="M446.584,346.563H412.249a6,6,0,0,0,0,12h34.335a6,6,0,0,0,0-12Z"/><path d="M390.714,346.563H386.4a6,6,0,0,0,0,12h4.311a6,6,0,1,0,0-12Z"/><path d="M369.514,346.563H336.9a6,6,0,0,0,0,12h32.615a6,6,0,0,0,0-12Z"/><path d="M310.437,346.563H245.212a6,6,0,0,0,0,12h65.225a6,6,0,0,0,0-12Z"/><path d="M446.584,170.6h-3.872a6,6,0,0,0,0,12h3.872a6,6,0,0,0,0-12Z"/><path d="M374.339,182.6h42.528a6,6,0,0,0,0-12H374.339a6,6,0,0,0,0,12Z"/><path d="M446.584,120.6H403.717a6,6,0,0,0,0,12h42.867a6,6,0,0,0,0-12Z"/><path d="M374.339,132.6h3.533a6,6,0,0,0,0-12h-3.533a6,6,0,0,0,0,12Z"/><path d="M287.875,237.92a66,66,0,1,0-66-66A66.075,66.075,0,0,0,287.875,237.92Zm0-120a54,54,0,1,1-54,54A54.062,54.062,0,0,1,287.875,117.92Z"/><path d="M270.268,198.079a6,6,0,0,0,8.485,0l43.832-43.832a6,6,0,0,0-8.485-8.485l-39.589,39.589L261.649,172.49a6,6,0,1,0-8.485,8.484Z"/></svg>
