<svg xmlns="http://www.w3.org/2000/svg" viewBox="0 0 384 384.04"><defs><style>.cls-1{fill:#010101;}.cls-2{fill:#070707;}.cls-3{fill:#030303;}</style></defs><g id="Layer_2" data-name="Layer 2"><g id="Layer_1-2" data-name="Layer 1"><g id="Layer_2-2" data-name="Layer 2"><g id="Layer_1-2-2" data-name="Layer 1-2"><path class="cls-1" d="M384,168a18.26,18.26,0,0,0-1.13,2.56c-4.24,15.21-13.87,25-29.13,29.22-.6.16-1.18.4-2,.69,0,13.15.14,26.39-.14,39.61a11.85,11.85,0,0,1-2.94,7.2c-2.67,2.88-6.62,2.22-10.37-1Q320,230.8,301.83,215.2c-4.85-4.14-9.62-8.36-14.58-12.35a8.47,8.47,0,0,0-4.6-1.73c-5.08-.21-10.19-.08-15.65-.08v4.22c0,29.11-.59,58.24.18,87.33.67,25.32-18.42,44.08-43.45,43.64-40.34-.71-80.7-.17-121.06-.23a9.41,9.41,0,0,0-6.7,2.35C79.43,352.64,62.78,366.79,46.14,381,44.83,382,43.38,383,42,384H37.5c-4-2.18-5.39-5.54-5.31-10.12.22-12.83.07-25.66.07-38.41-.74-.26-1.2-.45-1.68-.58-15.7-4.28-25.5-14.37-29.68-30A9.63,9.63,0,0,0,0,303V168a7.56,7.56,0,0,0,.82-1.47C6.63,145.91,21,135,42.45,135H117v-4.5c0-30-.07-59.94,0-89.91C117,25,123.86,13,137.43,5.23c4.11-2.34,8.87-3.49,13.32-5.19H219c.11.2.17.5.34.59,4,2.24,5.6,5.21,4.69,8.69s-3.86,5.7-8.2,5.71H158.49a33.36,33.36,0,0,0-6.69.58,24.38,24.38,0,0,0-19.8,24q-.12,60.9,0,121.81c0,14,11.07,24.55,25.34,24.57q63.91.07,127.82,0a14,14,0,0,1,9.81,3.61c13,11.29,26.19,22.42,39.31,33.6.63.54,1.27,1.06,2.41,2v-29c0-7.66,1.85-9.64,9.51-10.28,12.41-1,22.62-11.34,22.67-23.77q.25-61.66,0-123.32c-.06-13.18-11.16-23.72-24.53-23.8-19.74-.13-39.48,0-59.22,0-4.34,0-7.27-2.12-8.2-5.72s.71-6.44,4.7-8.68c.17-.09.23-.39.34-.59h67.5c.24.23.46.62.74.66,16,2.6,26.29,12,31.79,26.94.74,2,1.32,4.1,2,6.15ZM146.3,200.55c.23.66.58,1.82,1,3q13.26,35.13,26.54,70.25c1.89,5,.22,9.17-4.15,10.79-4.13,1.53-8-.57-9.89-5.44s-3.77-10-5.63-14.9h-41.3c-1.89,4.93-3.71,9.7-5.56,14.46-2,5.24-5.73,7.42-10,5.91-4.49-1.61-6.09-5.83-4.1-11.1q5.48-14.5,11-29c7.32-19.16,14.64-38.32,22.09-57.8-9.38-10.2-10-23.23-9.29-36.67H40.46C25.72,150.09,15,160.77,15,175.59q-.08,60,0,120c0,14.19,10,24.62,24.12,25.44,5.43.32,8.09,3.1,8.12,8.62v27c0,1,.13,2.06.22,3.45,14.08-12,27.81-23.65,41.4-35.42a14,14,0,0,1,9.79-3.7q63.75.16,127.48.06c15.12,0,25.79-10.61,25.81-25.65q.08-45.74,0-91.48c0-.94-.15-1.88-.23-2.86H171.56C163.17,201,154.74,200.72,146.3,200.55ZM148.46,249c-4.93-13-9.71-25.69-14.84-39.28-5.2,13.66-10,26.34-14.94,39.28Z"/><path class="cls-2" d="M253.5,0c.53.53,1,1.09,1.58,1.59,2.66,2.39,3.73,5.22,2.31,8.66a7.44,7.44,0,0,1-14.16-1.07c-.86-3.53.61-6.28,3.64-8.22.47-.3.92-.64,1.38-1Z"/><path class="cls-3" d="M258,65.7h39.7a33.54,33.54,0,0,1,3.75.09,7.34,7.34,0,0,1,6.78,7.2,7,7,0,0,1-6.45,7.43c-5.73.38-11.49.23-17.23.29h-8.41a83.59,83.59,0,0,1-15.72,48.07A66.88,66.88,0,0,0,296.12,147c7.1,1.22,10.08,4,9.31,9.12s-4.84,7-11.77,5.76a83.18,83.18,0,0,1-43.06-21.65c-.94.8-1.88,1.57-2.79,2.36a81,81,0,0,1-42.57,19.5c-5.58.76-9.15-1.64-9.71-6.19s2.18-7.85,7.72-8.66a66.9,66.9,0,0,0,35.91-17.1c.46-.42.84-.91,1.33-1.46a83.22,83.22,0,0,1-15.62-48H205a43.62,43.62,0,0,1-5.24-.16c-4.39-.51-7.19-3.69-7-7.75a7.3,7.3,0,0,1,7.35-7c4.12-.17,8.25-.06,12.37-.07H243V47.11c0-4.24,2-7.13,5.36-8,5-1.38,9.5,2,9.6,7.49C258.09,52.86,258,59.21,258,65.7ZM240,80.79a66.86,66.86,0,0,0,10.58,35.78c6.93-11.31,10.45-23,10.47-35.78Z"/></g></g></g></g></svg>