<svg xmlns="http://www.w3.org/2000/svg" viewBox="0 0 900 460.5"><defs><style>.a{fill:#e0e1eb;}.b{fill:#ddac8a;}.c{fill:#efbd98;}.d{fill:#422617;}.e{fill:#c9cfd3;}.f{fill:#7a433d;}.g{fill:#966157;}.h{fill:#ab6f60;}.i{fill:#d3c7dd;}.j{fill:#a1a8c3;}.k,.n,.o,.r,.u,.v,.w{fill:none;}.l{fill:#b8d8b8;}.m{fill:#a3c1a3;}.n,.o{stroke:#617261;}.n,.o,.r,.u,.v,.w{stroke-miterlimit:10;}.n{stroke-width:6.64px;}.o{stroke-width:3.1px;}.p{fill:#f4f4f4;}.q{fill:#eaeaea;}.r{stroke:#798fb5;stroke-width:6.37px;}.s{fill:#eddcbc;}.t{fill:#fcecc3;}.u,.v{stroke:#7f7763;}.u{stroke-width:7px;}.v{stroke-width:3.27px;}.w{stroke:#db8a8a;stroke-width:6.3px;}.x{fill:#bf9a77;}.y{fill:#c4deb4;}.z{fill:#9eba8d;}.aa{fill:#fff;stroke:#010101;stroke-linecap:round;stroke-linejoin:round;stroke-width:3.72px;}.ab{fill:#f4c09d;}.ac{fill:#ce9d7c;}</style></defs><path class="a" d="M871.29,447h-850c.65-63.21,17.78-235,183.49-251.23C408.24,175.82,445.3.78,571,0,665.69-.59,927.93,167,871.29,447Z"/><path class="b" d="M291,316.42c-.76-.32-1.54-.62-2.32-.91a65,65,0,0,1-8.7,5.73h0a58.32,58.32,0,0,1-60.8,0h0a64.48,64.48,0,0,1-8.71-5.73c-.78.3-1.55.59-2.32.91,14.49-16,10.17-45.95,10.17-45.95h62.52S276.5,300.39,291,316.42Z"/><path class="c" d="M249.57,104.63a69.13,69.13,0,0,1,69.13,69.13V190c-.11,38.08-31,96-69.13,96s-69-57.9-69.13-96V173.76a69.13,69.13,0,0,1,69.13-69.13Z"/><path class="d" d="M341.52,118.05a48.9,48.9,0,0,1-10.42,16c-1.65,1.78-3.57,3.46-4.17,5.9s-.87,4.88-1.57,7.3c-1.19,4.16-2.36,8.3-3.56,12.45-1,3.58-2.1,7.15-3,10.75a71.2,71.2,0,0,1-1.67-7.36,15.28,15.28,0,0,0-4.15-9,24.59,24.59,0,0,0-13.39-7.73c-8.47-1.51-17.58-.16-26.08.58-11.45,1-22.93-.22-34.37.8-11,1-22.3,1.93-32.69,6-3.68,1.45-8.34,2.94-11.14,5.89a8.47,8.47,0,0,0-1.92,3.43c-.11,2.67-.27,5.2-.46,7.58,0,.47-.09.94-.12,1.39,0,0,0,0,0,0-2.6,28.43-10.36,35.19-10.36,35.19-5.82-25.83-4.85-46.62-3-59.43a9.93,9.93,0,0,1-.44-2.14,108.19,108.19,0,0,1-.34-12.48c.18-8.16,1.09-16.52,3.8-24.26a56.44,56.44,0,0,1,6.21-12.73c9.93-15,27.56-22.54,44.88-25A64.64,64.64,0,0,1,260.74,73c8.66,2.51,16.68,6.74,25.22,9.54,9.29,3,18.85,4,28.53,4.86,6.78.59,14.79,1.05,20.89,4.67a18.46,18.46,0,0,1,3.21,2.39C345.1,100.5,344.4,110.37,341.52,118.05Z"/><path class="d" d="M192.89,170.63a10.41,10.41,0,0,1-.12,1.39C192.8,171.57,192.85,171.1,192.89,170.63Z"/><path class="c" d="M313.36,195.29a9.74,9.74,0,0,1,3.26-6.51,8,8,0,0,1,10.39.14c6.6,5.84,5,20.14,2.21,27.31-2.51,6.43-13.64,15.86-19.48,7.48l-.28-.88c.71-4.77,1.44-9.52,2.13-14.31.47-3.25,1-6.49,1.35-9.76C313.06,197.6,313.17,196.42,313.36,195.29Z"/><path class="c" d="M187.21,195.29a9.74,9.74,0,0,0-3.26-6.51,8,8,0,0,0-10.39.14c-6.6,5.84-5,20.14-2.21,27.31,2.51,6.43,13.65,15.86,19.48,7.48l.29-.88c-.72-4.77-1.45-9.52-2.14-14.31-.47-3.25-1-6.49-1.35-9.76C187.51,197.6,187.4,196.42,187.21,195.29Z"/><path class="e" d="M364.12,449.5H135c0-.26,11.63-95.18,13.85-102.91,3-10.31,8-18,15.49-22.13,6.6-3.62,37.12-8,44.27-11.07,15.24,7.57,23,12.95,40.94,13.07,17.94-.12,25.69-5.5,40.94-13.07,7.15,3.07,37.67,7.45,44.26,11.07,7.48,4.11,12.52,11.82,15.5,22.13C352.49,354.32,364.12,449.24,364.12,449.5Z"/><path class="f" d="M751.49,276c7.25-47.36-19.34-59.12-19.34-59.12S734.09,103,644.71,103s-87.44,113.9-87.44,113.9S530.69,228.66,537.94,276c0,0-43,42.21,6,92.47h0a40.57,40.57,0,0,0,33.69,10.29l46.61-7.15a137,137,0,0,1,41-.06L715,379a34.88,34.88,0,0,0,30.54-10.55h0C794.5,318.23,751.49,276,751.49,276Z"/><path class="g" d="M694.11,315.28l-.9,18.42h-97.9V315.27s20.51-13.81,22.68-43.95h54.68C674.85,301.46,694.11,315.28,694.11,315.28Z"/><path class="h" d="M652.21,139.45c31.78,0,50,20.3,50,52.08v13.55c-.1,31.7-25.82,79.89-57.54,79.89s-57.44-48.19-57.54-79.89V191.53c0-15.71,15.1-11.13,31.81-16.7C641.49,167.33,653.11,144.8,652.21,139.45Z"/><path class="i" d="M730.43,345.28c-2.88-10-8.23-17.37-15.48-21.35-6.4-3.52-13.6-6.76-20.53-9.72a112,112,0,0,1-99.19,0c-6.93,3-14.13,6.2-20.52,9.72-7.26,4-12.61,11.36-15.49,21.35-2.16,7.48-26,99.46-26,99.72h223C756.2,444.74,732.59,352.76,730.43,345.28Z"/><rect class="j" x="308.21" y="270" width="283.59" height="173.5" rx="17.61"/><rect class="k" x="432.57" y="326.15" width="10.64" height="46.3" rx="5.32" transform="translate(-115.98 265.74) rotate(-30)"/><path class="a" d="M450.11,370.47a6.62,6.62,0,0,1-9-2.42l-17.84-30.89a6.62,6.62,0,0,1,11.47-6.62l17.83,30.89A6.62,6.62,0,0,1,450.11,370.47ZM427,330.38a4,4,0,0,0-1.47,5.48l17.83,30.89a4,4,0,1,0,7-4l-17.83-30.88A4,4,0,0,0,427,330.38Z"/><rect class="k" x="452.78" y="333.87" width="10.64" height="28.3" rx="5.32" transform="translate(-112.64 275.67) rotate(-30)"/><path class="a" d="M465.82,361.4a6.63,6.63,0,0,1-9-2.42L448,343.68a6.62,6.62,0,0,1,11.46-6.62l8.84,15.3A6.63,6.63,0,0,1,465.82,361.4Zm-14.15-24.51a4,4,0,0,0-1.47,5.49L459,357.67a4,4,0,0,0,7-4l-8.83-15.3A4,4,0,0,0,451.67,336.89Z"/><circle class="k" cx="444.68" cy="324.78" r="5.32"/><path class="a" d="M448,330.51a6.62,6.62,0,1,1,2.42-9A6.62,6.62,0,0,1,448,330.51Zm-5.32-9.21a4,4,0,1,0,5.49,1.47A4,4,0,0,0,442.67,321.3Z"/><path class="a" d="M472,364a6.31,6.31,0,0,0-6,0l-.17.1a6.69,6.69,0,0,0-2.74,3,6.75,6.75,0,0,0-6.7,3.87,6.69,6.69,0,0,0-3.95.88l-.47.29a6.17,6.17,0,0,0-2.66,5.15,6.56,6.56,0,0,0,2.85,5.41l.8.55.19.12.14.11,6.91,4.74a7,7,0,0,0,7.39.28l5.17-3a7,7,0,0,0,3.44-6.6l-.83-9.77A6.43,6.43,0,0,0,472,364Zm-10.34,22-6.91-4.74-.06,0-.13-.09-.13-.09-.81-.56a4,4,0,0,1-1.72-3.27,3.57,3.57,0,0,1,1.54-3,2.9,2.9,0,0,1,.29-.19,4.1,4.1,0,0,1,3.16-.4l.57.16,8.73,12.44A4.37,4.37,0,0,1,461.61,386Zm-3.24-13,.07-.28a4.14,4.14,0,0,1,5.1-2.94l.27.08,6.5,14-3.08,1.78Zm14.35-3.68.83,9.77a4.35,4.35,0,0,1-2.15,4.12L465,369.4l.15-.58a4.13,4.13,0,0,1,1.93-2.53l.11-.06a3.66,3.66,0,0,1,3.53,0A3.83,3.83,0,0,1,472.72,369.29Z"/><path class="k" d="M466.14,386.22a4.37,4.37,0,0,1-4.53-.23l-6.91-4.74-.06,0-.13-.09-.13-.09-.81-.56a4,4,0,0,1-1.72-3.27,3.57,3.57,0,0,1,1.54-3,2.9,2.9,0,0,1,.29-.19,4.1,4.1,0,0,1,3.16-.4l.57.16Z"/><path class="k" d="M463.81,369.83l6.5,14-3.08,1.78L458.37,373l.07-.28a4.14,4.14,0,0,1,5.1-2.94Z"/><path class="k" d="M472.72,369.29l.83,9.77a4.35,4.35,0,0,1-2.15,4.12L465,369.4l.15-.58a4.13,4.13,0,0,1,1.93-2.53l.11-.06a3.66,3.66,0,0,1,3.53,0A3.83,3.83,0,0,1,472.72,369.29Z"/><path class="a" d="M468.91,390.46l4.82-2.79a1.26,1.26,0,0,1,1.87,1.25l-.59,4.54a1.26,1.26,0,0,1-1.72,1l-4.24-1.76A1.25,1.25,0,0,1,468.91,390.46Z"/><rect class="l" x="731.68" y="411.11" width="119.17" height="16.63"/><rect class="m" x="731.68" y="427.44" width="119.17" height="16.63"/><line class="n" x1="746.82" y1="411.11" x2="746.82" y2="444.07"/><line class="o" x1="755.33" y1="411.11" x2="755.33" y2="444.07"/><line class="n" x1="835.91" y1="411.11" x2="835.91" y2="444.07"/><line class="o" x1="827.4" y1="411.11" x2="827.4" y2="444.07"/><path class="p" d="M725.43,377.05h0a21.64,21.64,0,0,1,.71,30.13l-.71.76H841.15V377.05Z"/><path class="q" d="M841.15,392.62v15.32H725.43l.71-.76a21.47,21.47,0,0,0,5.76-14.56Z"/><path class="r" d="M724,407.94H839.88A2.13,2.13,0,0,0,842,405.8V379.19a2.13,2.13,0,0,0-2.11-2.14H724"/><rect class="s" x="735.72" y="339.09" width="125.67" height="17.54"/><rect class="t" x="735.72" y="356.31" width="125.67" height="17.54"/><line class="u" x1="751.69" y1="339.09" x2="751.69" y2="373.85"/><line class="v" x1="760.66" y1="339.09" x2="760.66" y2="373.85"/><line class="u" x1="845.64" y1="339.09" x2="845.64" y2="373.85"/><line class="v" x1="836.67" y1="339.09" x2="836.67" y2="373.85"/><path class="p" d="M846.13,305.42h0a21.4,21.4,0,0,0-.7,29.8l.7.75H731.69V305.42Z"/><path class="q" d="M846.13,336H731.69V320.82h108a21.29,21.29,0,0,0,5.7,14.4Z"/><path class="w" d="M847.55,336H732.94a2.11,2.11,0,0,1-2.09-2.12V307.54a2.11,2.11,0,0,1,2.09-2.12H847.55"/><rect class="x" y="443.5" width="900" height="17" rx="8.25"/><path class="y" d="M127.06,327.8c.56,1.53,6.8,19.79-6,41.33-7.77,13.07-19.56,13.94-20.72,14-.67-.93-7.33-10.71-1.92-24.92C107.33,334.79,125.51,328.31,127.06,327.8Z"/><path class="z" d="M127.06,327.8l-26.71,55.32h0c1.16-.05,13-.92,20.72-14C133.86,347.59,127.62,329.33,127.06,327.8Z"/><path class="aa" d="M99.53,384.83l.82-1.71-.06-.09C99.78,384.22,99.53,384.83,99.53,384.83Z"/><path class="y" d="M51.21,327.8c-.57,1.53-6.8,19.79,6,41.33,7.76,13.07,19.56,13.94,20.71,14,.68-.93,7.34-10.71,1.93-24.92C70.93,334.79,52.76,328.31,51.21,327.8Z"/><path class="z" d="M79.84,358.2c-8.91-23.41-27.08-29.89-28.63-30.4C67,358,75.52,377.28,78,383,78.93,381.68,85.11,372.05,79.84,358.2Z"/><path class="y" d="M89.13,316.5c-1.9,1.85-23.91,24.15-20.41,64.67,2.13,24.61,18.76,34.2,20.41,35.1,1.66-.9,18.29-10.49,20.42-35.1C113.05,340.65,91,318.35,89.13,316.5Z"/><path class="z" d="M89.13,316.5v99.77c1.66-.9,18.29-10.49,20.42-35.1C113.05,340.65,91,318.35,89.13,316.5Z"/><path class="y" d="M136.26,378.52A79.62,79.62,0,0,0,139,351.06s-8,3.55-28,16.51C95.4,377.63,90.58,395.28,89.13,400h18.31A30,30,0,0,0,136.26,378.52Z"/><path class="z" d="M139,351.06s-20.59,40.69-49.86,49h18.31a30,30,0,0,0,28.82-21.52A79.62,79.62,0,0,0,139,351.06Z"/><path class="y" d="M42,378.52a79.78,79.78,0,0,1-2.74-27.46s8,3.55,28,16.51c15.58,10.06,20.4,27.71,21.84,32.47H70.82A30,30,0,0,1,42,378.52Z"/><path class="z" d="M89.13,400c-1.44-4.76-6.26-22.41-21.84-32.47-20-13-28-16.51-28-16.51S59.87,391.75,89.13,400Z"/><path class="ab" d="M102.37,443.5H75.89a14.59,14.59,0,0,1-14.33-11.91l-5.68-30.53h66.5l-5.67,30.53A14.59,14.59,0,0,1,102.37,443.5Z"/><path class="ac" d="M123.54,407.92H54.72a5,5,0,0,1-5-5.05h0a5,5,0,0,1,5-5.05h68.82a5,5,0,0,1,5,5.05h0A5,5,0,0,1,123.54,407.92Z"/></svg>