<svg xmlns="http://www.w3.org/2000/svg" viewBox="0 0 384 384"><defs><style>.cls-1{fill:#010101;}</style></defs><g id="Layer_2" data-name="Layer 2"><g id="Layer_1-2" data-name="Layer 1"><g id="Layer_2-2" data-name="Layer 2"><g id="Layer_1-2-2" data-name="Layer 1-2"><g id="Layer_2-2-2" data-name="Layer 2-2"><g id="Layer_1-2-2-2" data-name="Layer 1-2-2"><path class="cls-1" d="M177,0h30c.37.24.72.63,1.12.68,7,1,14.12,1.71,21.08,3.05C308.14,18.93,370.3,84.24,381.9,164c.63,4.34,1.4,8.67,2.1,13v30.75a11.74,11.74,0,0,0-.79,2.22c-.83,5.68-1.35,11.41-2.42,17A192.63,192.63,0,0,1,219.23,381.9c-4.34.64-8.65,1.4-13,2.1h-30a9.62,9.62,0,0,0-2.22-.79c-37.54-3.83-71.37-17.09-100.82-40.72C33.8,310.88,9.9,270.06,2.1,220c-.63-4.1-1.4-8.17-2.1-12.25v-31.5A12,12,0,0,0,.79,174c.82-5.67,1.34-11.41,2.42-17A192.65,192.65,0,0,1,164,2.1C168.31,1.45,172.65.7,177,0ZM361.11,180.68c-2.91-38.05-16.69-71.05-41.57-100.24L304.46,95.87,288.62,80.06,304.13,65C275,39.79,241.64,25.76,203.43,22.91V164.53l25.18-25.31L245,155.54,208,192.3l59,58.93-16.11,16.12-47.52-47.78V361.09c38.24-2.9,71.57-16.9,100.74-42.1-5.42-5.27-10.61-10.31-15.39-14.94L305,287.75l14.85,15.43c24.63-28.95,38.41-62,41.24-100H339.23v-22.5Zm-271.27-.1c2.84-22.67,5.63-44.92,8.44-67.33.52.17.29,0,0,0-18.12,0-36.25-.06-54.37.06a4.18,4.18,0,0,0-3,2c-2.2,4.32-4.3,8.72-6.13,13.21a162.76,162.76,0,0,0-11.91,52ZM22.94,203.4A169.79,169.79,0,0,0,40.8,268.63c1,2,2.33,2.15,4.16,2.14H96.34a15.5,15.5,0,0,0,1.92-.14c-2.82-22.46-5.6-44.71-8.42-67.2Zm157.61-22.78V113.47h-58a314.86,314.86,0,0,0-9,67.15Zm-67.09,22.8c.79,22.85,3.51,45.23,9.12,67.18h57.91V203.42ZM129.25,90.55h51.23V24.05C151.75,37.76,140.34,63.77,129.25,90.55Zm.21,202.8c1.14,3,2.13,5.77,3.27,8.49,7.14,17.14,15.78,33.33,29.54,46.23,5.29,4.95,11.15,9,18.27,11.31v-66ZM134.4,33.1c-22.14,4.3-65.87,36.76-77.63,57.5h48.89C112.41,70.2,121.19,50.68,134.4,33.1Zm-78,260.26c17.3,24.51,60.87,56.49,77.79,57.23-13.09-17.35-21.8-36.83-28.57-57.23Z"/></g></g></g></g></g></g></svg>