<?xml version="1.0" encoding="UTF-8" standalone="no"?>
<!DOCTYPE svg PUBLIC "-//W3C//DTD SVG 1.1//EN"
 "http://www.w3.org/Graphics/SVG/1.1/DTD/svg11.dtd">
<!-- Generated by graphviz version 3.0.0 (20220226.1711)
 -->
<!-- Title: dependencies Pages: 1 -->
<svg width="1779pt" height="174pt"
 viewBox="0.00 0.00 1779.00 173.80" xmlns="http://www.w3.org/2000/svg" xmlns:xlink="http://www.w3.org/1999/xlink">
<g id="graph0" class="graph" transform="scale(1 1) rotate(0) translate(4 169.8)">
<title>dependencies</title>
<polygon fill="white" stroke="transparent" points="-4,4 -4,-169.8 1775,-169.8 1775,4 -4,4"/>
<text text-anchor="middle" x="885.5" y="-8.2" font-family="sans-serif" font-size="14.00">dependencies</text>
<g id="clust1" class="cluster">
<title>cluster_AppModule</title>
<polygon fill="none" stroke="black" stroke-dasharray="1,5" points="8,-32.8 8,-157.8 1763,-157.8 1763,-32.8 8,-32.8"/>
</g>
<g id="clust3" class="cluster">
<title>cluster_AppModule_imports</title>
<polygon fill="none" stroke="black" points="305,-40.8 305,-92.8 1755,-92.8 1755,-40.8 305,-40.8"/>
</g>
<g id="clust6" class="cluster">
<title>cluster_AppModule_providers</title>
<polygon fill="none" stroke="black" points="16,-40.8 16,-92.8 297,-92.8 297,-40.8 16,-40.8"/>
</g>
<!-- ArticleModule -->
<g id="node1" class="node">
<title>ArticleModule</title>
<polygon fill="#8dd3c7" stroke="black" points="1747.42,-84.8 1744.42,-88.8 1723.42,-88.8 1720.42,-84.8 1648.58,-84.8 1648.58,-48.8 1747.42,-48.8 1747.42,-84.8"/>
<text text-anchor="middle" x="1698" y="-62.6" font-family="Times,serif" font-size="14.00">ArticleModule</text>
</g>
<!-- AppModule -->
<g id="node13" class="node">
<title>AppModule</title>
<polygon fill="#8dd3c7" stroke="black" points="940.66,-149.8 937.66,-153.8 916.66,-153.8 913.66,-149.8 857.34,-149.8 857.34,-113.8 940.66,-113.8 940.66,-149.8"/>
<text text-anchor="middle" x="899" y="-127.6" font-family="Times,serif" font-size="14.00">AppModule</text>
</g>
<!-- ArticleModule&#45;&gt;AppModule -->
<g id="edge1" class="edge">
<title>ArticleModule&#45;&gt;AppModule</title>
<path fill="none" stroke="black" d="M1698,-84.89C1698,-107.93 1698,-144.8 1698,-144.8 1698,-144.8 950.83,-144.8 950.83,-144.8"/>
<polygon fill="black" stroke="black" points="950.83,-141.3 940.83,-144.8 950.83,-148.3 950.83,-141.3"/>
</g>
<!-- AssetsModule -->
<g id="node2" class="node">
<title>AssetsModule</title>
<polygon fill="#8dd3c7" stroke="black" points="1631.11,-84.8 1628.11,-88.8 1607.11,-88.8 1604.11,-84.8 1534.89,-84.8 1534.89,-48.8 1631.11,-48.8 1631.11,-84.8"/>
<text text-anchor="middle" x="1583" y="-62.6" font-family="Times,serif" font-size="14.00">AssetsModule</text>
</g>
<!-- AssetsModule&#45;&gt;AppModule -->
<g id="edge2" class="edge">
<title>AssetsModule&#45;&gt;AppModule</title>
<path fill="none" stroke="black" d="M1583,-84.84C1583,-106.46 1583,-139.8 1583,-139.8 1583,-139.8 950.76,-139.8 950.76,-139.8"/>
<polygon fill="black" stroke="black" points="950.76,-136.3 940.76,-139.8 950.76,-143.3 950.76,-136.3"/>
</g>
<!-- AuthModule -->
<g id="node3" class="node">
<title>AuthModule</title>
<polygon fill="#8dd3c7" stroke="black" points="1516.55,-84.8 1513.55,-88.8 1492.55,-88.8 1489.55,-84.8 1429.45,-84.8 1429.45,-48.8 1516.55,-48.8 1516.55,-84.8"/>
<text text-anchor="middle" x="1473" y="-62.6" font-family="Times,serif" font-size="14.00">AuthModule</text>
</g>
<!-- AuthModule&#45;&gt;AppModule -->
<g id="edge3" class="edge">
<title>AuthModule&#45;&gt;AppModule</title>
<path fill="none" stroke="black" d="M1473,-85.02C1473,-105.17 1473,-134.8 1473,-134.8 1473,-134.8 950.74,-134.8 950.74,-134.8"/>
<polygon fill="black" stroke="black" points="950.74,-131.3 940.74,-134.8 950.74,-138.3 950.74,-131.3"/>
</g>
<!-- CourseModule -->
<g id="node4" class="node">
<title>CourseModule</title>
<polygon fill="#8dd3c7" stroke="black" points="1411.71,-84.8 1408.71,-88.8 1387.71,-88.8 1384.71,-84.8 1312.29,-84.8 1312.29,-48.8 1411.71,-48.8 1411.71,-84.8"/>
<text text-anchor="middle" x="1362" y="-62.6" font-family="Times,serif" font-size="14.00">CourseModule</text>
</g>
<!-- CourseModule&#45;&gt;AppModule -->
<g id="edge4" class="edge">
<title>CourseModule&#45;&gt;AppModule</title>
<path fill="none" stroke="black" d="M1362,-85.02C1362,-103.63 1362,-129.8 1362,-129.8 1362,-129.8 950.9,-129.8 950.9,-129.8"/>
<polygon fill="black" stroke="black" points="950.9,-126.3 940.9,-129.8 950.9,-133.3 950.9,-126.3"/>
</g>
<!-- FileUploadModule -->
<g id="node5" class="node">
<title>FileUploadModule</title>
<polygon fill="#8dd3c7" stroke="black" points="1294.05,-84.8 1291.05,-88.8 1270.05,-88.8 1267.05,-84.8 1171.95,-84.8 1171.95,-48.8 1294.05,-48.8 1294.05,-84.8"/>
<text text-anchor="middle" x="1233" y="-62.6" font-family="Times,serif" font-size="14.00">FileUploadModule</text>
</g>
<!-- FileUploadModule&#45;&gt;AppModule -->
<g id="edge5" class="edge">
<title>FileUploadModule&#45;&gt;AppModule</title>
<path fill="none" stroke="black" d="M1233,-84.83C1233,-101.86 1233,-124.8 1233,-124.8 1233,-124.8 950.96,-124.8 950.96,-124.8"/>
<polygon fill="black" stroke="black" points="950.96,-121.3 940.96,-124.8 950.96,-128.3 950.96,-121.3"/>
</g>
<!-- HelperModule -->
<g id="node6" class="node">
<title>HelperModule</title>
<polygon fill="#8dd3c7" stroke="black" points="1153.64,-84.8 1150.64,-88.8 1129.64,-88.8 1126.64,-84.8 1056.36,-84.8 1056.36,-48.8 1153.64,-48.8 1153.64,-84.8"/>
<text text-anchor="middle" x="1105" y="-62.6" font-family="Times,serif" font-size="14.00">HelperModule</text>
</g>
<!-- HelperModule&#45;&gt;AppModule -->
<g id="edge6" class="edge">
<title>HelperModule&#45;&gt;AppModule</title>
<path fill="none" stroke="black" d="M1105,-85.04C1105,-100.37 1105,-119.8 1105,-119.8 1105,-119.8 950.69,-119.8 950.69,-119.8"/>
<polygon fill="black" stroke="black" points="950.69,-116.3 940.69,-119.8 950.69,-123.3 950.69,-116.3"/>
</g>
<!-- SchoolAdminModule -->
<g id="node7" class="node">
<title>SchoolAdminModule</title>
<polygon fill="#8dd3c7" stroke="black" points="1038.83,-84.8 1035.83,-88.8 1014.83,-88.8 1011.83,-84.8 901.17,-84.8 901.17,-48.8 1038.83,-48.8 1038.83,-84.8"/>
<text text-anchor="middle" x="970" y="-62.6" font-family="Times,serif" font-size="14.00">SchoolAdminModule</text>
</g>
<!-- SchoolAdminModule&#45;&gt;AppModule -->
<g id="edge7" class="edge">
<title>SchoolAdminModule&#45;&gt;AppModule</title>
<path fill="none" stroke="black" d="M921.08,-84.91C921.08,-84.91 921.08,-103.79 921.08,-103.79"/>
<polygon fill="black" stroke="black" points="917.58,-103.79 921.08,-113.79 924.58,-103.79 917.58,-103.79"/>
</g>
<!-- StatisticsModule -->
<g id="node8" class="node">
<title>StatisticsModule</title>
<polygon fill="#8dd3c7" stroke="black" points="883.11,-84.8 880.11,-88.8 859.11,-88.8 856.11,-84.8 772.89,-84.8 772.89,-48.8 883.11,-48.8 883.11,-84.8"/>
<text text-anchor="middle" x="828" y="-62.6" font-family="Times,serif" font-size="14.00">StatisticsModule</text>
</g>
<!-- StatisticsModule&#45;&gt;AppModule -->
<g id="edge8" class="edge">
<title>StatisticsModule&#45;&gt;AppModule</title>
<path fill="none" stroke="black" d="M870.11,-84.91C870.11,-84.91 870.11,-103.79 870.11,-103.79"/>
<polygon fill="black" stroke="black" points="866.61,-103.79 870.11,-113.79 873.61,-103.79 866.61,-103.79"/>
</g>
<!-- StatusModule -->
<g id="node9" class="node">
<title>StatusModule</title>
<polygon fill="#8dd3c7" stroke="black" points="754.78,-84.8 751.78,-88.8 730.78,-88.8 727.78,-84.8 661.22,-84.8 661.22,-48.8 754.78,-48.8 754.78,-84.8"/>
<text text-anchor="middle" x="708" y="-62.6" font-family="Times,serif" font-size="14.00">StatusModule</text>
</g>
<!-- StatusModule&#45;&gt;AppModule -->
<g id="edge9" class="edge">
<title>StatusModule&#45;&gt;AppModule</title>
<path fill="none" stroke="black" d="M708,-85.04C708,-100.37 708,-119.8 708,-119.8 708,-119.8 847.08,-119.8 847.08,-119.8"/>
<polygon fill="black" stroke="black" points="847.08,-123.3 857.08,-119.8 847.08,-116.3 847.08,-123.3"/>
</g>
<!-- TimezoneModule -->
<g id="node10" class="node">
<title>TimezoneModule</title>
<polygon fill="#8dd3c7" stroke="black" points="642.53,-84.8 639.53,-88.8 618.53,-88.8 615.53,-84.8 527.47,-84.8 527.47,-48.8 642.53,-48.8 642.53,-84.8"/>
<text text-anchor="middle" x="585" y="-62.6" font-family="Times,serif" font-size="14.00">TimezoneModule</text>
</g>
<!-- TimezoneModule&#45;&gt;AppModule -->
<g id="edge10" class="edge">
<title>TimezoneModule&#45;&gt;AppModule</title>
<path fill="none" stroke="black" d="M585,-84.83C585,-101.86 585,-124.8 585,-124.8 585,-124.8 847.3,-124.8 847.3,-124.8"/>
<polygon fill="black" stroke="black" points="847.3,-128.3 857.3,-124.8 847.3,-121.3 847.3,-128.3"/>
</g>
<!-- UserModule -->
<g id="node11" class="node">
<title>UserModule</title>
<polygon fill="#8dd3c7" stroke="black" points="508.99,-84.8 505.99,-88.8 484.99,-88.8 481.99,-84.8 423.01,-84.8 423.01,-48.8 508.99,-48.8 508.99,-84.8"/>
<text text-anchor="middle" x="466" y="-62.6" font-family="Times,serif" font-size="14.00">UserModule</text>
</g>
<!-- UserModule&#45;&gt;AppModule -->
<g id="edge11" class="edge">
<title>UserModule&#45;&gt;AppModule</title>
<path fill="none" stroke="black" d="M466,-85.02C466,-103.63 466,-129.8 466,-129.8 466,-129.8 847.09,-129.8 847.09,-129.8"/>
<polygon fill="black" stroke="black" points="847.09,-133.3 857.09,-129.8 847.09,-126.3 847.09,-133.3"/>
</g>
<!-- UsersModule -->
<g id="node12" class="node">
<title>UsersModule</title>
<polygon fill="#8dd3c7" stroke="black" points="404.94,-84.8 401.94,-88.8 380.94,-88.8 377.94,-84.8 313.06,-84.8 313.06,-48.8 404.94,-48.8 404.94,-84.8"/>
<text text-anchor="middle" x="359" y="-62.6" font-family="Times,serif" font-size="14.00">UsersModule</text>
</g>
<!-- UsersModule&#45;&gt;AppModule -->
<g id="edge12" class="edge">
<title>UsersModule&#45;&gt;AppModule</title>
<path fill="none" stroke="black" d="M359,-85.02C359,-105.17 359,-134.8 359,-134.8 359,-134.8 847.08,-134.8 847.08,-134.8"/>
<polygon fill="black" stroke="black" points="847.08,-138.3 857.08,-134.8 847.08,-131.3 847.08,-138.3"/>
</g>
<!-- AppService -->
<g id="node14" class="node">
<title>AppService</title>
<ellipse fill="#fdb462" stroke="black" cx="232" cy="-66.8" rx="56.75" ry="18"/>
<text text-anchor="middle" x="232" y="-62.6" font-family="Times,serif" font-size="14.00">AppService</text>
</g>
<!-- AppService&#45;&gt;AppModule -->
<g id="edge13" class="edge">
<title>AppService&#45;&gt;AppModule</title>
<path fill="none" stroke="black" d="M232,-84.84C232,-106.46 232,-139.8 232,-139.8 232,-139.8 847.28,-139.8 847.28,-139.8"/>
<polygon fill="black" stroke="black" points="847.28,-143.3 857.28,-139.8 847.28,-136.3 847.28,-143.3"/>
</g>
<!-- ArticleService -->
<g id="node15" class="node">
<title>ArticleService</title>
<ellipse fill="#fdb462" stroke="black" cx="91" cy="-66.8" rx="66.61" ry="18"/>
<text text-anchor="middle" x="91" y="-62.6" font-family="Times,serif" font-size="14.00">ArticleService</text>
</g>
<!-- ArticleService&#45;&gt;AppModule -->
<g id="edge14" class="edge">
<title>ArticleService&#45;&gt;AppModule</title>
<path fill="none" stroke="black" d="M91,-84.89C91,-107.93 91,-144.8 91,-144.8 91,-144.8 847.26,-144.8 847.26,-144.8"/>
<polygon fill="black" stroke="black" points="847.26,-148.3 857.26,-144.8 847.26,-141.3 847.26,-148.3"/>
</g>
</g>
</svg>
