<svg width="297" height="119" viewBox="0 0 297 119" fill="none" xmlns="http://www.w3.org/2000/svg">
<g clip-path="url(#clip0_1_681)">
<path d="M9.50605 69.9947C6.99176 69.9963 4.57936 68.9997 2.79751 67.2234C1.01565 65.447 0.00966361 63.0357 0 60.5178V9.47691C3.75682e-08 6.95218 1.00153 4.53085 2.78426 2.7456C4.56699 0.960343 6.98489 -0.0426025 9.50605 -0.0426025C12.0272 -0.0426025 14.4451 0.960343 16.2278 2.7456C18.0106 4.53085 19.0121 6.95218 19.0121 9.47691V60.5178C19.0024 63.0357 17.9964 65.447 16.2146 67.2234C14.4327 68.9997 12.0203 69.9963 9.50605 69.9947ZM9.50605 3.72985C7.9802 3.72662 6.51547 4.3301 5.43368 5.40771C4.35189 6.48531 3.74153 7.9489 3.73669 9.47691V60.5178C3.73669 62.0534 4.34581 63.526 5.43006 64.6118C6.51431 65.6976 7.98486 66.3075 9.51822 66.3075C11.0516 66.3075 12.5221 65.6976 13.6064 64.6118C14.6906 63.526 15.2997 62.0534 15.2997 60.5178V9.47691C15.2974 8.71825 15.1455 7.96752 14.8528 7.26775C14.5601 6.56799 14.1324 5.93296 13.5942 5.39905C13.0559 4.86515 12.4177 4.44287 11.7162 4.15644C11.0147 3.87 10.2636 3.72504 9.50605 3.72985Z" fill="white"/>
<path d="M35.5594 69.9946C33.0446 69.9978 30.6313 69.0018 28.8491 67.2251C27.0669 65.4483 26.0614 63.0361 26.0533 60.5177V35.238C26.0533 32.7133 27.0549 30.292 28.8376 28.5067C30.6203 26.7215 33.0382 25.7185 35.5594 25.7185C38.0805 25.7185 40.4984 26.7215 42.2812 28.5067C44.0639 30.292 45.0654 32.7133 45.0654 35.238V60.5177C45.0558 63.0356 44.0498 65.4469 42.2679 67.2233C40.4861 68.9997 38.0737 69.9962 35.5594 69.9946ZM35.5594 29.491C34.0388 29.4958 32.5819 30.1028 31.5067 31.1796C30.4315 32.2563 29.8253 33.7153 29.8205 35.238V60.5177C29.8205 62.0533 30.4296 63.5259 31.5138 64.6117C32.5981 65.6975 34.0686 66.3075 35.602 66.3075C37.1353 66.3075 38.6059 65.6975 39.6901 64.6117C40.7744 63.5259 41.3835 62.0533 41.3835 60.5177V35.238C41.3812 34.4768 41.2283 33.7235 40.9337 33.0218C40.6391 32.32 40.2087 31.6836 39.6672 31.1493C39.1257 30.615 38.4839 30.1933 37.7789 29.9087C37.0739 29.6241 36.3195 29.4821 35.5594 29.491Z" fill="white"/>
<path d="M35.5594 18.9476C33.6893 18.9392 31.8636 18.3761 30.3128 17.3294C28.762 16.2827 27.5557 14.7993 26.8462 13.0665C26.1366 11.3338 25.9556 9.42936 26.3261 7.59368C26.6965 5.75801 27.6018 4.0734 28.9275 2.75255C30.2533 1.43169 31.9402 0.533819 33.7751 0.172286C35.6101 -0.189248 37.5109 0.001769 39.2375 0.72122C40.9641 1.44067 42.4392 2.6563 43.4764 4.21462C44.5137 5.77294 45.0666 7.60409 45.0654 9.47687C45.0574 11.9946 44.0517 14.4063 42.2693 16.182C40.487 17.9578 38.0736 18.9525 35.5594 18.9476ZM35.5594 3.71153C34.4254 3.71635 33.3182 4.0575 32.3777 4.69192C31.4371 5.32633 30.7053 6.22557 30.2747 7.27613C29.8441 8.32668 29.7339 9.48145 29.9581 10.5947C30.1822 11.7079 30.7307 12.7296 31.5343 13.5309C32.3379 14.3322 33.3605 14.8772 34.4731 15.0969C35.5856 15.3167 36.7383 15.2015 37.7855 14.7658C38.8327 14.3301 39.7276 13.5935 40.3571 12.6489C40.9867 11.7044 41.3227 10.5942 41.3227 9.45859C41.313 7.93482 40.7014 6.47684 39.6214 5.40335C38.5415 4.32986 37.081 3.72818 35.5594 3.72982V3.71153Z" fill="white"/>
<path d="M41.3471 77.5456C40.5587 76.2628 39.4639 75.1966 38.1613 74.4434C36.8587 73.6901 35.3894 73.2734 33.8858 73.2308H33.5998C31.6157 73.22 29.6768 73.8246 28.0495 74.9616C26.419 73.8279 24.4813 73.2203 22.4962 73.2203C20.5112 73.2203 18.5735 73.8279 16.9429 74.9616C15.3171 73.8203 13.3781 73.2114 11.3927 73.2186C11.131 73.2186 10.8632 73.2186 10.6015 73.2186C9.158 73.332 7.76452 73.7993 6.54399 74.5795C5.32346 75.3596 4.31338 76.4285 3.60282 77.6919C2.83783 79.011 2.40633 80.4973 2.34587 82.0215C2.28541 83.5458 2.59783 85.0617 3.25593 86.4374L3.86451 87.699L4.01057 87.9793C4.01057 88.0585 4.07752 88.1317 4.11403 88.2109L9.30523 99.0346C10.1175 100.725 11.3872 102.153 12.9698 103.156C14.5525 104.159 16.3845 104.697 18.2575 104.709H26.8567C28.7433 104.705 30.5905 104.168 32.1853 103.159C33.7801 102.15 35.0574 100.709 35.8698 99.0041L41.8461 86.2972C42.499 84.9127 42.7953 83.3865 42.7082 81.8579C42.621 80.3292 42.1531 78.8467 41.3471 77.5456ZM12.6707 97.4622L7.47949 86.6446C7.47949 86.6081 7.47949 86.5776 7.43689 86.541L7.33952 86.3399L7.23606 86.1266L6.62748 84.865C6.23192 84.0342 6.04459 83.1194 6.0817 82.1997C6.11882 81.2801 6.37926 80.3834 6.84048 79.5873C7.25208 78.8505 7.83804 78.2263 8.54687 77.7694C9.2557 77.3124 10.0657 77.0368 10.9058 76.9666C11.064 76.9666 11.2284 76.9666 11.3927 76.9666C12.1774 76.9641 12.9546 77.1187 13.6789 77.4211C14.4031 77.7236 15.0597 78.1679 15.6101 78.7279L16.2187 79.3374L18.1358 101.003C16.9878 100.973 15.8702 100.627 14.906 100.002C13.9419 99.3775 13.1684 98.4986 12.6707 97.4622ZM17.9897 79.0022L18.2757 78.7097C18.8284 78.1519 19.4859 77.7092 20.2103 77.4071C20.9347 77.105 21.7116 76.9494 22.4962 76.9494C23.2809 76.9494 24.0578 77.105 24.7822 77.4071C25.5066 77.7092 26.164 78.1519 26.7168 78.7097L27.0028 79.0022L25.0553 100.985H19.9372L17.9897 79.0022ZM38.4624 84.7127L32.4861 97.4196C31.9782 98.4831 31.1812 99.3816 30.1866 100.012C29.192 100.643 28.04 100.98 26.8628 100.985L28.7798 79.313L29.3884 78.7036C29.9388 78.1435 30.5954 77.6992 31.3197 77.3967C32.0439 77.0943 32.8212 76.9398 33.6059 76.9423H33.7824C34.6672 76.9629 35.5326 77.2065 36.2985 77.6507C37.0643 78.0949 37.706 78.7253 38.1642 79.4837C38.6454 80.2612 38.9247 81.1469 38.9768 82.0602C39.0289 82.9735 38.852 83.8853 38.4624 84.7127Z" fill="white"/>
<path d="M18.5314 108.219H26.5281C26.863 108.217 27.1917 108.309 27.4769 108.485C27.7621 108.661 27.9923 108.913 28.1413 109.213C28.2903 109.514 28.3522 109.85 28.3198 110.184C28.2874 110.518 28.1622 110.836 27.9583 111.102L23.9599 116.312C23.7889 116.527 23.5718 116.7 23.3247 116.819C23.0777 116.938 22.807 117 22.5328 117C22.2586 117 21.9879 116.938 21.7408 116.819C21.4938 116.7 21.2767 116.527 21.1057 116.312L17.1073 111.102C16.9037 110.836 16.7785 110.519 16.7459 110.185C16.7134 109.852 16.7747 109.516 16.9229 109.216C17.0712 108.916 17.3005 108.664 17.5848 108.487C17.8691 108.311 18.197 108.218 18.5314 108.219Z" fill="white"/>
<path d="M74.8556 44.3127C72.7135 43.4242 70.8595 41.9579 69.5001 40.0771C68.1863 38.2065 67.5039 35.9643 67.5526 33.6779H74.9773C75.0895 35.404 75.8636 37.0199 77.1378 38.1878C78.4158 39.366 80.2111 39.9552 82.5237 39.9552C84.9175 39.9552 86.7838 39.3762 88.1227 38.2183C88.7728 37.6713 89.291 36.9844 89.6388 36.2087C89.9866 35.4331 90.1548 34.5888 90.131 33.7388C90.1897 32.4668 89.7533 31.2215 88.9138 30.265C88.0484 29.3489 86.9873 28.6406 85.8101 28.1929C84.1278 27.5661 82.4107 27.037 80.6675 26.6083C78.3848 26.0317 76.1473 25.2882 73.9731 24.3839C72.2253 23.6162 70.7054 22.409 69.5609 20.8796C68.3438 19.295 67.7352 17.1823 67.7352 14.5414C67.6862 12.2728 68.3225 10.0424 69.5609 8.1422C70.8238 6.27564 72.5993 4.81513 74.673 3.93704C77.0778 2.91915 79.67 2.42074 82.2803 2.47437C86.3781 2.47437 89.7354 3.50027 92.3523 5.55206C93.6382 6.56793 94.6891 7.85059 95.4329 9.31187C96.1767 10.7731 96.5957 12.3784 96.6611 14.0172H88.9929C88.9251 13.2401 88.695 12.4859 88.3176 11.8035C87.9402 11.1211 87.4239 10.5257 86.802 10.0559C85.2854 8.9008 83.4106 8.31816 81.5074 8.41035C79.7565 8.33228 78.0337 8.87142 76.6387 9.93396C76.0037 10.4668 75.5023 11.1414 75.1746 11.9034C74.847 12.6654 74.7023 13.4938 74.7521 14.322C74.7346 14.9093 74.8331 15.4943 75.042 16.0433C75.2509 16.5924 75.566 17.0948 75.9693 17.5215C76.8088 18.3897 77.8262 19.0654 78.9513 19.5022C80.5835 20.1245 82.2496 20.6536 83.9417 21.0868C86.2747 21.6991 88.5623 22.4729 90.7882 23.4027C92.5672 24.1892 94.117 25.4161 95.2918 26.9679C96.5089 28.5728 97.1175 30.716 97.1175 33.3976C97.1165 35.551 96.5158 37.6615 95.383 39.492C94.1569 41.4642 92.4083 43.0571 90.3318 44.0933C87.9047 45.3 85.2205 45.8961 82.5115 45.8302C79.8821 45.8614 77.2749 45.3446 74.8556 44.3127Z" fill="white"/>
<path d="M105.151 19.4474C106.472 16.9194 108.489 14.8235 110.963 13.4078C113.564 11.9535 116.504 11.2174 119.483 11.2747C123.54 11.2747 126.897 12.2397 129.555 14.1696C132.272 16.195 134.181 19.1221 134.941 22.4275H127.455C126.915 20.8522 125.893 19.4874 124.534 18.5271C123.036 17.5478 121.271 17.0581 119.483 17.1254C118.199 17.0697 116.919 17.3099 115.743 17.8277C114.566 18.3454 113.524 19.1268 112.697 20.1117C111.001 22.1431 110.153 24.9588 110.153 28.5585C110.153 32.1583 110.995 34.9821 112.679 37.0298C113.499 38.0275 114.538 38.8218 115.715 39.3504C116.892 39.8791 118.175 40.1278 119.465 40.077C123.481 40.077 126.139 38.3097 127.437 34.7749H134.923C134.059 38.025 132.13 40.8903 129.445 42.911C126.768 44.9221 123.441 45.9379 119.465 45.9582C116.482 46.0173 113.539 45.2698 110.944 43.7946C108.471 42.3539 106.456 40.2408 105.132 37.7002C103.682 34.8763 102.96 31.7335 103.033 28.5585C102.97 25.3923 103.698 22.2605 105.151 19.4474Z" fill="white"/>
<path d="M166.07 12.8958C168.099 14.0149 169.751 15.7117 170.817 17.7713C172.038 20.194 172.634 22.8841 172.551 25.5966V45.4035H165.668V26.6082C165.668 23.6057 164.92 21.3 163.422 19.6911C161.925 18.0821 159.876 17.2695 157.276 17.2533C154.675 17.2533 152.616 18.0659 151.099 19.6911C149.581 21.3162 148.821 23.622 148.816 26.6082V45.3791H141.879V0.280273H148.816V15.6992C150.021 14.2571 151.555 13.128 153.29 12.4082C155.168 11.62 157.187 11.2259 159.223 11.2503C161.608 11.2086 163.964 11.7748 166.07 12.8958Z" fill="white"/>
<path d="M187.334 43.7642C184.795 42.3383 182.707 40.2265 181.309 37.6697C179.799 34.8642 179.044 31.714 179.118 28.5281C179.065 25.3753 179.837 22.2636 181.357 19.5022C182.791 16.9309 184.922 14.8181 187.504 13.4078C190.192 12.0082 193.177 11.2776 196.207 11.2776C199.236 11.2776 202.221 12.0082 204.909 13.4078C207.494 14.8146 209.626 16.9282 211.056 19.5022C212.593 22.2775 213.37 25.4102 213.308 28.5829C213.37 31.7634 212.571 34.9014 210.995 37.6636C209.506 40.2531 207.325 42.3745 204.696 43.7885C201.995 45.2435 198.969 45.988 195.902 45.9521C192.904 45.9854 189.95 45.231 187.334 43.7642ZM200.935 38.6144C202.539 37.7193 203.858 36.3882 204.739 34.7749C205.762 32.867 206.266 30.7231 206.2 28.5585C206.269 26.4106 205.787 24.2808 204.8 22.3727C203.954 20.7717 202.665 19.4491 201.087 18.5637C199.562 17.7137 197.843 17.2728 196.097 17.2838C194.361 17.2714 192.651 17.7125 191.137 18.5637C189.584 19.4507 188.324 20.7752 187.516 22.3727C186.573 24.2944 186.113 26.4181 186.177 28.5585C186.177 32.1705 187.1 34.9638 188.946 36.9384C189.831 37.8995 190.91 38.6604 192.112 39.1701C193.313 39.6799 194.61 39.9267 195.915 39.8942C197.67 39.9028 199.398 39.4623 200.935 38.6144Z" fill="white"/>
<path d="M226.161 43.7642C223.622 42.3383 221.535 40.2265 220.136 37.6698C218.627 34.8643 217.872 31.714 217.945 28.5281C217.887 25.3557 218.663 22.2238 220.197 19.4474C221.631 16.876 223.762 14.7633 226.344 13.353C229.032 11.9534 232.017 11.2228 235.046 11.2228C238.076 11.2228 241.061 11.9534 243.749 13.353C246.334 14.7597 248.465 16.8734 249.896 19.4474C251.432 22.2227 252.209 25.3554 252.148 28.5281C252.207 31.7083 251.408 34.8454 249.835 37.6088C248.346 40.1983 246.165 42.3197 243.536 43.7337C240.835 45.1882 237.809 45.9326 234.742 45.8972C231.745 45.9495 228.786 45.214 226.161 43.7642ZM239.781 38.6144C241.385 37.7193 242.704 36.3883 243.585 34.7749C244.608 32.867 245.112 30.7231 245.045 28.5586C245.115 26.4107 244.633 24.2808 243.646 22.3727C242.8 20.7717 241.511 19.4491 239.933 18.5637C238.408 17.7137 236.689 17.2728 234.943 17.2839C233.207 17.2714 231.497 17.7126 229.983 18.5637C228.43 19.4508 227.17 20.7753 226.362 22.3727C225.419 24.2944 224.959 26.4181 225.023 28.5586C225.023 32.1705 225.946 34.9638 227.792 36.9384C228.675 37.9014 229.754 38.6636 230.956 39.1735C232.158 39.6834 233.455 39.9292 234.76 39.8942C236.516 39.9028 238.244 39.4623 239.781 38.6144Z" fill="white"/>
<path d="M265.95 0.280273V45.3791H259.012V0.280273H265.95Z" fill="white"/>
<path d="M78.0384 75.7294V101.326C78.0384 103.886 78.6672 105.856 79.925 107.238C81.1827 108.619 83.0287 109.31 85.4631 109.31C87.8974 109.31 89.7637 108.619 91.062 107.238C92.3603 105.856 93.0095 103.886 93.0095 101.326V75.7294H103.416V101.265C103.416 105.088 102.605 108.318 100.982 110.955C99.4224 113.537 97.1502 115.611 94.4396 116.928C91.5818 118.295 88.4474 118.983 85.2805 118.939C82.1549 118.995 79.0597 118.316 76.243 116.958C73.5921 115.646 71.3972 113.565 69.9442 110.986C68.3984 108.32 67.6276 105.07 67.6316 101.235V75.699L78.0384 75.7294Z" fill="white"/>
<path d="M129.628 109.7V118.537H124.333C120.56 118.537 117.619 117.613 115.509 115.764C113.399 113.915 112.344 110.899 112.344 106.714V93.184H108.206V84.5299H112.344V76.2415H122.751V84.5299H129.567V93.184H122.751V106.836C122.713 107.232 122.758 107.632 122.884 108.01C123.01 108.388 123.213 108.735 123.481 109.03C124.184 109.542 125.05 109.781 125.916 109.7H129.628Z" fill="white"/>
<path d="M136.188 79.3557C135.629 78.8547 135.185 78.2386 134.885 77.5496C134.586 76.8607 134.439 76.1151 134.454 75.3639C134.434 74.603 134.579 73.8469 134.878 73.1474C135.178 72.4478 135.625 71.8214 136.188 71.3111C137.409 70.208 139.013 69.6281 140.655 69.696C142.281 69.6348 143.865 70.2147 145.068 71.3111C145.631 71.8214 146.078 72.4478 146.378 73.1474C146.677 73.8469 146.822 74.603 146.802 75.3639C146.817 76.1151 146.67 76.8607 146.371 77.5496C146.071 78.2386 145.627 78.8547 145.068 79.3557C143.865 80.4521 142.281 81.032 140.655 80.9707C139.013 81.0387 137.409 80.4588 136.188 79.3557ZM145.828 84.5055V118.512H135.428V84.5055H145.828Z" fill="white"/>
<path d="M163.781 73.4136V118.512H153.363V73.4136H163.781Z" fill="white"/>
<path d="M172.089 79.3557C171.53 78.8539 171.087 78.2376 170.787 77.5488C170.488 76.8601 170.34 76.1148 170.354 75.3638C170.336 74.6032 170.481 73.8476 170.781 73.1483C171.08 72.449 171.526 71.8224 172.089 71.311C173.312 70.2081 174.917 69.6284 176.562 69.696C178.187 69.6347 179.771 70.2146 180.974 71.311C181.536 71.8224 181.983 72.449 182.282 73.1483C182.581 73.8476 182.727 74.6032 182.708 75.3638C182.722 76.1148 182.574 76.8601 182.275 77.5488C181.976 78.2376 181.532 78.8539 180.974 79.3557C179.771 80.452 178.187 81.032 176.562 80.9707C174.917 81.0382 173.312 80.4586 172.089 79.3557ZM181.735 84.5055V118.512H171.328V84.5055H181.735Z" fill="white"/>
<path d="M208.208 109.7V118.537H202.913C199.14 118.537 196.199 117.613 194.089 115.764C191.979 113.915 190.924 110.899 190.924 106.714V93.184H186.786V84.5299H190.924V76.2415H201.331V84.5299H208.135V93.184H201.319V106.836C201.281 107.232 201.326 107.632 201.452 108.01C201.578 108.388 201.781 108.735 202.049 109.03C202.753 109.541 203.618 109.779 204.483 109.7H208.208Z" fill="white"/>
<path d="M214.75 79.3557C214.192 78.8539 213.748 78.2376 213.449 77.5488C213.15 76.8601 213.002 76.1148 213.016 75.3638C212.997 74.6032 213.143 73.8476 213.442 73.1483C213.742 72.449 214.188 71.8224 214.75 71.311C215.973 70.2081 217.579 69.6284 219.223 69.696C220.848 69.6347 222.433 70.2146 223.635 71.311C224.198 71.8224 224.644 72.449 224.943 73.1483C225.243 73.8476 225.388 74.6032 225.37 75.3638C225.384 76.1148 225.236 76.8601 224.937 77.5488C224.637 78.2376 224.194 78.8539 223.635 79.3557C222.433 80.452 220.848 81.032 219.223 80.9707C217.579 81.0382 215.973 80.4586 214.75 79.3557ZM224.396 84.5055V118.512H213.989V84.5055H224.396Z" fill="white"/>
<path d="M263.772 104.008H240.219C240.382 106.125 241.061 107.75 242.258 108.883C243.454 109.998 245.037 110.599 246.67 110.559C249.267 110.559 251.072 109.462 252.087 107.268H263.163C262.607 109.486 261.557 111.549 260.09 113.302C258.579 115.112 256.674 116.55 254.521 117.507C252.165 118.55 249.611 119.07 247.036 119.03C243.941 119.085 240.884 118.351 238.15 116.897C235.577 115.497 233.463 113.38 232.064 110.803C230.553 107.954 229.798 104.764 229.874 101.539C229.801 98.3184 230.544 95.1314 232.034 92.2759C233.424 89.6923 235.54 87.5735 238.12 86.1815C240.873 84.7228 243.952 83.9888 247.066 84.0484C250.115 83.9904 253.129 84.703 255.83 86.1205C258.355 87.4709 260.437 89.5239 261.824 92.0321C263.312 94.7788 264.056 97.8671 263.984 100.991C263.971 102 263.9 103.007 263.772 104.008ZM253.304 98.218C253.339 97.4153 253.192 96.6151 252.876 95.8766C252.56 95.1382 252.082 94.4804 251.478 93.9519C250.205 92.8763 248.579 92.3117 246.914 92.3673C245.307 92.3193 243.738 92.8611 242.502 93.8909C241.253 95.0093 240.462 96.5505 240.28 98.218H253.304Z" fill="white"/>
<path d="M275.334 117.476C273.18 116.581 271.293 115.143 269.857 113.302C268.538 111.587 267.754 109.519 267.605 107.36H277.89C277.942 107.927 278.116 108.477 278.4 108.972C278.683 109.466 279.07 109.893 279.534 110.224C280.577 110.977 281.839 111.363 283.124 111.321C284.183 111.385 285.236 111.119 286.137 110.559C286.467 110.346 286.738 110.053 286.924 109.706C287.11 109.36 287.206 108.972 287.202 108.579C287.204 108.104 287.058 107.641 286.786 107.254C286.513 106.866 286.127 106.573 285.68 106.415C284.085 105.756 282.435 105.236 280.751 104.861C278.684 104.401 276.65 103.801 274.665 103.063C273.041 102.43 271.598 101.404 270.466 100.077C269.289 98.7157 268.701 96.8772 268.701 94.5613C268.687 92.6613 269.25 90.8019 270.314 89.2287C271.502 87.5329 273.149 86.2116 275.061 85.4197C277.42 84.4349 279.96 83.9574 282.516 84.0179C286.776 84.0179 290.133 85.0743 292.588 87.187C295.065 89.3139 296.597 92.3392 296.848 95.5974H287.232C287.174 95.05 287.006 94.5198 286.74 94.0383C286.473 93.5568 286.113 93.1337 285.68 92.7939C284.686 92.0649 283.473 91.6992 282.242 91.7579C281.259 91.6945 280.28 91.9395 279.442 92.4587C279.133 92.672 278.882 92.9594 278.712 93.2947C278.542 93.63 278.458 94.0026 278.469 94.3785C278.472 94.8594 278.622 95.3277 278.9 95.7202C279.177 96.1126 279.568 96.4101 280.021 96.5725C281.579 97.2234 283.201 97.7135 284.859 98.0351C286.944 98.5509 288.997 99.1919 291.005 99.9549C292.625 100.609 294.058 101.656 295.174 103.002C296.391 104.404 297 106.283 297 108.639C297.027 110.551 296.44 112.42 295.326 113.972C294.098 115.626 292.433 116.903 290.519 117.659C288.21 118.596 285.736 119.052 283.246 119C280.532 119.05 277.837 118.531 275.334 117.476Z" fill="white"/>
</g>
<defs>
<clipPath id="clip0_1_681">
<rect width="297" height="119" fill="white"/>
</clipPath>
</defs>
</svg>
