<svg width="115" height="164" viewBox="0 0 115 164" fill="none" xmlns="http://www.w3.org/2000/svg">
<g clip-path="url(#clip0_1_1099)">
<path d="M59.3169 112.296C56.0666 114.176 52.2066 114.684 48.5839 113.709C44.9611 112.734 41.8714 110.354 39.9926 107.093L1.8918 40.7904C0.127656 37.5327 -0.299128 33.7113 0.702552 30.1419C1.70423 26.5724 4.05502 23.5378 7.25308 21.6857C10.4511 19.8336 14.2431 19.3109 17.8195 20.2291C21.3959 21.1473 24.4734 23.4337 26.3949 26.6002L64.4872 92.9028C66.3537 96.1651 66.8577 100.038 65.8886 103.672C64.9196 107.307 62.5566 110.408 59.3169 112.296V112.296ZM9.84409 26.2304C7.87457 27.3752 6.43763 29.2584 5.84865 31.4665C5.25967 33.6746 5.56677 36.0273 6.70255 38.0082L44.7948 104.311C45.3582 105.291 46.1084 106.151 47.0025 106.84C47.8966 107.53 48.9171 108.035 50.0056 108.328C51.0942 108.621 52.2296 108.696 53.3469 108.548C54.4643 108.401 55.5417 108.033 56.5178 107.467C57.4938 106.901 58.3493 106.147 59.0354 105.249C59.7214 104.351 60.2247 103.326 60.5164 102.232C60.8082 101.138 60.8826 99.9975 60.7355 98.8749C60.5885 97.7523 60.2228 96.6698 59.6593 95.6892L21.5671 29.3866C20.4268 27.4087 18.5524 25.9658 16.3549 25.3742C14.1574 24.7825 11.816 25.0904 9.84409 26.2304V26.2304Z" fill="white"/>
<path d="M92.8765 92.821C89.6259 94.7001 85.7664 95.2076 82.1439 94.2322C78.5215 93.2569 75.4318 90.8783 73.5522 87.6179L54.6987 54.7784C53.7164 53.1597 53.0664 51.36 52.7869 49.4852C52.5074 47.6103 52.6041 45.6983 53.0713 43.8615C53.5384 42.0248 54.3667 40.3005 55.5072 38.7903C56.6477 37.28 58.0774 36.0142 59.7122 35.0675C61.3469 34.1208 63.1537 33.5122 65.0261 33.2777C66.8986 33.0431 68.7988 33.1873 70.6149 33.7017C72.431 34.2162 74.1263 35.0904 75.601 36.2731C77.0757 37.4558 78.3 38.9229 79.2018 40.5881L98.0725 73.4277C99.9346 76.6936 100.433 80.5676 99.4596 84.2021C98.4858 87.8365 96.1188 90.9355 92.8765 92.821V92.821ZM62.6595 40.2054C60.69 41.3503 59.2531 43.2334 58.6641 45.4416C58.0751 47.6497 58.3822 50.0024 59.518 51.9833L78.3886 84.8229C79.5639 86.7218 81.4276 88.0878 83.5863 88.6323C85.745 89.1769 88.0298 88.8575 89.9586 87.7416C91.8874 86.6257 93.3091 84.8005 93.9238 82.6514C94.5385 80.5022 94.298 78.1972 93.2531 76.2228L74.3825 43.3832C73.245 41.4025 71.3722 39.9558 69.1747 39.3601C66.9772 38.7645 64.6343 39.0685 62.6595 40.2054V40.2054Z" fill="white"/>
<path d="M54.7843 26.5185C52.3613 27.9236 49.578 28.5753 46.7864 28.3912C43.9948 28.2071 41.3202 27.1954 39.1009 25.4842C36.8815 23.773 35.217 21.439 34.3179 18.7774C33.4188 16.1158 33.3255 13.2461 34.0497 10.5312C34.7739 7.81624 36.2831 5.37803 38.3865 3.52485C40.4899 1.67167 43.093 0.48673 45.8667 0.119874C48.6404 -0.246982 51.4601 0.220718 53.9692 1.46383C56.4783 2.70695 58.5642 4.66965 59.9631 7.10376C61.8334 10.3696 62.3386 14.2472 61.3678 17.8866C60.397 21.5259 58.0295 24.6301 54.7843 26.5185V26.5185ZM43.4208 6.73826C41.9523 7.59229 40.7688 8.86454 40.0198 10.3942C39.2708 11.9238 38.99 13.6423 39.2129 15.3322C39.4357 17.0222 40.1522 18.6078 41.2718 19.8888C42.3914 21.1697 43.8638 22.0884 45.503 22.5289C47.1422 22.9693 48.8745 22.9116 50.4811 22.3631C52.0876 21.8146 53.4963 20.7999 54.529 19.4472C55.5617 18.0946 56.1721 16.4648 56.2831 14.7637C56.394 13.0626 56.0005 11.3667 55.1524 9.8902C54.0114 7.91293 52.1364 6.47108 49.9387 5.88099C47.741 5.2909 45.4 5.60074 43.4294 6.74256L43.4208 6.73826Z" fill="white"/>
<path d="M105.991 98.3036C104.022 97.226 101.816 96.6589 99.5743 96.6536C97.3322 96.6483 95.1243 97.2051 93.1504 98.2735C93.0263 98.3423 92.9022 98.4068 92.7824 98.4799C90.2171 99.9572 88.1725 102.199 86.9316 104.896C83.986 104.636 81.0321 105.293 78.4714 106.779C75.9107 108.264 73.8674 110.506 72.6192 113.199C69.6742 112.927 66.718 113.584 64.1618 115.078C63.8194 115.276 63.4899 115.508 63.1646 115.71C61.3873 116.942 59.9391 118.595 58.9479 120.522C57.9566 122.449 57.4528 124.592 57.4807 126.761C57.4836 129.048 58.0395 131.299 59.1005 133.321C60.1614 135.344 61.6957 137.077 63.5712 138.372L65.2832 139.554C65.4116 139.644 65.5486 139.73 65.6812 139.816C65.8139 139.902 65.8781 139.963 65.9851 140.036L80.7555 150.214C83.0649 151.792 85.7695 152.687 88.5606 152.795C91.3518 152.903 94.1169 152.22 96.5402 150.825L107.591 144.413C110.019 142.997 111.999 140.919 113.3 138.42C114.602 135.921 115.174 133.103 114.949 130.292L113.172 109.32C112.983 107.028 112.227 104.82 110.973 102.897C109.718 100.973 108.006 99.394 105.991 98.3036V98.3036ZM83.8885 145.613L69.1352 135.452L69.0025 135.353L68.7286 135.159C68.6302 135.099 68.536 135.035 68.4376 134.966L66.7256 133.783C65.5945 132.998 64.67 131.949 64.0311 130.726C63.3923 129.503 63.0582 128.143 63.0576 126.761C63.0347 125.498 63.3223 124.248 63.8949 123.123C64.4675 121.998 65.3075 121.032 66.3404 120.311C66.5415 120.178 66.747 120.045 66.9567 119.92C67.9686 119.332 69.0874 118.953 70.2472 118.805C71.407 118.657 72.5846 118.744 73.7106 119.06L74.9347 119.4L93.5784 146.107C92.0744 146.929 90.3739 147.317 88.6642 147.23C86.9545 147.143 85.3019 146.583 83.8885 145.613ZM76.9634 117.662L77.1132 117.065C77.408 115.928 77.9247 114.862 78.6331 113.929C79.3415 112.995 80.2276 112.211 81.2399 111.624C82.2522 111.038 83.3704 110.659 84.5297 110.51C85.6891 110.361 86.8663 110.445 87.993 110.757L88.5837 110.92L102.477 140.93L95.8811 144.757L76.9634 117.662ZM107.613 109.772L109.393 130.748C109.536 132.505 109.18 134.266 108.368 135.829C107.557 137.392 106.321 138.692 104.805 139.58L91.1089 110L91.4299 108.766C91.7207 107.628 92.2357 106.56 92.9444 105.626C93.653 104.692 94.541 103.91 95.5558 103.326L95.7827 103.197C96.9422 102.562 98.2429 102.231 99.5636 102.237C100.884 102.242 102.182 102.583 103.337 103.227C104.537 103.872 105.558 104.809 106.307 105.951C107.056 107.093 107.509 108.405 107.625 109.768L107.613 109.772Z" fill="white"/>
<path d="M99.4893 155.206L109.796 149.212C110.228 148.962 110.721 148.838 111.219 148.854C111.718 148.871 112.202 149.027 112.617 149.305C113.032 149.583 113.361 149.972 113.567 150.428C113.774 150.885 113.849 151.39 113.785 151.887L112.501 161.644C112.45 162.055 112.305 162.448 112.078 162.794C111.85 163.139 111.547 163.427 111.191 163.635C110.834 163.843 110.435 163.966 110.024 163.993C109.612 164.021 109.2 163.953 108.82 163.794L99.776 160.014C99.3158 159.82 98.9188 159.5 98.6301 159.091C98.3414 158.682 98.1726 158.2 98.1427 157.7C98.1129 157.199 98.2232 156.7 98.4612 156.26C98.6992 155.819 99.0553 155.454 99.4893 155.206V155.206Z" fill="white"/>
</g>
<defs>
<clipPath id="clip0_1_1099">
<rect width="115" height="164" fill="white"/>
</clipPath>
</defs>
</svg>
