<svg width="249" height="164" viewBox="0 0 249 164" fill="none" xmlns="http://www.w3.org/2000/svg">
<g clip-path="url(#clip0_1_1019)">
<path d="M103.886 135.682L102.622 135.795L104.21 153.843L105.474 153.731L103.886 135.682Z" fill="black"/>
<path d="M110.481 135.682L108.891 153.73L110.154 153.843L111.745 135.795L110.481 135.682Z" fill="black"/>
<path d="M104.374 157.728H110.037C110.274 157.729 110.506 157.795 110.707 157.921C110.908 158.047 111.07 158.226 111.176 158.439C111.281 158.652 111.325 158.891 111.303 159.128C111.281 159.364 111.194 159.591 111.052 159.781L108.22 163.504C108.1 163.655 107.948 163.777 107.775 163.86C107.601 163.944 107.411 163.988 107.219 163.988C107.026 163.988 106.837 163.944 106.663 163.86C106.49 163.777 106.337 163.655 106.217 163.504L103.386 159.781C103.242 159.593 103.153 159.369 103.129 159.134C103.105 158.898 103.146 158.661 103.249 158.447C103.351 158.234 103.511 158.054 103.71 157.927C103.909 157.8 104.139 157.731 104.374 157.728Z" fill="black"/>
<path d="M8.01286 48.4661C5.65949 47.477 3.62537 45.8515 2.13675 43.7704C0.705012 41.7193 -0.043035 39.2652 -1.30608e-05 36.7604H8.14641C8.26949 38.6603 9.11883 40.4389 10.5169 41.7244C11.9191 43.0169 13.889 43.6653 16.4264 43.6698C19.0528 43.6698 21.1005 43.0325 22.5696 41.758C23.2829 41.156 23.8515 40.3999 24.2331 39.5461C24.6147 38.6923 24.7993 37.763 24.7731 36.8275C24.8334 35.422 24.3418 34.0489 23.4043 33.0039C22.4643 31.9997 21.3119 31.2203 20.0322 30.7231C18.1867 30.0322 16.3027 29.4499 14.3898 28.979C11.8854 28.3432 9.43056 27.5249 7.04464 26.5305C5.10358 25.6938 3.41232 24.3647 2.13675 22.6734C0.801274 20.9293 0.133535 18.6038 0.133535 15.6969C0.079749 13.2 0.77798 10.7449 2.13675 8.65341C3.5224 6.5989 5.47049 4.99132 7.74576 4.02481C10.3845 2.90501 13.2286 2.35644 16.0925 2.41487C20.5842 2.41487 24.2679 3.54407 27.1436 5.80246C28.5597 6.91317 29.7197 8.31868 30.5438 9.92244C31.368 11.5262 31.8367 13.2902 31.9179 15.0932H23.5044C23.43 14.2378 23.1775 13.4077 22.7634 12.6566C22.3493 11.9055 21.7828 11.2501 21.1006 10.7329C19.4364 9.46157 17.3794 8.82026 15.2912 8.92174C13.3702 8.83638 11.4801 9.42975 9.9493 10.5988C9.25255 11.1853 8.70236 11.9277 8.34287 12.7665C7.98339 13.6053 7.82462 14.517 7.87931 15.4286C7.83149 16.7295 8.29984 17.9963 9.1814 18.9504C10.1122 19.91 11.2402 20.654 12.4867 21.1305C14.2776 21.8155 16.1056 22.3978 17.9622 22.8746C20.5219 23.5486 23.032 24.4003 25.4742 25.4237C27.4272 26.2876 29.128 27.6384 30.4155 29.3479C31.751 31.1144 32.4299 33.4734 32.4521 36.425C32.451 38.7953 31.792 41.1184 30.5491 43.1331C29.2037 45.304 27.2851 47.0572 25.0068 48.1978C22.3441 49.5267 19.3987 50.183 16.4264 50.1096C13.5387 50.1543 10.6734 49.5946 8.01286 48.4661V48.4661Z" fill="black"/>
<path d="M40.899 21.097C42.3446 18.3046 44.558 15.988 47.276 14.4224C50.13 12.8217 53.3562 12.0115 56.6243 12.0746C61.0759 12.0746 64.7596 13.1367 67.6754 15.2609C70.6565 17.4903 72.7512 20.7121 73.5849 24.3504H65.3717C64.7791 22.6165 63.6576 21.1143 62.1665 20.0573C60.5225 18.9794 58.5861 18.4403 56.6243 18.5144C55.2129 18.4571 53.8073 18.7268 52.5163 19.3026C51.2252 19.8784 50.0834 20.7448 49.179 21.8349C47.3271 24.0709 46.4034 27.1679 46.4079 31.1256C46.4123 35.0834 47.336 38.1915 49.179 40.4499C50.0783 41.5481 51.2184 42.4223 52.5101 43.0042C53.8017 43.5861 55.2098 43.8598 56.6243 43.804C61.0314 43.804 63.9472 41.8586 65.3717 37.9679H73.5849C72.6373 41.5453 70.5209 44.6991 67.5752 46.9233C64.6372 49.1593 60.9869 50.2773 56.6243 50.2773C53.3517 50.3423 50.1223 49.5197 47.276 47.8959C44.5621 46.3101 42.351 43.9843 40.899 41.1878C39.307 38.0796 38.515 34.6203 38.5953 31.1256C38.5206 27.6423 39.3124 24.1952 40.899 21.097V21.097Z" fill="black"/>
<path d="M107.406 13.8858C109.632 15.1177 111.445 16.9853 112.614 19.2523C113.949 21.9109 114.604 24.8621 114.517 27.8387V49.6401H106.972V28.9791C106.972 25.6742 106.148 23.1363 104.501 21.3653C102.854 19.5944 100.606 18.7 97.757 18.6821C94.9035 18.6821 92.6444 19.5765 90.9795 21.3653C89.3146 23.1542 88.4799 25.6921 88.4754 28.9791V49.6401H80.8632V0H88.4754V16.9715C89.7968 15.3842 91.4806 14.1414 93.3833 13.3492C95.4439 12.4816 97.6597 12.0478 99.8938 12.0746C102.51 12.0287 105.095 12.652 107.406 13.8858V13.8858Z" fill="black"/>
<path d="M130.409 47.8624C127.624 46.2929 125.333 43.9685 123.799 41.1542C122.143 38.0662 121.314 34.5988 121.395 31.0921C121.327 27.5998 122.18 24.1517 123.866 21.097C125.435 18.2638 127.774 15.9373 130.61 14.3889C133.559 12.8484 136.834 12.0442 140.158 12.0442C143.483 12.0442 146.758 12.8484 149.707 14.3889C152.54 15.9412 154.878 18.2667 156.451 21.097C158.14 24.1629 158.992 27.6225 158.922 31.1256C158.987 34.626 158.11 38.0791 156.385 41.1207C154.742 43.9555 152.35 46.2775 149.473 47.8288C146.512 49.4406 143.192 50.2715 139.825 50.2437C136.533 50.291 133.286 49.4699 130.409 47.8624V47.8624ZM145.333 42.194C147.093 41.2088 148.54 39.7437 149.507 37.9679C150.629 35.8679 151.182 33.5081 151.109 31.1256C151.182 28.7617 150.654 26.4182 149.574 24.3169C148.642 22.5576 147.228 21.1028 145.5 20.1243C143.826 19.1904 141.94 18.7053 140.025 18.7156C138.12 18.7013 136.244 19.1869 134.583 20.1243C132.864 21.0933 131.47 22.5522 130.576 24.3169C129.538 26.431 129.034 28.7693 129.107 31.1256C129.107 35.1058 130.12 38.1803 132.146 40.3493C133.118 41.4136 134.307 42.255 135.632 42.8164C136.957 43.3778 138.387 43.646 139.825 43.6027C141.75 43.6101 143.646 43.1253 145.333 42.194V42.194Z" fill="black"/>
<path d="M172.677 47.8624C169.892 46.2929 167.601 43.9685 166.067 41.1542C164.411 38.0662 163.582 34.5988 163.663 31.0921C163.595 27.5998 164.448 24.1517 166.134 21.097C167.703 18.2638 170.042 15.9373 172.878 14.3889C175.827 12.8484 179.102 12.0442 182.426 12.0442C185.751 12.0442 189.026 12.8484 191.975 14.3889C194.808 15.9412 197.146 18.2667 198.719 21.097C200.402 24.153 201.254 27.6002 201.19 31.0921C201.255 34.5924 200.378 38.0455 198.652 41.0872C197.01 43.9219 194.618 46.2439 191.741 47.7953C188.783 49.4187 185.463 50.2612 182.093 50.2437C178.801 50.291 175.554 49.4699 172.677 47.8624ZM187.635 42.194C189.395 41.2088 190.842 39.7437 191.808 37.9679C192.931 35.8679 193.483 33.5081 193.411 31.1256C193.484 28.7617 192.955 26.4182 191.875 24.3169C190.934 22.553 189.509 21.0977 187.768 20.1243C186.094 19.1904 184.208 18.7053 182.293 18.7156C180.388 18.7013 178.512 19.1869 176.851 20.1243C175.132 21.0933 173.738 22.5522 172.844 24.3169C171.806 26.431 171.302 28.7693 171.375 31.1256C171.375 35.1058 172.388 38.1803 174.414 40.3493C175.386 41.4136 176.575 42.255 177.9 42.8164C179.225 43.3778 180.655 43.646 182.093 43.6027C184.029 43.6158 185.937 43.1309 187.635 42.194V42.194Z" fill="black"/>
<path d="M216.007 0V49.6401H208.395V0H216.007Z" fill="black"/>
<path d="M97.9841 130.453C96.1995 130.451 94.4885 129.738 93.2266 128.47C91.9647 127.203 91.255 125.484 91.2532 123.691V87.2725C91.2532 86.3846 91.4273 85.5053 91.7656 84.6849C92.1038 83.8645 92.5996 83.1191 93.2246 82.4912C93.8497 81.8633 94.5917 81.3653 95.4083 81.0255C96.2249 80.6856 97.1001 80.5107 97.9841 80.5107C98.868 80.5107 99.7432 80.6856 100.56 81.0255C101.376 81.3653 102.118 81.8633 102.743 82.4912C103.368 83.1191 103.864 83.8645 104.203 84.6849C104.541 85.5053 104.715 86.3846 104.715 87.2725V123.691C104.713 125.484 104.003 127.203 102.742 128.47C101.48 129.738 99.7686 130.451 97.9841 130.453V130.453ZM97.9841 83.1739C96.9025 83.1756 95.8658 83.608 95.1011 84.3763C94.3363 85.1446 93.9059 86.186 93.9042 87.2725V123.691C93.8819 124.244 93.971 124.795 94.1662 125.312C94.3614 125.829 94.6586 126.302 95.0399 126.7C95.4213 127.099 95.879 127.417 96.3855 127.634C96.8919 127.85 97.4368 127.962 97.9874 127.962C98.5379 127.962 99.0828 127.85 99.5893 127.634C100.096 127.417 100.553 127.099 100.935 126.7C101.316 126.302 101.613 125.829 101.809 125.312C102.004 124.795 102.093 124.244 102.071 123.691V87.2725C102.067 86.186 101.635 85.1453 100.869 84.3783C100.103 83.6113 99.0656 83.1806 97.9841 83.1806V83.1739Z" fill="black"/>
<path d="M116.427 130.453C114.644 130.449 112.934 129.735 111.674 128.468C110.413 127.2 109.705 125.483 109.703 123.691V105.653C109.675 104.747 109.828 103.845 110.153 103.001C110.478 102.156 110.969 101.385 111.597 100.734C112.224 100.084 112.975 99.5666 113.806 99.2134C114.636 98.8601 115.529 98.6781 116.43 98.6781C117.332 98.6781 118.225 98.8601 119.055 99.2134C119.885 99.5666 120.637 100.084 121.264 100.734C121.892 101.385 122.383 102.156 122.708 103.001C123.033 103.845 123.186 104.747 123.158 105.653V123.691C123.156 125.484 122.446 127.203 121.185 128.47C119.923 129.738 118.212 130.451 116.427 130.453V130.453ZM116.427 101.554C115.346 101.556 114.309 101.988 113.544 102.757C112.779 103.525 112.349 104.566 112.347 105.653V123.691C112.325 124.244 112.414 124.795 112.609 125.312C112.804 125.829 113.102 126.302 113.483 126.701C113.864 127.099 114.322 127.417 114.828 127.634C115.335 127.85 115.88 127.962 116.43 127.962C116.981 127.962 117.526 127.85 118.032 127.634C118.539 127.417 118.996 127.099 119.378 126.701C119.759 126.302 120.056 125.829 120.252 125.312C120.447 124.795 120.536 124.244 120.514 123.691V105.653C120.512 104.565 120.081 103.523 119.314 102.754C118.548 101.986 117.51 101.554 116.427 101.554V101.554Z" fill="black"/>
<path d="M116.427 94.0343C115.096 94.0343 113.794 93.6377 112.688 92.8947C111.581 92.1517 110.718 91.0957 110.209 89.8601C109.699 88.6246 109.566 87.265 109.826 85.9534C110.085 84.6417 110.726 83.4369 111.668 82.4912C112.609 81.5456 113.808 80.9016 115.114 80.6407C116.42 80.3798 117.773 80.5137 119.003 81.0255C120.233 81.5372 121.284 82.4039 122.024 83.5159C122.763 84.6279 123.158 85.9352 123.158 87.2725C123.156 89.0653 122.446 90.7842 121.184 92.0519C119.923 93.3196 118.212 94.0325 116.427 94.0343V94.0343ZM116.427 83.1739C115.62 83.1752 114.832 83.4167 114.162 83.8679C113.492 84.319 112.97 84.9596 112.662 85.7087C112.355 86.4577 112.275 87.2816 112.433 88.0762C112.591 88.8709 112.98 89.6005 113.551 90.1731C114.122 90.7456 114.849 91.1353 115.64 91.2929C116.431 91.4505 117.251 91.369 117.997 91.0585C118.742 90.7481 119.378 90.2228 119.826 89.5489C120.274 88.8751 120.514 88.0829 120.514 87.2725C120.51 86.186 120.078 85.1453 119.312 84.3783C118.546 83.6113 117.509 83.1806 116.427 83.1806V83.1739Z" fill="black"/>
<path d="M110.27 155.226H104.167C102.839 155.221 101.538 154.841 100.414 154.13C99.2899 153.418 98.3877 152.403 97.8104 151.201L94.1512 143.48C94.124 143.425 94.0994 143.369 94.0778 143.312C94.0377 143.245 94.011 143.185 93.9776 143.118L93.5503 142.212C93.0839 141.23 92.8621 140.15 92.904 139.063C92.9459 137.976 93.2502 136.916 93.7907 135.973C94.291 135.073 95.0051 134.31 95.8694 133.753C96.7337 133.196 97.7216 132.862 98.7453 132.78C100.339 132.65 101.928 133.082 103.239 134.001C104.392 133.194 105.763 132.761 107.169 132.761C108.574 132.761 109.946 133.194 111.098 134.001C112.309 133.15 113.761 132.715 115.238 132.76C116.303 132.793 117.343 133.092 118.264 133.63C119.184 134.167 119.958 134.927 120.514 135.839C121.085 136.768 121.417 137.826 121.479 138.917C121.541 140.007 121.331 141.096 120.867 142.085L116.634 151.154C116.064 152.367 115.164 153.393 114.038 154.114C112.912 154.834 111.606 155.22 110.27 155.226ZM99.3195 135.417H98.9723C98.3781 135.467 97.8054 135.663 97.3046 135.989C96.8039 136.314 96.3905 136.758 96.101 137.282C95.7707 137.849 95.584 138.49 95.5573 139.147C95.5305 139.805 95.6645 140.458 95.9474 141.052L96.3748 141.95L96.4549 142.105L96.5484 142.313L100.228 150.04C100.588 150.79 101.151 151.423 101.853 151.866C102.554 152.31 103.365 152.547 104.194 152.549H110.27C111.11 152.553 111.933 152.315 112.643 151.865C113.353 151.415 113.919 150.77 114.277 150.007L118.51 140.944C118.787 140.355 118.912 139.706 118.875 139.055C118.837 138.405 118.639 137.775 118.297 137.221C117.973 136.68 117.519 136.23 116.976 135.912C116.434 135.594 115.82 135.419 115.192 135.403H115.071C114.515 135.402 113.964 135.512 113.45 135.728C112.936 135.943 112.471 136.259 112.08 136.658L111.139 137.617L110.177 136.671C109.786 136.269 109.318 135.949 108.802 135.731C108.286 135.512 107.732 135.4 107.172 135.4C106.612 135.4 106.058 135.512 105.542 135.731C105.026 135.949 104.559 136.269 104.167 136.671L103.226 137.63L102.284 136.671C101.897 136.276 101.435 135.962 100.927 135.746C100.418 135.531 99.8716 135.419 99.3195 135.417V135.417Z" fill="black"/>
<path d="M11.4183 83.0464V111.22C11.4183 114.038 12.1083 116.207 13.4883 117.727C14.8683 119.248 16.8938 120.008 19.5648 120.008C22.2357 120.008 24.2835 119.248 25.708 117.727C27.1325 116.207 27.8447 114.038 27.8447 111.22V83.0464H39.2631V111.153C39.2631 115.362 38.3728 118.917 36.5921 121.819C34.881 124.661 32.388 126.944 29.4139 128.393C26.2884 129.893 22.8613 130.65 19.3978 130.607C15.9685 130.667 12.5728 129.92 9.4819 128.427C6.57326 126.983 4.16499 124.692 2.5708 121.853C0.856932 118.924 0 115.357 0 111.153V83.0464H11.4183Z" fill="black"/>
<path d="M67.7088 120.411V130.137H61.8994C57.7595 130.137 54.532 129.12 52.2172 127.085C49.9024 125.05 48.745 121.73 48.745 117.124V102.232H44.2043V92.7062H48.745V83.5831H60.1633V92.7062H67.642V102.232H60.1633V117.258C60.1216 117.694 60.1714 118.135 60.3094 118.551C60.4474 118.966 60.6706 119.349 60.9646 119.673C61.7359 120.237 62.6855 120.499 63.6356 120.411H67.7088Z" fill="black"/>
<path d="M74.5531 87.0377C73.9407 86.4854 73.4538 85.8071 73.1254 85.049C72.797 84.2908 72.6349 83.4706 72.65 82.6439C72.6301 81.8067 72.7897 80.975 73.1181 80.2053C73.4465 79.4356 73.9359 78.7459 74.5531 78.183C75.895 76.9691 77.6567 76.331 79.461 76.4054C81.244 76.3394 82.9817 76.9775 84.3021 78.183C84.9193 78.7459 85.4087 79.4356 85.7371 80.2053C86.0655 80.975 86.2251 81.8067 86.2052 82.6439C86.2203 83.4706 86.0582 84.2908 85.7298 85.049C85.4014 85.8071 84.9145 86.4854 84.3021 87.0377C82.9817 88.2433 81.244 88.8814 79.461 88.8154C77.6567 88.8897 75.895 88.2517 74.5531 87.0377V87.0377ZM85.1368 92.7061V130.137H73.7184V92.7061H85.1368Z" fill="black"/>
<path d="M152.578 120.411V130.137H146.769C142.629 130.137 139.402 129.12 137.087 127.085C134.772 125.05 133.615 121.73 133.615 117.124V102.232H129.074V92.7062H133.615V83.5831H145.033V92.7062H152.512V102.232H145.033V117.258C144.991 117.694 145.041 118.135 145.179 118.551C145.317 118.966 145.54 119.349 145.834 119.673C146.606 120.237 147.555 120.499 148.505 120.411H152.578Z" fill="black"/>
<path d="M159.423 87.0377C158.81 86.4854 158.323 85.8071 157.995 85.049C157.667 84.2908 157.505 83.4706 157.52 82.6439C157.5 81.8067 157.659 80.975 157.988 80.2053C158.316 79.4356 158.806 78.7459 159.423 78.183C160.765 76.9691 162.526 76.331 164.331 76.4054C166.114 76.3394 167.851 76.9775 169.172 78.183C169.789 78.7459 170.278 79.4356 170.607 80.2053C170.935 80.975 171.095 81.8067 171.075 82.6439C171.09 83.4706 170.928 84.2908 170.599 85.049C170.271 85.8071 169.784 86.4854 169.172 87.0377C167.851 88.2433 166.114 88.8814 164.331 88.8154C162.526 88.8897 160.765 88.2517 159.423 87.0377V87.0377ZM170.006 92.7061V130.137H158.588V92.7061H170.006Z" fill="black"/>
<path d="M212.875 114.172H187.034C187.207 116.498 187.953 118.286 189.271 119.539C190.581 120.768 192.32 121.43 194.112 121.383C196.956 121.383 198.937 120.176 200.055 117.761H212.208C211.592 120.2 210.44 122.47 208.835 124.402C207.175 126.391 205.086 127.974 202.726 129.031C200.14 130.178 197.339 130.75 194.512 130.708C191.117 130.77 187.762 129.961 184.763 128.36C181.938 126.82 179.619 124.49 178.086 121.652C176.428 118.516 175.6 115.005 175.682 111.455C175.599 107.91 176.415 104.401 178.053 101.259C179.574 98.4124 181.897 96.0792 184.73 94.5508C187.75 92.9436 191.129 92.1356 194.546 92.203C197.891 92.1391 201.198 92.9235 204.161 94.4838C206.931 95.9719 209.215 98.2312 210.739 100.991C212.368 104.015 213.185 107.414 213.109 110.852C213.094 111.962 213.016 113.071 212.875 114.172ZM201.39 107.799C201.428 106.916 201.268 106.035 200.921 105.222C200.574 104.409 200.05 103.685 199.387 103.104C197.99 101.92 196.206 101.298 194.379 101.36C192.615 101.305 190.893 101.901 189.538 103.037C188.164 104.264 187.294 105.962 187.101 107.799H201.39Z" fill="black"/>
<path d="M225.228 128.997C222.864 128.011 220.794 126.429 219.219 124.402C217.771 122.514 216.911 120.239 216.748 117.862H228.033C228.09 118.486 228.281 119.092 228.592 119.636C228.903 120.18 229.327 120.65 229.836 121.014C230.98 121.844 232.365 122.269 233.776 122.222C234.937 122.291 236.091 121.998 237.081 121.383C237.442 121.148 237.739 120.825 237.943 120.444C238.147 120.062 238.253 119.636 238.249 119.203C238.25 118.682 238.09 118.172 237.791 117.746C237.492 117.319 237.069 116.997 236.58 116.822C234.829 116.099 233.019 115.526 231.171 115.111C228.903 114.606 226.672 113.945 224.494 113.132C222.71 112.438 221.126 111.309 219.887 109.845C218.591 108.349 217.95 106.324 217.95 103.774C217.932 101.683 218.549 99.6351 219.72 97.9049C221.021 96.0355 222.828 94.5804 224.928 93.7123C227.516 92.6263 230.304 92.1006 233.108 92.1694C237.782 92.1694 241.466 93.3322 244.159 95.6577C246.875 98.0006 248.556 101.329 248.833 104.915H238.249C238.182 104.313 237.997 103.731 237.705 103.201C237.413 102.671 237.019 102.205 236.547 101.829C235.455 101.028 234.124 100.626 232.774 100.689C231.695 100.618 230.621 100.888 229.702 101.46C229.362 101.694 229.085 102.01 228.898 102.379C228.712 102.748 228.621 103.159 228.634 103.573C228.64 104.107 228.81 104.625 229.12 105.058C229.431 105.49 229.868 105.815 230.37 105.988C232.081 106.705 233.859 107.244 235.679 107.598C237.967 108.167 240.219 108.872 242.423 109.711C244.199 110.433 245.771 111.586 246.997 113.065C248.306 114.608 248.973 116.676 249 119.27C249.027 121.373 248.383 123.43 247.164 125.14C245.809 126.945 243.983 128.338 241.889 129.165C239.356 130.195 236.641 130.697 233.909 130.64C230.933 130.706 227.976 130.146 225.228 128.997V128.997Z" fill="black"/>
</g>
<defs>
<clipPath id="clip0_1_1019">
<rect width="249" height="164" fill="white"/>
</clipPath>
</defs>
</svg>
