<svg id="Capa_1" enable-background="new 0 0 512 512" height="512" viewBox="0 0 512 512" width="512" xmlns="http://www.w3.org/2000/svg" fill="currentColor"><g><path d="m459.943 100.795c9.954-10.714 16.057-25.052 16.057-40.795 0-33.084-26.916-60-60-60s-60 26.916-60 60c0 15.743 6.103 30.081 16.057 40.795-14.691 7.698-27.135 19.124-36.057 33.019-8.922-13.896-21.366-25.321-36.057-33.019 9.954-10.714 16.057-25.052 16.057-40.795 0-33.084-26.916-60-60-60s-60 26.916-60 60c0 15.743 6.103 30.081 16.057 40.795-14.691 7.698-27.135 19.123-36.057 33.019-8.922-13.896-21.366-25.321-36.057-33.019 9.954-10.714 16.057-25.052 16.057-40.795 0-33.084-26.916-60-60-60s-60 26.916-60 60c0 15.743 6.103 30.081 16.057 40.795-30.32 15.887-51.057 47.668-51.057 84.205v100c0 8.284 6.716 15 15 15h20c0 15.743 6.103 30.081 16.057 40.795-30.32 15.887-51.057 47.668-51.057 84.205v72c0 8.284 6.716 15 15 15h480c8.284 0 15-6.716 15-15v-72c0-36.537-20.737-68.318-51.057-84.205 9.954-10.714 16.057-25.052 16.057-40.795h20c8.284 0 15-6.716 15-15v-100c0-36.537-20.737-68.318-51.057-84.205zm-73.943-40.795c0-16.542 13.458-30 30-30s30 13.458 30 30-13.458 30-30 30-30-13.458-30-30zm30 60c34.159 0 62.248 26.486 64.81 60h-129.62c2.562-33.514 30.651-60 64.81-60zm-190-60c0-16.542 13.458-30 30-30s30 13.458 30 30-13.458 30-30 30-30-13.458-30-30zm30 60c34.159 0 62.248 26.486 64.81 60h-129.62c2.562-33.514 30.651-60 64.81-60zm-190-60c0-16.542 13.458-30 30-30s30 13.458 30 30-13.458 30-30 30-30-13.458-30-30zm30 60c34.159 0 62.248 26.486 64.81 60h-129.62c2.562-33.514 30.651-60 64.81-60zm-30 180c0-16.542 13.458-30 30-30s30 13.458 30 30-13.458 30-30 30-30-13.458-30-30zm90 0h40c0 15.743 6.103 30.081 16.057 40.795-14.691 7.698-27.135 19.123-36.057 33.019-8.922-13.896-21.366-25.321-36.057-33.019 9.954-10.714 16.057-25.052 16.057-40.795zm70 0c0-16.542 13.458-30 30-30s30 13.458 30 30-13.458 30-30 30-30-13.458-30-30zm90 0h40c0 15.743 6.103 30.081 16.057 40.795-14.691 7.698-27.135 19.124-36.057 33.019-8.922-13.896-21.366-25.321-36.057-33.019 9.954-10.714 16.057-25.052 16.057-40.795zm-60 60c34.159 0 62.248 26.486 64.81 60h-129.62c2.562-33.514 30.651-60 64.81-60zm-160 0c34.159 0 62.248 26.486 64.81 60h-129.62c2.562-33.514 30.651-60 64.81-60zm385 122h-450v-32h450zm-.19-62h-129.62c2.562-33.514 30.65-60 64.81-60s62.248 26.486 64.81 60zm-94.81-120c0-16.542 13.458-30 30-30s30 13.458 30 30-13.458 30-30 30-30-13.458-30-30zm95-30h-13.072c-10.391-17.916-29.769-30-51.928-30s-41.537 12.084-51.928 30h-56.144c-10.391-17.916-29.769-30-51.928-30s-41.537 12.084-51.928 30h-56.144c-10.391-17.916-29.769-30-51.928-30s-41.537 12.084-51.928 30h-13.072v-60h450z"/></g></svg>