<?xml version="1.0" encoding="UTF-8" standalone="no"?>
<!DOCTYPE svg PUBLIC "-//W3C//DTD SVG 1.1//EN"
 "http://www.w3.org/Graphics/SVG/1.1/DTD/svg11.dtd">
<!-- Generated by graphviz version 3.0.0 (20220226.1711)
 -->
<!-- Title: dependencies Pages: 1 -->
<svg width="3513pt" height="405pt"
 viewBox="0.00 0.00 3513.00 404.80" xmlns="http://www.w3.org/2000/svg" xmlns:xlink="http://www.w3.org/1999/xlink">
<g id="graph0" class="graph" transform="scale(1 1) rotate(0) translate(4 400.8)">
<title>dependencies</title>
<polygon fill="white" stroke="transparent" points="-4,4 -4,-400.8 3509,-400.8 3509,4 -4,4"/>
<text text-anchor="middle" x="1752.5" y="-8.2" font-family="sans-serif" font-size="14.00">dependencies</text>
<g id="clust1" class="cluster">
<title>cluster_AppModule</title>
<polygon fill="none" stroke="black" stroke-dasharray="1,5" points="8,-184.8 8,-380.8 1507,-380.8 1507,-184.8 8,-184.8"/>
</g>
<g id="clust3" class="cluster">
<title>cluster_AppModule_imports</title>
<polygon fill="none" stroke="black" points="48,-260.8 48,-312.8 1499,-312.8 1499,-260.8 48,-260.8"/>
</g>
<g id="clust6" class="cluster">
<title>cluster_AppModule_providers</title>
<polygon fill="none" stroke="black" points="16,-192.8 16,-244.8 297,-244.8 297,-192.8 16,-192.8"/>
</g>
<g id="clust7" class="cluster">
<title>cluster_ArticleModule</title>
<polygon fill="none" stroke="black" stroke-dasharray="1,5" points="1515,-320.8 1515,-388.8 1647,-388.8 1647,-320.8 1515,-320.8"/>
</g>
<g id="clust10" class="cluster">
<title>cluster_ArticleModule_exports</title>
<polygon fill="none" stroke="black" points="1523,-328.8 1523,-380.8 1639,-380.8 1639,-328.8 1523,-328.8"/>
</g>
<g id="clust13" class="cluster">
<title>cluster_AssetsModule</title>
<polygon fill="none" stroke="black" stroke-dasharray="1,5" points="1655,-320.8 1655,-388.8 1939,-388.8 1939,-320.8 1655,-320.8"/>
</g>
<g id="clust16" class="cluster">
<title>cluster_AssetsModule_exports</title>
<polygon fill="none" stroke="black" points="1817,-328.8 1817,-380.8 1931,-380.8 1931,-328.8 1817,-328.8"/>
</g>
<g id="clust18" class="cluster">
<title>cluster_AssetsModule_providers</title>
<polygon fill="none" stroke="black" points="1663,-328.8 1663,-380.8 1809,-380.8 1809,-328.8 1663,-328.8"/>
</g>
<g id="clust19" class="cluster">
<title>cluster_AuthModule</title>
<polygon fill="none" stroke="black" stroke-dasharray="1,5" points="1515,-108.8 1515,-252.8 2325,-252.8 2325,-108.8 1515,-108.8"/>
</g>
<g id="clust21" class="cluster">
<title>cluster_AuthModule_imports</title>
<polygon fill="none" stroke="black" points="1523,-116.8 1523,-244.8 1781,-244.8 1781,-116.8 1523,-116.8"/>
</g>
<g id="clust22" class="cluster">
<title>cluster_AuthModule_exports</title>
<polygon fill="none" stroke="black" points="1789,-116.8 1789,-168.8 1895,-168.8 1895,-116.8 1789,-116.8"/>
</g>
<g id="clust24" class="cluster">
<title>cluster_AuthModule_providers</title>
<polygon fill="none" stroke="black" points="1903,-116.8 1903,-168.8 2317,-168.8 2317,-116.8 1903,-116.8"/>
</g>
<g id="clust25" class="cluster">
<title>cluster_CourseModule</title>
<polygon fill="none" stroke="black" stroke-dasharray="1,5" points="1947,-320.8 1947,-388.8 2239,-388.8 2239,-320.8 1947,-320.8"/>
</g>
<g id="clust28" class="cluster">
<title>cluster_CourseModule_exports</title>
<polygon fill="none" stroke="black" points="2113,-328.8 2113,-380.8 2231,-380.8 2231,-328.8 2113,-328.8"/>
</g>
<g id="clust30" class="cluster">
<title>cluster_CourseModule_providers</title>
<polygon fill="none" stroke="black" points="1955,-328.8 1955,-380.8 2105,-380.8 2105,-328.8 1955,-328.8"/>
</g>
<g id="clust31" class="cluster">
<title>cluster_DatabaseModule</title>
<polygon fill="none" stroke="black" stroke-dasharray="1,5" points="1549,-32.8 1549,-100.8 1867,-100.8 1867,-32.8 1549,-32.8"/>
</g>
<g id="clust34" class="cluster">
<title>cluster_DatabaseModule_exports</title>
<polygon fill="none" stroke="black" points="1731,-40.8 1731,-92.8 1859,-92.8 1859,-40.8 1731,-40.8"/>
</g>
<g id="clust36" class="cluster">
<title>cluster_DatabaseModule_providers</title>
<polygon fill="none" stroke="black" points="1557,-40.8 1557,-92.8 1723,-92.8 1723,-40.8 1557,-40.8"/>
</g>
<g id="clust37" class="cluster">
<title>cluster_FileUploadModule</title>
<polygon fill="none" stroke="black" stroke-dasharray="1,5" points="2247,-320.8 2247,-388.8 2593,-388.8 2593,-320.8 2247,-320.8"/>
</g>
<g id="clust40" class="cluster">
<title>cluster_FileUploadModule_exports</title>
<polygon fill="none" stroke="black" points="2445,-328.8 2445,-380.8 2585,-380.8 2585,-328.8 2445,-328.8"/>
</g>
<g id="clust42" class="cluster">
<title>cluster_FileUploadModule_providers</title>
<polygon fill="none" stroke="black" points="2255,-328.8 2255,-380.8 2437,-380.8 2437,-328.8 2255,-328.8"/>
</g>
<g id="clust43" class="cluster">
<title>cluster_HelperModule</title>
<polygon fill="none" stroke="black" stroke-dasharray="1,5" points="2601,-320.8 2601,-388.8 2889,-388.8 2889,-320.8 2601,-320.8"/>
</g>
<g id="clust46" class="cluster">
<title>cluster_HelperModule_exports</title>
<polygon fill="none" stroke="black" points="2765,-328.8 2765,-380.8 2881,-380.8 2881,-328.8 2765,-328.8"/>
</g>
<g id="clust48" class="cluster">
<title>cluster_HelperModule_providers</title>
<polygon fill="none" stroke="black" points="2609,-328.8 2609,-380.8 2757,-380.8 2757,-328.8 2609,-328.8"/>
</g>
<g id="clust49" class="cluster">
<title>cluster_MailModule</title>
<polygon fill="none" stroke="black" stroke-dasharray="1,5" points="613,-108.8 613,-176.8 873,-176.8 873,-108.8 613,-108.8"/>
</g>
<g id="clust52" class="cluster">
<title>cluster_MailModule_exports</title>
<polygon fill="none" stroke="black" points="761,-116.8 761,-168.8 865,-168.8 865,-116.8 761,-116.8"/>
</g>
<g id="clust54" class="cluster">
<title>cluster_MailModule_providers</title>
<polygon fill="none" stroke="black" points="621,-116.8 621,-168.8 753,-168.8 753,-116.8 621,-116.8"/>
</g>
<g id="clust55" class="cluster">
<title>cluster_RefreshTokenModule</title>
<polygon fill="none" stroke="black" stroke-dasharray="1,5" points="881,-108.8 881,-176.8 1507,-176.8 1507,-108.8 881,-108.8"/>
</g>
<g id="clust58" class="cluster">
<title>cluster_RefreshTokenModule_exports</title>
<polygon fill="none" stroke="black" points="1343,-116.8 1343,-168.8 1499,-168.8 1499,-116.8 1343,-116.8"/>
</g>
<g id="clust60" class="cluster">
<title>cluster_RefreshTokenModule_providers</title>
<polygon fill="none" stroke="black" points="889,-116.8 889,-168.8 1335,-168.8 1335,-116.8 889,-116.8"/>
</g>
<g id="clust61" class="cluster">
<title>cluster_SchoolAdminModule</title>
<polygon fill="none" stroke="black" stroke-dasharray="1,5" points="2333,-184.8 2333,-252.8 2823,-252.8 2823,-184.8 2333,-184.8"/>
</g>
<g id="clust63" class="cluster">
<title>cluster_SchoolAdminModule_imports</title>
<polygon fill="none" stroke="black" points="2717,-192.8 2717,-244.8 2815,-244.8 2815,-192.8 2717,-192.8"/>
</g>
<g id="clust64" class="cluster">
<title>cluster_SchoolAdminModule_exports</title>
<polygon fill="none" stroke="black" points="2553,-192.8 2553,-244.8 2709,-244.8 2709,-192.8 2553,-192.8"/>
</g>
<g id="clust66" class="cluster">
<title>cluster_SchoolAdminModule_providers</title>
<polygon fill="none" stroke="black" points="2341,-192.8 2341,-244.8 2545,-244.8 2545,-192.8 2341,-192.8"/>
</g>
<g id="clust67" class="cluster">
<title>cluster_StatisticsModule</title>
<polygon fill="none" stroke="black" stroke-dasharray="1,5" points="2897,-320.8 2897,-388.8 3215,-388.8 3215,-320.8 2897,-320.8"/>
</g>
<g id="clust70" class="cluster">
<title>cluster_StatisticsModule_exports</title>
<polygon fill="none" stroke="black" points="3079,-328.8 3079,-380.8 3207,-380.8 3207,-328.8 3079,-328.8"/>
</g>
<g id="clust72" class="cluster">
<title>cluster_StatisticsModule_providers</title>
<polygon fill="none" stroke="black" points="2905,-328.8 2905,-380.8 3071,-380.8 3071,-328.8 2905,-328.8"/>
</g>
<g id="clust73" class="cluster">
<title>cluster_StatusModule</title>
<polygon fill="none" stroke="black" stroke-dasharray="1,5" points="2831,-184.8 2831,-252.8 2991,-252.8 2991,-184.8 2831,-184.8"/>
</g>
<g id="clust78" class="cluster">
<title>cluster_StatusModule_providers</title>
<polygon fill="none" stroke="black" points="2839,-192.8 2839,-244.8 2983,-244.8 2983,-192.8 2839,-192.8"/>
</g>
<g id="clust79" class="cluster">
<title>cluster_TimezoneModule</title>
<polygon fill="none" stroke="black" stroke-dasharray="1,5" points="2999,-184.8 2999,-252.8 3189,-252.8 3189,-184.8 2999,-184.8"/>
</g>
<g id="clust84" class="cluster">
<title>cluster_TimezoneModule_providers</title>
<polygon fill="none" stroke="black" points="3007,-192.8 3007,-244.8 3181,-244.8 3181,-192.8 3007,-192.8"/>
</g>
<g id="clust85" class="cluster">
<title>cluster_UserModule</title>
<polygon fill="none" stroke="black" stroke-dasharray="1,5" points="3197,-184.8 3197,-252.8 3345,-252.8 3345,-184.8 3197,-184.8"/>
</g>
<g id="clust90" class="cluster">
<title>cluster_UserModule_providers</title>
<polygon fill="none" stroke="black" points="3205,-192.8 3205,-244.8 3337,-244.8 3337,-192.8 3205,-192.8"/>
</g>
<g id="clust91" class="cluster">
<title>cluster_UsersModule</title>
<polygon fill="none" stroke="black" stroke-dasharray="1,5" points="3223,-320.8 3223,-388.8 3497,-388.8 3497,-320.8 3223,-320.8"/>
</g>
<g id="clust94" class="cluster">
<title>cluster_UsersModule_exports</title>
<polygon fill="none" stroke="black" points="3379,-328.8 3379,-380.8 3489,-380.8 3489,-328.8 3379,-328.8"/>
</g>
<g id="clust96" class="cluster">
<title>cluster_UsersModule_providers</title>
<polygon fill="none" stroke="black" points="3231,-328.8 3231,-380.8 3371,-380.8 3371,-328.8 3231,-328.8"/>
</g>
<!-- ArticleModule -->
<g id="node1" class="node">
<title>ArticleModule</title>
<polygon fill="#8dd3c7" stroke="black" points="154.42,-304.8 151.42,-308.8 130.42,-308.8 127.42,-304.8 55.58,-304.8 55.58,-268.8 154.42,-268.8 154.42,-304.8"/>
<text text-anchor="middle" x="105" y="-282.6" font-family="Times,serif" font-size="14.00">ArticleModule</text>
</g>
<!-- AppModule -->
<g id="node13" class="node">
<title>AppModule</title>
<polygon fill="#8dd3c7" stroke="black" points="686.66,-372.8 683.66,-376.8 662.66,-376.8 659.66,-372.8 603.34,-372.8 603.34,-336.8 686.66,-336.8 686.66,-372.8"/>
<text text-anchor="middle" x="645" y="-350.6" font-family="Times,serif" font-size="14.00">AppModule</text>
</g>
<!-- ArticleModule&#45;&gt;AppModule -->
<g id="edge1" class="edge">
<title>ArticleModule&#45;&gt;AppModule</title>
<path fill="none" stroke="black" d="M121.4,-304.81C121.4,-327.29 121.4,-362.8 121.4,-362.8 121.4,-362.8 593.04,-362.8 593.04,-362.8"/>
<polygon fill="black" stroke="black" points="593.04,-366.3 603.04,-362.8 593.04,-359.3 593.04,-366.3"/>
</g>
<!-- ArticleService  -->
<g id="node16" class="node">
<title>ArticleService </title>
<polygon fill="#fb8072" stroke="black" points="1631.35,-372.8 1530.65,-372.8 1530.65,-336.8 1631.35,-336.8 1631.35,-372.8"/>
<text text-anchor="middle" x="1581" y="-350.6" font-family="Times,serif" font-size="14.00">ArticleService </text>
</g>
<!-- ArticleModule&#45;&gt;ArticleService  -->
<g id="edge15" class="edge">
<title>ArticleModule&#45;&gt;ArticleService </title>
<path fill="none" stroke="black" stroke-dasharray="5,2" d="M88.6,-304.95C88.6,-318.54 88.6,-334.8 88.6,-334.8 88.6,-334.8 1559.67,-334.8 1559.67,-334.8 1559.67,-334.8 1559.67,-334.98 1559.67,-334.98"/>
<polygon fill="black" stroke="black" points="1556.17,-326.65 1559.67,-336.65 1563.17,-326.65 1556.17,-326.65"/>
</g>
<!-- AssetsModule -->
<g id="node2" class="node">
<title>AssetsModule</title>
<polygon fill="#8dd3c7" stroke="black" points="879.11,-304.8 876.11,-308.8 855.11,-308.8 852.11,-304.8 782.89,-304.8 782.89,-268.8 879.11,-268.8 879.11,-304.8"/>
<text text-anchor="middle" x="831" y="-282.6" font-family="Times,serif" font-size="14.00">AssetsModule</text>
</g>
<!-- AssetsModule&#45;&gt;AppModule -->
<g id="edge2" class="edge">
<title>AssetsModule&#45;&gt;AppModule</title>
<path fill="none" stroke="black" d="M855.03,-304.83C855.03,-321.2 855.03,-342.8 855.03,-342.8 855.03,-342.8 696.75,-342.8 696.75,-342.8"/>
<polygon fill="black" stroke="black" points="696.75,-339.3 686.75,-342.8 696.75,-346.3 696.75,-339.3"/>
</g>
<!-- AssetsService  -->
<g id="node17" class="node">
<title>AssetsService </title>
<polygon fill="#fb8072" stroke="black" points="1923.04,-372.8 1824.96,-372.8 1824.96,-336.8 1923.04,-336.8 1923.04,-372.8"/>
<text text-anchor="middle" x="1874" y="-350.6" font-family="Times,serif" font-size="14.00">AssetsService </text>
</g>
<!-- AssetsModule&#45;&gt;AssetsService  -->
<g id="edge17" class="edge">
<title>AssetsModule&#45;&gt;AssetsService </title>
<path fill="none" stroke="black" stroke-dasharray="5,2" d="M806.97,-304.86C806.97,-316.24 806.97,-328.8 806.97,-328.8 806.97,-328.8 1855.86,-328.8 1855.86,-328.8 1855.86,-328.8 1855.86,-329.59 1855.86,-329.59"/>
<polygon fill="black" stroke="black" points="1852.36,-326.74 1855.86,-336.74 1859.36,-326.74 1852.36,-326.74"/>
</g>
<!-- AuthModule -->
<g id="node3" class="node">
<title>AuthModule</title>
<polygon fill="#8dd3c7" stroke="black" points="363.55,-304.8 360.55,-308.8 339.55,-308.8 336.55,-304.8 276.45,-304.8 276.45,-268.8 363.55,-268.8 363.55,-304.8"/>
<text text-anchor="middle" x="320" y="-282.6" font-family="Times,serif" font-size="14.00">AuthModule</text>
</g>
<!-- AuthModule&#45;&gt;AppModule -->
<g id="edge3" class="edge">
<title>AuthModule&#45;&gt;AppModule</title>
<path fill="none" stroke="black" d="M320,-305.1C320,-323.07 320,-347.8 320,-347.8 320,-347.8 593.18,-347.8 593.18,-347.8"/>
<polygon fill="black" stroke="black" points="593.18,-351.3 603.18,-347.8 593.18,-344.3 593.18,-351.3"/>
</g>
<!-- AuthService  -->
<g id="node22" class="node">
<title>AuthService </title>
<polygon fill="#fb8072" stroke="black" points="1886.98,-160.8 1797.02,-160.8 1797.02,-124.8 1886.98,-124.8 1886.98,-160.8"/>
<text text-anchor="middle" x="1842" y="-138.6" font-family="Times,serif" font-size="14.00">AuthService </text>
</g>
<!-- AuthModule&#45;&gt;AuthService  -->
<g id="edge22" class="edge">
<title>AuthModule&#45;&gt;AuthService </title>
<path fill="none" stroke="black" stroke-dasharray="5,2" d="M298.18,-268.48C298.18,-260.01 298.18,-251.8 298.18,-251.8 298.18,-251.8 1813.1,-251.8 1813.1,-251.8 1813.1,-251.8 1813.1,-171.29 1813.1,-171.29"/>
<polygon fill="black" stroke="black" points="1816.6,-171.29 1813.1,-161.29 1809.6,-171.29 1816.6,-171.29"/>
</g>
<!-- CourseModule -->
<g id="node4" class="node">
<title>CourseModule</title>
<polygon fill="#8dd3c7" stroke="black" points="996.71,-304.8 993.71,-308.8 972.71,-308.8 969.71,-304.8 897.29,-304.8 897.29,-268.8 996.71,-268.8 996.71,-304.8"/>
<text text-anchor="middle" x="947" y="-282.6" font-family="Times,serif" font-size="14.00">CourseModule</text>
</g>
<!-- CourseModule&#45;&gt;AppModule -->
<g id="edge4" class="edge">
<title>CourseModule&#45;&gt;AppModule</title>
<path fill="none" stroke="black" d="M971.8,-305.1C971.8,-323.07 971.8,-347.8 971.8,-347.8 971.8,-347.8 696.72,-347.8 696.72,-347.8"/>
<polygon fill="black" stroke="black" points="696.72,-344.3 686.72,-347.8 696.72,-351.3 696.72,-344.3"/>
</g>
<!-- CourseService  -->
<g id="node26" class="node">
<title>CourseService </title>
<polygon fill="#fb8072" stroke="black" points="2222.64,-372.8 2121.36,-372.8 2121.36,-336.8 2222.64,-336.8 2222.64,-372.8"/>
<text text-anchor="middle" x="2172" y="-350.6" font-family="Times,serif" font-size="14.00">CourseService </text>
</g>
<!-- CourseModule&#45;&gt;CourseService  -->
<g id="edge27" class="edge">
<title>CourseModule&#45;&gt;CourseService </title>
<path fill="none" stroke="black" stroke-dasharray="5,2" d="M922.2,-304.87C922.2,-314.26 922.2,-323.8 922.2,-323.8 922.2,-323.8 2141.03,-323.8 2141.03,-323.8 2141.03,-323.8 2141.03,-326.77 2141.03,-326.77"/>
<polygon fill="black" stroke="black" points="2137.53,-326.77 2141.03,-336.77 2144.53,-326.77 2137.53,-326.77"/>
</g>
<!-- FileUploadModule -->
<g id="node5" class="node">
<title>FileUploadModule</title>
<polygon fill="#8dd3c7" stroke="black" points="1137.05,-304.8 1134.05,-308.8 1113.05,-308.8 1110.05,-304.8 1014.95,-304.8 1014.95,-268.8 1137.05,-268.8 1137.05,-304.8"/>
<text text-anchor="middle" x="1076" y="-282.6" font-family="Times,serif" font-size="14.00">FileUploadModule</text>
</g>
<!-- FileUploadModule&#45;&gt;AppModule -->
<g id="edge5" class="edge">
<title>FileUploadModule&#45;&gt;AppModule</title>
<path fill="none" stroke="black" d="M1106.64,-304.83C1106.64,-324.38 1106.64,-352.8 1106.64,-352.8 1106.64,-352.8 696.78,-352.8 696.78,-352.8"/>
<polygon fill="black" stroke="black" points="696.78,-349.3 686.78,-352.8 696.78,-356.3 696.78,-349.3"/>
</g>
<!-- FileUploadService  -->
<g id="node30" class="node">
<title>FileUploadService </title>
<polygon fill="#fb8072" stroke="black" points="2577.47,-372.8 2452.53,-372.8 2452.53,-336.8 2577.47,-336.8 2577.47,-372.8"/>
<text text-anchor="middle" x="2515" y="-350.6" font-family="Times,serif" font-size="14.00">FileUploadService </text>
</g>
<!-- FileUploadModule&#45;&gt;FileUploadService  -->
<g id="edge31" class="edge">
<title>FileUploadModule&#45;&gt;FileUploadService </title>
<path fill="none" stroke="black" stroke-dasharray="5,2" d="M1045.36,-305.04C1045.36,-312.23 1045.36,-318.8 1045.36,-318.8 1045.36,-318.8 2494.7,-318.8 2494.7,-318.8 2494.7,-318.8 2494.7,-326.38 2494.7,-326.38"/>
<polygon fill="black" stroke="black" points="2491.2,-326.38 2494.7,-336.38 2498.2,-326.38 2491.2,-326.38"/>
</g>
<!-- HelperModule -->
<g id="node6" class="node">
<title>HelperModule</title>
<polygon fill="#8dd3c7" stroke="black" points="1252.64,-304.8 1249.64,-308.8 1228.64,-308.8 1225.64,-304.8 1155.36,-304.8 1155.36,-268.8 1252.64,-268.8 1252.64,-304.8"/>
<text text-anchor="middle" x="1204" y="-282.6" font-family="Times,serif" font-size="14.00">HelperModule</text>
</g>
<!-- HelperModule&#45;&gt;AppModule -->
<g id="edge6" class="edge">
<title>HelperModule&#45;&gt;AppModule</title>
<path fill="none" stroke="black" d="M1228.41,-305.08C1228.41,-326.12 1228.41,-357.8 1228.41,-357.8 1228.41,-357.8 696.96,-357.8 696.96,-357.8"/>
<polygon fill="black" stroke="black" points="696.96,-354.3 686.96,-357.8 696.96,-361.3 696.96,-354.3"/>
</g>
<!-- HelperService  -->
<g id="node32" class="node">
<title>HelperService </title>
<polygon fill="#fb8072" stroke="black" points="2872.57,-372.8 2773.43,-372.8 2773.43,-336.8 2872.57,-336.8 2872.57,-372.8"/>
<text text-anchor="middle" x="2823" y="-350.6" font-family="Times,serif" font-size="14.00">HelperService </text>
</g>
<!-- HelperModule&#45;&gt;HelperService  -->
<g id="edge33" class="edge">
<title>HelperModule&#45;&gt;HelperService </title>
<path fill="none" stroke="black" stroke-dasharray="5,2" d="M1179.59,-304.86C1179.59,-309.29 1179.59,-312.8 1179.59,-312.8 1179.59,-312.8 2790.33,-312.8 2790.33,-312.8 2790.33,-312.8 2790.33,-326.74 2790.33,-326.74"/>
<polygon fill="black" stroke="black" points="2786.83,-326.74 2790.33,-336.74 2793.83,-326.74 2786.83,-326.74"/>
</g>
<!-- SchoolAdminModule -->
<g id="node7" class="node">
<title>SchoolAdminModule</title>
<polygon fill="#8dd3c7" stroke="black" points="518.83,-304.8 515.83,-308.8 494.83,-308.8 491.83,-304.8 381.17,-304.8 381.17,-268.8 518.83,-268.8 518.83,-304.8"/>
<text text-anchor="middle" x="450" y="-282.6" font-family="Times,serif" font-size="14.00">SchoolAdminModule</text>
</g>
<!-- SchoolAdminModule&#45;&gt;AppModule -->
<g id="edge7" class="edge">
<title>SchoolAdminModule&#45;&gt;AppModule</title>
<path fill="none" stroke="black" d="M450,-304.83C450,-321.2 450,-342.8 450,-342.8 450,-342.8 593.17,-342.8 593.17,-342.8"/>
<polygon fill="black" stroke="black" points="593.17,-346.3 603.17,-342.8 593.17,-339.3 593.17,-346.3"/>
</g>
<!-- SchoolAdminService  -->
<g id="node40" class="node">
<title>SchoolAdminService </title>
<polygon fill="#fb8072" stroke="black" points="2700.76,-236.8 2561.24,-236.8 2561.24,-200.8 2700.76,-200.8 2700.76,-236.8"/>
<text text-anchor="middle" x="2631" y="-214.6" font-family="Times,serif" font-size="14.00">SchoolAdminService </text>
</g>
<!-- SchoolAdminModule&#45;&gt;SchoolAdminService  -->
<g id="edge44" class="edge">
<title>SchoolAdminModule&#45;&gt;SchoolAdminService </title>
<path fill="none" stroke="black" stroke-dasharray="5,2" d="M408.8,-268.6C408.8,-262.77 408.8,-257.8 408.8,-257.8 408.8,-257.8 2569.3,-257.8 2569.3,-257.8 2569.3,-257.8 2569.3,-246.93 2569.3,-246.93"/>
<polygon fill="black" stroke="black" points="2572.8,-246.93 2569.3,-236.93 2565.8,-246.93 2572.8,-246.93"/>
</g>
<!-- StatisticsModule -->
<g id="node8" class="node">
<title>StatisticsModule</title>
<polygon fill="#8dd3c7" stroke="black" points="1381.11,-304.8 1378.11,-308.8 1357.11,-308.8 1354.11,-304.8 1270.89,-304.8 1270.89,-268.8 1381.11,-268.8 1381.11,-304.8"/>
<text text-anchor="middle" x="1326" y="-282.6" font-family="Times,serif" font-size="14.00">StatisticsModule</text>
</g>
<!-- StatisticsModule&#45;&gt;AppModule -->
<g id="edge8" class="edge">
<title>StatisticsModule&#45;&gt;AppModule</title>
<path fill="none" stroke="black" d="M1353.53,-304.81C1353.53,-327.29 1353.53,-362.8 1353.53,-362.8 1353.53,-362.8 696.68,-362.8 696.68,-362.8"/>
<polygon fill="black" stroke="black" points="696.68,-359.3 686.68,-362.8 696.68,-366.3 696.68,-359.3"/>
</g>
<!-- StatisticsService  -->
<g id="node42" class="node">
<title>StatisticsService </title>
<polygon fill="#fb8072" stroke="black" points="3199.04,-372.8 3086.96,-372.8 3086.96,-336.8 3199.04,-336.8 3199.04,-372.8"/>
<text text-anchor="middle" x="3143" y="-350.6" font-family="Times,serif" font-size="14.00">StatisticsService </text>
</g>
<!-- StatisticsModule&#45;&gt;StatisticsService  -->
<g id="edge46" class="edge">
<title>StatisticsModule&#45;&gt;StatisticsService </title>
<path fill="none" stroke="black" stroke-dasharray="5,2" d="M1298.47,-304.88C1298.47,-306.65 1298.47,-307.8 1298.47,-307.8 1298.47,-307.8 3129.79,-307.8 3129.79,-307.8 3129.79,-307.8 3129.79,-326.76 3129.79,-326.76"/>
<polygon fill="black" stroke="black" points="3126.29,-326.76 3129.79,-336.76 3133.29,-326.76 3126.29,-326.76"/>
</g>
<!-- StatusModule -->
<g id="node9" class="node">
<title>StatusModule</title>
<polygon fill="#8dd3c7" stroke="black" points="630.78,-304.8 627.78,-308.8 606.78,-308.8 603.78,-304.8 537.22,-304.8 537.22,-268.8 630.78,-268.8 630.78,-304.8"/>
<text text-anchor="middle" x="584" y="-282.6" font-family="Times,serif" font-size="14.00">StatusModule</text>
</g>
<!-- StatusModule&#45;&gt;AppModule -->
<g id="edge9" class="edge">
<title>StatusModule&#45;&gt;AppModule</title>
<path fill="none" stroke="black" d="M617.03,-305.02C617.03,-305.02 617.03,-326.53 617.03,-326.53"/>
<polygon fill="black" stroke="black" points="613.53,-326.53 617.03,-336.53 620.53,-326.53 613.53,-326.53"/>
</g>
<!-- TimezoneModule -->
<g id="node10" class="node">
<title>TimezoneModule</title>
<polygon fill="#8dd3c7" stroke="black" points="764.53,-304.8 761.53,-308.8 740.53,-308.8 737.53,-304.8 649.47,-304.8 649.47,-268.8 764.53,-268.8 764.53,-304.8"/>
<text text-anchor="middle" x="707" y="-282.6" font-family="Times,serif" font-size="14.00">TimezoneModule</text>
</g>
<!-- TimezoneModule&#45;&gt;AppModule -->
<g id="edge10" class="edge">
<title>TimezoneModule&#45;&gt;AppModule</title>
<path fill="none" stroke="black" d="M668.03,-305.02C668.03,-305.02 668.03,-326.53 668.03,-326.53"/>
<polygon fill="black" stroke="black" points="664.53,-326.53 668.03,-336.53 671.53,-326.53 664.53,-326.53"/>
</g>
<!-- UserModule -->
<g id="node11" class="node">
<title>UserModule</title>
<polygon fill="#8dd3c7" stroke="black" points="257.99,-304.8 254.99,-308.8 233.99,-308.8 230.99,-304.8 172.01,-304.8 172.01,-268.8 257.99,-268.8 257.99,-304.8"/>
<text text-anchor="middle" x="215" y="-282.6" font-family="Times,serif" font-size="14.00">UserModule</text>
</g>
<!-- UserModule&#45;&gt;AppModule -->
<g id="edge11" class="edge">
<title>UserModule&#45;&gt;AppModule</title>
<path fill="none" stroke="black" d="M215,-305.08C215,-326.12 215,-357.8 215,-357.8 215,-357.8 592.99,-357.8 592.99,-357.8"/>
<polygon fill="black" stroke="black" points="592.99,-361.3 602.99,-357.8 592.99,-354.3 592.99,-361.3"/>
</g>
<!-- UsersModule -->
<g id="node12" class="node">
<title>UsersModule</title>
<polygon fill="#8dd3c7" stroke="black" points="1490.94,-304.8 1487.94,-308.8 1466.94,-308.8 1463.94,-304.8 1399.06,-304.8 1399.06,-268.8 1490.94,-268.8 1490.94,-304.8"/>
<text text-anchor="middle" x="1445" y="-282.6" font-family="Times,serif" font-size="14.00">UsersModule</text>
</g>
<!-- UsersModule&#45;&gt;AppModule -->
<g id="edge12" class="edge">
<title>UsersModule&#45;&gt;AppModule</title>
<path fill="none" stroke="black" d="M1445,-305.18C1445,-329.08 1445,-367.8 1445,-367.8 1445,-367.8 696.89,-367.8 696.89,-367.8"/>
<polygon fill="black" stroke="black" points="696.89,-364.3 686.89,-367.8 696.89,-371.3 696.89,-364.3"/>
</g>
<!-- UsersService  -->
<g id="node47" class="node">
<title>UsersService </title>
<polygon fill="#fb8072" stroke="black" points="3480.86,-372.8 3387.14,-372.8 3387.14,-336.8 3480.86,-336.8 3480.86,-372.8"/>
<text text-anchor="middle" x="3434" y="-350.6" font-family="Times,serif" font-size="14.00">UsersService </text>
</g>
<!-- UsersModule&#45;&gt;UsersService  -->
<g id="edge54" class="edge">
<title>UsersModule&#45;&gt;UsersService </title>
<path fill="none" stroke="black" stroke-dasharray="5,2" d="M1490.76,-286.8C1788.11,-286.8 3434,-286.8 3434,-286.8 3434,-286.8 3434,-326.58 3434,-326.58"/>
<polygon fill="black" stroke="black" points="3430.5,-326.58 3434,-336.58 3437.5,-326.58 3430.5,-326.58"/>
</g>
<!-- AppService -->
<g id="node14" class="node">
<title>AppService</title>
<ellipse fill="#fdb462" stroke="black" cx="81" cy="-218.8" rx="56.75" ry="18"/>
<text text-anchor="middle" x="81" y="-214.6" font-family="Times,serif" font-size="14.00">AppService</text>
</g>
<!-- AppService&#45;&gt;AppModule -->
<g id="edge13" class="edge">
<title>AppService&#45;&gt;AppModule</title>
<path fill="none" stroke="black" d="M40.08,-231.25C40.08,-267.06 40.08,-367.8 40.08,-367.8 40.08,-367.8 592.94,-367.8 592.94,-367.8"/>
<polygon fill="black" stroke="black" points="592.94,-371.3 602.94,-367.8 592.94,-364.3 592.94,-371.3"/>
</g>
<!-- ArticleService -->
<g id="node15" class="node">
<title>ArticleService</title>
<ellipse fill="#fdb462" stroke="black" cx="222" cy="-218.8" rx="66.61" ry="18"/>
<text text-anchor="middle" x="222" y="-214.6" font-family="Times,serif" font-size="14.00">ArticleService</text>
</g>
<!-- ArticleService&#45;&gt;ArticleModule -->
<g id="edge16" class="edge">
<title>ArticleService&#45;&gt;ArticleModule</title>
<path fill="none" stroke="black" d="M163.6,-227.69C163.6,-246.12 163.6,-286.8 163.6,-286.8 163.6,-286.8 162.69,-286.8 162.69,-286.8"/>
<polygon fill="black" stroke="black" points="164.44,-283.3 154.44,-286.8 164.44,-290.3 164.44,-283.3"/>
</g>
<!-- ArticleService&#45;&gt;AppModule -->
<g id="edge14" class="edge">
<title>ArticleService&#45;&gt;AppModule</title>
<path fill="none" stroke="black" d="M267.11,-232.14C267.11,-266.03 267.11,-352.8 267.11,-352.8 267.11,-352.8 593.12,-352.8 593.12,-352.8"/>
<polygon fill="black" stroke="black" points="593.12,-356.3 603.12,-352.8 593.12,-349.3 593.12,-356.3"/>
</g>
<!-- AssetsService -->
<g id="node18" class="node">
<title>AssetsService</title>
<ellipse fill="#fdb462" stroke="black" cx="1736" cy="-354.8" rx="65.42" ry="18"/>
<text text-anchor="middle" x="1736" y="-350.6" font-family="Times,serif" font-size="14.00">AssetsService</text>
</g>
<!-- AssetsService&#45;&gt;AssetsModule -->
<g id="edge18" class="edge">
<title>AssetsService&#45;&gt;AssetsModule</title>
<path fill="none" stroke="black" d="M1722.11,-337.13C1722.11,-334.05 1722.11,-331.8 1722.11,-331.8 1722.11,-331.8 831,-331.8 831,-331.8 831,-331.8 831,-314.84 831,-314.84"/>
<polygon fill="black" stroke="black" points="834.5,-314.84 831,-304.84 827.5,-314.84 834.5,-314.84"/>
</g>
<!-- DatabaseModule -->
<g id="node19" class="node">
<title>DatabaseModule</title>
<polygon fill="#8dd3c7" stroke="black" points="1773.36,-160.8 1770.36,-164.8 1749.36,-164.8 1746.36,-160.8 1662.64,-160.8 1662.64,-124.8 1773.36,-124.8 1773.36,-160.8"/>
<text text-anchor="middle" x="1718" y="-138.6" font-family="Times,serif" font-size="14.00">DatabaseModule</text>
</g>
<!-- DatabaseModule&#45;&gt;AuthModule -->
<g id="edge19" class="edge">
<title>DatabaseModule&#45;&gt;AuthModule</title>
<path fill="none" stroke="black" d="M1684.74,-160.92C1684.74,-163.77 1684.74,-165.8 1684.74,-165.8 1684.74,-165.8 307.55,-165.8 307.55,-165.8 307.55,-165.8 307.55,-258.69 307.55,-258.69"/>
<polygon fill="black" stroke="black" points="304.05,-258.69 307.55,-268.69 311.05,-258.69 304.05,-258.69"/>
</g>
<!-- DatabaseModule&#45;&gt;CourseModule -->
<g id="edge26" class="edge">
<title>DatabaseModule&#45;&gt;CourseModule</title>
<path fill="none" stroke="black" d="M1729.09,-160.84C1729.09,-173.36 1729.09,-187.8 1729.09,-187.8 1729.09,-187.8 947,-187.8 947,-187.8 947,-187.8 947,-258.64 947,-258.64"/>
<polygon fill="black" stroke="black" points="943.5,-258.64 947,-268.64 950.5,-258.64 943.5,-258.64"/>
</g>
<!-- DatabaseModule&#45;&gt;SchoolAdminModule -->
<g id="edge42" class="edge">
<title>DatabaseModule&#45;&gt;SchoolAdminModule</title>
<path fill="none" stroke="black" d="M1706.91,-160.9C1706.91,-171.89 1706.91,-183.8 1706.91,-183.8 1706.91,-183.8 436.27,-183.8 436.27,-183.8 436.27,-183.8 436.27,-258.39 436.27,-258.39"/>
<polygon fill="black" stroke="black" points="432.77,-258.39 436.27,-268.39 439.77,-258.39 432.77,-258.39"/>
</g>
<!-- DatabaseModule&#45;&gt;UserModule -->
<g id="edge50" class="edge">
<title>DatabaseModule&#45;&gt;UserModule</title>
<path fill="none" stroke="black" d="M1662.47,-132.8C1599.22,-132.8 1504.54,-132.8 1504.54,-132.8 1504.54,-132.8 1504.54,-239.8 1504.54,-239.8 1504.54,-239.8 193.5,-239.8 193.5,-239.8 193.5,-239.8 193.5,-258.76 193.5,-258.76"/>
<polygon fill="black" stroke="black" points="190,-258.76 193.5,-268.76 197,-258.76 190,-258.76"/>
</g>
<!-- DatabaseModule&#45;&gt;UsersModule -->
<g id="edge53" class="edge">
<title>DatabaseModule&#45;&gt;UsersModule</title>
<path fill="none" stroke="black" d="M1662.47,-139.8C1603.18,-139.8 1517.68,-139.8 1517.68,-139.8 1517.68,-139.8 1517.68,-277.8 1517.68,-277.8 1517.68,-277.8 1501.03,-277.8 1501.03,-277.8"/>
<polygon fill="black" stroke="black" points="1501.03,-274.3 1491.03,-277.8 1501.03,-281.3 1501.03,-274.3"/>
</g>
<!-- MailModule -->
<g id="node20" class="node">
<title>MailModule</title>
<polygon fill="#8dd3c7" stroke="black" points="1616.99,-236.8 1613.99,-240.8 1592.99,-240.8 1589.99,-236.8 1531.01,-236.8 1531.01,-200.8 1616.99,-200.8 1616.99,-236.8"/>
<text text-anchor="middle" x="1574" y="-214.6" font-family="Times,serif" font-size="14.00">MailModule</text>
</g>
<!-- DatabaseModule&#45;&gt;MailModule -->
<g id="edge35" class="edge">
<title>DatabaseModule&#45;&gt;MailModule</title>
<path fill="none" stroke="black" d="M1662.58,-153.8C1628.31,-153.8 1590.81,-153.8 1590.81,-153.8 1590.81,-153.8 1590.81,-190.69 1590.81,-190.69"/>
<polygon fill="black" stroke="black" points="1587.31,-190.69 1590.81,-200.69 1594.31,-190.69 1587.31,-190.69"/>
</g>
<!-- RefreshTokenModule -->
<g id="node21" class="node">
<title>RefreshTokenModule</title>
<polygon fill="#8dd3c7" stroke="black" points="1773.36,-236.8 1770.36,-240.8 1749.36,-240.8 1746.36,-236.8 1634.64,-236.8 1634.64,-200.8 1773.36,-200.8 1773.36,-236.8"/>
<text text-anchor="middle" x="1704" y="-214.6" font-family="Times,serif" font-size="14.00">RefreshTokenModule</text>
</g>
<!-- DatabaseModule&#45;&gt;RefreshTokenModule -->
<g id="edge38" class="edge">
<title>DatabaseModule&#45;&gt;RefreshTokenModule</title>
<path fill="none" stroke="black" d="M1751.26,-160.81C1751.26,-160.81 1751.26,-190.65 1751.26,-190.65"/>
<polygon fill="black" stroke="black" points="1747.76,-190.65 1751.26,-200.65 1754.76,-190.65 1747.76,-190.65"/>
</g>
<!-- DatabaseService  -->
<g id="node28" class="node">
<title>DatabaseService </title>
<polygon fill="#fb8072" stroke="black" points="1851.28,-84.8 1738.72,-84.8 1738.72,-48.8 1851.28,-48.8 1851.28,-84.8"/>
<text text-anchor="middle" x="1795" y="-62.6" font-family="Times,serif" font-size="14.00">DatabaseService </text>
</g>
<!-- DatabaseModule&#45;&gt;DatabaseService  -->
<g id="edge29" class="edge">
<title>DatabaseModule&#45;&gt;DatabaseService </title>
<path fill="none" stroke="black" stroke-dasharray="5,2" d="M1756.02,-124.79C1756.02,-124.79 1756.02,-94.95 1756.02,-94.95"/>
<polygon fill="black" stroke="black" points="1759.52,-94.95 1756.02,-84.95 1752.52,-94.95 1759.52,-94.95"/>
</g>
<!-- MailModule&#45;&gt;AuthModule -->
<g id="edge20" class="edge">
<title>MailModule&#45;&gt;AuthModule</title>
<path fill="none" stroke="black" d="M1530.98,-227.8C1313.46,-227.8 345.03,-227.8 345.03,-227.8 345.03,-227.8 345.03,-258.78 345.03,-258.78"/>
<polygon fill="black" stroke="black" points="341.53,-258.78 345.03,-268.78 348.53,-258.78 341.53,-258.78"/>
</g>
<!-- MailModule&#45;&gt;UserModule -->
<g id="edge51" class="edge">
<title>MailModule&#45;&gt;UserModule</title>
<path fill="none" stroke="black" d="M1588.33,-236.99C1588.33,-240.34 1588.33,-242.8 1588.33,-242.8 1588.33,-242.8 215,-242.8 215,-242.8 215,-242.8 215,-258.65 215,-258.65"/>
<polygon fill="black" stroke="black" points="211.5,-258.65 215,-268.65 218.5,-258.65 211.5,-258.65"/>
</g>
<!-- MailService  -->
<g id="node34" class="node">
<title>MailService </title>
<polygon fill="#fb8072" stroke="black" points="856.92,-160.8 769.08,-160.8 769.08,-124.8 856.92,-124.8 856.92,-160.8"/>
<text text-anchor="middle" x="813" y="-138.6" font-family="Times,serif" font-size="14.00">MailService </text>
</g>
<!-- MailModule&#45;&gt;MailService  -->
<g id="edge36" class="edge">
<title>MailModule&#45;&gt;MailService </title>
<path fill="none" stroke="black" stroke-dasharray="5,2" d="M1530.75,-209.8C1370.53,-209.8 819.95,-209.8 819.95,-209.8 819.95,-209.8 819.95,-171.11 819.95,-171.11"/>
<polygon fill="black" stroke="black" points="823.45,-171.11 819.95,-161.11 816.45,-171.11 823.45,-171.11"/>
</g>
<!-- RefreshTokenModule&#45;&gt;AuthModule -->
<g id="edge21" class="edge">
<title>RefreshTokenModule&#45;&gt;AuthModule</title>
<path fill="none" stroke="black" d="M1652.68,-236.94C1652.68,-243.26 1652.68,-248.8 1652.68,-248.8 1652.68,-248.8 354.4,-248.8 354.4,-248.8 354.4,-248.8 354.4,-258.69 354.4,-258.69"/>
<polygon fill="black" stroke="black" points="350.9,-258.69 354.4,-268.69 357.9,-258.69 350.9,-258.69"/>
</g>
<!-- RefreshTokenService  -->
<g id="node36" class="node">
<title>RefreshTokenService </title>
<polygon fill="#fb8072" stroke="black" points="1491.28,-160.8 1350.72,-160.8 1350.72,-124.8 1491.28,-124.8 1491.28,-160.8"/>
<text text-anchor="middle" x="1421" y="-138.6" font-family="Times,serif" font-size="14.00">RefreshTokenService </text>
</g>
<!-- RefreshTokenModule&#45;&gt;RefreshTokenService  -->
<g id="edge39" class="edge">
<title>RefreshTokenModule&#45;&gt;RefreshTokenService </title>
<path fill="none" stroke="black" stroke-dasharray="5,2" d="M1655.57,-200.63C1655.57,-179.3 1655.57,-146.8 1655.57,-146.8 1655.57,-146.8 1501.38,-146.8 1501.38,-146.8"/>
<polygon fill="black" stroke="black" points="1501.38,-143.3 1491.38,-146.8 1501.38,-150.3 1501.38,-143.3"/>
</g>
<!-- AuthService -->
<g id="node23" class="node">
<title>AuthService</title>
<ellipse fill="#fdb462" stroke="black" cx="1970" cy="-142.8" rx="59.11" ry="18"/>
<text text-anchor="middle" x="1970" y="-138.6" font-family="Times,serif" font-size="14.00">AuthService</text>
</g>
<!-- AuthService&#45;&gt;AuthModule -->
<g id="edge23" class="edge">
<title>AuthService&#45;&gt;AuthModule</title>
<path fill="none" stroke="black" d="M1916.86,-151.05C1916.86,-158.99 1916.86,-169.8 1916.86,-169.8 1916.86,-169.8 316.92,-169.8 316.92,-169.8 316.92,-169.8 316.92,-258.78 316.92,-258.78"/>
<polygon fill="black" stroke="black" points="313.42,-258.78 316.92,-268.78 320.42,-258.78 313.42,-258.78"/>
</g>
<!-- JwtStrategy -->
<g id="node24" class="node">
<title>JwtStrategy</title>
<ellipse fill="#fdb462" stroke="black" cx="2104" cy="-142.8" rx="56.77" ry="18"/>
<text text-anchor="middle" x="2104" y="-138.6" font-family="Times,serif" font-size="14.00">JwtStrategy</text>
</g>
<!-- JwtStrategy&#45;&gt;AuthModule -->
<g id="edge24" class="edge">
<title>JwtStrategy&#45;&gt;AuthModule</title>
<path fill="none" stroke="black" d="M2072.36,-158.05C2072.36,-166.29 2072.36,-174.8 2072.36,-174.8 2072.36,-174.8 326.29,-174.8 326.29,-174.8 326.29,-174.8 326.29,-258.31 326.29,-258.31"/>
<polygon fill="black" stroke="black" points="322.79,-258.31 326.29,-268.31 329.79,-258.31 322.79,-258.31"/>
</g>
<!-- LocalStrategy -->
<g id="node25" class="node">
<title>LocalStrategy</title>
<ellipse fill="#fdb462" stroke="black" cx="2244" cy="-142.8" rx="65.4" ry="18"/>
<text text-anchor="middle" x="2244" y="-138.6" font-family="Times,serif" font-size="14.00">LocalStrategy</text>
</g>
<!-- LocalStrategy&#45;&gt;AuthModule -->
<g id="edge25" class="edge">
<title>LocalStrategy&#45;&gt;AuthModule</title>
<path fill="none" stroke="black" d="M2200.68,-156.62C2200.68,-166.77 2200.68,-178.8 2200.68,-178.8 2200.68,-178.8 335.66,-178.8 335.66,-178.8 335.66,-178.8 335.66,-258.48 335.66,-258.48"/>
<polygon fill="black" stroke="black" points="332.16,-258.48 335.66,-268.48 339.16,-258.48 332.16,-258.48"/>
</g>
<!-- CourseService -->
<g id="node27" class="node">
<title>CourseService</title>
<ellipse fill="#fdb462" stroke="black" cx="2030" cy="-354.8" rx="67.2" ry="18"/>
<text text-anchor="middle" x="2030" y="-350.6" font-family="Times,serif" font-size="14.00">CourseService</text>
</g>
<!-- CourseService&#45;&gt;CourseModule -->
<g id="edge28" class="edge">
<title>CourseService&#45;&gt;CourseModule</title>
<path fill="none" stroke="black" d="M1995.98,-339.16C1995.98,-332.75 1995.98,-326.8 1995.98,-326.8 1995.98,-326.8 947,-326.8 947,-326.8 947,-326.8 947,-314.93 947,-314.93"/>
<polygon fill="black" stroke="black" points="950.5,-314.93 947,-304.93 943.5,-314.93 950.5,-314.93"/>
</g>
<!-- DatabaseService -->
<g id="node29" class="node">
<title>DatabaseService</title>
<ellipse fill="#fdb462" stroke="black" cx="1640" cy="-66.8" rx="75.26" ry="18"/>
<text text-anchor="middle" x="1640" y="-62.6" font-family="Times,serif" font-size="14.00">DatabaseService</text>
</g>
<!-- DatabaseService&#45;&gt;DatabaseModule -->
<g id="edge30" class="edge">
<title>DatabaseService&#45;&gt;DatabaseModule</title>
<path fill="none" stroke="black" d="M1688.98,-80.74C1688.98,-80.74 1688.98,-114.64 1688.98,-114.64"/>
<polygon fill="black" stroke="black" points="1685.48,-114.64 1688.98,-124.64 1692.48,-114.64 1685.48,-114.64"/>
</g>
<!-- FileUploadService -->
<g id="node31" class="node">
<title>FileUploadService</title>
<ellipse fill="#fdb462" stroke="black" cx="2346" cy="-354.8" rx="83.39" ry="18"/>
<text text-anchor="middle" x="2346" y="-350.6" font-family="Times,serif" font-size="14.00">FileUploadService</text>
</g>
<!-- FileUploadService&#45;&gt;FileUploadModule -->
<g id="edge32" class="edge">
<title>FileUploadService&#45;&gt;FileUploadModule</title>
<path fill="none" stroke="black" d="M2285.88,-342.14C2285.88,-332.47 2285.88,-320.8 2285.88,-320.8 2285.88,-320.8 1076,-320.8 1076,-320.8 1076,-320.8 1076,-314.99 1076,-314.99"/>
<polygon fill="black" stroke="black" points="1079.5,-314.99 1076,-304.99 1072.5,-314.99 1079.5,-314.99"/>
</g>
<!-- HelperService -->
<g id="node33" class="node">
<title>HelperService</title>
<ellipse fill="#fdb462" stroke="black" cx="2683" cy="-354.8" rx="66.03" ry="18"/>
<text text-anchor="middle" x="2683" y="-350.6" font-family="Times,serif" font-size="14.00">HelperService</text>
</g>
<!-- HelperService&#45;&gt;HelperModule -->
<g id="edge34" class="edge">
<title>HelperService&#45;&gt;HelperModule</title>
<path fill="none" stroke="black" d="M2658.68,-338.03C2658.68,-327.46 2658.68,-315.8 2658.68,-315.8 2658.68,-315.8 1204,-315.8 1204,-315.8 1204,-315.8 1204,-314.72 1204,-314.72"/>
<polygon fill="black" stroke="black" points="1207.5,-315 1204,-305 1200.5,-315 1207.5,-315"/>
</g>
<!-- MailService -->
<g id="node35" class="node">
<title>MailService</title>
<ellipse fill="#fdb462" stroke="black" cx="687" cy="-142.8" rx="58.46" ry="18"/>
<text text-anchor="middle" x="687" y="-138.6" font-family="Times,serif" font-size="14.00">MailService</text>
</g>
<!-- MailService&#45;&gt;MailModule -->
<g id="edge37" class="edge">
<title>MailService&#45;&gt;MailModule</title>
<path fill="none" stroke="black" d="M697.23,-160.81C697.23,-183.29 697.23,-218.8 697.23,-218.8 697.23,-218.8 1520.82,-218.8 1520.82,-218.8"/>
<polygon fill="black" stroke="black" points="1520.82,-222.3 1530.82,-218.8 1520.82,-215.3 1520.82,-222.3"/>
</g>
<!-- JwtRefreshTokenStrategy -->
<g id="node37" class="node">
<title>JwtRefreshTokenStrategy</title>
<ellipse fill="#fdb462" stroke="black" cx="1216" cy="-142.8" rx="111.17" ry="18"/>
<text text-anchor="middle" x="1216" y="-138.6" font-family="Times,serif" font-size="14.00">JwtRefreshTokenStrategy</text>
</g>
<!-- JwtRefreshTokenStrategy&#45;&gt;RefreshTokenModule -->
<g id="edge40" class="edge">
<title>JwtRefreshTokenStrategy&#45;&gt;RefreshTokenModule</title>
<path fill="none" stroke="black" d="M1299.14,-154.9C1299.14,-169.7 1299.14,-192.8 1299.14,-192.8 1299.14,-192.8 1648.57,-192.8 1648.57,-192.8 1648.57,-192.8 1648.57,-193.59 1648.57,-193.59"/>
<polygon fill="black" stroke="black" points="1645.07,-190.74 1648.57,-200.74 1652.07,-190.74 1645.07,-190.74"/>
</g>
<!-- RefreshTokenService -->
<g id="node38" class="node">
<title>RefreshTokenService</title>
<ellipse fill="#fdb462" stroke="black" cx="992" cy="-142.8" rx="94.89" ry="18"/>
<text text-anchor="middle" x="992" y="-138.6" font-family="Times,serif" font-size="14.00">RefreshTokenService</text>
</g>
<!-- RefreshTokenService&#45;&gt;RefreshTokenModule -->
<g id="edge41" class="edge">
<title>RefreshTokenService&#45;&gt;RefreshTokenModule</title>
<path fill="none" stroke="black" d="M1050.71,-156.99C1050.71,-172.99 1050.71,-196.8 1050.71,-196.8 1050.71,-196.8 1641.57,-196.8 1641.57,-196.8 1641.57,-196.8 1641.57,-197.18 1641.57,-197.18"/>
<polygon fill="black" stroke="black" points="1638.07,-190.63 1641.57,-200.63 1645.07,-190.63 1638.07,-190.63"/>
</g>
<!-- RolesGuard -->
<g id="node39" class="node">
<title>RolesGuard</title>
<polygon fill="#8dd3c7" stroke="black" points="2807.38,-236.8 2804.38,-240.8 2783.38,-240.8 2780.38,-236.8 2724.62,-236.8 2724.62,-200.8 2807.38,-200.8 2807.38,-236.8"/>
<text text-anchor="middle" x="2766" y="-214.6" font-family="Times,serif" font-size="14.00">RolesGuard</text>
</g>
<!-- RolesGuard&#45;&gt;SchoolAdminModule -->
<g id="edge43" class="edge">
<title>RolesGuard&#45;&gt;SchoolAdminModule</title>
<path fill="none" stroke="black" d="M2736.91,-236.86C2736.91,-248.24 2736.91,-260.8 2736.91,-260.8 2736.91,-260.8 491.2,-260.8 491.2,-260.8 491.2,-260.8 491.2,-261.59 491.2,-261.59"/>
<polygon fill="black" stroke="black" points="487.7,-258.74 491.2,-268.74 494.7,-258.74 487.7,-258.74"/>
</g>
<!-- SchoolAdminService -->
<g id="node41" class="node">
<title>SchoolAdminService</title>
<ellipse fill="#fdb462" stroke="black" cx="2443" cy="-218.8" rx="93.79" ry="18"/>
<text text-anchor="middle" x="2443" y="-214.6" font-family="Times,serif" font-size="14.00">SchoolAdminService</text>
</g>
<!-- SchoolAdminService&#45;&gt;SchoolAdminModule -->
<g id="edge45" class="edge">
<title>SchoolAdminService&#45;&gt;SchoolAdminModule</title>
<path fill="none" stroke="black" d="M2389.4,-233.86C2389.4,-243.72 2389.4,-254.8 2389.4,-254.8 2389.4,-254.8 463.73,-254.8 463.73,-254.8 463.73,-254.8 463.73,-258.56 463.73,-258.56"/>
<polygon fill="black" stroke="black" points="460.23,-258.56 463.73,-268.56 467.23,-258.56 460.23,-258.56"/>
</g>
<!-- StatisticsService -->
<g id="node43" class="node">
<title>StatisticsService</title>
<ellipse fill="#fdb462" stroke="black" cx="2988" cy="-354.8" rx="74.74" ry="18"/>
<text text-anchor="middle" x="2988" y="-350.6" font-family="Times,serif" font-size="14.00">StatisticsService</text>
</g>
<!-- StatisticsService&#45;&gt;StatisticsModule -->
<g id="edge47" class="edge">
<title>StatisticsService&#45;&gt;StatisticsModule</title>
<path fill="none" stroke="black" d="M2943.87,-339.9C2943.87,-327.14 2943.87,-310.8 2943.87,-310.8 2943.87,-310.8 1326,-310.8 1326,-310.8 1326,-310.8 1326,-310.22 1326,-310.22"/>
<polygon fill="black" stroke="black" points="1329.5,-314.99 1326,-304.99 1322.5,-314.99 1329.5,-314.99"/>
</g>
<!-- StatusService -->
<g id="node44" class="node">
<title>StatusService</title>
<ellipse fill="#fdb462" stroke="black" cx="2911" cy="-218.8" rx="63.71" ry="18"/>
<text text-anchor="middle" x="2911" y="-214.6" font-family="Times,serif" font-size="14.00">StatusService</text>
</g>
<!-- StatusService&#45;&gt;StatusModule -->
<g id="edge48" class="edge">
<title>StatusService&#45;&gt;StatusModule</title>
<path fill="none" stroke="black" d="M2860.09,-229.69C2860.09,-243.01 2860.09,-263.8 2860.09,-263.8 2860.09,-263.8 582.94,-263.8 582.94,-263.8 582.94,-263.8 582.94,-264.29 582.94,-264.29"/>
<polygon fill="black" stroke="black" points="579.44,-258.68 582.94,-268.68 586.44,-258.68 579.44,-258.68"/>
</g>
<!-- TimezoneService -->
<g id="node45" class="node">
<title>TimezoneService</title>
<ellipse fill="#fdb462" stroke="black" cx="3094" cy="-218.8" rx="78.7" ry="18"/>
<text text-anchor="middle" x="3094" y="-214.6" font-family="Times,serif" font-size="14.00">TimezoneService</text>
</g>
<!-- TimezoneService&#45;&gt;TimezoneModule -->
<g id="edge49" class="edge">
<title>TimezoneService&#45;&gt;TimezoneModule</title>
<path fill="none" stroke="black" d="M3039.13,-231.92C3039.13,-246.13 3039.13,-266.8 3039.13,-266.8 3039.13,-266.8 755,-266.8 755,-266.8 755,-266.8 755,-266.98 755,-266.98"/>
<polygon fill="black" stroke="black" points="751.5,-258.65 755,-268.65 758.5,-258.65 751.5,-258.65"/>
</g>
<!-- UserService -->
<g id="node46" class="node">
<title>UserService</title>
<ellipse fill="#fdb462" stroke="black" cx="3271" cy="-218.8" rx="58.46" ry="18"/>
<text text-anchor="middle" x="3271" y="-214.6" font-family="Times,serif" font-size="14.00">UserService</text>
</g>
<!-- UserService&#45;&gt;UserModule -->
<g id="edge52" class="edge">
<title>UserService&#45;&gt;UserModule</title>
<path fill="none" stroke="black" d="M3225.89,-230.41C3225.89,-237.73 3225.89,-245.8 3225.89,-245.8 3225.89,-245.8 236.5,-245.8 236.5,-245.8 236.5,-245.8 236.5,-258.7 236.5,-258.7"/>
<polygon fill="black" stroke="black" points="233,-258.7 236.5,-268.7 240,-258.7 233,-258.7"/>
</g>
<!-- UsersService -->
<g id="node48" class="node">
<title>UsersService</title>
<ellipse fill="#fdb462" stroke="black" cx="3301" cy="-354.8" rx="61.97" ry="18"/>
<text text-anchor="middle" x="3301" y="-350.6" font-family="Times,serif" font-size="14.00">UsersService</text>
</g>
<!-- UsersService&#45;&gt;UsersModule -->
<g id="edge55" class="edge">
<title>UsersService&#45;&gt;UsersModule</title>
<path fill="none" stroke="black" d="M3284.12,-337.42C3284.12,-320.01 3284.12,-295.8 3284.12,-295.8 3284.12,-295.8 1500.92,-295.8 1500.92,-295.8"/>
<polygon fill="black" stroke="black" points="1500.92,-292.3 1490.92,-295.8 1500.92,-299.3 1500.92,-292.3"/>
</g>
</g>
</svg>
