<?xml version="1.0" encoding="iso-8859-1"?>
<!-- Generator: Adobe Illustrator 19.0.0, SVG Export Plug-In . SVG Version: 6.00 Build 0)  -->
<svg version="1.1" id="Capa_1" xmlns="http://www.w3.org/2000/svg" xmlns:xlink="http://www.w3.org/1999/xlink" x="0px" y="0px"
	 viewBox="0 0 512 512" style="enable-background:new 0 0 512 512;" xml:space="preserve">
<g>
	<g>
		<path d="M467,30h-15V15c0-8.284-6.716-15-15-15s-15,6.716-15,15v15h-61V15c0-8.284-6.716-15-15-15s-15,6.716-15,15v15h-60V15
			c0-8.284-6.716-15-15-15s-15,6.716-15,15v15h-60V15c0-8.284-6.716-15-15-15s-15,6.716-15,15v15H90V15c0-8.284-6.716-15-15-15
			S60,6.716,60,15v15H45C20.187,30,0,50.187,0,75c0,18.376,0,371.361,0,392c0,24.813,20.187,45,45,45h422c24.813,0,45-20.187,45-45
			c0-20.645,0-373.633,0-392C512,50.187,491.813,30,467,30z M482,467c0,8.271-6.729,15-15,15H45c-8.271,0-15-6.729-15-15V150h452
			V467z M482,120H30V75c0-8.271,6.729-15,15-15h15v15c0,8.284,6.716,15,15,15s15-6.716,15-15V60h61v15c0,8.284,6.716,15,15,15
			s15-6.716,15-15V60h60v15c0,8.284,6.716,15,15,15s15-6.716,15-15V60h60v15c0,8.284,6.716,15,15,15s15-6.716,15-15V60h61v15
			c0,8.284,6.716,15,15,15s15-6.716,15-15V60h15c8.271,0,15,6.729,15,15V120z"/>
	</g>
</g>
<g>
	<g>
		<path d="M376,422h-15v-45c0-24.813-20.187-45-45-45h-45v-33.58c17.459-6.192,30-22.865,30-42.42c0-7.622-2.176-15.39-4.412-19.297
			l-27.57-48.156C266.345,183.879,261.378,181,256,181s-10.345,2.879-13.018,7.547l-27.57,48.156
			C213.213,240.546,211,248.275,211,256c0,19.555,12.541,36.228,30,42.42V332h-45c-24.813,0-45,20.187-45,45v45h-15
			c-8.284,0-15,6.716-15,15s6.716,15,15,15c7.996,0,227.523,0,240,0c8.284,0,15-6.716,15-15S384.284,422,376,422z M241.944,250.739
			L256,226.189l14.056,24.55c0.627,1.672,0.944,3.438,0.944,5.261c0,8.271-6.729,15-15,15s-15-6.729-15-15
			C241,254.178,241.317,252.412,241.944,250.739z M331,422H181v-45c0-8.271,6.729-15,15-15h120c8.271,0,15,6.729,15,15V422z"/>
	</g>
</g>
<g>
</g>
<g>
</g>
<g>
</g>
<g>
</g>
<g>
</g>
<g>
</g>
<g>
</g>
<g>
</g>
<g>
</g>
<g>
</g>
<g>
</g>
<g>
</g>
<g>
</g>
<g>
</g>
<g>
</g>
</svg>
