<svg version="1.1" id="Capa_1" xmlns="http://www.w3.org/2000/svg" xmlns:xlink="http://www.w3.org/1999/xlink" x="0px" y="0px" viewBox="0 0 512 512" style="enable-background:new 0 0 512 512;" xml:space="preserve">
<g>
	<g>
		<path d="M428.507,0H83.492c-24.813,0-45,20.187-45,45v422c0,24.813,20.187,45,45,45h345.015c24.813,0,45-20.187,45-45V45    C473.507,20.187,453.32,0,428.507,0z M443.508,467L443.508,467c-0.001,8.271-6.73,15-15.001,15H83.492c-8.271,0-15-6.729-15-15V45    c0-8.271,6.729-15,15-15h345.015c8.271,0,15,6.729,15,15V467z"/>
	</g>
</g>
<g>
	<g>
		<path d="M386.609,74.889H125.39c-8.284,0-15,6.716-15,15v78.271c0,8.284,6.716,15,15,15h261.219c8.284,0,15-6.716,15-15V89.889    C401.609,81.605,394.894,74.889,386.609,74.889z M371.609,153.16L371.609,153.16H140.39v-48.271h231.219V153.16z"/>
	</g>
</g>
<g>
	<g>
		<path d="M179.395,242.871H125.39c-8.284,0-15,6.716-15,15v64.703c0,8.284,6.716,15,15,15h54.004c8.284,0,15-6.716,15-15v-64.703    C194.395,249.586,187.679,242.871,179.395,242.871z M164.395,307.574H140.39v-34.703h24.004V307.574z"/>
	</g>
</g>
<g>
	<g>
		<path d="M283.002,242.871h-54.004c-8.284,0-15,6.716-15,15v64.703c0,8.284,6.716,15,15,15h54.004c8.284,0,15-6.716,15-15v-64.703    C298.002,249.586,291.286,242.871,283.002,242.871z M268.002,307.574h-24.004v-34.703h24.004V307.574z"/>
	</g>
</g>
<g>
	<g>
		<path d="M386.609,242.871h-54.004c-8.284,0-15,6.716-15,15v64.703c0,8.284,6.716,15,15,15h54.004c8.284,0,15-6.716,15-15v-64.703    C401.609,249.586,394.894,242.871,386.609,242.871z M371.609,307.574h-24.004v-34.703h24.004V307.574z"/>
	</g>
</g>
<g>
	<g>
		<path d="M179.395,351.059H125.39c-8.284,0-15,6.716-15,15v64.703c0,8.284,6.716,15,15,15h54.004c8.284,0,15-6.716,15-15v-64.703    C194.395,357.775,187.679,351.059,179.395,351.059z M164.395,415.762H140.39v-34.703h24.004V415.762z"/>
	</g>
</g>
<g>
	<g>
		<path d="M283.002,351.059h-54.004c-8.284,0-15,6.716-15,15v64.703c0,8.284,6.716,15,15,15h54.004c8.284,0,15-6.716,15-15v-64.703    C298.002,357.775,291.286,351.059,283.002,351.059z M268.002,415.762h-24.004v-34.703h24.004V415.762z"/>
	</g>
</g>
<g>
	<g>
		<path d="M386.609,351.059h-54.004c-8.284,0-15,6.716-15,15v64.703c0,8.284,6.716,15,15,15h54.004c8.284,0,15-6.716,15-15v-64.703    C401.609,357.775,394.894,351.059,386.609,351.059z M371.609,415.762h-24.004v-34.703h24.004V415.762z"/>
	</g>
</g>
</svg>