<svg width="642" height="469" viewBox="0 0 642 469" fill="none" xmlns="http://www.w3.org/2000/svg">
<g clip-path="url(#clip0_8_42)">
<path d="M267.909 463.675C267.909 463.675 -23.8446 481.432 1.57145 275.949C17.5355 146.853 142.861 147.845 182.774 63.3717C235.539 -48.2935 378.081 -5.74735 489.154 138.924C518.989 177.788 592.831 137.031 621.666 220.377C688.113 412.441 587.565 467.333 380.382 463.682" fill="#ECEEF3"/>
<path d="M346.649 359.749H238.099V458.241H346.649V359.749Z" fill="#939AB9"/>
<path d="M485.858 82.4944H99.7126C90.5613 82.4944 83.1409 89.9081 83.1409 99.0497V343.206C83.1409 352.347 90.5613 359.755 99.7126 359.755H485.858C495.009 359.755 502.429 352.347 502.429 343.206V99.0435C502.429 89.902 495.009 82.4883 485.858 82.4883V82.4944Z" fill="#A2A8C3"/>
<path d="M351.203 458.241H232.71C229.733 458.241 227.321 460.649 227.321 463.62C227.321 466.592 229.733 469 232.71 469H351.203C354.18 469 356.586 466.592 356.586 463.62C356.586 460.649 354.174 458.241 351.203 458.241Z" fill="#838BAF"/>
<path d="M292.785 342.373C298.278 342.373 302.728 337.924 302.728 332.441C302.728 326.957 298.278 322.509 292.785 322.509C287.292 322.509 282.842 326.957 282.842 332.441C282.842 337.924 287.292 342.373 292.785 342.373Z" fill="#838BAF"/>
<path d="M485.465 99.4785H100.118V305.555H485.465V99.4785Z" fill="#ECEEF3"/>
<path d="M423.364 134.525H162.212C154.267 134.525 147.826 140.955 147.826 148.887V256.312C147.826 264.244 154.267 270.674 162.212 270.674H423.364C431.31 270.674 437.751 264.244 437.751 256.312V148.887C437.751 140.955 431.31 134.525 423.364 134.525Z" fill="#E6E6E6"/>
<path d="M147.826 198.516H437.751" stroke="#CCCBCB" stroke-width="2.88" stroke-miterlimit="10"/>
<path d="M180.055 174.363C184.885 174.363 188.801 170.454 188.801 165.632C188.801 160.81 184.885 156.901 180.055 156.901C175.224 156.901 171.308 160.81 171.308 165.632C171.308 170.454 175.224 174.363 180.055 174.363Z" fill="#EB605B"/>
<path d="M207.889 174.363C212.719 174.363 216.635 170.454 216.635 165.632C216.635 160.81 212.719 156.901 207.889 156.901C203.059 156.901 199.143 160.81 199.143 165.632C199.143 170.454 203.059 174.363 207.889 174.363Z" fill="#FABA34"/>
<path d="M235.717 174.363C240.548 174.363 244.463 170.454 244.463 165.632C244.463 160.81 240.548 156.901 235.717 156.901C230.887 156.901 226.971 160.81 226.971 165.632C226.971 170.454 230.887 174.363 235.717 174.363Z" fill="#4FAE44"/>
<path d="M197.498 235.058C197.498 235.781 196.915 236.363 196.191 236.363H187.561L193.662 242.453C194.171 242.961 194.171 243.789 193.662 244.297C193.153 244.806 192.324 244.806 191.815 244.297L185.714 238.207V246.821C185.714 247.544 185.131 248.127 184.406 248.127C183.682 248.127 183.099 247.544 183.099 246.821V238.207L176.998 244.297C176.489 244.806 175.66 244.806 175.151 244.297C174.887 244.034 174.764 243.715 174.764 243.372C174.764 243.029 174.887 242.71 175.151 242.447L181.252 236.357H172.622C171.898 236.357 171.315 235.774 171.315 235.051C171.315 234.328 171.898 233.746 172.622 233.746H181.252L175.151 227.656C174.641 227.148 174.641 226.32 175.151 225.812C175.415 225.548 175.734 225.426 176.078 225.426C176.421 225.426 176.74 225.548 177.004 225.812L183.105 231.902V223.288C183.105 222.565 183.688 221.982 184.412 221.982C185.137 221.982 185.72 222.565 185.72 223.288V231.902L191.821 225.812C192.33 225.303 193.159 225.303 193.668 225.812C194.178 226.32 194.178 227.148 193.668 227.656L187.567 233.746H196.197C196.921 233.746 197.504 234.328 197.504 235.051L197.498 235.058Z" fill="#898989"/>
<path d="M233.63 235.058C233.63 235.781 233.047 236.363 232.323 236.363H223.694L229.794 242.453C230.304 242.961 230.304 243.789 229.794 244.297C229.285 244.806 228.456 244.806 227.947 244.297L221.846 238.207V246.821C221.846 247.544 221.263 248.127 220.539 248.127C219.815 248.127 219.231 247.544 219.231 246.821V238.207L213.131 244.297C212.621 244.806 211.793 244.806 211.283 244.297C211.019 244.034 210.897 243.715 210.897 243.372C210.897 243.029 211.019 242.71 211.283 242.447L217.384 236.357H208.754C208.03 236.357 207.447 235.774 207.447 235.051C207.447 234.328 208.03 233.746 208.754 233.746H217.384L211.283 227.656C210.774 227.148 210.774 226.32 211.283 225.812C211.547 225.548 211.866 225.426 212.21 225.426C212.554 225.426 212.873 225.548 213.137 225.812L219.238 231.902V223.288C219.238 222.565 219.821 221.982 220.545 221.982C221.269 221.982 221.852 222.565 221.852 223.288V231.902L227.953 225.812C228.463 225.303 229.291 225.303 229.801 225.812C230.31 226.32 230.31 227.148 229.801 227.656L223.7 233.746H232.329C233.053 233.746 233.637 234.328 233.637 235.051L233.63 235.058Z" fill="#898989"/>
<path d="M269.757 235.058C269.757 235.781 269.174 236.363 268.449 236.363H259.82L265.921 242.453C266.43 242.961 266.43 243.789 265.921 244.297C265.411 244.806 264.583 244.806 264.073 244.297L257.972 238.207V246.821C257.972 247.544 257.389 248.127 256.665 248.127C255.941 248.127 255.358 247.544 255.358 246.821V238.207L249.257 244.297C248.747 244.806 247.919 244.806 247.409 244.297C247.145 244.034 247.023 243.715 247.023 243.372C247.023 243.029 247.145 242.71 247.409 242.447L253.51 236.357H244.881C244.156 236.357 243.573 235.774 243.573 235.051C243.573 234.328 244.156 233.746 244.881 233.746H253.51L247.409 227.656C246.9 227.148 246.9 226.32 247.409 225.812C247.673 225.548 247.992 225.426 248.336 225.426C248.68 225.426 248.999 225.548 249.263 225.812L255.364 231.902V223.288C255.364 222.565 255.947 221.982 256.671 221.982C257.395 221.982 257.978 222.565 257.978 223.288V231.902L264.079 225.812C264.589 225.303 265.417 225.303 265.927 225.812C266.436 226.32 266.436 227.148 265.927 227.656L259.826 233.746H268.455C269.18 233.746 269.763 234.328 269.763 235.051L269.757 235.058Z" fill="#898989"/>
<path d="M305.883 235.058C305.883 235.781 305.3 236.363 304.576 236.363H295.946L302.047 242.453C302.556 242.961 302.556 243.789 302.047 244.297C301.538 244.806 300.709 244.806 300.2 244.297L294.099 238.207V246.821C294.099 247.544 293.516 248.127 292.791 248.127C292.067 248.127 291.484 247.544 291.484 246.821V238.207L285.383 244.297C284.874 244.806 284.045 244.806 283.536 244.297C283.272 244.034 283.149 243.715 283.149 243.372C283.149 243.029 283.272 242.71 283.536 242.447L289.637 236.357H281.007C280.283 236.357 279.7 235.774 279.7 235.051C279.7 234.328 280.283 233.746 281.007 233.746H289.637L283.536 227.656C283.026 227.148 283.026 226.32 283.536 225.812C283.8 225.548 284.119 225.426 284.463 225.426C284.806 225.426 285.125 225.548 285.389 225.812L291.49 231.902V223.288C291.49 222.565 292.073 221.982 292.797 221.982C293.522 221.982 294.105 222.565 294.105 223.288V231.902L300.206 225.812C300.715 225.303 301.544 225.303 302.053 225.812C302.563 226.32 302.563 227.148 302.053 227.656L295.952 233.746H304.582C305.306 233.746 305.889 234.328 305.889 235.051L305.883 235.058Z" fill="#898989"/>
<path d="M342.009 235.058C342.009 235.781 341.426 236.363 340.702 236.363H332.072L338.173 242.453C338.683 242.961 338.683 243.789 338.173 244.297C337.664 244.806 336.835 244.806 336.326 244.297L330.225 238.207V246.821C330.225 247.544 329.642 248.127 328.918 248.127C328.193 248.127 327.61 247.544 327.61 246.821V238.207L321.51 244.297C321 244.806 320.172 244.806 319.662 244.297C319.398 244.034 319.275 243.715 319.275 243.372C319.275 243.029 319.398 242.71 319.662 242.447L325.763 236.357H317.133C316.409 236.357 315.826 235.774 315.826 235.051C315.826 234.328 316.409 233.746 317.133 233.746H325.763L319.662 227.656C319.153 227.148 319.153 226.32 319.662 225.812C319.926 225.548 320.245 225.426 320.589 225.426C320.933 225.426 321.252 225.548 321.516 225.812L327.617 231.902V223.288C327.617 222.565 328.2 221.982 328.924 221.982C329.648 221.982 330.231 222.565 330.231 223.288V231.902L336.332 225.812C336.841 225.303 337.67 225.303 338.179 225.812C338.689 226.32 338.689 227.148 338.179 227.656L332.079 233.746H340.708C341.432 233.746 342.015 234.328 342.015 235.051L342.009 235.058Z" fill="#898989"/>
<path d="M378.142 235.058C378.142 235.781 377.559 236.363 376.834 236.363H368.205L374.306 242.453C374.815 242.961 374.815 243.789 374.306 244.297C373.796 244.806 372.968 244.806 372.458 244.297L366.357 238.207V246.821C366.357 247.544 365.774 248.127 365.05 248.127C364.326 248.127 363.743 247.544 363.743 246.821V238.207L357.642 244.297C357.133 244.806 356.304 244.806 355.795 244.297C355.531 244.034 355.408 243.715 355.408 243.372C355.408 243.029 355.531 242.71 355.795 242.447L361.895 236.357H353.266C352.542 236.357 351.958 235.774 351.958 235.051C351.958 234.328 352.542 233.746 353.266 233.746H361.895L355.795 227.656C355.285 227.148 355.285 226.32 355.795 225.812C356.058 225.548 356.378 225.426 356.721 225.426C357.065 225.426 357.384 225.548 357.648 225.812L363.749 231.902V223.288C363.749 222.565 364.332 221.982 365.056 221.982C365.781 221.982 366.364 222.565 366.364 223.288V231.902L372.464 225.812C372.974 225.303 373.802 225.303 374.312 225.812C374.821 226.32 374.821 227.148 374.312 227.656L368.211 233.746H376.841C377.565 233.746 378.148 234.328 378.148 235.051L378.142 235.058Z" fill="#898989"/>
<path d="M414.268 235.058C414.268 235.781 413.685 236.363 412.961 236.363H404.331L410.432 242.453C410.941 242.961 410.941 243.789 410.432 244.297C409.923 244.806 409.094 244.806 408.585 244.297L402.484 238.207V246.821C402.484 247.544 401.901 248.127 401.176 248.127C400.452 248.127 399.869 247.544 399.869 246.821V238.207L393.768 244.297C393.259 244.806 392.43 244.806 391.921 244.297C391.657 244.034 391.534 243.715 391.534 243.372C391.534 243.029 391.657 242.71 391.921 242.447L398.022 236.357H389.392C388.668 236.357 388.085 235.774 388.085 235.051C388.085 234.328 388.668 233.746 389.392 233.746H398.022L391.921 227.656C391.411 227.148 391.411 226.32 391.921 225.812C392.185 225.548 392.504 225.426 392.848 225.426C393.191 225.426 393.51 225.548 393.774 225.812L399.875 231.902V223.288C399.875 222.565 400.458 221.982 401.183 221.982C401.907 221.982 402.49 222.565 402.49 223.288V231.902L408.591 225.812C409.1 225.303 409.929 225.303 410.438 225.812C410.948 226.32 410.948 227.148 410.438 227.656L404.337 233.746H412.967C413.691 233.746 414.274 234.328 414.274 235.051L414.268 235.058Z" fill="#898989"/>
<path d="M537.488 203.889H450.867C439.064 203.889 429.496 213.441 429.496 225.224V447.249C429.496 459.032 439.064 468.583 450.867 468.583H537.488C549.291 468.583 558.859 459.032 558.859 447.249V225.224C558.859 213.441 549.291 203.889 537.488 203.889Z" fill="#C1C5D7"/>
<path d="M536.561 212.13H451.788C444.188 212.13 438.027 218.28 438.027 225.867V446.6C438.027 454.186 444.188 460.336 451.788 460.336H536.561C544.161 460.336 550.322 454.186 550.322 446.6V225.867C550.322 218.28 544.161 212.13 536.561 212.13Z" fill="#ECEEF3"/>
<path d="M513.029 207.553H475.319C472.811 207.553 470.778 209.583 470.778 212.087V217.675C470.778 220.179 472.811 222.209 475.319 222.209H513.029C515.538 222.209 517.571 220.179 517.571 217.675V212.087C517.571 209.583 515.538 207.553 513.029 207.553Z" fill="#C1C5D7"/>
<path d="M494.579 302.878H494.248C486.54 302.878 480.291 309.116 480.291 316.811V336.411C480.291 344.106 486.54 350.344 494.248 350.344H494.579C502.288 350.344 508.536 344.106 508.536 336.411V316.811C508.536 309.116 502.288 302.878 494.579 302.878Z" stroke="#EAD9B9" stroke-width="8.12" stroke-miterlimit="10"/>
<path d="M514.84 323.526H473.656C469.612 323.526 466.334 326.798 466.334 330.835V362.114C466.334 366.151 469.612 369.423 473.656 369.423H514.84C518.884 369.423 522.162 366.151 522.162 362.114V330.835C522.162 326.798 518.884 323.526 514.84 323.526Z" fill="#F2E2BD"/>
<path d="M500.06 343.12C500.06 345.559 498.618 347.666 496.537 348.622V353.793C496.537 355.135 495.451 356.22 494.107 356.22H493.861C492.517 356.22 491.431 355.135 491.431 353.793V348.622C489.35 347.66 487.908 345.559 487.908 343.12C487.908 339.769 490.627 337.054 493.984 337.054C497.341 337.054 500.06 339.769 500.06 343.12Z" fill="#898989"/>
</g>
<defs>
<clipPath id="clip0_8_42">
<rect width="642" height="469" fill="white"/>
</clipPath>
</defs>
</svg>
