<svg width="205" height="135" viewBox="0 0 205 135" fill="none" xmlns="http://www.w3.org/2000/svg">
<g clip-path="url(#clip0_43_29)">
<path d="M6.59692 39.7191C4.65942 38.9085 2.98474 37.5764 1.75917 35.8708C0.580424 34.1899 -0.035438 32.1787 -1.83517e-05 30.126H6.70687C6.8082 31.683 7.50746 33.1406 8.65847 34.1941C9.81293 35.2533 11.4347 35.7847 13.5237 35.7884C15.686 35.7884 17.3719 35.2661 18.5814 34.2216C19.1686 33.7283 19.6368 33.1086 19.9509 32.4089C20.2651 31.7093 20.4171 30.9476 20.3955 30.181C20.4451 29.0291 20.0404 27.9038 19.2686 27.0474C18.4947 26.2245 17.546 25.5857 16.4923 25.1783C14.9729 24.6121 13.4219 24.1349 11.847 23.749C9.78519 23.2279 7.7641 22.5573 5.79979 21.7424C4.20173 21.0567 2.80934 19.9674 1.75917 18.5814C0.659676 17.152 0.109931 15.2462 0.109931 12.864C0.0656492 10.8177 0.640498 8.80572 1.75917 7.09168C2.89996 5.40796 4.50381 4.09051 6.37703 3.29843C8.5495 2.38073 10.891 1.93116 13.2488 1.97905C16.9468 1.97905 19.9796 2.90445 22.3471 4.75526C23.513 5.6655 24.468 6.81736 25.1465 8.13167C25.825 9.44599 26.211 10.8916 26.2778 12.3692H19.351C19.2897 11.6682 19.0819 10.9879 18.741 10.3724C18.4 9.75681 17.9336 9.21972 17.3719 8.79589C16.0019 7.75398 14.3084 7.22841 12.5891 7.31158C11.0076 7.24162 9.4515 7.7279 8.19118 8.68594C7.61755 9.16662 7.16458 9.77507 6.86862 10.4625C6.57266 11.1499 6.44195 11.8971 6.48698 12.6441C6.4476 13.7102 6.83319 14.7483 7.55898 15.5303C8.3253 16.3167 9.25398 16.9264 10.2802 17.3169C11.7546 17.8783 13.2597 18.3555 14.7881 18.7463C16.8955 19.2986 18.9621 19.9966 20.9728 20.8353C22.5806 21.5433 23.9809 22.6503 25.0409 24.0513C26.1404 25.499 26.6993 27.4323 26.7176 29.8511C26.7167 31.7937 26.1741 33.6974 25.1508 35.3486C24.0432 37.1276 22.4636 38.5645 20.5879 39.4992C18.3957 40.5883 15.9708 41.1261 13.5237 41.0659C11.1463 41.1026 8.78736 40.6439 6.59692 39.7191V39.7191Z" fill="#1D1D1B"/>
<path d="M33.6719 17.2895C34.862 15.001 36.6843 13.1025 38.922 11.8195C41.2717 10.5077 43.9278 9.84364 46.6184 9.89539C50.2834 9.89539 53.3161 10.7658 55.7167 12.5067C58.171 14.3337 59.8955 16.974 60.5819 19.9557H53.82C53.3322 18.5347 52.4088 17.3036 51.1813 16.4374C49.8277 15.554 48.2335 15.1122 46.6184 15.1729C45.4564 15.126 44.2992 15.347 43.2363 15.8189C42.1734 16.2907 41.2333 17.0008 40.4887 17.8942C38.9641 19.7267 38.2036 22.2647 38.2073 25.5082C38.2109 28.7517 38.9714 31.2988 40.4887 33.1496C41.2291 34.0496 42.1678 34.766 43.2312 35.2429C44.2946 35.7198 45.4539 35.9441 46.6184 35.8983C50.2467 35.8983 52.6473 34.3041 53.82 31.1156H60.5819C59.8018 34.0473 58.0593 36.6319 55.6342 38.4547C53.2153 40.2871 50.2101 41.2034 46.6184 41.2034C43.9241 41.2567 41.2653 40.5825 38.922 39.2518C36.6876 37.9522 34.8673 36.0461 33.6719 33.7543C32.3612 31.207 31.7091 28.3721 31.7753 25.5082C31.7137 22.6535 32.3656 19.8285 33.6719 17.2895V17.2895Z" fill="#1D1D1B"/>
<path d="M88.4265 11.3797C90.2595 12.3893 91.7517 13.9198 92.7146 15.7777C93.8139 17.9565 94.3524 20.3751 94.2813 22.8144V40.6812H88.0692V23.749C88.0692 21.0406 87.3912 18.9607 86.0351 17.5094C84.6791 16.0581 82.8283 15.3251 80.4827 15.3104C78.1335 15.3104 76.2735 16.0434 74.9028 17.5094C73.5321 18.9754 72.8449 21.0552 72.8413 23.749V40.6812H66.5742V0H72.8413V13.9086C73.9291 12.6077 75.3154 11.5892 76.8819 10.9399C78.5784 10.229 80.4026 9.87347 82.2419 9.89542C84.396 9.85781 86.5242 10.3686 88.4265 11.3797V11.3797Z" fill="#1D1D1B"/>
<path d="M107.365 39.2243C105.072 37.9381 103.186 36.0331 101.923 33.7268C100.559 31.1961 99.8774 28.3545 99.9437 25.4806C99.8879 22.6187 100.59 19.7929 101.978 17.2894C103.27 14.9676 105.196 13.061 107.53 11.792C109.958 10.5296 112.655 9.87048 115.392 9.87048C118.128 9.87048 120.825 10.5296 123.253 11.792C125.585 13.0642 127.51 14.97 128.805 17.2894C130.195 19.802 130.897 22.6372 130.839 25.5081C130.893 28.3768 130.171 31.2067 128.75 33.6993C127.398 36.0225 125.429 37.9254 123.06 39.1968C120.623 40.5177 117.889 41.1986 115.117 41.1759C112.407 41.2146 109.734 40.5417 107.365 39.2243V39.2243ZM119.652 34.5789C121.101 33.7715 122.292 32.5709 123.088 31.1155C124.012 29.3945 124.467 27.4607 124.407 25.5081C124.467 23.5709 124.032 21.6503 123.143 19.9282C122.376 18.4865 121.212 17.2942 119.789 16.4923C118.411 15.727 116.858 15.3294 115.282 15.3378C113.713 15.3261 112.169 15.7241 110.801 16.4923C109.386 17.2864 108.238 18.4821 107.503 19.9282C106.648 21.6608 106.233 23.5771 106.293 25.5081C106.293 28.77 107.127 31.2896 108.795 33.0671C109.595 33.9394 110.574 34.6289 111.665 35.089C112.756 35.5491 113.933 35.7689 115.117 35.7334C116.702 35.7395 118.263 35.3422 119.652 34.5789V34.5789Z" fill="#1D1D1B"/>
<path d="M142.164 39.2243C139.871 37.9381 137.985 36.0331 136.722 33.7268C135.358 31.1961 134.676 28.3545 134.743 25.4806C134.687 22.6187 135.389 19.7929 136.777 17.2894C138.069 14.9676 139.994 13.061 142.329 11.792C144.757 10.5296 147.454 9.87048 150.19 9.87048C152.927 9.87048 155.624 10.5296 158.052 11.792C160.384 13.0642 162.309 14.97 163.604 17.2894C164.99 19.7939 165.691 22.619 165.638 25.4806C165.692 28.3493 164.97 31.1792 163.549 33.6719C162.197 35.995 160.228 37.898 157.859 39.1693C155.424 40.4998 152.691 41.1902 149.916 41.1759C147.206 41.2146 144.533 40.5417 142.164 39.2243ZM154.478 34.5789C155.927 33.7715 157.118 32.5709 157.914 31.1155C158.838 29.3945 159.294 27.4607 159.234 25.5081C159.294 23.5709 158.859 21.6503 157.969 19.9282C157.195 18.4827 156.021 17.2901 154.588 16.4923C153.21 15.727 151.657 15.3294 150.08 15.3378C148.512 15.3261 146.968 15.7241 145.6 16.4923C144.185 17.2864 143.037 18.4821 142.302 19.9282C141.447 21.6608 141.031 23.5771 141.092 25.5081C141.092 28.77 141.926 31.2896 143.593 33.0671C144.394 33.9394 145.373 34.6289 146.464 35.089C147.555 35.5491 148.732 35.7689 149.916 35.7334C151.51 35.7441 153.081 35.3467 154.478 34.5789V34.5789Z" fill="#1D1D1B"/>
<path d="M177.837 0V40.6812H171.57V0H177.837Z" fill="#1D1D1B"/>
<path d="M85.1171 71.5219C85.1171 69.0626 83.1246 67.069 80.6669 67.069C78.2091 67.069 76.2167 69.0626 76.2167 71.5219V101.368C76.2167 103.827 78.2091 105.821 80.6669 105.821C83.1246 105.821 85.1171 103.827 85.1171 101.368V71.5219Z" fill="#FFDE81"/>
<path d="M80.6696 106.909C79.2004 106.908 77.7917 106.323 76.7528 105.284C75.7139 104.245 75.1296 102.837 75.1282 101.368V71.5219C75.1282 70.7942 75.2715 70.0736 75.55 69.4013C75.8285 68.729 76.2367 68.1181 76.7512 67.6035C77.2658 67.089 77.8767 66.6808 78.549 66.4023C79.2213 66.1238 79.9419 65.9805 80.6696 65.9805C81.3973 65.9805 82.1179 66.1238 82.7902 66.4023C83.4625 66.6808 84.0734 67.089 84.588 67.6035C85.1026 68.1181 85.5107 68.729 85.7892 69.4013C86.0677 70.0736 86.211 70.7942 86.211 71.5219V101.368C86.2096 102.837 85.6253 104.245 84.5864 105.284C83.5475 106.323 82.1388 106.908 80.6696 106.909V106.909ZM80.6696 68.163C79.7792 68.1644 78.9257 68.5188 78.2961 69.1484C77.6665 69.778 77.3121 70.6315 77.3107 71.5219V101.368C77.2923 101.82 77.3657 102.272 77.5264 102.696C77.6871 103.12 77.9318 103.507 78.2457 103.834C78.5597 104.161 78.9365 104.421 79.3535 104.599C79.7705 104.776 80.2191 104.868 80.6724 104.868C81.1256 104.868 81.5742 104.776 81.9912 104.599C82.4082 104.421 82.785 104.161 83.099 103.834C83.4129 103.507 83.6576 103.12 83.8183 102.696C83.979 102.272 84.0524 101.82 84.034 101.368V71.5219C84.0311 70.6315 83.6754 69.7786 83.0447 69.15C82.4141 68.5214 81.56 68.1685 80.6696 68.1685V68.163Z" fill="black"/>
<path d="M100.307 86.5904C100.307 84.1311 98.3141 82.1375 95.8563 82.1375C93.3985 82.1375 91.4061 84.1311 91.4061 86.5904V101.368C91.4061 103.827 93.3985 105.82 95.8563 105.82C98.3141 105.82 100.307 103.827 100.307 101.368V86.5904Z" fill="#FFDE81"/>
<path d="M95.8536 106.909C94.3853 106.906 92.9781 106.321 91.9403 105.282C90.9026 104.244 90.3191 102.836 90.3176 101.367V86.5848C90.2942 85.8428 90.4202 85.1036 90.688 84.4112C90.9559 83.7188 91.3601 83.0873 91.8767 82.5541C92.3933 82.021 93.0118 81.5971 93.6955 81.3076C94.3791 81.0181 95.1139 80.8689 95.8563 80.8689C96.5987 80.8689 97.3336 81.0181 98.0172 81.3076C98.7008 81.5971 99.3193 82.021 99.8359 82.5541C100.353 83.0873 100.757 83.7188 101.025 84.4112C101.292 85.1036 101.418 85.8428 101.395 86.5848V101.367C101.394 102.837 100.809 104.245 99.7704 105.284C98.7314 106.323 97.3228 106.907 95.8536 106.909V106.909ZM95.8536 83.2259C94.9632 83.2274 94.1097 83.5817 93.48 84.2113C92.8504 84.8409 92.4961 85.6944 92.4946 86.5848V101.367C92.4763 101.82 92.5497 102.272 92.7104 102.696C92.8711 103.12 93.1157 103.507 93.4297 103.834C93.7437 104.161 94.1205 104.421 94.5375 104.599C94.9545 104.776 95.4031 104.868 95.8563 104.868C96.3096 104.868 96.7582 104.776 97.1752 104.599C97.5922 104.421 97.969 104.161 98.2829 103.834C98.5969 103.507 98.8416 103.12 99.0023 102.696C99.1629 102.272 99.2363 101.82 99.218 101.367V86.5848C99.2166 85.6935 98.8614 84.8391 98.2307 84.2094C97.5999 83.5796 96.7449 83.2259 95.8536 83.2259V83.2259Z" fill="black"/>
<path d="M95.8536 75.9748C98.3129 75.9748 100.307 73.9812 100.307 71.5219C100.307 69.0626 98.3129 67.069 95.8536 67.069C93.3943 67.069 91.4006 69.0626 91.4006 71.5219C91.4006 73.9812 93.3943 75.9748 95.8536 75.9748Z" fill="#FFDE81"/>
<path d="M95.8536 77.0633C94.7576 77.0633 93.6862 76.7383 92.7749 76.1294C91.8636 75.5205 91.1534 74.6551 90.734 73.6425C90.3145 72.63 90.2048 71.5158 90.4186 70.4408C90.6324 69.3659 91.1602 68.3785 91.9352 67.6035C92.7102 66.8285 93.6976 66.3008 94.7725 66.0869C95.8474 65.8731 96.9616 65.9829 97.9742 66.4023C98.9867 66.8217 99.8522 67.532 100.461 68.4433C101.07 69.3545 101.395 70.4259 101.395 71.5219C101.394 72.9911 100.809 74.3998 99.7703 75.4387C98.7314 76.4776 97.3228 77.0619 95.8536 77.0633V77.0633ZM95.8536 68.163C95.1895 68.164 94.5406 68.362 93.9889 68.7317C93.4373 69.1015 93.0076 69.6264 92.7542 70.2403C92.5008 70.8542 92.4351 71.5294 92.5653 72.1806C92.6956 72.8318 93.0159 73.4298 93.4859 73.899C93.9559 74.3682 94.5544 74.6875 95.2058 74.8167C95.8572 74.9459 96.5323 74.879 97.1457 74.6246C97.7592 74.3702 98.2835 73.9397 98.6523 73.3875C99.0211 72.8352 99.218 72.186 99.218 71.5219C99.2151 70.6315 98.8593 69.7786 98.2287 69.15C97.5981 68.5214 96.744 68.1685 95.8536 68.1685V68.163Z" fill="black"/>
<path d="M94.8476 109.889H94.7156C94.1131 109.887 93.5164 110.006 92.9604 110.238C92.4044 110.471 91.9003 110.811 91.4776 111.241V111.241C91.0547 110.813 90.551 110.473 89.9956 110.24C89.4402 110.008 88.8443 109.889 88.2424 109.889C87.6405 109.889 87.0445 110.008 86.4891 110.24C85.9338 110.473 85.43 110.813 85.0071 111.241C84.5845 110.811 84.0804 110.471 83.5244 110.238C82.9684 110.006 82.3717 109.887 81.7691 109.889C81.6427 109.889 81.5217 109.889 81.3953 109.889C78.4432 110.125 76.7335 113.385 78.0089 116.062L78.3607 116.799L78.4487 116.969C78.4487 117.013 78.4871 117.057 78.5036 117.096L78.916 117.953L81.5327 123.423C81.9157 124.226 82.5179 124.904 83.2699 125.379C84.0219 125.853 84.8929 126.106 85.7823 126.106H90.785C91.6797 126.105 92.5558 125.849 93.3111 125.37C94.0663 124.89 94.6697 124.205 95.051 123.396L97.6183 117.898L98.5364 115.947C98.8316 115.311 98.9655 114.611 98.9261 113.911C98.8867 113.211 98.6753 112.531 98.3105 111.932C97.9458 111.333 97.4389 110.833 96.8349 110.477C96.2309 110.12 95.5483 109.918 94.8476 109.889Z" fill="#DDBD97"/>
<path d="M90.785 127.211H85.7603C84.6664 127.207 83.5956 126.896 82.6702 126.313C81.7448 125.73 81.002 124.898 80.5267 123.913L77.5141 117.585C77.4917 117.54 77.4715 117.494 77.4536 117.448C77.4207 117.393 77.3987 117.343 77.3712 117.288L77.0193 116.546C76.6354 115.742 76.4528 114.856 76.4873 113.965C76.5217 113.075 76.7723 112.206 77.2173 111.433C77.6292 110.695 78.2171 110.07 78.9287 109.613C79.6403 109.157 80.4536 108.883 81.2964 108.817C82.6084 108.71 83.9167 109.064 84.9961 109.817C85.9452 109.155 87.0744 108.801 88.2314 108.801C89.3884 108.801 90.5176 109.155 91.4666 109.817C92.4635 109.12 93.659 108.763 94.8751 108.8C95.7515 108.827 96.6074 109.072 97.3656 109.513C98.1238 109.953 98.7604 110.575 99.218 111.323C99.6889 112.085 99.9621 112.952 100.013 113.846C100.064 114.739 99.8908 115.632 99.5094 116.442L96.024 123.874C95.5549 124.868 94.8139 125.709 93.8867 126.3C92.9596 126.89 91.8842 127.206 90.785 127.211ZM81.7691 110.977H81.4833C80.9941 111.018 80.5225 111.179 80.1103 111.446C79.698 111.712 79.3577 112.076 79.1194 112.505C78.8474 112.971 78.6937 113.496 78.6717 114.034C78.6496 114.573 78.7599 115.109 78.9929 115.595L79.3448 116.332L79.4107 116.458L79.4877 116.628L82.5168 122.962C82.8136 123.576 83.2772 124.094 83.8546 124.458C84.432 124.822 85.1 125.015 85.7823 125.018H90.785C91.4761 125.021 92.1537 124.826 92.7381 124.457C93.3224 124.088 93.7892 123.559 94.0834 122.934L97.5688 115.507C97.7963 115.024 97.8994 114.492 97.8687 113.959C97.838 113.426 97.6744 112.909 97.3929 112.456C97.1266 112.013 96.7527 111.644 96.3058 111.383C95.859 111.123 95.3536 110.979 94.8366 110.966H94.7376C94.2794 110.965 93.8256 111.056 93.4027 111.232C92.9798 111.409 92.5963 111.668 92.2748 111.994L91.4996 112.78L90.708 112.005C90.3859 111.675 90.0011 111.413 89.5763 111.234C89.1515 111.055 88.6951 110.963 88.2341 110.963C87.7732 110.963 87.3168 111.055 86.892 111.234C86.4672 111.413 86.0824 111.675 85.7603 112.005L84.9851 112.791L84.21 112.005C83.891 111.681 83.5112 111.424 83.0923 111.247C82.6733 111.071 82.2237 110.979 81.7691 110.977V110.977Z" fill="black"/>
<path d="M85.5288 111.195L84.4883 111.287L85.7954 126.078L86.8358 125.986L85.5288 111.195Z" fill="black"/>
<path d="M90.9584 111.195L89.6488 125.985L90.6892 126.078L91.9989 111.287L90.9584 111.195Z" fill="black"/>
<path d="M85.9307 129.262H90.5925C90.7875 129.262 90.9785 129.317 91.1441 129.42C91.3097 129.523 91.4434 129.67 91.5302 129.844C91.6169 130.019 91.6533 130.214 91.6353 130.409C91.6173 130.603 91.5455 130.788 91.4281 130.944L89.0972 133.995C88.9983 134.119 88.8729 134.219 88.7301 134.287C88.5874 134.356 88.431 134.392 88.2726 134.392C88.1142 134.392 87.9578 134.356 87.8151 134.287C87.6723 134.219 87.5469 134.119 87.448 133.995L85.117 130.944C84.9986 130.79 84.9253 130.607 84.9053 130.414C84.8853 130.221 84.9194 130.026 85.0039 129.851C85.0884 129.677 85.2198 129.529 85.3835 129.425C85.5472 129.321 85.7367 129.264 85.9307 129.262Z" fill="black"/>
<path d="M9.40064 68.0585V91.1478C9.40064 93.4567 9.96871 95.2342 11.1049 96.4803C12.241 97.7264 13.9086 98.3494 16.1075 98.3494C18.3065 98.3494 19.9924 97.7264 21.1652 96.4803C22.338 95.2342 22.9244 93.4567 22.9244 91.1478V68.0585H32.325V91.0928C32.325 94.5415 31.592 97.4552 30.126 99.8338C28.7173 102.162 26.6648 104.033 24.2163 105.221C21.6431 106.45 18.8216 107.071 15.9701 107.035C13.1468 107.085 10.3511 106.473 7.80638 105.249C5.41172 104.065 3.42901 102.188 2.11652 99.8612C0.705506 97.4607 0 94.5379 0 91.0928V68.0585H9.40064Z" fill="#1D1D1B"/>
<path d="M55.7442 98.6793V106.651H50.9614C47.553 106.651 44.8959 105.817 42.9901 104.149C41.0843 102.482 40.1314 99.7605 40.1314 95.9855V83.7812H36.3931V75.9748H40.1314V68.4983H49.532V75.9748H55.6892V83.7812H49.532V96.0955C49.4977 96.4532 49.5387 96.814 49.6523 97.1549C49.7659 97.4958 49.9497 97.809 50.1917 98.0746C50.8267 98.5371 51.6086 98.7521 52.3907 98.6793H55.7442Z" fill="#1D1D1B"/>
<path d="M61.3791 71.3295C60.8749 70.8768 60.474 70.3209 60.2036 69.6996C59.9333 69.0783 59.7998 68.4061 59.8123 67.7286C59.7959 67.0425 59.9273 66.3609 60.1976 65.7301C60.468 65.0993 60.8709 64.5341 61.3791 64.0728C62.4839 63.078 63.9342 62.5551 65.4197 62.616C66.8876 62.5619 68.3183 63.0849 69.4053 64.0728C69.9135 64.5341 70.3164 65.0993 70.5868 65.7301C70.8571 66.3609 70.9885 67.0425 70.9721 67.7286C70.9846 68.4061 70.8511 69.0783 70.5808 69.6996C70.3104 70.3209 69.9095 70.8768 69.4053 71.3295C68.3183 72.3174 66.8876 72.8404 65.4197 72.7863C63.9342 72.8472 62.4839 72.3243 61.3791 71.3295V71.3295ZM70.0925 75.9748V106.651H60.6919V75.9748H70.0925Z" fill="#1D1D1B"/>
<path d="M125.617 98.6793V106.651H120.834C117.426 106.651 114.768 105.817 112.863 104.149C110.957 102.482 110.004 99.7605 110.004 95.9855V83.7812H106.266V75.9748H110.004V68.4983H119.405V75.9748H125.562V83.7812H119.405V96.0955C119.37 96.4532 119.411 96.814 119.525 97.1549C119.639 97.4958 119.822 97.809 120.064 98.0746C120.699 98.5371 121.481 98.7521 122.263 98.6793H125.617Z" fill="#1D1D1B"/>
<path d="M131.252 71.3295C130.747 70.8768 130.347 70.3209 130.076 69.6996C129.806 69.0783 129.672 68.4061 129.685 67.7286C129.668 67.0425 129.8 66.3609 130.07 65.7301C130.341 65.0993 130.744 64.5341 131.252 64.0728C132.357 63.078 133.807 62.5551 135.292 62.616C136.76 62.5619 138.191 63.0849 139.278 64.0728C139.786 64.5341 140.189 65.0993 140.459 65.7301C140.73 66.3609 140.861 67.0425 140.845 67.7286C140.857 68.4061 140.724 69.0783 140.453 69.6996C140.183 70.3209 139.782 70.8768 139.278 71.3295C138.191 72.3174 136.76 72.8404 135.292 72.7863C133.807 72.8472 132.357 72.3243 131.252 71.3295V71.3295ZM139.965 75.9748V106.651H130.564V75.9748H139.965Z" fill="#1D1D1B"/>
<path d="M175.259 93.5667H153.984C154.127 95.4725 154.74 96.9385 155.825 97.9646C156.904 98.9721 158.336 99.515 159.811 99.4764C162.153 99.4764 163.784 98.4869 164.704 96.5078H174.709C174.203 98.5069 173.254 100.367 171.933 101.95C170.566 103.58 168.846 104.878 166.903 105.744C164.774 106.684 162.467 107.153 160.141 107.118C157.345 107.169 154.583 106.506 152.115 105.194C149.789 103.932 147.879 102.022 146.617 99.6963C145.252 97.1268 144.57 94.2492 144.638 91.3402C144.57 88.4344 145.241 85.5589 146.59 82.9841C147.842 80.6513 149.754 78.7392 152.087 77.4866C154.574 76.1694 157.355 75.5073 160.168 75.5625C162.922 75.5102 165.645 76.153 168.085 77.4317C170.365 78.6513 172.245 80.5028 173.5 82.7642C174.841 85.2427 175.514 88.0279 175.451 90.8454C175.439 91.7554 175.375 92.664 175.259 93.5667ZM165.803 88.3441C165.834 87.62 165.702 86.8982 165.417 86.2321C165.131 85.566 164.7 84.9726 164.154 84.4959C163.004 83.5257 161.535 83.0164 160.031 83.0666C158.579 83.0217 157.161 83.5106 156.045 84.4409C154.914 85.4468 154.198 86.8386 154.039 88.3441H165.803Z" fill="#1D1D1B"/>
<path d="M185.429 105.716C183.483 104.908 181.778 103.611 180.481 101.95C179.289 100.403 178.582 98.5384 178.447 96.5902H187.738C187.785 97.1023 187.942 97.5983 188.198 98.0442C188.454 98.4901 188.804 98.8755 189.222 99.174C190.164 99.8539 191.305 100.202 192.466 100.164C193.422 100.22 194.372 99.9802 195.187 99.4763C195.485 99.2833 195.729 99.0184 195.897 98.7062C196.065 98.3939 196.152 98.0443 196.149 97.6897C196.15 97.2622 196.018 96.845 195.772 96.4954C195.526 96.1459 195.178 95.8813 194.775 95.7381C193.333 95.1454 191.843 94.6764 190.322 94.3362C188.454 93.9226 186.617 93.3807 184.824 92.7145C183.356 92.1459 182.052 91.22 181.031 90.0207C179.965 88.7948 179.437 87.1346 179.437 85.0455C179.422 83.3313 179.93 81.6532 180.894 80.2353C181.965 78.7033 183.453 77.5108 185.182 76.7994C187.313 75.9093 189.607 75.4785 191.916 75.5349C195.764 75.5349 198.797 76.4878 201.014 78.3936C203.25 80.3137 204.634 83.0417 204.863 85.9801H196.149C196.094 85.4869 195.942 85.0096 195.701 84.5756C195.46 84.1415 195.136 83.7594 194.747 83.4513C193.849 82.7948 192.753 82.4651 191.641 82.5167C190.753 82.4588 189.869 82.6798 189.112 83.1489C188.832 83.3402 188.604 83.5992 188.45 83.902C188.297 84.2047 188.222 84.5413 188.233 84.8806C188.237 85.3177 188.377 85.7426 188.633 86.097C188.889 86.4514 189.249 86.7178 189.662 86.8597C191.07 87.4468 192.535 87.8889 194.033 88.1791C195.916 88.6451 197.77 89.2233 199.585 89.9108C201.048 90.5026 202.341 91.4469 203.351 92.6595C204.428 93.9239 204.978 95.619 205 97.7446C205.022 99.4683 204.492 101.154 203.488 102.555C202.373 104.034 200.87 105.176 199.145 105.853C197.06 106.698 194.825 107.109 192.576 107.063C190.126 107.117 187.691 106.658 185.429 105.716V105.716Z" fill="#1D1D1B"/>
</g>
<defs>
<clipPath id="clip0_43_29">
<rect width="205" height="134.402" fill="white"/>
</clipPath>
</defs>
</svg>