<svg width="24" height="26" viewBox="0 0 24 26" fill="none" xmlns="http://www.w3.org/2000/svg">
<path d="M2.27512 25.8371C1.6867 25.8742 1.10802 25.6623 0.661097 25.2461C-0.220325 24.2855 -0.220325 22.7342 0.661097 21.7736L19.9614 0.864931C20.8781 -0.0643962 22.3167 -0.0127355 23.1745 0.980418C23.9502 1.87852 23.9954 3.25893 23.2804 4.21429L3.86638 25.2461C3.42522 25.6563 2.85582 25.8678 2.27512 25.8371Z" fill="#DB8A8A"/>
<path d="M21.5527 25.8371C20.9563 25.8344 20.3848 25.5779 19.9614 25.123L0.66102 4.21421C-0.155571 3.18115 -0.0445515 1.62646 0.909037 0.741741C1.76014 -0.0478503 3.01535 -0.0478503 3.86638 0.741741L23.2803 21.6504C24.1969 22.58 24.2443 24.1385 23.3862 25.1314C23.3521 25.1709 23.3168 25.2091 23.2803 25.2461C22.805 25.6939 22.1794 25.9079 21.5527 25.8371Z" fill="#DB8A8A"/>
</svg>
