<svg width="352" height="230" viewBox="0 0 352 230" fill="none" xmlns="http://www.w3.org/2000/svg">
<rect width="352" height="230" rx="5" fill="#2F3136"/>
<rect x="69" y="36" width="39" height="8" rx="4" fill="#898989"/>
<rect x="69" y="48" width="24" height="8" rx="4" fill="#898989"/>
<rect x="32" y="32" width="29" height="29" rx="5" fill="#FFDE81"/>
<rect x="230" y="34" width="90" height="25" rx="12.5" fill="#A2A8C3"/>
<rect x="32" y="87" width="90" height="111" rx="5" fill="#42454C"/>
<rect x="40" y="95" width="74" height="23" rx="5" fill="#B8D8B8"/>
<rect x="40" y="126" width="68" height="4" rx="2" fill="#898989"/>
<rect x="40" y="138" width="47" height="4" rx="2" fill="#898989"/>
<rect x="40" y="150" width="64" height="4" rx="2" fill="#898989"/>
<rect x="40" y="162" width="58" height="4" rx="2" fill="#898989"/>
<rect x="40" y="174" width="53" height="4" rx="2" fill="#898989"/>
<rect x="40" y="186" width="67" height="4" rx="2" fill="#898989"/>
<rect x="131" y="87" width="90" height="111" rx="5" fill="#42454C"/>
<rect x="139" y="95" width="74" height="23" rx="5" fill="#D8C7B8"/>
<rect x="139" y="126" width="68" height="4" rx="2" fill="#898989"/>
<rect x="139" y="138" width="47" height="4" rx="2" fill="#898989"/>
<rect x="139" y="150" width="64" height="4" rx="2" fill="#898989"/>
<rect x="139" y="162" width="58" height="4" rx="2" fill="#898989"/>
<rect x="139" y="174" width="53" height="4" rx="2" fill="#898989"/>
<rect x="139" y="186" width="67" height="4" rx="2" fill="#898989"/>
<rect x="230" y="87" width="90" height="111" rx="5" fill="#42454C"/>
<rect x="238" y="95" width="74" height="23" rx="5" fill="#DB8A8A"/>
<rect x="238" y="126" width="68" height="4" rx="2" fill="#898989"/>
<rect x="238" y="138" width="47" height="4" rx="2" fill="#898989"/>
<rect x="238" y="150" width="64" height="4" rx="2" fill="#898989"/>
<rect x="238" y="162" width="58" height="4" rx="2" fill="#898989"/>
<rect x="238" y="174" width="53" height="4" rx="2" fill="#898989"/>
<rect x="238" y="186" width="67" height="4" rx="2" fill="#898989"/>
</svg>
