<svg id="Capa_1" enable-background="new 0 0 512 512" height="512" viewBox="0 0 512 512" width="512" xmlns="http://www.w3.org/2000/svg" fill="currentColor"><g><path d="m494.889 260.87-120.219-39.979v-13.978c0-8.842-4.739-17.108-12.368-21.574l-91.302-53.455v-41.884h85c8.284 0 15-6.716 15-15v-60c0-8.284-6.716-15-15-15h-100c-8.284 0-15 6.716-15 15v116.837l-91.372 53.501c-7.629 4.467-12.368 12.733-12.368 21.574v13.98l-120.153 39.978c-10.232 3.404-17.107 12.938-17.107 23.722v202.408c0 13.785 11.215 25 25 25h462c13.785 0 25-11.215 25-25v-202.407c0-10.785-6.876-20.319-17.111-23.723zm-153.889-200.87h-70v-30h70zm-311 228.198 107.26-35.688v229.49h-107.26zm137.26-78.419 88.701-51.938 88.709 51.938v272.221h-35.927v-74.257c0-29.083-23.66-52.743-52.743-52.743s-52.743 23.66-52.743 52.743v74.257h-35.997c0-13.887 0-262.67 0-272.221zm65.997 272.221v-74.257c0-12.541 10.202-22.743 22.743-22.743s22.743 10.202 22.743 22.743v74.257zm248.743 0h-107.33v-229.494l107.33 35.693z"/><path d="m256 314.878c27.754 0 50.333-22.579 50.333-50.333s-22.579-50.333-50.333-50.333-50.333 22.579-50.333 50.333 22.579 50.333 50.333 50.333zm0-70.666c11.212 0 20.333 9.121 20.333 20.333s-9.121 20.333-20.333 20.333-20.333-9.121-20.333-20.333 9.121-20.333 20.333-20.333z"/><path d="m83.63 317.787c-8.284 0-15 6.716-15 15v10.803c0 8.284 6.716 15 15 15s15-6.716 15-15v-10.803c0-8.284-6.716-15-15-15z"/><path d="m83.63 392.12c-8.284 0-15 6.716-15 15v10.803c0 8.284 6.716 15 15 15s15-6.716 15-15v-10.803c0-8.284-6.716-15-15-15z"/><path d="m428.335 358.59c8.284 0 15-6.716 15-15v-10.803c0-8.284-6.716-15-15-15s-15 6.716-15 15v10.803c0 8.284 6.716 15 15 15z"/><path d="m428.335 432.923c8.284 0 15-6.716 15-15v-10.803c0-8.284-6.716-15-15-15s-15 6.716-15 15v10.803c0 8.284 6.716 15 15 15z"/></g></svg>