<svg width="24" height="24" viewBox="0 0 24 24" fill="none" xmlns="http://www.w3.org/2000/svg">
<g clip-path="url(#clip0_2_499)">
<path d="M24 22.5C24 23.3284 23.3284 24 22.5 24H1.5C0.671578 24 0 23.3284 0 22.5C0 21.6716 0.671578 21 1.5 21H22.5C23.3284 21 24 21.6716 24 22.5ZM10.9394 17.7482C11.2323 18.0411 11.6161 18.1875 12 18.1875C12.3838 18.1875 12.7678 18.0411 13.0606 17.7482L18.3752 12.4336C18.961 11.8478 18.961 10.8981 18.3752 10.3123C17.7894 9.72652 16.8397 9.72652 16.2539 10.3123L13.5 13.0662V1.5C13.5 0.671578 12.8284 0 12 0C11.1716 0 10.5 0.671578 10.5 1.5V13.0662L7.74609 10.3123C7.1603 9.72652 6.21056 9.72652 5.62477 10.3123C5.03897 10.8981 5.03897 11.8478 5.62477 12.4336L10.9394 17.7482Z" fill="#A2A8C3"/>
</g>
<defs>
<clipPath id="clip0_2_499">
<rect width="24" height="24" fill="white"/>
</clipPath>
</defs>
</svg>
