<svg id="Capa_1" enable-background="new 0 0 512 512" height="512" viewBox="0 0 512 512" width="512" xmlns="http://www.w3.org/2000/svg"><g><path d="m497 461h-15v-90h15c8.284 0 15-6.716 15-15s-6.716-15-15-15h-56v-90h15c8.284 0 15-6.716 15-15s-6.716-15-15-15h-55v-102.572l78.324-17.801c15.568-3.538 15.568-25.716 0-29.254l-219.999-50c-2.188-.497-4.46-.497-6.649 0l-220 50c-7.784 1.769-11.676 8.198-11.676 14.627v90c0 8.284 6.716 15 15 15s15-6.716 15-15v-71.208l60 13.636v102.572h-25c-24.813 0-45 20.187-45 45v60c0 5.272.919 10.331 2.592 15.036-24.162.748-43.592 20.623-43.592 44.964v60c0 24.813 20.187 45 45 45h452c8.284 0 15-6.716 15-15s-6.716-15-15-15zm-241-409.618 152.317 34.618-152.317 34.618-152.317-34.618zm-115 73.864 111.676 25.381c2.188.497 4.46.497 6.649 0l111.675-25.381v95.754h-230zm-70 140.754c0-8.271 6.729-15 15-15h325v30h-295c-8.284 0-15 6.716-15 15s6.716 15 15 15h295v30h-325c-8.271 0-15-6.729-15-15zm-41 180v-60c0-8.271 6.729-15 15-15h407v30h-377c-8.284 0-15 6.716-15 15s6.716 15 15 15h377v30h-407c-8.271 0-15-6.729-15-15z"/></g></svg>
