<svg width="512" height="442" viewBox="0 0 512 442" fill="none" xmlns="http://www.w3.org/2000/svg">
<path d="M509.453 212.638C508.311 210.938 480.98 170.53 436.576 129.633C410.286 105.421 383.43 86.078 356.755 72.143C322.702 54.353 288.804 45.333 256.001 45.333C223.198 45.333 189.3 54.353 155.247 72.143C128.571 86.079 101.716 105.421 75.426 129.633C31.021 170.53 3.69101 210.938 2.54801 212.638C-0.849988 217.696 -0.849988 224.305 2.54801 229.363C3.69001 231.063 31.021 271.471 75.425 312.368C101.715 336.58 128.571 355.923 155.246 369.858C189.299 387.648 223.197 396.668 256 396.668C288.803 396.668 322.701 387.648 356.754 369.858C383.43 355.922 410.285 336.58 436.575 312.368C480.979 271.471 508.31 231.063 509.452 229.363C512.85 224.305 512.85 217.696 509.453 212.638ZM415.781 290.735C378.062 325.375 319.723 366.668 256.002 366.668C192.281 366.668 133.942 325.375 96.223 290.735C65.86 262.851 43.555 234.614 33.454 221C43.557 207.385 65.86 179.149 96.222 151.266C133.941 116.626 192.28 75.333 256.001 75.333C319.722 75.333 378.062 116.626 415.78 151.266C446.141 179.15 468.447 207.387 478.548 221C468.445 234.615 446.141 262.851 415.781 290.735Z" fill="black"/>
<path d="M256 141.734C212.293 141.734 176.734 177.293 176.734 221.001C176.734 264.709 212.293 300.268 256 300.268C299.708 300.268 335.268 264.709 335.268 221.001C335.268 177.293 299.708 141.734 256 141.734ZM256 270.267C228.835 270.267 206.734 248.166 206.734 221C206.734 193.834 228.835 171.733 256 171.733C283.166 171.733 305.268 193.834 305.268 221C305.268 248.166 283.167 270.267 256 270.267Z" fill="black"/>
</svg>
