<svg width="41" height="41" viewBox="0 0 41 41" fill="none" xmlns="http://www.w3.org/2000/svg">
<path d="M33.825 39.7188H12.5178C11.6037 39.7188 10.7271 39.3556 10.0807 38.7093C9.43435 38.0629 9.07123 37.1863 9.07123 36.2722V4.72781C9.07123 3.81373 9.43435 2.93708 10.0807 2.29072C10.7271 1.64437 11.6037 1.28125 12.5178 1.28125H22.2937C23.1687 1.28304 24.0125 1.60685 24.664 2.19094L36.0672 12.4409C36.4421 12.7763 36.7421 13.187 36.9474 13.6463C37.1527 14.1055 37.2588 14.6029 37.2587 15.1059V36.2722C37.2587 37.1841 36.8974 38.0588 36.2538 38.7048C35.6102 39.3507 34.7368 39.7154 33.825 39.7188ZM12.5178 3.84375C12.2833 3.84375 12.0585 3.93689 11.8927 4.10269C11.7269 4.26848 11.6337 4.49334 11.6337 4.72781V36.2722C11.6337 36.5067 11.7269 36.7315 11.8927 36.8973C12.0585 37.0631 12.2833 37.1562 12.5178 37.1562H33.825C34.0594 37.1562 34.2843 37.0631 34.4501 36.8973C34.6159 36.7315 34.709 36.5067 34.709 36.2722V15.0419C34.7088 14.9016 34.679 14.7629 34.6216 14.6348C34.5642 14.5068 34.4805 14.3923 34.3759 14.2987L22.9728 4.04875C22.7791 3.89968 22.5375 3.82675 22.2937 3.84375H12.5178Z" fill="#A2A8C3"/>
<path d="M35.9775 15.2982H24.6897C23.9455 15.2982 23.2318 15.0025 22.7056 14.4763C22.1794 13.9501 21.8837 13.2364 21.8837 12.4922V3.28003H24.4462V12.4922C24.4462 12.5568 24.4719 12.6187 24.5175 12.6644C24.5632 12.71 24.6251 12.7357 24.6897 12.7357H35.9775V15.2982Z" fill="#A2A8C3"/>
<path d="M28.7256 30.75H18.4756C17.768 30.75 17.1944 31.3236 17.1944 32.0312C17.1944 32.7389 17.768 33.3125 18.4756 33.3125H28.7256C29.4332 33.3125 30.0069 32.7389 30.0069 32.0312C30.0069 31.3236 29.4332 30.75 28.7256 30.75Z" fill="#A2A8C3"/>
<path d="M21.0381 25.2278H18.4756C17.768 25.2278 17.1944 25.8014 17.1944 26.509C17.1944 27.2166 17.768 27.7903 18.4756 27.7903H21.0381C21.7457 27.7903 22.3194 27.2166 22.3194 26.509C22.3194 25.8014 21.7457 25.2278 21.0381 25.2278Z" fill="#A2A8C3"/>
<path d="M6.93155 34.1581C6.08413 34.148 5.27464 33.8051 4.67778 33.2035C4.08092 32.6018 3.74454 31.7896 3.74124 30.9422V10.0578C3.74114 9.58275 3.84671 9.11364 4.05028 8.68444C4.25386 8.25523 4.55035 7.87668 4.91828 7.57621C5.28621 7.27573 5.71637 7.06085 6.17759 6.94713C6.63881 6.83342 7.11955 6.82371 7.58499 6.91872L10.3397 7.37997L9.91687 9.94247L7.13655 9.44278C7.03605 9.41553 6.93062 9.41175 6.82843 9.43174C6.72623 9.45174 6.63 9.49497 6.54718 9.5581C6.47168 9.61775 6.41059 9.69366 6.36844 9.78016C6.3263 9.86667 6.30419 9.96156 6.30374 10.0578V30.9422C6.30563 31.0377 6.32847 31.1317 6.37064 31.2175C6.41282 31.3033 6.47331 31.3788 6.54783 31.4387C6.62236 31.4985 6.70912 31.5413 6.80199 31.564C6.89485 31.5867 6.99157 31.5887 7.0853 31.57L9.98093 31.1856L10.3141 33.7481L7.50812 34.1197C7.31785 34.153 7.12456 34.1659 6.93155 34.1581Z" fill="#A2A8C3"/>
</svg>