<svg width="131" height="188" viewBox="0 0 131 188" fill="none" xmlns="http://www.w3.org/2000/svg">
<g clip-path="url(#clip0_2_434)">
<path d="M27.3208 32.0692C23.7463 25.8096 15.8296 23.6649 9.63834 27.2788C3.4471 30.8928 1.32582 38.897 4.90034 45.1566L48.3045 121.165C51.8791 127.424 59.7958 129.569 65.987 125.955C72.1783 122.341 74.2995 114.337 70.725 108.077L27.3208 32.0692Z" fill="#FFDE81"/>
<path d="M67.5696 128.73C63.867 130.885 59.4701 131.468 55.3433 130.349C51.2165 129.231 47.6969 126.504 45.5567 122.765L2.15491 46.7597C0.145325 43.0253 -0.340838 38.6446 0.800206 34.5528C1.94125 30.4611 4.6191 26.9823 8.26211 24.8592C11.9051 22.7361 16.2247 22.1369 20.2986 23.1895C24.3726 24.2421 27.8782 26.863 30.0672 30.4929L73.4592 106.498C75.5855 110.238 76.1595 114.677 75.0557 118.844C73.9518 123.01 71.26 126.565 67.5696 128.73ZM11.2136 30.069C8.97007 31.3813 7.33321 33.5401 6.66228 36.0713C5.99135 38.6026 6.34118 41.2996 7.63498 43.5704L51.027 119.576C51.6689 120.7 52.5234 121.685 53.5419 122.475C54.5604 123.266 55.7228 123.845 56.9628 124.181C58.2029 124.517 59.4962 124.603 60.769 124.434C62.0418 124.264 63.2692 123.843 64.381 123.194C65.4928 122.545 66.4673 121.681 67.2489 120.651C68.0304 119.622 68.6037 118.446 68.936 117.193C69.2683 115.939 69.3531 114.631 69.1856 113.344C69.0181 112.058 68.6015 110.817 67.9596 109.693L24.5676 33.6871C23.2687 31.4198 21.1335 29.7657 18.6303 29.0875C16.127 28.4092 13.4599 28.7622 11.2136 30.069Z" fill="black"/>
<path d="M87.4727 48.1044C83.8982 41.8448 75.9814 39.7001 69.7902 43.3141C63.599 46.9281 61.4777 54.9322 65.0522 61.1918L86.5507 98.8395C90.1253 105.099 98.042 107.244 104.233 103.63C110.424 100.016 112.546 92.0117 108.971 85.7521L87.4727 48.1044Z" fill="#FFDE81"/>
<path d="M105.799 106.405C102.096 108.559 97.6992 109.141 93.5727 108.022C89.4463 106.904 85.9268 104.178 83.7856 100.44L62.309 62.7948C61.1901 60.9393 60.4496 58.8763 60.1312 56.727C59.8129 54.5778 59.923 52.386 60.4552 50.2804C60.9873 48.1749 61.9308 46.1983 63.23 44.467C64.5292 42.7357 66.1578 41.2848 68.02 40.1995C69.8822 39.1142 71.9404 38.4166 74.0733 38.1477C76.2063 37.8788 78.3708 38.0441 80.4396 38.6338C82.5084 39.2235 84.4396 40.2258 86.1195 41.5815C87.7994 42.9372 89.194 44.6191 90.2213 46.528L111.717 84.1734C113.839 87.9172 114.407 92.3582 113.297 96.5245C112.188 100.691 109.492 104.243 105.799 106.405ZM71.3774 46.0893C69.1339 47.4017 67.497 49.5604 66.8261 52.0917C66.1552 54.623 66.505 57.32 67.7988 59.5908L89.2949 97.2361C90.6337 99.413 92.7567 100.979 95.2157 101.603C97.6748 102.227 100.278 101.861 102.475 100.582C104.672 99.3028 106.291 97.2105 106.992 94.7468C107.692 92.2832 107.418 89.6408 106.228 87.3774L84.7314 49.7321C83.4356 47.4616 81.3023 45.8032 78.7991 45.1203C76.2959 44.4375 73.627 44.7859 71.3774 46.0893Z" fill="black"/>
<path d="M54.3571 29.3739C61.5061 29.3739 67.3015 23.5145 67.3015 16.2865C67.3015 9.05855 61.5061 3.19913 54.3571 3.19913C47.208 3.19913 41.4126 9.05855 41.4126 16.2865C41.4126 23.5145 47.208 29.3739 54.3571 29.3739Z" fill="#FFDE81"/>
<path d="M62.4065 30.3992C59.6464 32.0099 56.4759 32.757 53.2959 32.5459C50.1159 32.3349 47.0692 31.1752 44.541 29.2135C42.0129 27.2519 40.1168 24.5763 39.0926 21.5252C38.0684 18.4741 37.9621 15.1845 38.787 12.0722C39.612 8.96002 41.3312 6.16501 43.7272 4.04063C46.1233 1.91625 49.0886 0.557904 52.2482 0.137361C55.4078 -0.283181 58.6198 0.252963 61.478 1.678C64.3362 3.10303 66.7123 5.35296 68.3058 8.14328C70.4364 11.887 71.0118 16.3321 69.9059 20.504C68.8001 24.676 66.1032 28.2344 62.4065 30.3992ZM49.462 7.72429C47.7892 8.70331 46.441 10.1617 45.5878 11.9152C44.7346 13.6687 44.4147 15.6386 44.6686 17.5759C44.9224 19.5132 45.7386 21.3309 47.014 22.7993C48.2894 24.2677 49.9667 25.3208 51.8339 25.8257C53.7011 26.3305 55.6745 26.2644 57.5046 25.6356C59.3346 25.0069 60.9393 23.8437 62.1157 22.2931C63.2921 20.7425 63.9874 18.8742 64.1138 16.9242C64.2402 14.9742 63.7919 13.03 62.8258 11.3375C61.5261 9.07086 59.3902 7.41802 56.8867 6.74157C54.3832 6.06512 51.7165 6.42031 49.4718 7.72922L49.462 7.72429Z" fill="black"/>
<path d="M120.737 112.69C118.494 111.454 115.982 110.804 113.428 110.798C110.874 110.792 108.359 111.43 106.111 112.655C105.969 112.734 105.828 112.808 105.691 112.892C102.769 114.585 100.44 117.155 99.0264 120.246C95.671 119.948 92.3062 120.702 89.3892 122.405C86.4723 124.108 84.1447 126.678 82.7227 129.765C79.368 129.453 76.0006 130.206 73.0887 131.919C72.6987 132.146 72.3233 132.412 71.9527 132.644C69.9282 134.056 68.2785 135.95 67.1494 138.16C66.0202 140.369 65.4462 142.825 65.4781 145.312C65.4814 147.933 66.1146 150.513 67.3232 152.832C68.5317 155.15 70.2795 157.137 72.4159 158.621L74.3661 159.977C74.5124 160.08 74.6684 160.179 74.8195 160.277C74.9707 160.376 75.0438 160.445 75.1657 160.529L91.9911 172.197C94.6218 174.006 97.7027 175.031 100.882 175.155C104.062 175.279 107.211 174.496 109.972 172.896L122.561 165.547C125.326 163.923 127.581 161.542 129.064 158.677C130.547 155.812 131.198 152.582 130.942 149.359L128.918 125.319C128.702 122.691 127.841 120.16 126.412 117.955C124.984 115.749 123.033 113.94 120.737 112.69ZM95.5599 166.922L78.7541 155.274L78.6029 155.161L78.2909 154.939C78.1788 154.87 78.0715 154.796 77.9594 154.717L76.0092 153.362C74.7208 152.461 73.6675 151.259 72.9398 149.857C72.2121 148.455 71.8315 146.895 71.8308 145.312C71.8048 143.864 72.1324 142.431 72.7847 141.141C73.437 139.852 74.3938 138.745 75.5704 137.918C75.7995 137.765 76.0335 137.612 76.2724 137.469C77.4252 136.795 78.6996 136.361 80.0208 136.191C81.342 136.022 82.6833 136.121 83.966 136.483L85.3604 136.873L106.598 167.489C104.885 168.431 102.948 168.876 101 168.776C99.0525 168.676 97.17 168.035 95.5599 166.922ZM87.6714 134.881L87.842 134.196C88.1779 132.894 88.7664 131.672 89.5734 130.601C90.3804 129.53 91.3897 128.633 92.5429 127.96C93.696 127.287 94.9698 126.853 96.2904 126.682C97.611 126.511 98.9521 126.607 100.236 126.965L100.908 127.152L116.734 161.554L109.221 165.941L87.6714 134.881ZM122.585 125.836L124.613 149.881C124.775 151.896 124.371 153.915 123.446 155.707C122.521 157.498 121.114 158.989 119.387 160.006L103.785 126.097L104.151 124.683C104.482 123.378 105.068 122.155 105.876 121.083C106.683 120.012 107.695 119.116 108.851 118.447L109.109 118.299C110.43 117.571 111.911 117.192 113.416 117.198C114.921 117.204 116.399 117.595 117.714 118.334C119.082 119.073 120.245 120.146 121.098 121.456C121.951 122.765 122.467 124.269 122.6 125.831L122.585 125.836Z" fill="black"/>
<path d="M106.583 167.479C104.873 168.419 102.939 168.865 100.994 168.767C99.0495 168.668 97.1693 168.03 95.5599 166.922L78.754 155.274L78.6029 155.161L78.2908 154.939C78.1787 154.87 78.0714 154.796 77.9593 154.717L76.0091 153.362C74.7207 152.461 73.6675 151.259 72.9397 149.857C72.212 148.455 71.8315 146.895 71.8308 145.312C71.8047 143.864 72.1324 142.431 72.7846 141.141C73.4369 139.852 74.3937 138.745 75.5703 137.918C75.7994 137.765 76.0335 137.612 76.2724 137.469C77.4251 136.795 78.6995 136.361 80.0207 136.191C81.3419 136.022 82.6832 136.121 83.9659 136.483L85.3603 136.873L106.583 167.479Z" fill="#DDBD97"/>
<path d="M100.923 127.147L116.749 161.549L109.236 165.936L87.686 134.881L87.8567 134.196C88.1925 132.894 88.781 131.672 89.588 130.601C90.395 129.53 91.4044 128.633 92.5575 127.96C93.7106 127.287 94.9845 126.853 96.3051 126.682C97.6257 126.511 98.9667 126.607 100.25 126.965L100.923 127.147Z" fill="#DDBD97"/>
<path d="M122.6 125.831L124.628 149.876C124.79 151.891 124.385 153.91 123.46 155.702C122.536 157.494 121.128 158.984 119.401 160.001L103.8 126.092L104.165 124.678C104.496 123.373 105.083 122.15 105.89 121.079C106.698 120.007 107.709 119.111 108.865 118.442L109.124 118.294C110.445 117.566 111.926 117.187 113.431 117.193C114.935 117.199 116.414 117.59 117.729 118.329C119.094 119.071 120.255 120.145 121.105 121.456C121.956 122.766 122.469 124.27 122.6 125.831Z" fill="#DDBD97"/>
<path d="M113.331 177.919L125.071 171.048C125.564 170.761 126.125 170.619 126.693 170.638C127.261 170.656 127.813 170.835 128.285 171.154C128.758 171.473 129.133 171.919 129.368 172.442C129.603 172.965 129.689 173.544 129.615 174.114L128.153 185.299C128.095 185.77 127.93 186.221 127.671 186.617C127.412 187.013 127.066 187.343 126.66 187.582C126.255 187.82 125.8 187.961 125.331 187.992C124.863 188.024 124.393 187.945 123.96 187.763L113.658 183.43C113.134 183.208 112.681 182.842 112.353 182.373C112.024 181.904 111.831 181.352 111.797 180.778C111.763 180.204 111.889 179.632 112.16 179.127C112.431 178.622 112.837 178.203 113.331 177.919Z" fill="black"/>
</g>
<defs>
<clipPath id="clip0_2_434">
<rect width="131" height="188" fill="white"/>
</clipPath>
</defs>
</svg>
