<svg width="18" height="18" viewBox="0 0 18 18" fill="none" xmlns="http://www.w3.org/2000/svg">
<path d="M9.26488 17.1705L13.0225 13.407C13.1801 13.2718 13.1985 13.0342 13.0635 12.8763C12.9285 12.7185 12.6913 12.7001 12.5337 12.8353C12.519 12.8479 12.5052 12.8616 12.4927 12.8763L9.37387 15.9963V1.09635C9.37387 0.888509 9.20563 0.720001 8.99809 0.720001C8.79055 0.720001 8.62234 0.888509 8.62234 1.09635V15.9963L5.50731 12.8763C5.37233 12.7185 5.13511 12.7001 4.9775 12.8353C4.81988 12.9705 4.80151 13.2081 4.93652 13.366C4.94911 13.3807 4.9628 13.3944 4.9775 13.407L8.7351 17.1706C8.88161 17.3165 9.11831 17.3165 9.26488 17.1705Z" fill="#474747" stroke="#474747"/>
</svg>
