<svg width="25" height="25" viewBox="0 0 25 25" fill="none" xmlns="http://www.w3.org/2000/svg">
<g clip-path="url(#clip0_5_117)">
<path d="M24.409 14.2215C24.1534 14.1576 23.8978 14.2215 23.6742 14.3813C22.8435 15.0841 21.8851 15.6592 20.8307 16.0426C19.8403 16.426 18.7541 16.6177 17.6039 16.6177C15.016 16.6177 12.6518 15.5634 10.9585 13.8701C9.26521 12.1768 8.21089 9.81257 8.21089 7.2247C8.21089 6.13843 8.40258 5.08412 8.72207 4.12565C9.07351 3.10328 9.58469 2.17676 10.2556 1.37803C10.5432 1.0266 10.4793 0.515412 10.1278 0.227871C9.90419 0.0681261 9.64859 0.00422809 9.393 0.0681261C6.67734 0.802953 4.31311 2.43235 2.61982 4.60488C0.990418 6.74546 0 9.39723 0 12.3046C0 15.787 1.40576 18.95 3.70608 21.2503C6.00641 23.5506 9.16936 24.9564 12.6518 24.9564C15.5911 24.9564 18.3068 23.934 20.4793 22.2407C22.6838 20.5155 24.2812 18.0554 24.9522 15.2439C25.1119 14.7647 24.8563 14.3174 24.409 14.2215ZM19.5208 20.8989C17.6678 22.3685 15.3036 23.2631 12.7157 23.2631C9.68054 23.2631 6.93293 22.0171 4.95209 20.0362C2.97126 18.0554 1.72525 15.3078 1.72525 12.2726C1.72525 9.74867 2.55592 7.44834 3.99362 5.5953C4.98404 4.31734 6.23005 3.26302 7.66776 2.5282C7.50801 2.87964 7.34827 3.23108 7.22047 3.61446C6.80513 4.76463 6.61344 5.97869 6.61344 7.25665C6.61344 10.2918 7.85945 13.0714 9.84029 15.0522C11.8211 17.033 14.6007 18.279 17.6358 18.279C18.9777 18.279 20.2557 18.0554 21.4378 17.6081C21.8531 17.4484 22.2684 17.2886 22.6518 17.0969C21.8851 18.5666 20.8307 19.8765 19.5208 20.8989Z" fill="#474747"/>
</g>
<defs>
<clipPath id="clip0_5_117">
<rect width="25" height="25" fill="white"/>
</clipPath>
</defs>
</svg>
