<svg id="Capa_1" enable-background="new 0 0 512 512" height="512" viewBox="0 0 512 512" width="512" xmlns="http://www.w3.org/2000/svg"><g><path d="m467 62h-156v-7c0-30.327-24.673-55-55-55s-55 24.673-55 55v7h-156c-24.813 0-45 20.187-45 45v360c0 24.813 20.187 45 45 45h422c24.813 0 45-20.187 45-45v-360c0-24.813-20.187-45-45-45zm-211-32c13.785 0 25 11.215 25 25v67h-50v-67c0-13.785 11.215-25 25-25zm-211 62h156v30h-15c-8.284 0-15 6.716-15 15s6.716 15 15 15h140c8.284 0 15-6.716 15-15s-6.716-15-15-15h-15v-30h156c8.271 0 15 6.729 15 15v75h-452v-75c0-8.271 6.729-15 15-15zm422 390h-422c-8.271 0-15-6.729-15-15v-255h452v255c0 8.271-6.729 15-15 15z"/><path d="m173.382 312.022c4.808-7.16 7.618-15.768 7.618-25.022 0-24.813-20.187-45-45-45s-45 20.187-45 45c0 9.254 2.81 17.862 7.618 25.022-22.459 12.972-37.618 37.23-37.618 64.978 0 8.284 6.716 15 15 15h120c8.284 0 15-6.716 15-15 0-27.748-15.159-52.006-37.618-64.978zm-52.382-25.022c0-8.271 6.729-15 15-15s15 6.729 15 15-6.729 15-15 15-15-6.729-15-15zm-27.43 75c6.191-17.461 22.874-30 42.43-30s36.239 12.539 42.43 30z"/><path d="m196 422h-120c-8.284 0-15 6.716-15 15s6.716 15 15 15h120c8.284 0 15-6.716 15-15s-6.716-15-15-15z"/><path d="m436 242h-160c-8.284 0-15 6.716-15 15s6.716 15 15 15h160c8.284 0 15-6.716 15-15s-6.716-15-15-15z"/><path d="m436 302h-160c-8.284 0-15 6.716-15 15s6.716 15 15 15h160c8.284 0 15-6.716 15-15s-6.716-15-15-15z"/><path d="m436 362h-160c-8.284 0-15 6.716-15 15s6.716 15 15 15h160c8.284 0 15-6.716 15-15s-6.716-15-15-15z"/><path d="m436 422h-160c-8.284 0-15 6.716-15 15s6.716 15 15 15h160c8.284 0 15-6.716 15-15s-6.716-15-15-15z"/></g></svg>