<svg width="52" height="52" viewBox="0 0 52 52" fill="none" xmlns="http://www.w3.org/2000/svg">
<g clip-path="url(#clip0_5_351)">
<path d="M20.6737 35.0403L27.8551 13.4955C28.1211 12.6974 27.6898 11.8346 26.8916 11.5685C26.0935 11.3025 25.2307 11.7338 24.9646 12.532L17.7831 34.0768C17.5171 34.875 17.9484 35.7377 18.7466 36.0038C18.9064 36.057 19.0689 36.0823 19.2285 36.0823C19.8663 36.0824 20.4608 35.6787 20.6737 35.0403Z" fill="#DB8A8A"/>
<path d="M31.437 28.3566C33.957 28.3566 36.0073 26.3063 36.0073 23.7863C36.0073 21.2662 33.957 19.2159 31.437 19.2159C28.9169 19.2159 26.8666 21.2662 26.8666 23.7863C26.8666 26.3063 28.9169 28.3566 31.437 28.3566ZM31.437 22.2628C32.277 22.2628 32.9604 22.9462 32.9604 23.7863C32.9604 24.6263 32.277 25.3097 31.437 25.3097C30.5969 25.3097 29.9135 24.6263 29.9135 23.7863C29.9135 22.9462 30.5969 22.2628 31.437 22.2628Z" fill="#DB8A8A"/>
<path d="M14.2012 19.2159C11.6811 19.2159 9.63086 21.2662 9.63086 23.7863C9.63086 26.3063 11.6811 28.3566 14.2012 28.3566C16.7212 28.3566 18.7715 26.3063 18.7715 23.7863C18.7715 21.2662 16.7213 19.2159 14.2012 19.2159ZM14.2012 25.3097C13.3611 25.3097 12.6777 24.6263 12.6777 23.7863C12.6777 22.9462 13.3611 22.2628 14.2012 22.2628C15.0412 22.2628 15.7246 22.9462 15.7246 23.7863C15.7246 24.6263 15.0413 25.3097 14.2012 25.3097Z" fill="#DB8A8A"/>
<path d="M51.6953 18.8906L46.3829 11.8074L46.5902 10.3567C46.6579 9.88203 46.4984 9.40307 46.1592 9.06405L42.9275 5.83233L46.1591 2.60061C46.7541 2.00576 46.7541 1.04112 46.1591 0.446169C45.5643 -0.148682 44.5996 -0.148682 44.0047 0.446169L40.7731 3.67789L37.5414 0.446169C37.2023 0.107052 36.7234 -0.0519949 36.2487 0.0152395L21.1674 2.16968C20.841 2.2163 20.5387 2.36753 20.3056 2.60061L1.63354 21.2727C-0.544471 23.4506 -0.544471 26.9945 1.63354 29.1724L17.4329 44.9719C17.7561 45.295 18.1099 45.5692 18.4844 45.7964V46.4141C18.4844 49.4941 20.9902 52 24.0703 52H46.4141C49.4941 52 52 49.4941 52 46.4141V19.8047C52 19.4751 51.8931 19.1543 51.6953 18.8906ZM3.78798 27.018C2.79795 26.0279 2.79795 24.4172 3.78798 23.4271L22.1009 5.11418L35.9254 3.1393L38.6185 5.83243L36.4641 7.98688L35.3868 6.90961C34.792 6.31475 33.8273 6.31475 33.2324 6.90961C32.6374 7.50446 32.6374 8.4691 33.2324 9.06405L37.5414 13.373C37.8388 13.6705 38.2287 13.8193 38.6185 13.8193C39.0083 13.8193 39.3983 13.6705 39.6957 13.373C40.2907 12.7782 40.2907 11.8135 39.6957 11.2186L38.6184 10.1413L40.7729 7.98688L43.466 10.68L41.491 24.5045L23.1782 42.8174C22.6986 43.297 22.061 43.5611 21.3828 43.5611C20.7045 43.5611 20.0669 43.2969 19.5873 42.8174L3.78798 27.018ZM48.9531 46.4141C48.9531 47.8141 47.8141 48.9531 46.4141 48.9531H24.0703C22.7333 48.9531 21.6353 47.9143 21.5389 46.6015C22.9168 46.5634 24.2833 46.0212 25.3325 44.9719L44.0046 26.2998C44.2377 26.0667 44.3889 25.7644 44.4355 25.4381L45.7734 16.073L48.9531 20.3125V46.4141Z" fill="#DB8A8A"/>
</g>
<defs>
<clipPath id="clip0_5_351">
<rect width="52" height="52" fill="white"/>
</clipPath>
</defs>
</svg>
