<svg width="232" height="93" viewBox="0 0 232 93" fill="none" xmlns="http://www.w3.org/2000/svg">
<g clip-path="url(#clip0_43_2)">
<path d="M7.43513 1.45743H7.41136C4.12422 1.45743 1.45947 4.12721 1.45947 7.42055V47.2811C1.45947 50.5744 4.12422 53.2442 7.41136 53.2442H7.43513C10.7223 53.2442 13.387 50.5744 13.387 47.2811V7.42055C13.387 4.12721 10.7223 1.45743 7.43513 1.45743Z" fill="#FFDE81"/>
<path d="M7.4256 54.7017C5.46158 54.703 3.57715 53.9241 2.18526 52.5359C0.793369 51.1476 0.00754868 49.2631 0 47.2954V7.40629C2.93462e-08 5.43318 0.782338 3.54089 2.17491 2.14569C3.56748 0.750489 5.45621 -0.0333252 7.4256 -0.0333252C9.39499 -0.0333252 11.2837 0.750489 12.6763 2.14569C14.0689 3.54089 14.8512 5.43318 14.8512 7.40629V47.2954C14.8436 49.2631 14.0578 51.1476 12.6659 52.5359C11.274 53.9241 9.38962 54.703 7.4256 54.7017V54.7017ZM7.4256 2.9149C6.23369 2.91237 5.08953 3.38399 4.24449 4.22616C3.39946 5.06832 2.92267 6.21214 2.9189 7.40629V47.2954C2.9189 48.4955 3.39471 49.6463 4.24166 50.4949C5.08862 51.3434 6.23733 51.8202 7.43511 51.8202C8.63288 51.8202 9.78159 51.3434 10.6285 50.4949C11.4755 49.6463 11.9513 48.4955 11.9513 47.2954V7.40629C11.9494 6.81339 11.8308 6.22668 11.6022 5.67981C11.3736 5.13294 11.0394 4.63665 10.619 4.2194C10.1986 3.80214 9.70006 3.47213 9.15207 3.24828C8.60408 3.02443 8.01738 2.91113 7.4256 2.9149V2.9149Z" fill="black"/>
<path d="M27.7866 21.5901H27.7628C24.4757 21.5901 21.8109 24.2599 21.8109 27.5532V47.2811C21.8109 50.5744 24.4757 53.2442 27.7628 53.2442H27.7866C31.0737 53.2442 33.7385 50.5744 33.7385 47.2811V27.5532C33.7385 24.2599 31.0737 21.5901 27.7866 21.5901Z" fill="#FFDE81"/>
<path d="M27.777 54.7017C25.8126 54.7042 23.9275 53.9258 22.5353 52.5373C21.1432 51.1487 20.3577 49.2635 20.3514 47.2954V27.539C20.3514 25.5659 21.1338 23.6736 22.5263 22.2784C23.9189 20.8832 25.8076 20.0994 27.777 20.0994C29.7464 20.0994 31.6352 20.8832 33.0277 22.2784C34.4203 23.6736 35.2026 25.5659 35.2026 27.539V47.2954C35.1951 49.2631 34.4093 51.1476 33.0174 52.5359C31.6255 53.9241 29.7411 54.703 27.777 54.7017ZM27.777 23.0476C26.5892 23.0514 25.4512 23.5258 24.6113 24.3672C23.7714 25.2087 23.2979 26.3489 23.2941 27.539V47.2954C23.2941 48.4954 23.7699 49.6463 24.6169 50.4949C25.4638 51.3434 26.6125 51.8201 27.8103 51.8201C29.0081 51.8201 30.1568 51.3434 31.0038 50.4949C31.8507 49.6463 32.3265 48.4954 32.3265 47.2954V27.539C32.3247 26.9441 32.2053 26.3554 31.9751 25.8069C31.745 25.2585 31.4088 24.7611 30.9858 24.3436C30.5629 23.926 30.0615 23.5965 29.5108 23.3741C28.9601 23.1516 28.3708 23.0407 27.777 23.0476V23.0476Z" fill="black"/>
<path d="M27.7771 13.3551C31.0721 13.3551 33.7432 10.6917 33.7432 7.40627C33.7432 4.12081 31.0721 1.45743 27.7771 1.45743C24.482 1.45743 21.8109 4.12081 21.8109 7.40627C21.8109 10.6917 24.482 13.3551 27.7771 13.3551Z" fill="#FFDE81"/>
<path d="M27.7771 14.8078C26.3162 14.8012 24.8901 14.3611 23.6787 13.5431C22.4674 12.7251 21.5251 11.5658 20.9708 10.2116C20.4165 8.85748 20.2751 7.36914 20.5645 5.93453C20.8539 4.49993 21.561 3.18339 22.5966 2.15112C23.6323 1.11886 24.9499 0.417161 26.3833 0.134618C27.8167 -0.147925 29.3014 0.00135737 30.6502 0.563617C31.9989 1.12588 33.1512 2.0759 33.9614 3.29375C34.7717 4.5116 35.2036 5.94267 35.2027 7.40627C35.1964 9.37394 34.4108 11.2587 33.0185 12.6464C31.6262 14.0342 29.741 14.8116 27.7771 14.8078ZM27.7771 2.90059C26.8913 2.90435 26.0264 3.17096 25.2917 3.66677C24.557 4.16257 23.9854 4.86534 23.649 5.68636C23.3126 6.50738 23.2265 7.40984 23.4016 8.27983C23.5767 9.14982 24.0052 9.94833 24.6329 10.5746C25.2606 11.2008 26.0594 11.6267 26.9285 11.7984C27.7976 11.9702 28.698 11.8801 29.516 11.5396C30.334 11.1991 31.0331 10.6235 31.5248 9.88528C32.0166 9.14709 32.279 8.27948 32.279 7.39198C32.2715 6.20113 31.7937 5.0617 30.9501 4.22276C30.1065 3.38382 28.9657 2.91359 27.7771 2.91487V2.90059Z" fill="black"/>
<path d="M32.298 60.6029C31.6822 59.6003 30.8269 58.7671 29.8095 58.1784C28.792 57.5897 27.6442 57.2641 26.4697 57.2308H26.2463C24.6964 57.2224 23.1819 57.6949 21.9107 58.5834C20.637 57.6974 19.1234 57.2226 17.5728 57.2226C16.0221 57.2226 14.5086 57.6974 13.2348 58.5834C11.9648 57.6915 10.4502 57.2157 8.89928 57.2212C8.69486 57.2212 8.48569 57.2212 8.28127 57.2212C7.15367 57.3099 6.06517 57.6751 5.11176 58.2848C4.15835 58.8945 3.36932 59.7298 2.81428 60.7172C2.21671 61.7481 1.87964 62.9097 1.83241 64.1009C1.78519 65.2921 2.02923 66.4768 2.54331 67.5519L3.0187 68.5378L3.13279 68.7569C3.13279 68.8189 3.18508 68.876 3.21361 68.9379L7.26869 77.3968C7.90319 78.7176 8.89501 79.8335 10.1313 80.6174C11.3676 81.4013 12.7986 81.8218 14.2617 81.831H20.9789C22.4526 81.8286 23.8956 81.4087 25.1413 80.6199C26.3871 79.8311 27.3848 78.7055 28.0195 77.373L32.6878 67.4424C33.1978 66.3604 33.4293 65.1676 33.3612 63.973C33.2931 62.7783 32.9276 61.6197 32.298 60.6029V60.6029ZM9.8976 76.168L5.84252 67.7139C5.84252 67.6853 5.84252 67.6615 5.80924 67.6329L5.73318 67.4757L5.65236 67.309L5.17697 66.3231C4.86799 65.6738 4.72165 64.9589 4.75064 64.2401C4.77964 63.5214 4.98308 62.8206 5.34336 62.1984C5.66488 61.6227 6.12259 61.1348 6.67629 60.7778C7.22999 60.4207 7.86274 60.2052 8.51896 60.1504C8.64257 60.1504 8.77092 60.1504 8.89928 60.1504C9.51223 60.1485 10.1194 60.2692 10.6851 60.5056C11.2509 60.742 11.7638 61.0892 12.1937 61.5269L12.6691 62.0032L14.1666 78.9352C13.2698 78.9119 12.3969 78.6412 11.6437 78.153C10.8906 77.6648 10.2864 76.9779 9.8976 76.168V76.168ZM14.0525 61.7412L14.2759 61.5126C14.7077 61.0767 15.2213 60.7307 15.7871 60.4946C16.3529 60.2585 16.9598 60.137 17.5728 60.137C18.1857 60.137 18.7926 60.2585 19.3584 60.4946C19.9243 60.7307 20.4379 61.0767 20.8696 61.5126L21.093 61.7412L19.5718 78.9209H15.5738L14.0525 61.7412ZM30.0446 66.204L25.3763 76.1346C24.9795 76.9658 24.357 77.668 23.58 78.1608C22.8031 78.6537 21.9033 78.9171 20.9837 78.9209L22.4812 61.9841L22.9566 61.5078C23.3865 61.0701 23.8994 60.7229 24.4652 60.4865C25.0309 60.2502 25.6381 60.1294 26.251 60.1314H26.3889C27.0801 60.1474 27.756 60.3379 28.3543 60.685C28.9526 61.0322 29.4538 61.5248 29.8117 62.1175C30.1876 62.7252 30.4058 63.4174 30.4465 64.1311C30.4872 64.8448 30.349 65.5574 30.0446 66.204V66.204Z" fill="black"/>
<path d="M14.1619 78.9162C13.2655 78.8963 12.3919 78.6293 11.6371 78.1445C10.8823 77.6597 10.2755 76.9758 9.88334 76.168L5.82826 67.7139C5.82826 67.6853 5.82826 67.6615 5.79499 67.6329L5.71892 67.4757L5.63811 67.309L5.16272 66.3231C4.85373 65.6738 4.7074 64.9589 4.73639 64.2401C4.76538 63.5214 4.96883 62.8206 5.3291 62.1985C5.65063 61.6227 6.10834 61.1348 6.66204 60.7778C7.21574 60.4207 7.84849 60.2052 8.50471 60.1504C8.62831 60.1504 8.75667 60.1504 8.88502 60.1504C9.49798 60.1485 10.1051 60.2692 10.6709 60.5056C11.2366 60.742 11.7495 61.0892 12.1795 61.5269L12.6549 62.0032L14.1619 78.9162Z" fill="#DDBD97"/>
<path d="M21.0931 61.7412L19.5718 78.9209H15.5738L14.0526 61.7412L14.276 61.5126C14.7077 61.0767 15.2213 60.7307 15.7872 60.4946C16.353 60.2585 16.9599 60.137 17.5728 60.137C18.1858 60.137 18.7926 60.2585 19.3585 60.4946C19.9243 60.7307 20.4379 61.0767 20.8697 61.5126L21.0931 61.7412Z" fill="#DDBD97"/>
<path d="M30.0446 66.204L25.3763 76.1347C24.9795 76.9658 24.357 77.668 23.58 78.1608C22.8031 78.6537 21.9033 78.9171 20.9837 78.9209L22.4812 61.9841L22.9566 61.5078C23.3865 61.0701 23.8994 60.7229 24.4652 60.4865C25.0309 60.2502 25.6381 60.1294 26.251 60.1314H26.3889C27.0801 60.1475 27.756 60.3379 28.3543 60.685C28.9526 61.0322 29.4538 61.5248 29.8117 62.1175C30.1876 62.7252 30.4058 63.4174 30.4465 64.1311C30.4872 64.8449 30.349 65.5574 30.0446 66.204V66.204Z" fill="#DDBD97"/>
<path d="M14.4757 84.5745H20.7223C20.9839 84.5729 21.2407 84.6449 21.4634 84.7823C21.6862 84.9197 21.866 85.117 21.9824 85.3517C22.0988 85.5864 22.1471 85.8491 22.1219 86.11C22.0966 86.3709 21.9987 86.6194 21.8395 86.8273L18.7161 90.8996C18.5826 91.0673 18.413 91.2027 18.22 91.2958C18.027 91.3889 17.8155 91.4372 17.6014 91.4372C17.3872 91.4372 17.1757 91.3889 16.9827 91.2958C16.7897 91.2027 16.6202 91.0673 16.4866 90.8996L13.3633 86.8273C13.2042 86.6197 13.1064 86.3716 13.081 86.1112C13.0555 85.8507 13.1034 85.5884 13.2193 85.3538C13.3351 85.1193 13.5142 84.9219 13.7362 84.7842C13.9583 84.6464 14.2145 84.5738 14.4757 84.5745V84.5745Z" fill="black"/>
<path d="M58.473 34.6309C56.7997 33.9365 55.3515 32.7906 54.2896 31.3207C53.2633 29.8588 52.7303 28.1065 52.7683 26.3197H58.5681C58.6557 27.6687 59.2604 28.9315 60.2557 29.8442C61.254 30.765 62.6564 31.2254 64.4629 31.2254C66.3328 31.2254 67.7907 30.773 68.8365 29.868C69.3443 29.4406 69.7492 28.9037 70.0208 28.2976C70.2925 27.6914 70.4239 27.0315 70.4053 26.3673C70.4511 25.3732 70.1103 24.4 69.4545 23.6525C68.7785 22.9365 67.9497 22.3829 67.03 22.0331C65.7159 21.5432 64.3747 21.1297 63.013 20.7947C61.2298 20.344 59.482 19.763 57.7837 19.0563C56.4184 18.4563 55.2311 17.5129 54.3371 16.3176C53.3863 15.0793 52.9109 13.4281 52.9109 11.3642C52.8726 9.59134 53.3697 7.84821 54.3371 6.3632C55.3236 4.90446 56.7105 3.76305 58.3304 3.07681C60.2089 2.28132 62.2338 1.89181 64.2728 1.93372C67.4737 1.93372 70.0963 2.73547 72.1405 4.33898C73.1449 5.13289 73.9659 6.13531 74.5469 7.27731C75.1279 8.41932 75.4552 9.67383 75.5062 10.9546H69.5163C69.4633 10.3473 69.2836 9.75789 68.9888 9.22458C68.694 8.69127 68.2906 8.22595 67.8049 7.85874C66.6202 6.95606 65.1557 6.50071 63.669 6.57277C62.3013 6.51175 60.9556 6.9331 59.8659 7.76349C59.3699 8.17994 58.9781 8.70709 58.7222 9.30263C58.4663 9.89818 58.3533 10.5455 58.3922 11.1928C58.3785 11.6518 58.4554 12.1089 58.6186 12.538C58.7818 12.9672 59.0279 13.3597 59.343 13.6933C59.9988 14.3717 60.7934 14.8998 61.6724 15.2412C62.9473 15.7276 64.2488 16.141 65.5706 16.4796C67.393 16.9581 69.18 17.5628 70.9187 18.2895C72.3083 18.9041 73.5189 19.863 74.4366 21.0757C75.3874 22.33 75.8628 24.0049 75.8628 26.1006C75.862 27.7835 75.3928 29.4329 74.5079 30.8635C73.5501 32.4048 72.1842 33.6496 70.5622 34.4594C68.6663 35.4025 66.5695 35.8684 64.4534 35.8168C62.3994 35.8412 60.3628 35.4374 58.473 34.6309V34.6309Z" fill="black"/>
<path d="M82.1379 15.1984C83.17 13.2227 84.7455 11.5848 86.6779 10.4783C88.7098 9.34179 91.0067 8.7665 93.3334 8.81133C96.5026 8.81133 99.1252 9.56546 101.201 11.0737C103.323 12.6566 104.815 14.9441 105.408 17.5274H99.561C99.1391 16.2963 98.3406 15.2297 97.2791 14.4792C96.1086 13.7138 94.7301 13.3311 93.3334 13.3837C92.3305 13.3401 91.331 13.5279 90.412 13.9326C89.493 14.3372 88.679 14.9479 88.0328 15.7175C86.708 17.3051 86.0456 19.5056 86.0456 22.3189C86.0456 25.1321 86.7033 27.3389 88.0185 28.9393C88.6588 29.719 89.4705 30.3397 90.39 30.7529C91.3096 31.166 92.3121 31.3603 93.3191 31.3207C96.4567 31.3207 98.5325 29.9395 99.5467 27.177H105.394C104.719 29.717 103.213 31.9563 101.116 33.5354C99.0238 35.1072 96.425 35.901 93.3191 35.9169C90.9892 35.9631 88.69 35.3789 86.6636 34.2261C84.7315 33.1001 83.1574 31.4487 82.1237 29.4632C80.9902 27.2563 80.4264 24.8001 80.4836 22.3189C80.4348 19.8444 81.0034 17.3969 82.1379 15.1984V15.1984Z" fill="black"/>
<path d="M129.725 10.0782C131.31 10.9529 132.6 12.2789 133.433 13.8886C134.386 15.7819 134.852 17.8843 134.787 20.0041V35.4835H129.411V20.7947C129.411 18.4482 128.826 16.6463 127.657 15.3889C126.487 14.1315 124.887 13.4964 122.855 13.4837C120.824 13.4837 119.215 14.1188 118.03 15.3889C116.845 16.659 116.25 18.4609 116.247 20.7947V35.4644H110.828V0.219086H116.247V12.2692C117.188 11.1422 118.387 10.2598 119.741 9.69722C121.208 9.08125 122.786 8.77326 124.376 8.79227C126.239 8.75969 128.079 9.20221 129.725 10.0782V10.0782Z" fill="black"/>
<path d="M146.335 34.2022C144.351 33.0879 142.721 31.4375 141.628 29.4394C140.449 27.2468 139.86 24.7848 139.917 22.295C139.876 19.8311 140.479 17.3993 141.666 15.2412C142.786 13.2317 144.451 11.5805 146.468 10.4783C148.568 9.38459 150.899 8.81357 153.266 8.81357C155.632 8.81357 157.964 9.38459 160.064 10.4783C162.083 11.5777 163.748 13.2296 164.865 15.2412C166.066 17.4101 166.673 19.8584 166.624 22.3379C166.673 24.8235 166.049 27.2759 164.818 29.4346C163.655 31.4583 161.951 33.1162 159.898 34.2213C157.788 35.3584 155.424 35.9402 153.028 35.9121C150.686 35.9382 148.378 35.3486 146.335 34.2022V34.2022ZM156.96 30.1776C158.213 29.4781 159.243 28.4379 159.931 27.177C160.73 25.6859 161.123 24.0105 161.072 22.3188C161.126 20.6402 160.75 18.9757 159.978 17.4845C159.318 16.2333 158.311 15.1997 157.079 14.5077C155.887 13.8434 154.544 13.4989 153.18 13.5075C151.824 13.4978 150.489 13.8425 149.306 14.5077C148.092 15.201 147.109 16.2361 146.477 17.4845C145.74 18.9864 145.381 20.6461 145.431 22.3188C145.431 25.1416 146.152 27.3246 147.594 28.8678C148.285 29.6189 149.128 30.2136 150.067 30.6119C151.006 31.0103 152.019 31.2032 153.038 31.1778C154.409 31.1845 155.759 30.8402 156.96 30.1776Z" fill="black"/>
<path d="M176.665 34.2022C174.681 33.0879 173.05 31.4375 171.958 29.4394C170.779 27.2468 170.189 24.7849 170.247 22.295C170.201 19.8158 170.808 17.3682 172.006 15.1984C173.126 13.1888 174.79 11.5376 176.807 10.4355C178.907 9.34174 181.239 8.77072 183.605 8.77072C185.972 8.77072 188.304 9.34174 190.403 10.4355C192.422 11.5349 194.087 13.1868 195.205 15.1984C196.405 17.3673 197.012 19.8155 196.964 22.295C197.01 24.7804 196.386 27.2321 195.157 29.3917C193.994 31.4154 192.29 33.0733 190.237 34.1784C188.127 35.3151 185.763 35.8969 183.368 35.8693C181.026 35.9101 178.715 35.3353 176.665 34.2022V34.2022ZM187.304 30.1776C188.557 29.4781 189.587 28.4379 190.275 27.177C191.074 25.686 191.468 24.0105 191.416 22.3189C191.47 20.6402 191.094 18.9757 190.323 17.4845C189.662 16.2333 188.655 15.1997 187.423 14.5077C186.231 13.8435 184.888 13.4989 183.524 13.5075C182.168 13.4978 180.833 13.8426 179.65 14.5077C178.436 15.201 177.453 16.2361 176.821 17.4845C176.084 18.9864 175.725 20.6461 175.776 22.3189C175.776 25.1417 176.497 27.3247 177.939 28.8678C178.628 29.6204 179.471 30.2161 180.41 30.6145C181.349 31.013 182.362 31.2051 183.382 31.1778C184.753 31.1845 186.103 30.8403 187.304 30.1776Z" fill="black"/>
<path d="M207.746 0.219086V35.4644H202.326V0.219086H207.746Z" fill="black"/>
<path d="M60.9593 59.1835V79.1876C60.9593 81.1881 61.4505 82.7281 62.433 83.8076C63.4155 84.8872 64.8575 85.427 66.759 85.427C68.6606 85.427 70.1185 84.8872 71.1326 83.8076C72.1468 82.7281 72.6539 81.1881 72.6539 79.1876V59.1835H80.783V79.14C80.783 82.1279 80.1492 84.6523 78.8815 86.713C77.6633 88.7304 75.8884 90.3514 73.771 91.3806C71.5386 92.4491 69.0902 92.987 66.6164 92.9524C64.1749 92.996 61.7571 92.4658 59.5569 91.4044C57.4861 90.379 55.7715 88.7525 54.6366 86.7368C53.4291 84.6538 52.8269 82.1136 52.8301 79.1162V59.1597L60.9593 59.1835Z" fill="black"/>
<path d="M101.258 85.7318V92.638H97.1223C94.1748 92.638 91.8771 91.9156 90.2291 90.4709C88.5811 89.0262 87.7571 86.6685 87.7571 83.398V72.8244H84.5244V66.0611H87.7571V59.5836H95.8862V66.0611H101.211V72.8244H95.8862V83.4933C95.8566 83.8032 95.892 84.1158 95.9902 84.4111C96.0885 84.7064 96.2474 84.9779 96.4567 85.2079C97.0058 85.6086 97.6819 85.7949 98.3583 85.7318H101.258Z" fill="black"/>
<path d="M106.383 62.0175C105.946 61.6259 105.599 61.1444 105.365 60.606C105.131 60.0675 105.016 59.4849 105.028 58.8978C105.013 58.3032 105.126 57.7123 105.359 57.1656C105.593 56.6189 105.942 56.1293 106.383 55.7305C107.336 54.8684 108.589 54.4152 109.872 54.4683C111.142 54.4204 112.379 54.8736 113.319 55.7305C113.759 56.1293 114.108 56.6189 114.342 57.1656C114.576 57.7123 114.689 58.3032 114.674 58.8978C114.685 59.4849 114.57 60.0675 114.337 60.606C114.103 61.1444 113.756 61.6259 113.319 62.0175C112.379 62.8743 111.142 63.3275 109.872 63.2796C108.589 63.3327 107.336 62.8795 106.383 62.0175V62.0175ZM113.913 66.0421V92.619H105.789V66.0421H113.913Z" fill="black"/>
<path d="M127.937 57.3737V92.619H119.798V57.3737H127.937Z" fill="black"/>
<path d="M134.426 62.0175C133.99 61.6253 133.643 61.1437 133.41 60.6054C133.176 60.0671 133.06 59.4847 133.071 58.8978C133.057 58.3034 133.171 57.7129 133.404 57.1663C133.638 56.6198 133.987 56.1301 134.426 55.7305C135.381 54.8686 136.636 54.4155 137.92 54.4683C139.19 54.4204 140.427 54.8737 141.367 55.7305C141.806 56.1301 142.155 56.6198 142.388 57.1663C142.622 57.7129 142.736 58.3034 142.722 58.8978C142.732 59.4847 142.617 60.0671 142.383 60.6054C142.149 61.1437 141.803 61.6253 141.367 62.0175C140.427 62.8743 139.19 63.3275 137.92 63.2797C136.636 63.3324 135.381 62.8794 134.426 62.0175V62.0175ZM141.961 66.0421V92.619H133.832V66.0421H141.961Z" fill="black"/>
<path d="M162.641 85.7318V92.638H158.505C155.557 92.638 153.26 91.9156 151.611 90.4709C149.963 89.0262 149.139 86.6685 149.139 83.398V72.8244H145.907V66.0611H149.139V59.5836H157.269V66.0611H162.583V72.8244H157.259V83.4933C157.229 83.8032 157.265 84.1158 157.363 84.4111C157.461 84.7064 157.62 84.9779 157.83 85.2079C158.379 85.6078 159.055 85.794 159.731 85.7318H162.641Z" fill="black"/>
<path d="M167.751 62.0175C167.315 61.6253 166.968 61.1437 166.735 60.6054C166.501 60.0671 166.385 59.4847 166.396 58.8978C166.382 58.3034 166.496 57.7129 166.729 57.1663C166.963 56.6198 167.312 56.1301 167.751 55.7305C168.706 54.8686 169.961 54.4155 171.245 54.4683C172.515 54.4204 173.752 54.8737 174.692 55.7305C175.131 56.1301 175.48 56.6198 175.713 57.1663C175.947 57.7129 176.061 58.3034 176.047 58.8978C176.057 59.4847 175.942 60.0671 175.708 60.6054C175.474 61.1437 175.128 61.6253 174.692 62.0175C173.752 62.8743 172.515 63.3275 171.245 63.2797C169.961 63.3324 168.706 62.8794 167.751 62.0175V62.0175ZM175.286 66.0421V92.619H167.157V66.0421H175.286Z" fill="black"/>
<path d="M206.044 81.2833H187.646C187.773 82.9376 188.304 84.2077 189.239 85.0936C190.173 85.9647 191.41 86.4348 192.685 86.4034C194.714 86.4034 196.124 85.5461 196.916 83.8315H205.568C205.134 85.5649 204.314 87.1772 203.168 88.5467C201.988 89.9611 200.499 91.0854 198.818 91.8331C196.977 92.6485 194.982 93.0547 192.97 93.0238C190.553 93.0665 188.165 92.4929 186.03 91.3568C184.02 90.262 182.369 88.6079 181.276 86.5939C180.095 84.3677 179.506 81.8747 179.564 79.3543C179.508 76.8371 180.088 74.3464 181.252 72.1148C182.338 70.0957 183.991 68.4398 186.006 67.3519C188.157 66.2119 190.561 65.6383 192.994 65.6849C195.376 65.6395 197.73 66.1965 199.84 67.3043C201.813 68.3596 203.439 69.964 204.522 71.9243C205.684 74.0708 206.266 76.4844 206.21 78.9257C206.199 79.7141 206.144 80.5012 206.044 81.2833V81.2833ZM197.867 76.7586C197.894 76.1313 197.78 75.5059 197.533 74.9288C197.286 74.3517 196.913 73.8376 196.441 73.4246C195.446 72.584 194.176 72.1428 192.875 72.1862C191.62 72.1487 190.394 72.5721 189.429 73.3769C188.454 74.251 187.836 75.4554 187.694 76.7586H197.867Z" fill="black"/>
<path d="M215.076 91.8093C213.393 91.1095 211.919 89.9856 210.798 88.5467C209.767 87.2066 209.155 85.5908 209.039 83.9029H217.073C217.113 84.3466 217.249 84.7763 217.47 85.1626C217.692 85.5489 217.994 85.8828 218.356 86.1414C219.171 86.7299 220.157 87.0313 221.161 86.9988C221.988 87.0491 222.81 86.8411 223.514 86.4034C223.772 86.2368 223.984 86.0075 224.129 85.7368C224.275 85.4661 224.349 85.1629 224.346 84.8555C224.348 84.4849 224.234 84.1231 224.021 83.8202C223.808 83.5172 223.506 83.2881 223.158 83.1646C221.911 82.6498 220.623 82.2434 219.307 81.9501C217.692 81.591 216.104 81.1216 214.553 80.5451C213.284 80.05 212.158 79.2482 211.273 78.2112C210.354 77.1475 209.894 75.7107 209.894 73.9008C209.884 72.416 210.323 70.9628 211.154 69.7333C212.083 68.4081 213.369 67.3754 214.862 66.7565C216.705 65.9869 218.689 65.6137 220.686 65.661C224.013 65.661 226.636 66.4866 228.553 68.1377C230.489 69.7999 231.686 72.1642 231.881 74.7105H224.37C224.324 74.2827 224.193 73.8684 223.985 73.4921C223.777 73.1158 223.496 72.7851 223.158 72.5196C222.381 71.9498 221.433 71.664 220.472 71.7099C219.704 71.6604 218.939 71.8518 218.285 72.2576C218.043 72.4243 217.847 72.6489 217.714 72.911C217.582 73.173 217.516 73.4642 217.524 73.7579C217.527 74.1338 217.644 74.4998 217.861 74.8065C218.078 75.1132 218.383 75.3457 218.737 75.4726C219.954 75.9813 221.221 76.3643 222.516 76.6157C224.145 77.0187 225.748 77.5197 227.317 78.116C228.583 78.6275 229.702 79.4458 230.574 80.4974C231.525 81.5929 232 83.0614 232 84.9031C232.021 86.3967 231.563 87.8576 230.693 89.0706C229.734 90.3632 228.433 91.3614 226.937 91.9522C225.134 92.6845 223.201 93.041 221.256 93C219.136 93.039 217.031 92.6334 215.076 91.8093Z" fill="black"/>
</g>
<defs>
<clipPath id="clip0_43_2">
<rect width="232" height="93" fill="white"/>
</clipPath>
</defs>
</svg>