<?xml version="1.0" encoding="iso-8859-1"?>
<!-- Generator: Adobe Illustrator 19.0.0, SVG Export Plug-In . SVG Version: 6.00 Build 0)  -->
<svg version="1.1" id="Capa_1" xmlns="http://www.w3.org/2000/svg" xmlns:xlink="http://www.w3.org/1999/xlink" x="0px" y="0px"
	 viewBox="0 0 512 512" style="enable-background:new 0 0 512 512;" xml:space="preserve">
<g>
	<g>
		<path d="M463.743,48.257c-64.343-64.343-169.037-64.342-233.38,0c-43.946,43.946-59.206,108.725-40.185,167.483L4.395,401.524
			C1.581,404.337,0,408.153,0,412.132v84.866C0,505.284,6.717,512,15.002,512h84.866c3.98,0,7.794-1.581,10.609-4.395l21.22-21.22
			c3.241-3.242,4.823-7.787,4.293-12.341l-2.648-22.783l31.584-2.977c7.172-0.676,12.852-6.355,13.528-13.527l2.979-31.588
			l22.785,2.648c4.254,0.497,8.512-0.851,11.71-3.698c3.196-2.846,5.025-6.923,5.025-11.204v-27.938h27.43
			c3.949,0,7.738-1.557,10.547-4.333l37.272-36.842c58.772,19.051,123.583,3.794,167.542-40.166
			C528.085,217.294,528.085,112.599,463.743,48.257z M442.527,260.421c-37.866,37.865-94.666,49.684-144.703,30.114
			c-5.522-2.159-11.796-0.865-16.011,3.302l-39.593,39.136H205.95c-8.285,0-15.002,6.717-15.002,15.002v26.093l-21.28-2.473
			c-4.009-0.465-8.035,0.703-11.172,3.241c-3.136,2.539-5.118,6.234-5.497,10.252l-3.253,34.489l-34.486,3.25
			c-4.018,0.379-7.713,2.36-10.253,5.497c-2.539,3.136-3.708,7.164-3.242,11.172l3.582,30.804l-11.694,11.697h-63.65v-63.649
			l188.097-188.097c4.214-4.214,5.535-10.523,3.364-16.073c-19.572-50.038-7.751-106.836,30.114-144.703
			c52.646-52.644,138.304-52.644,190.948,0C495.17,122.118,495.17,207.777,442.527,260.421z"/>
	</g>
</g>
<g>
	<g>
		<path d="M421.309,90.69c-17.548-17.549-46.102-17.548-63.649,0c-17.548,17.548-17.548,46.101,0,63.649
			c17.547,17.548,46.101,17.55,63.649,0C438.857,136.791,438.857,108.238,421.309,90.69z M400.093,133.123
			c-5.849,5.849-15.366,5.85-21.216,0c-5.849-5.849-5.849-15.366,0-21.216c5.865-5.864,15.352-5.864,21.216,0
			C405.957,117.771,405.956,127.259,400.093,133.123z"/>
	</g>
</g>
<g>
</g>
<g>
</g>
<g>
</g>
<g>
</g>
<g>
</g>
<g>
</g>
<g>
</g>
<g>
</g>
<g>
</g>
<g>
</g>
<g>
</g>
<g>
</g>
<g>
</g>
<g>
</g>
<g>
</g>
</svg>
