<svg height="512pt" viewBox="0 0 512.001 512" width="512pt" xmlns="http://www.w3.org/2000/svg"><path d="m454.359375 350.007812c-.761719-1.910156-1.910156-3.59375-3.320313-5.003906v-.03125l-81.902343-81.902344 138.472656-138.46875c5.855469-5.855468 5.855469-15.355468 0-21.214843l-98.996094-98.992188c-5.859375-5.859375-15.355469-5.859375-21.214843 0l-138.46875 138.46875-120.898438-120.898437c-29.242188-29.242188-76.820312-29.242188-106.0625 0-29.246094 29.242187-29.246094 76.824218 0 106.066406l28.28125 28.285156 92.613281 92.609375-138.46875 138.472657c-5.859375 5.855468-5.859375 15.355468 0 21.210937l98.992188 98.996094c2.929687 2.929687 6.769531 4.394531 10.609375 4.394531 3.835937 0 7.675781-1.464844 10.605468-4.394531l138.46875-138.46875 81.902344 81.898437h.027344c1.414062 1.410156 3.097656 2.558594 5.007812 3.320313l141.417969 56.570312c1.808594.722657 3.695313 1.070313 5.570313 1.070313 3.90625 0 7.742187-1.523438 10.609375-4.394532 4.242187-4.242187 5.546875-10.605468 3.320312-16.175781zm-35.140625 5.570313-21.214844 21.214844-71.292968-71.296875 21.214843-21.210938zm-273.507812-273.507813 82.003906 82.003907-21.210938 21.214843-82.003906-82.003906zm-102.53125 24.75c-17.542969-17.546874-17.542969-46.097656 0-63.640624 8.773437-8.773438 20.296874-13.160157 31.820312-13.160157s23.046875 4.386719 31.820312 13.160157l17.679688 17.675781-63.640625 63.640625zm38.890624 38.890626 21.214844-21.214844 82.003906 82.003906-21.214843 21.214844zm164.25 134.109374c-5.855468-5.855468-15.355468-5.855468-21.210937 0-5.859375 5.859376-5.859375 15.355469 0 21.214844l31.816406 31.820313-33.5 33.5-31.820312-31.820313c-5.855469-5.855468-15.355469-5.855468-21.214844 0-5.855469 5.859375-5.855469 15.355469 0 21.214844l31.820313 31.820312-33.5 33.5-17.679688-17.675781c-5.855469-5.859375-15.355469-5.859375-21.210938 0-5.859374 5.855469-5.859374 15.355469 0 21.210938l17.675782 17.679687-33.5 33.5-77.78125-77.78125 223.320312-223.320312c.003906-.003906.003906-.003906.003906-.003906l138.464844-138.46875 77.785156 77.785156-33.503906 33.5-17.675781-17.675782c-5.859375-5.859374-15.355469-5.859374-21.214844 0-5.855469 5.855469-5.855469 15.355469 0 21.210938l17.679688 17.679688-33.503907 33.5-31.820312-31.820313c-5.855469-5.855469-15.351562-5.855469-21.210938 0-5.859374 5.859375-5.859374 15.355469 0 21.214844l31.820313 31.820312-33.503906 33.5-17.675781-17.675781c-5.859376-5.859375-15.355469-5.859375-21.214844 0-5.855469 5.855469-5.855469 15.351562 0 21.210938l17.679687 17.679687-33.503906 33.5zm109.257813 139.398438-71.292969-71.296875 21.210938-21.210937 71.296875 71.292968zm26.691406 15.734375 52.683594-52.683594 35.121094 87.804688zm0 0"/></svg>