<svg id="Capa_1" enable-background="new 0 0 512 512" height="512" viewBox="0 0 512 512" width="512" xmlns="http://www.w3.org/2000/svg"><g><path d="m320.233 281.563h-118.592c-8.284 0-15 6.716-15 15s6.716 15 15 15h118.592c8.284 0 15-6.716 15-15s-6.716-15-15-15z"/><path d="m320.233 341.473h-118.592c-8.284 0-15 6.716-15 15s6.716 15 15 15h118.592c8.284 0 15-6.716 15-15s-6.716-15-15-15z"/><path d="m335.17 89.869h-148.467c-8.284 0-15 6.716-15 15v69.898c0 8.284 6.716 15 15 15h148.467c8.284 0 15-6.716 15-15v-69.898c0-8.284-6.715-15-15-15zm-15 69.899h-118.467v-39.898h118.467z"/><path d="m457.3 0h-367.653c-27.541 0-49.947 22.406-49.947 49.947v331.491c0 27.541 22.406 49.947 49.947 49.947h19.838v65.615c0 5.295 2.792 10.197 7.345 12.899 4.553 2.701 10.194 2.806 14.841.268l29.406-16.049 29.406 16.049c2.242 1.224 4.715 1.833 7.186 1.833 2.651 0 5.299-.702 7.656-2.101 4.553-2.702 7.345-7.604 7.345-12.899v-65.614h184.718c8.284 0 15-6.716 15-15v-131.598h44.912c8.284 0 15-6.716 15-15v-254.788c0-8.284-6.716-15-15-15zm-44.912 114.93h29.912v54.929h-29.912zm29.912-30h-29.912v-54.93h29.912zm-372.6 296.508v-331.491c0-10.999 8.948-19.947 19.947-19.947h19.838v371.386h-19.838c-10.999 0-19.947-8.948-19.947-19.948zm112.97 90.287-14.406-7.862c-2.24-1.222-4.713-1.833-7.186-1.833s-4.947.611-7.186 1.833l-14.406 7.862v-40.339h43.184zm199.718-70.339h-242.902v-371.386h242.902zm59.912-146.598h-29.912v-54.93h29.912z"/></g></svg>
