<svg id="Layer_1" enable-background="new 0 0 512 512" height="512" viewBox="0 0 512 512" width="512" xmlns="http://www.w3.org/2000/svg"><g><path d="m256 94.227c8.284 0 15-6.716 15-15v-64.267c-.793-19.902-29.215-19.887-30 0v64.267c0 8.284 6.716 15 15 15z"/><path d="m68.66 89.833c5.868 5.867 15.364 5.849 21.213 0 5.858-5.858 5.858-15.355 0-21.213l-45.443-45.444c-5.859-5.858-15.355-5.857-21.213 0-5.858 5.858-5.858 15.355 0 21.213z"/><path d="m443.34 89.833 45.444-45.445c13.512-14.633-6.596-34.72-21.214-21.213l-45.444 45.445c-13.511 14.633 6.596 34.721 21.214 21.213z"/><path d="m509.206 247.242-80.333-112.467c-2.816-3.942-7.362-6.281-12.206-6.281h-321.333c-4.844 0-9.39 2.339-12.206 6.281l-80.334 112.467c-4.262 5.967-3.585 14.141 1.6 19.325l241 241c5.857 5.858 15.356 5.858 21.213 0l241-241c5.184-5.185 5.861-13.359 1.599-19.325zm-121.688-88.748-51.185 71.66-51.186-71.66zm-80.332 82.466h-102.372l51.186-71.659zm-80.334-82.466-51.186 71.66-51.185-71.66zm-131.518 10.807 51.185 71.66h-102.371zm-44.121 101.659h113.642l56.821 170.463zm204.787 178.566-59.522-178.566h119.044zm34.324-8.103 56.821-170.463h113.642zm75.157-200.463 51.185-71.66 51.186 71.66z"/></g></svg>