<svg height="512pt" viewBox="-23 0 512 512" width="512pt" xmlns="http://www.w3.org/2000/svg"><path d="m437.636719 82.9375c-25.722657-8.835938-46.328125-29.558594-55.125-55.433594-5.59375-16.453125-20.996094-27.503906-38.332031-27.503906h-223.359376c-17.332031 0-32.738281 11.050781-38.332031 27.503906-8.796875 25.875-29.402343 46.597656-55.125 55.433594-16.367187 5.625-27.363281 21.074219-27.363281 38.445312v56.503907c0 73.734375 22.09375 144.730469 63.894531 205.316406 38.246094 55.433594 90.949219 98.8125 152.417969 125.453125 5.144531 2.230469 10.664062 3.34375 16.1875 3.34375 5.519531 0 11.039062-1.113281 16.183594-3.34375 61.46875-26.636719 114.171875-70.019531 152.417968-125.453125 41.800782-60.585937 63.898438-131.585937 63.898438-205.316406v-56.503907c0-17.371093-10.996094-32.820312-27.363281-38.445312zm-2.636719 94.949219c0 67.617187-20.261719 132.722656-58.59375 188.28125-35.050781 50.804687-83.34375 90.558593-139.652344 114.960937-2.699218 1.171875-5.804687 1.175782-8.511718 0-56.3125-24.402344-104.601563-64.15625-139.652344-114.960937-38.328125-55.554688-58.589844-120.660157-58.589844-188.28125v-56.503907c0-4.5625 2.859375-8.609374 7.113281-10.070312 34.433594-11.832031 62.015625-39.550781 73.777344-74.152344 1.457031-4.28125 5.445313-7.160156 9.929687-7.160156h223.359376c4.480468 0 8.472656 2.878906 9.929687 7.160156 11.761719 34.601563 39.34375 62.320313 73.777344 74.152344 4.253906 1.460938 7.113281 5.507812 7.113281 10.070312zm0 0"/><path d="m296.238281 194.484375h-1.019531v-42.71875c0-34.582031-28.136719-62.71875-62.71875-62.71875s-62.71875 28.136719-62.71875 62.71875v42.71875h-1.019531c-19.917969 0-36.121094 16.207031-36.121094 36.125v86.328125c0 37.09375 30.179687 67.277344 67.269531 67.277344h65.179688c37.09375 0 67.269531-30.183594 67.269531-67.277344v-86.328125c0-19.917969-16.203125-36.125-36.121094-36.125zm-96.457031-42.71875c0-18.039063 14.679688-32.71875 32.71875-32.71875s32.71875 14.679687 32.71875 32.71875v42.722656h-65.4375zm102.578125 165.171875c0 20.554688-16.71875 37.273438-37.269531 37.273438h-65.179688c-20.550781 0-37.269531-16.71875-37.269531-37.273438v-86.328125c0-3.375 2.746094-6.121094 6.121094-6.121094h127.476562c3.375 0 6.121094 2.746094 6.121094 6.121094zm0 0"/><path d="m232.5 260.179688c-8.285156 0-15 6.714843-15 15v28.339843c0 8.285157 6.714844 15 15 15s15-6.714843 15-15v-28.339843c0-8.285157-6.714844-15-15-15zm0 0"/></svg>