<svg width="1244" height="895" viewBox="0 0 1244 895" fill="none" xmlns="http://www.w3.org/2000/svg">
<path d="M0 0C0 0 63.7485 314.878 304.215 449.591C344.889 472.378 389.391 487.466 435.402 495.08C494.007 504.75 622.989 540.562 656.747 670.166C700.839 839.447 953.791 1029.6 1158.01 760.604C1362.23 491.61 1462.02 0 1462.02 0H0Z" fill="#565964"/>
<mask id="mask0_101_7" style="mask-type:alpha" maskUnits="userSpaceOnUse" x="0" y="0" width="1463" height="895">
<path d="M0 0C0 0 63.7485 314.878 304.215 449.591C344.889 472.378 389.391 487.466 435.402 495.08C494.007 504.75 622.989 540.562 656.747 670.166C700.839 839.447 953.791 1029.6 1158.01 760.604C1362.23 491.61 1462.02 0 1462.02 0H0Z" fill="#E0E2EB"/>
</mask>
<g mask="url(#mask0_101_7)">
<g clip-path="url(#clip0_101_7)">
<path d="M1055.24 846.395H837V876.926H1055.24V846.395Z" fill="#B8D8B8"/>
<path d="M1055.24 876.383H837V906.914H1055.24V876.383Z" fill="#A3C1A3"/>
<path d="M864.736 846.395V906.914" stroke="#617261" stroke-width="15.71" stroke-miterlimit="10"/>
<path d="M880.314 846.395V906.914" stroke="#617261" stroke-width="7.33" stroke-miterlimit="10"/>
<path d="M1027.89 846.395V906.914" stroke="#617261" stroke-width="15.71" stroke-miterlimit="10"/>
<path d="M1012.32 846.395V906.914" stroke="#617261" stroke-width="7.33" stroke-miterlimit="10"/>
</g>
<g clip-path="url(#clip1_101_7)">
<path d="M830.581 785.183C837.819 792.271 842.002 801.893 842.241 812.007C842.481 822.121 838.758 831.93 831.864 839.35L830.589 840.707H1038.95V785.214L830.581 785.183Z" fill="#F4F4F4"/>
<path d="M1038.95 813.145V840.676H830.55L831.864 839.35C838.507 832.231 842.211 822.872 842.233 813.145H1038.95Z" fill="#EAEAEA"/>
<path d="M828 840.668H1036.7C1037.71 840.65 1038.68 840.236 1039.39 839.515C1040.1 838.795 1040.49 837.825 1040.49 836.815V789.029C1040.49 788.019 1040.1 787.049 1039.39 786.329C1038.68 785.608 1037.71 785.194 1036.7 785.176H828" stroke="#798FB5" stroke-width="14.85" stroke-miterlimit="10"/>
</g>
<g clip-path="url(#clip2_101_7)">
<path d="M1067.24 718.938H849V749.469H1067.24V718.938Z" fill="#EDDCBC"/>
<path d="M1067.24 748.926H849V779.457H1067.24V748.926Z" fill="#FCECC3"/>
<path d="M876.736 718.938V779.457" stroke="#7F7763" stroke-width="15.71" stroke-miterlimit="10"/>
<path d="M892.314 718.938V779.457" stroke="#7F7763" stroke-width="7.33" stroke-miterlimit="10"/>
<path d="M1039.89 718.938V779.457" stroke="#7F7763" stroke-width="15.71" stroke-miterlimit="10"/>
<path d="M1024.32 718.938V779.457" stroke="#7F7763" stroke-width="7.33" stroke-miterlimit="10"/>
</g>
<path d="M1120 615.069V903.931C1120 906.336 1120.96 908.643 1122.66 910.344C1124.36 912.044 1126.67 913 1129.08 913H1174.92C1177.33 913 1179.64 912.044 1181.34 910.344C1183.04 908.643 1184 906.336 1184 903.931V615.069C1184 612.664 1183.04 610.357 1181.34 608.656C1179.64 606.956 1177.33 606 1174.92 606H1129.08C1126.67 606 1124.36 606.956 1122.66 608.656C1120.96 610.357 1120 612.664 1120 615.069V615.069ZM1136.79 617.79C1136.79 618.777 1136.5 619.741 1135.95 620.562C1135.4 621.382 1134.62 622.021 1133.71 622.399C1132.8 622.776 1131.8 622.875 1130.83 622.683C1129.86 622.49 1128.97 622.015 1128.27 621.317C1127.57 620.62 1127.1 619.731 1126.9 618.763C1126.71 617.796 1126.81 616.793 1127.19 615.881C1127.57 614.97 1128.21 614.191 1129.03 613.643C1129.85 613.095 1130.81 612.802 1131.8 612.802C1133.13 612.802 1134.4 613.328 1135.33 614.263C1136.27 615.199 1136.79 616.467 1136.79 617.79Z" fill="#A2A8C3"/>
<path d="M1169.48 890.326H1184V888.513H1169.48V890.326Z" fill="white"/>
<path d="M1162.67 878.536H1184V876.722H1162.67V878.536Z" fill="white"/>
<path d="M1169.48 866.746H1184V864.932H1169.48V866.746Z" fill="white"/>
<path d="M1162.67 854.956H1184V853.142H1162.67V854.956Z" fill="white"/>
<path d="M1169.48 843.165H1184V841.352H1169.48V843.165Z" fill="white"/>
<path d="M1162.67 831.375H1184V829.561H1162.67V831.375Z" fill="white"/>
<path d="M1169.48 819.585H1184V817.771H1169.48V819.585Z" fill="white"/>
<path d="M1162.67 807.795H1184V805.981H1162.67V807.795Z" fill="white"/>
<path d="M1169.48 796.004H1184V794.191H1169.48V796.004Z" fill="white"/>
<path d="M1162.67 784.214H1184V782.4H1162.67V784.214Z" fill="white"/>
<path d="M1169.48 772.424H1184V770.61H1169.48V772.424Z" fill="white"/>
<path d="M1162.67 760.634H1184V758.82H1162.67V760.634Z" fill="white"/>
<path d="M1169.48 748.843H1184V747.03H1169.48V748.843Z" fill="white"/>
<path d="M1162.67 737.053H1184V735.239H1162.67V737.053Z" fill="white"/>
<path d="M1169.48 725.263H1184V723.449H1169.48V725.263Z" fill="white"/>
<path d="M1162.67 713.473H1184V711.659H1162.67V713.473Z" fill="white"/>
<path d="M1169.48 701.682H1184V699.869H1169.48V701.682Z" fill="white"/>
<path d="M1162.67 689.892H1184V688.078H1162.67V689.892Z" fill="white"/>
<path d="M1169.48 678.102H1184V676.288H1169.48V678.102Z" fill="white"/>
<path d="M1162.67 666.312H1184V664.498H1162.67V666.312Z" fill="white"/>
<path d="M1169.48 654.521H1184V652.708H1169.48V654.521Z" fill="white"/>
<path d="M1162.67 642.731H1184V640.917H1162.67V642.731Z" fill="white"/>
<path d="M1169.48 630.941H1184V629.127H1169.48V630.941Z" fill="white"/>
<path d="M1162.67 619.151H1184V617.337H1162.67V619.151Z" fill="white"/>
<g clip-path="url(#clip3_101_7)">
<path d="M1050.65 657.726C1043.42 664.814 1039.23 674.436 1038.99 684.55C1038.75 694.664 1042.48 704.473 1049.37 711.893L1050.65 713.25H842.287V657.757L1050.65 657.726Z" fill="#F4F4F4"/>
<path d="M1050.65 713.219H842.287V685.689H1039.04C1039.05 695.41 1042.74 704.768 1049.37 711.893L1050.65 713.219Z" fill="#EAEAEA"/>
<path d="M1053.24 713.211H844.535C843.523 713.193 842.558 712.779 841.848 712.058C841.139 711.338 840.741 710.368 840.741 709.358V661.572C840.741 660.562 841.139 659.593 841.848 658.872C842.558 658.151 843.523 657.737 844.535 657.719H1053.24" stroke="#DB8A8A" stroke-width="14.85" stroke-miterlimit="10"/>
</g>
</g>
<path d="M678.206 616.719H559.891V724.253H678.206V616.719Z" fill="#939AB9"/>
<path d="M829.937 314H409.063C399.087 314 391 322.091 391 332.073V598.647C391 608.628 399.087 616.719 409.063 616.719H829.937C839.913 616.719 848 608.628 848 598.647V332.073C848 322.091 839.913 314 829.937 314Z" fill="#A2A8C3"/>
<path d="M683.173 724.253H554.021C550.778 724.253 548.15 726.882 548.15 730.126C548.15 733.37 550.778 736 554.021 736H683.173C686.415 736 689.043 733.37 689.043 730.126C689.043 726.882 686.415 724.253 683.173 724.253Z" fill="#838BAF"/>
<path d="M829.033 333.13H409.966V557.079H829.033V333.13Z" fill="#C3BEBB"/>
<path d="M620.657 449.041C528.524 418.097 441.83 508.12 410 557H829V333C797.942 384.574 712.791 479.986 620.657 449.041Z" fill="#B7B1AE"/>
<path d="M619.5 597.743C625.486 597.743 630.338 592.888 630.338 586.899C630.338 580.911 625.486 576.056 619.5 576.056C613.514 576.056 608.662 580.911 608.662 586.899C608.662 592.888 613.514 597.743 619.5 597.743Z" fill="#838BAF"/>
<g clip-path="url(#clip4_101_7)">
<path d="M656.346 456.374C649.962 464.06 645.715 473.223 644.015 482.979C643.718 484.593 643.485 486.226 643.333 487.865H595.789C595.618 486.232 595.378 484.606 595.075 482.998C593.31 473.158 589.027 463.913 582.624 456.121C575.05 446.972 570.944 435.549 571 423.785C571 395.498 594.009 372.725 621.89 374.043C646.785 375.214 666.986 395.929 668.134 421.438C668.774 434.107 664.573 446.556 656.346 456.374V456.374Z" fill="#FCECC3"/>
<path d="M637.262 499.264C637.262 503.758 635.434 508.068 632.179 511.245C628.925 514.423 624.511 516.208 619.908 516.208C615.305 516.208 610.891 514.423 607.636 511.245C604.382 508.068 602.553 503.758 602.553 499.264C602.553 499.159 602.553 499.061 602.553 498.956H637.262C637.262 499.061 637.262 499.159 637.262 499.264Z" fill="#999999"/>
<path d="M646.413 485.659C646.413 486.015 646.341 486.366 646.202 486.694C646.063 487.023 645.859 487.321 645.602 487.572C645.344 487.823 645.039 488.022 644.703 488.158C644.367 488.294 644.006 488.364 643.643 488.364H595.542C594.808 488.364 594.103 488.079 593.583 487.572C593.064 487.065 592.772 486.377 592.772 485.659V485.659C592.772 485.021 593.003 484.404 593.425 483.917C593.846 483.43 594.431 483.104 595.075 482.998C595.229 482.968 595.386 482.953 595.542 482.954H643.643C643.766 482.945 643.891 482.945 644.015 482.954C644.683 483.043 645.296 483.367 645.737 483.865C646.179 484.363 646.419 485.001 646.413 485.659V485.659Z" fill="#E6E6E6"/>
<path d="M643.258 490.909V491.242C643.258 491.915 642.984 492.561 642.496 493.037C642.008 493.513 641.347 493.78 640.658 493.78H598.527C598.005 493.781 597.494 493.628 597.062 493.341C596.629 493.054 596.296 492.647 596.104 492.172C595.987 491.875 595.927 491.56 595.927 491.242V490.909C595.926 490.575 595.993 490.245 596.123 489.937C596.254 489.628 596.445 489.348 596.687 489.112C596.928 488.876 597.215 488.689 597.531 488.562C597.847 488.435 598.186 488.37 598.527 488.37H640.658C641.21 488.37 641.748 488.541 642.194 488.859C642.639 489.177 642.97 489.625 643.138 490.139C643.216 490.388 643.257 490.648 643.258 490.909V490.909Z" fill="#CDCCCC"/>
<path d="M640.102 496.146V496.83C640.102 497.141 640.039 497.449 639.918 497.736C639.796 498.023 639.617 498.284 639.392 498.503C639.167 498.723 638.9 498.897 638.606 499.016C638.312 499.135 637.997 499.196 637.679 499.196H601.506C601.188 499.196 600.872 499.135 600.578 499.016C600.284 498.897 600.017 498.723 599.792 498.503C599.567 498.284 599.389 498.023 599.267 497.736C599.145 497.449 599.083 497.141 599.083 496.83V496.146C599.082 495.713 599.204 495.288 599.434 494.917C599.665 494.547 599.995 494.245 600.389 494.045C600.734 493.872 601.117 493.781 601.506 493.78H637.679C638.067 493.781 638.45 493.872 638.796 494.045C639.19 494.245 639.52 494.547 639.75 494.917C639.981 495.288 640.102 495.713 640.102 496.146V496.146Z" fill="#B3B3B3"/>
</g>
<path d="M1326.04 314H1002.96C992.489 314 984 322.458 984 332.893V527.107C984 537.542 992.489 546 1002.96 546H1326.04C1336.51 546 1345 537.542 1345 527.107V332.893C1345 322.458 1336.51 314 1326.04 314Z" fill="#BEA3B6"/>
<path d="M1327.56 331.381H1001.44V528.619H1327.56V331.381Z" fill="white"/>
<path d="M1171.33 331.381H1157.67V528.619H1171.33V331.381Z" fill="#E6E6E6"/>
<path d="M1171.33 528.619H1157.67V546H1171.33V528.619Z" fill="#A590A1"/>
<path d="M1171.33 314H1157.67V331.381H1171.33V314Z" fill="#A590A1"/>
<path d="M1135.3 353.296H1023.82C1022.77 353.296 1021.92 354.142 1021.92 355.186C1021.92 356.229 1022.77 357.075 1023.82 357.075H1135.3C1136.35 357.075 1137.2 356.229 1137.2 355.186C1137.2 354.142 1136.35 353.296 1135.3 353.296Z" fill="#B3B3B3"/>
<path d="M1135.3 369.922H1023.82C1022.77 369.922 1021.92 370.768 1021.92 371.811C1021.92 372.854 1022.77 373.7 1023.82 373.7H1135.3C1136.35 373.7 1137.2 372.854 1137.2 371.811C1137.2 370.768 1136.35 369.922 1135.3 369.922Z" fill="#B3B3B3"/>
<path d="M1135.3 386.547H1023.82C1022.77 386.547 1021.92 387.393 1021.92 388.436C1021.92 389.48 1022.77 390.326 1023.82 390.326H1135.3C1136.35 390.326 1137.2 389.48 1137.2 388.436C1137.2 387.393 1136.35 386.547 1135.3 386.547Z" fill="#B3B3B3"/>
<path d="M1135.3 403.173H1023.82C1022.77 403.173 1021.92 404.018 1021.92 405.062C1021.92 406.105 1022.77 406.951 1023.82 406.951H1135.3C1136.35 406.951 1137.2 406.105 1137.2 405.062C1137.2 404.018 1136.35 403.173 1135.3 403.173Z" fill="#B3B3B3"/>
<path d="M1135.3 419.798H1023.82C1022.77 419.798 1021.92 420.644 1021.92 421.687C1021.92 422.731 1022.77 423.577 1023.82 423.577H1135.3C1136.35 423.577 1137.2 422.731 1137.2 421.687C1137.2 420.644 1136.35 419.798 1135.3 419.798Z" fill="#B3B3B3"/>
<path d="M1135.3 436.423H1023.82C1022.77 436.423 1021.92 437.269 1021.92 438.313C1021.92 439.356 1022.77 440.202 1023.82 440.202H1135.3C1136.35 440.202 1137.2 439.356 1137.2 438.313C1137.2 437.269 1136.35 436.423 1135.3 436.423Z" fill="#B3B3B3"/>
<path d="M1135.3 453.049H1023.82C1022.77 453.049 1021.92 453.895 1021.92 454.938C1021.92 455.982 1022.77 456.827 1023.82 456.827H1135.3C1136.35 456.827 1137.2 455.982 1137.2 454.938C1137.2 453.895 1136.35 453.049 1135.3 453.049Z" fill="#B3B3B3"/>
<path d="M1135.3 469.674H1081.45C1080.41 469.674 1079.56 470.52 1079.56 471.564C1079.56 472.607 1080.41 473.453 1081.45 473.453H1135.3C1136.35 473.453 1137.2 472.607 1137.2 471.564C1137.2 470.52 1136.35 469.674 1135.3 469.674Z" fill="#B3B3B3"/>
<path d="M1135.3 486.3H1081.45C1080.41 486.3 1079.56 487.146 1079.56 488.189C1079.56 489.232 1080.41 490.078 1081.45 490.078H1135.3C1136.35 490.078 1137.2 489.232 1137.2 488.189C1137.2 487.146 1136.35 486.3 1135.3 486.3Z" fill="#B3B3B3"/>
<path d="M1135.3 502.925H1081.45C1080.41 502.925 1079.56 503.771 1079.56 504.814C1079.56 505.858 1080.41 506.704 1081.45 506.704H1135.3C1136.35 506.704 1137.2 505.858 1137.2 504.814C1137.2 503.771 1136.35 502.925 1135.3 502.925Z" fill="#B3B3B3"/>
<path d="M1305.18 353.296H1193.7C1192.65 353.296 1191.8 354.142 1191.8 355.186C1191.8 356.229 1192.65 357.075 1193.7 357.075H1305.18C1306.23 357.075 1307.08 356.229 1307.08 355.186C1307.08 354.142 1306.23 353.296 1305.18 353.296Z" fill="#B3B3B3"/>
<path d="M1305.18 369.922H1193.7C1192.65 369.922 1191.8 370.768 1191.8 371.811C1191.8 372.854 1192.65 373.7 1193.7 373.7H1305.18C1306.23 373.7 1307.08 372.854 1307.08 371.811C1307.08 370.768 1306.23 369.922 1305.18 369.922Z" fill="#B3B3B3"/>
<path d="M1305.18 386.547H1193.7C1192.65 386.547 1191.8 387.393 1191.8 388.436C1191.8 389.48 1192.65 390.326 1193.7 390.326H1305.18C1306.23 390.326 1307.08 389.48 1307.08 388.436C1307.08 387.393 1306.23 386.547 1305.18 386.547Z" fill="#B3B3B3"/>
<path d="M1305.18 403.173H1193.7C1192.65 403.173 1191.8 404.018 1191.8 405.062C1191.8 406.105 1192.65 406.951 1193.7 406.951H1305.18C1306.23 406.951 1307.08 406.105 1307.08 405.062C1307.08 404.018 1306.23 403.173 1305.18 403.173Z" fill="#B3B3B3"/>
<path d="M1305.18 419.798H1193.7C1192.65 419.798 1191.8 420.644 1191.8 421.687C1191.8 422.731 1192.65 423.577 1193.7 423.577H1305.18C1306.23 423.577 1307.08 422.731 1307.08 421.687C1307.08 420.644 1306.23 419.798 1305.18 419.798Z" fill="#B3B3B3"/>
<path d="M1305.18 436.423H1193.7C1192.65 436.423 1191.8 437.269 1191.8 438.313C1191.8 439.356 1192.65 440.202 1193.7 440.202H1305.18C1306.23 440.202 1307.08 439.356 1307.08 438.313C1307.08 437.269 1306.23 436.423 1305.18 436.423Z" fill="#B3B3B3"/>
<path d="M1305.18 453.049H1193.7C1192.65 453.049 1191.8 453.895 1191.8 454.938C1191.8 455.982 1192.65 456.827 1193.7 456.827H1305.18C1306.23 456.827 1307.08 455.982 1307.08 454.938C1307.08 453.895 1306.23 453.049 1305.18 453.049Z" fill="#B3B3B3"/>
<path d="M1305.18 469.674H1193.7C1192.65 469.674 1191.8 470.52 1191.8 471.564C1191.8 472.607 1192.65 473.453 1193.7 473.453H1305.18C1306.23 473.453 1307.08 472.607 1307.08 471.564C1307.08 470.52 1306.23 469.674 1305.18 469.674Z" fill="#B3B3B3"/>
<path d="M1305.18 486.3H1193.7C1192.65 486.3 1191.8 487.146 1191.8 488.189C1191.8 489.232 1192.65 490.078 1193.7 490.078H1305.18C1306.23 490.078 1307.08 489.232 1307.08 488.189C1307.08 487.146 1306.23 486.3 1305.18 486.3Z" fill="#B3B3B3"/>
<path d="M1305.18 502.925H1193.7C1192.65 502.925 1191.8 503.771 1191.8 504.814C1191.8 505.858 1192.65 506.704 1193.7 506.704H1305.18C1306.23 506.704 1307.08 505.858 1307.08 504.814C1307.08 503.771 1306.23 502.925 1305.18 502.925Z" fill="#B3B3B3"/>
<path d="M1143.26 433.401L1131.13 423.577L1119.75 433.401V331.381H1143.26V433.401Z" fill="#DB8A8A"/>
<path d="M1066.67 469.674H1021.92V506.704H1066.67V469.674Z" fill="#FCECC3"/>
<path d="M897 595C897 595 929.605 604.694 954.5 597.5C977.429 589.003 1010.68 600.459 1010.68 600.459" stroke="#C1C5D7" stroke-width="5" stroke-miterlimit="10"/>
<path d="M1027.35 579C1015.56 579 1006 588.626 1006 600.5C1006 612.374 1015.56 622 1027.35 622H1051.65C1063.44 622 1073 612.374 1073 600.5C1073 588.626 1063.44 579 1051.65 579H1027.35Z" fill="#B2B7CD"/>
<path d="M1015.35 600.376V600.382C1015.35 601.601 1016.33 602.59 1017.54 602.59H1024.87C1026.08 602.59 1027.06 601.601 1027.06 600.382V600.376C1027.06 599.156 1026.08 598.167 1024.87 598.167H1017.54C1016.33 598.167 1015.35 599.156 1015.35 600.376Z" fill="#E0E2EB"/>
<g clip-path="url(#clip5_101_7)">
<path d="M911.043 335.288H906V519.3H911.043V335.288Z" fill="#FCECC3"/>
<path d="M916.028 335.288H910.986V519.3H916.028V335.288Z" fill="#FAE09E"/>
<path d="M921.014 335.288H915.971V519.3H921.014V335.288Z" fill="#F8D477"/>
<path d="M926 335.288H920.957V519.3H926V335.288Z" fill="#F7CB5A"/>
<path d="M926 326.628H906V335.288H926V326.628Z" fill="#CDCCCC"/>
<path d="M906 326.628V321.216C906 319.302 906.753 317.467 908.092 316.114C909.432 314.76 911.248 314 913.143 314H918.857C920.752 314 922.568 314.76 923.908 316.114C925.247 317.467 926 319.302 926 321.216V326.628H906Z" fill="#F1C9E8"/>
<path d="M906 519.3L916 546L926 519.3" fill="#DACBA7"/>
<path d="M912.668 537.102H919.332L916 546L912.668 537.102Z" fill="#808081"/>
</g>
<defs>
<clipPath id="clip0_101_7">
<rect width="218.236" height="60.5191" fill="white" transform="translate(837 846.395)"/>
</clipPath>
<clipPath id="clip1_101_7">
<rect width="218.236" height="66.9378" fill="white" transform="translate(828 779.457)"/>
</clipPath>
<clipPath id="clip2_101_7">
<rect width="218.236" height="60.5191" fill="white" transform="translate(849 718.938)"/>
</clipPath>
<clipPath id="clip3_101_7">
<rect width="218.236" height="66.9378" fill="white" transform="translate(835 652)"/>
</clipPath>
<clipPath id="clip4_101_7">
<rect width="97.1848" height="142.208" fill="white" transform="translate(571 374)"/>
</clipPath>
<clipPath id="clip5_101_7">
<rect width="20" height="232" fill="white" transform="translate(906 314)"/>
</clipPath>
</defs>
</svg>
