<svg height="512pt" viewBox="0 -52 512 511" width="512pt" xmlns="http://www.w3.org/2000/svg"><path d="m496.664062 375.882812h-17.226562v-244.160156c0-8.46875-6.867188-15.335937-15.339844-15.335937h-81.148437c-8.472657 0-15.339844 6.867187-15.339844 15.335937v244.160156h-35.480469v-166.183593c0-8.472657-6.867187-15.339844-15.335937-15.339844h-81.152344c-8.46875 0-15.335937 6.867187-15.335937 15.339844v166.183593h-35.484376v-110.105468c0-8.46875-6.867187-15.335938-15.335937-15.335938h-81.152344c-8.46875 0-15.335937 6.867188-15.335937 15.335938v110.105468h-42.320313v-303.765624c0-8.472657-6.867187-15.339844-15.339843-15.339844-8.46875 0-15.335938 6.867187-15.335938 15.339844v319.105468c0 8.46875 6.867188 15.335938 15.335938 15.335938h481.328124c8.46875 0 15.335938-6.867188 15.335938-15.335938 0-8.472656-6.867188-15.339844-15.335938-15.339844zm-392.992187 0v-94.769531h50.472656v94.769531zm147.304687 0v-150.847656h50.476563v150.847656zm147.308594 0v-228.824218h50.476563v228.824218zm0 0"/><path d="m108.371094 180.132812 279.988281-122.9375 7.964844 18.144532c1.585937 3.601562 6.472656 4.140625 8.804687.96875l43.738282-59.5625c2.328124-3.171875.351562-7.675782-3.5625-8.105469l-73.449219-8.109375c-3.914063-.429688-6.824219 3.535156-5.242188 7.136719l9.414063 21.441406-279.988282 122.933594c-7.753906 3.40625-11.28125 12.457031-7.875 20.210937 3.386719 7.71875 12.414063 11.296875 20.207032 7.878906zm0 0"/></svg>