<svg id="Capa_1" enable-background="new 0 0 512.001 512.001" height="512" viewBox="0 0 512.001 512.001" width="512" xmlns="http://www.w3.org/2000/svg" fill="currentColor"><path d="m479.868 303.865v-136.969l5.686-1.706c21.858-6.56 26.446-17.666 26.446-25.828-.001-8.162-4.59-19.268-26.447-25.825l-187.041-56.113c-11.52-3.456-26.618-5.359-42.51-5.359-15.893 0-30.99 1.903-42.513 5.359l-187.04 56.113c-21.86 6.557-26.449 17.663-26.449 25.826 0 8.162 4.588 19.269 26.448 25.828l69.953 20.986v73.686c0 14.041 9.127 33.82 52.608 48.314 28.8 9.6 66.797 14.887 106.991 14.887 40.193 0 78.19-5.287 106.99-14.887 43.482-14.495 52.609-34.273 52.609-48.314v-73.685l34.268-10.281v127.968c-18.654 6.282-32.133 23.927-32.133 44.673v64.266c0 25.989 21.143 47.133 47.133 47.133 25.989 0 47.133-21.143 47.133-47.133v-64.266c.001-20.746-13.478-38.392-32.132-44.673zm-257.759-217.706c8.675-2.603 21.028-4.095 33.893-4.095 12.863 0 25.216 1.492 33.89 4.094l177.347 53.205-71.024 21.308c-.041.013-.081.024-.122.037l-106.2 31.861c-8.674 2.602-21.026 4.094-33.89 4.094s-25.218-1.492-33.892-4.094l-106.2-31.861c-.041-.013-.081-.024-.122-.037l-71.024-21.308zm163.492 173.703c0 1.934-5.447 10.97-32.096 19.853-25.822 8.608-60.45 13.348-97.504 13.348-37.055 0-71.683-4.74-97.504-13.348-26.648-8.883-32.096-17.92-32.096-19.853v-64.686l87.089 26.127c11.521 3.456 26.619 5.359 42.512 5.359 15.892 0 30.989-1.903 42.511-5.359l87.088-26.127zm96.4 152.941c0 9.447-7.686 17.133-17.133 17.133s-17.133-7.685-17.133-17.133v-64.266c0-9.448 7.685-17.135 17.133-17.135s17.133 7.687 17.133 17.135z"/></svg>