<svg height="512pt" viewBox="0 0 511 512" width="512pt" xmlns="http://www.w3.org/2000/svg"><path d="m432.199219 84.042969h-58.21875c-.5-7.832031-6.996094-14.035157-14.953125-14.035157h-.773438v-32.167968c0-20.863282-17.148437-37.839844-38.226562-37.839844h-128.605469c-21.082031 0-38.230469 16.976562-38.230469 37.839844v32.167968h-.773437c-7.957031 0-14.453125 6.203126-14.949219 14.035157h-58.222656c-43.421875 0-78.746094 35.324219-78.746094 78.746093v284.886719c0 35.46875 28.855469 64.324219 64.324219 64.324219h381.796875c35.46875 0 64.324218-28.855469 64.324218-64.324219v-284.886719c0-43.421874-35.328124-78.746093-78.746093-78.746093zm-167.132813 30c13.382813 2.671875 25.027344 10.257812 32.871094 21.480469 8.066406 11.542968 11.15625 25.539062 8.695312 39.402343-.96875 5.472657-2.761718 10.65625-5.316406 15.476563l-42.148437 4.839844c-4.308594.492187-8.191407 2.828124-10.648438 6.402343l-61.742187 89.769531c-2.253906 3.277344-3.113282 7.316407-2.390625 11.230469.722656 3.914063 2.972656 7.375 6.25 9.628907l61.578125 42.351562c2.59375 1.785156 5.554687 2.640625 8.484375 2.640625 4.773437 0 9.464843-2.269531 12.371093-6.5l61.742188-89.769531c2.457031-3.574219 3.25-8.035156 2.167969-12.234375l-10.675781-41.539063c4.847656-8.351562 8.160156-17.433594 9.867187-27.054687 3.859375-21.757813-.984375-43.714844-13.644531-61.824219-1.03125-1.480469-2.121094-2.902344-3.238282-4.300781h54.164063v367.957031h-235.460937v-367.957031zm41.164063 135.574219-49.375 71.789062-36.859375-25.351562 49.375-71.789063 29.472656-3.378906zm-123.039063-211.777344c0-4.46875 3.539063-7.839844 8.230469-7.839844h128.605469c4.691406 0 8.226562 3.371094 8.226562 7.839844v32.167968h-.773437c-7.957031 0-14.453125 6.203126-14.949219 14.035157h-113.613281c-.5-7.832031-6.992188-14.035157-14.953125-14.035157h-.773438zm-152.691406 409.835937v-284.886719c0-26.878906 21.867188-48.746093 48.746094-48.746093h28.742187v367.957031h-43.164062c-18.925781 0-34.324219-15.398438-34.324219-34.324219zm450.445312 0c0 18.925781-15.394531 34.324219-34.324218 34.324219h-43.164063v-367.957031h28.742188c26.878906 0 48.746093 21.867187 48.746093 48.746093zm0 0"/></svg>