<svg id="Capa_1" enable-background="new 0 0 512 512" height="512" viewBox="0 0 512 512" width="512" xmlns="http://www.w3.org/2000/svg" fill="currentColor"><g><path d="m461 402.503v-45.503c0-19.555-12.541-36.228-30-42.42v-207.58c0-8.284-6.716-15-15-15s-15 6.716-15 15v207.58c-7.713 2.736-14.463 7.519-19.599 13.691-20.202-17.593-46.572-28.271-75.401-28.271h-30v-22.687c32.733-17.8 55-52.505 55-92.313v-100c0-46.869-38.131-85-85-85h-40c-46.869 0-85 38.131-85 85v100c0 39.807 22.267 74.512 55 92.313v22.687h-30c-63.411 0-115 51.589-115 115v82c0 8.284 6.716 15 15 15h410c13.785 0 25-11.215 25-25v-60c0-12.073-8.603-22.174-20-24.497zm-60-45.503c0-8.271 6.729-15 15-15s15 6.729 15 15v45h-25c-1.686 0-3.352.088-5 .238zm-110-27v50.193l-20.39 28.546-7.722-60.024c4.863-5.316 8.594-11.682 10.81-18.714h17.302zm-140-245c0-30.327 24.673-55 55-55h40c30.327 0 55 24.673 55 55v15h-48.596c-11.837 0-23.144-5.653-30.246-15.123l-14.158-18.877c-3.472-4.629-9.297-6.847-14.969-5.703-5.672 1.146-10.18 5.451-11.583 11.065-3.702 14.808-15.787 25.691-30.448 28.123zm0 100v-55.286c19.159-1.748 36.29-11.484 47.602-26.252 12.761 16.631 32.817 26.538 53.802 26.538h48.596v55c0 41.355-33.645 75-75 75s-75-33.645-75-75zm10 145h17.302c2.216 7.033 5.948 13.398 10.81 18.714l-7.722 60.024-20.39-28.545zm-100 152v-67c0-41.749 30.264-76.539 70-83.648v53.648c0 3.126.977 6.175 2.794 8.719l63.058 88.281zm165-10.807-18.979-26.571 10.341-80.384c2.808.491 5.691.762 8.638.762s5.83-.271 8.638-.762l10.342 80.384zm20-156.193c0 11.028-8.972 20-20 20s-20-8.972-20-20v-26.919c6.477 1.254 13.162 1.919 20 1.919s13.523-.665 20-1.919zm72.206 78.719c1.817-2.544 2.794-5.592 2.794-8.719v-53.648c19.926 3.565 37.461 14.097 50 28.971v54.282c-12.208 10.096-20 25.352-20 42.395 0 9 2.187 17.493 6.035 25h-101.887zm132.794 88.281h-45c-13.785 0-25-11.215-25-25s11.215-25 25-25h45z"/></g></svg>