<svg id="Capa_1" enable-background="new 0 0 512.014 512.014" height="512" viewBox="0 0 512.014 512.014" width="512" xmlns="http://www.w3.org/2000/svg"><g><path d="m256.007.003c-140.959 0-256 115.049-256 256 0 140.959 115.049 256 256 256 .918-.205 100.594 5.03 180.812-75.188 48.486-48.486 75.188-112.699 75.188-180.812s-26.702-132.327-75.188-180.812c-81.107-81.108-179.299-74.851-180.812-75.188zm-75.946 43.143c-17.684 22.597-30.436 50.659-39.201 77.857h-65.993c26.41-35.346 62.913-62.726 105.194-77.857zm-124.13 107.847h76.654c-6.543 28.144-10.411 58.562-11.346 90.01h-90.722c2.128-32.311 11.074-62.785 25.414-90.01zm-25.414 120.01h90.722c.935 31.448 4.803 61.866 11.346 90h-76.654c-14.34-27.215-23.286-57.689-25.414-90zm44.35 120h65.993c8.767 27.205 21.52 55.263 39.201 77.857-42.281-15.131-78.784-42.51-105.194-77.857zm166.14 88.446c-33.624-11.396-56.507-55.012-68.483-88.446h68.483zm0-118.446h-77.583c-7.018-27.741-11.176-58.238-12.174-90h89.757zm0-120h-89.757c.998-31.762 5.156-62.259 12.174-90h77.583zm0-120h-68.483c11.973-33.424 34.855-77.048 68.483-88.446zm240.49 150c-3.345 50.795-23.535 97.06-55.039 133.237l-20.958-20.958-21.213 21.213 21.018 21.018c-36.333 32.038-83.002 52.602-134.297 55.98v-189.277l64.394 64.394 21.213-21.213-79.393-79.393 49.393-49.393-21.213-21.213-34.394 34.393v-189.278c51.295 3.378 97.964 23.941 134.297 55.98l-21.018 21.018 21.213 21.213 20.958-20.958c31.504 36.178 51.694 82.443 55.039 133.238h-29.49v30h29.49z"/></g></svg>