<svg width="85" height="85" viewBox="0 0 85 85" fill="none" xmlns="http://www.w3.org/2000/svg">
<path d="M69.1291 23.7364C68.2202 18.3354 65.546 13.4063 61.4559 9.66585C56.9114 5.50586 51.0035 3.21613 44.8509 3.21613C40.0967 3.21613 35.4647 4.57948 31.497 7.14888C28.1935 9.28131 25.4493 12.1653 23.5092 15.5562C22.6702 15.3989 21.7962 15.3115 20.9223 15.3115C13.4937 15.3115 7.44602 21.3592 7.44602 28.7878C7.44602 29.7491 7.5509 30.6755 7.72568 31.5844C2.91898 35.0802 0 40.7084 0 46.7037C0 51.5453 1.80033 56.2472 5.08637 59.9702C8.4598 63.7806 12.9169 66.0353 17.6712 66.2975C17.7236 66.2975 17.7586 66.2975 17.811 66.2975H32.8429C34.1538 66.2975 35.2025 65.2488 35.2025 63.9379C35.2025 62.627 34.1538 61.5782 32.8429 61.5782H17.8809C10.7321 61.1413 4.71931 54.342 4.71931 46.6862C4.71931 41.7397 7.37611 37.1252 11.6584 34.6257C12.6547 34.0489 13.0742 32.8429 12.6897 31.7592C12.3401 30.8153 12.1653 29.819 12.1653 28.7528C12.1653 23.9286 16.0981 19.9959 20.9223 19.9959C21.9535 19.9959 22.9673 20.1707 23.9112 20.5203C25.0648 20.9397 26.3407 20.4154 26.8651 19.3142C30.1337 12.3751 37.1952 7.90048 44.8684 7.90048C55.181 7.90048 63.6932 15.6262 64.672 25.8688C64.7769 26.935 65.5809 27.7915 66.6297 27.9663C74.4078 29.2947 80.2807 36.4785 80.2807 44.6761C80.2807 53.3631 73.4464 60.914 65.0216 61.5607H52.1396C50.8287 61.5607 49.78 62.6095 49.78 63.9204C49.78 65.2313 50.8287 66.2801 52.1396 66.2801H65.109C65.1614 66.2801 65.2139 66.2801 65.2838 66.2801C70.6149 65.8955 75.5963 63.4485 79.3019 59.3584C82.9899 55.3033 85 50.0946 85 44.6761C84.9825 34.8704 78.2881 26.1485 69.1291 23.7364Z" fill="#A2A8C3"/>
<path d="M56.6667 48.941C57.5931 48.0146 57.5931 46.5289 56.6667 45.6025L44.1692 33.1051C43.7323 32.6681 43.1205 32.4059 42.5087 32.4059C41.897 32.4059 41.2852 32.6506 40.8482 33.1051L28.3508 45.6025C27.4244 46.5289 27.4244 48.0146 28.3508 48.941C28.8052 49.3955 29.417 49.6402 30.0113 49.6402C30.6056 49.6402 31.2173 49.4129 31.6718 48.941L40.1491 40.4637V79.4242C40.1491 80.7352 41.1978 81.7839 42.5087 81.7839C43.8197 81.7839 44.8684 80.7352 44.8684 79.4242V40.4637L53.3457 48.941C54.2546 49.8674 55.7403 49.8674 56.6667 48.941Z" fill="#A2A8C3"/>
</svg>
