<?xml version="1.0" encoding="iso-8859-1"?>
<!-- Generator: Adobe Illustrator 19.0.0, SVG Export Plug-In . SVG Version: 6.00 Build 0)  -->
<svg version="1.1" id="Capa_1" xmlns="http://www.w3.org/2000/svg" xmlns:xlink="http://www.w3.org/1999/xlink" x="0px" y="0px"
	 viewBox="0 0 511.999 511.999" style="enable-background:new 0 0 511.999 511.999;" xml:space="preserve">
<g>
	<g>
		<path d="M501.5,384.35L320.84,51.752c-0.091-0.168-0.186-0.334-0.283-0.5c-29.082-48.98-100.003-49.034-129.118,0
			c-0.098,0.165-0.192,0.331-0.283,0.5L10.494,384.35c-29.452,50.034,6.573,113.152,64.713,113.152h361.581
			C494.883,497.502,530.978,434.428,501.5,384.35z M436.788,467.469H75.207c-34.932,0-56.581-37.991-38.735-68.047
			c0.098-0.165,0.192-0.331,0.283-0.5L217.398,66.358c17.513-29.116,59.702-29.086,77.197,0l180.644,332.566
			c0.091,0.168,0.186,0.334,0.283,0.5C493.358,429.459,471.741,467.469,436.788,467.469z"/>
	</g>
</g>
<g>
	<g>
		<path d="M255.997,137.113c-24.84,0-45.049,20.209-45.049,45.049v90.097c0,24.84,20.209,45.049,45.049,45.049
			s45.049-20.209,45.049-45.049v-90.097C301.045,157.322,280.837,137.113,255.997,137.113z M271.013,272.259
			c0,8.28-6.736,15.016-15.016,15.016s-15.016-6.736-15.016-15.016v-90.097c0-8.28,6.736-15.016,15.016-15.016
			s15.016,6.736,15.016,15.016V272.259z"/>
	</g>
</g>
<g>
	<g>
		<path d="M255.997,347.34c-24.84,0-45.049,20.209-45.049,45.049s20.209,45.049,45.049,45.049s45.049-20.209,45.049-45.049
			S280.837,347.34,255.997,347.34z M255.997,407.405c-8.28,0-15.016-6.736-15.016-15.016s6.736-15.016,15.016-15.016
			s15.016,6.736,15.016,15.016S264.277,407.405,255.997,407.405z"/>
	</g>
</g>
</svg>
