<?xml version="1.0" encoding="UTF-8" standalone="no"?>
<!DOCTYPE svg PUBLIC "-//W3C//DTD SVG 1.1//EN"
 "http://www.w3.org/Graphics/SVG/1.1/DTD/svg11.dtd">
<!-- Generated by graphviz version 3.0.0 (20220226.1711)
 -->
<!-- Title: dependencies Pages: 1 -->
<svg width="324pt" height="247pt"
 viewBox="0.00 0.00 324.00 246.80" xmlns="http://www.w3.org/2000/svg" xmlns:xlink="http://www.w3.org/1999/xlink">
<g id="graph0" class="graph" transform="scale(1 1) rotate(0) translate(4 242.8)">
<title>dependencies</title>
<polygon fill="white" stroke="transparent" points="-4,4 -4,-242.8 320,-242.8 320,4 -4,4"/>
<text text-anchor="middle" x="158" y="-8.2" font-family="sans-serif" font-size="14.00">dependencies</text>
<g id="clust1" class="cluster">
<title>cluster_CourseModule</title>
<polygon fill="none" stroke="black" stroke-dasharray="1,5" points="8,-32.8 8,-230.8 308,-230.8 308,-32.8 8,-32.8"/>
</g>
<g id="clust6" class="cluster">
<title>cluster_CourseModule_providers</title>
<polygon fill="none" stroke="black" points="150,-40.8 150,-92.8 300,-92.8 300,-40.8 150,-40.8"/>
</g>
<g id="clust4" class="cluster">
<title>cluster_CourseModule_exports</title>
<polygon fill="none" stroke="black" points="93,-170.8 93,-222.8 211,-222.8 211,-170.8 93,-170.8"/>
</g>
<g id="clust3" class="cluster">
<title>cluster_CourseModule_imports</title>
<polygon fill="none" stroke="black" points="16,-40.8 16,-92.8 142,-92.8 142,-40.8 16,-40.8"/>
</g>
<!-- DatabaseModule -->
<g id="node1" class="node">
<title>DatabaseModule</title>
<polygon fill="#8dd3c7" stroke="black" points="134.36,-84.8 131.36,-88.8 110.36,-88.8 107.36,-84.8 23.64,-84.8 23.64,-48.8 134.36,-48.8 134.36,-84.8"/>
<text text-anchor="middle" x="79" y="-62.6" font-family="Times,serif" font-size="14.00">DatabaseModule</text>
</g>
<!-- CourseModule -->
<g id="node2" class="node">
<title>CourseModule</title>
<polygon fill="#8dd3c7" stroke="black" points="201.71,-149.8 198.71,-153.8 177.71,-153.8 174.71,-149.8 102.29,-149.8 102.29,-113.8 201.71,-113.8 201.71,-149.8"/>
<text text-anchor="middle" x="152" y="-127.6" font-family="Times,serif" font-size="14.00">CourseModule</text>
</g>
<!-- DatabaseModule&#45;&gt;CourseModule -->
<g id="edge1" class="edge">
<title>DatabaseModule&#45;&gt;CourseModule</title>
<path fill="none" stroke="black" d="M118.41,-84.91C118.41,-84.91 118.41,-103.79 118.41,-103.79"/>
<polygon fill="black" stroke="black" points="114.91,-103.79 118.41,-113.79 121.91,-103.79 114.91,-103.79"/>
</g>
<!-- CourseService  -->
<g id="node3" class="node">
<title>CourseService </title>
<polygon fill="#fb8072" stroke="black" points="202.64,-214.8 101.36,-214.8 101.36,-178.8 202.64,-178.8 202.64,-214.8"/>
<text text-anchor="middle" x="152" y="-192.6" font-family="Times,serif" font-size="14.00">CourseService </text>
</g>
<!-- CourseModule&#45;&gt;CourseService  -->
<g id="edge2" class="edge">
<title>CourseModule&#45;&gt;CourseService </title>
<path fill="none" stroke="black" stroke-dasharray="5,2" d="M152,-149.91C152,-149.91 152,-168.79 152,-168.79"/>
<polygon fill="black" stroke="black" points="148.5,-168.79 152,-178.79 155.5,-168.79 148.5,-168.79"/>
</g>
<!-- CourseService -->
<g id="node4" class="node">
<title>CourseService</title>
<ellipse fill="#fdb462" stroke="black" cx="225" cy="-66.8" rx="67.2" ry="18"/>
<text text-anchor="middle" x="225" y="-62.6" font-family="Times,serif" font-size="14.00">CourseService</text>
</g>
<!-- CourseService&#45;&gt;CourseModule -->
<g id="edge3" class="edge">
<title>CourseService&#45;&gt;CourseModule</title>
<path fill="none" stroke="black" d="M179.63,-80.27C179.63,-80.27 179.63,-103.66 179.63,-103.66"/>
<polygon fill="black" stroke="black" points="176.13,-103.66 179.63,-113.66 183.13,-103.66 176.13,-103.66"/>
</g>
</g>
</svg>
