<?xml version="1.0" encoding="UTF-8" standalone="no"?>
<!DOCTYPE svg PUBLIC "-//W3C//DTD SVG 1.1//EN"
 "http://www.w3.org/Graphics/SVG/1.1/DTD/svg11.dtd">
<!-- Generated by graphviz version 3.0.0 (20220226.1711)
 -->
<!-- Title: dependencies Pages: 1 -->
<svg width="620pt" height="247pt"
 viewBox="0.00 0.00 620.00 246.80" xmlns="http://www.w3.org/2000/svg" xmlns:xlink="http://www.w3.org/1999/xlink">
<g id="graph0" class="graph" transform="scale(1 1) rotate(0) translate(4 242.8)">
<title>dependencies</title>
<polygon fill="white" stroke="transparent" points="-4,4 -4,-242.8 616,-242.8 616,4 -4,4"/>
<text text-anchor="middle" x="306" y="-8.2" font-family="sans-serif" font-size="14.00">dependencies</text>
<g id="clust1" class="cluster">
<title>cluster_RefreshTokenModule</title>
<polygon fill="none" stroke="black" stroke-dasharray="1,5" points="8,-32.8 8,-230.8 604,-230.8 604,-32.8 8,-32.8"/>
</g>
<g id="clust6" class="cluster">
<title>cluster_RefreshTokenModule_providers</title>
<polygon fill="none" stroke="black" points="150,-40.8 150,-92.8 596,-92.8 596,-40.8 150,-40.8"/>
</g>
<g id="clust4" class="cluster">
<title>cluster_RefreshTokenModule_exports</title>
<polygon fill="none" stroke="black" points="175,-170.8 175,-222.8 331,-222.8 331,-170.8 175,-170.8"/>
</g>
<g id="clust3" class="cluster">
<title>cluster_RefreshTokenModule_imports</title>
<polygon fill="none" stroke="black" points="16,-40.8 16,-92.8 142,-92.8 142,-40.8 16,-40.8"/>
</g>
<!-- DatabaseModule -->
<g id="node1" class="node">
<title>DatabaseModule</title>
<polygon fill="#8dd3c7" stroke="black" points="134.36,-84.8 131.36,-88.8 110.36,-88.8 107.36,-84.8 23.64,-84.8 23.64,-48.8 134.36,-48.8 134.36,-84.8"/>
<text text-anchor="middle" x="79" y="-62.6" font-family="Times,serif" font-size="14.00">DatabaseModule</text>
</g>
<!-- RefreshTokenModule -->
<g id="node2" class="node">
<title>RefreshTokenModule</title>
<polygon fill="#8dd3c7" stroke="black" points="322.36,-149.8 319.36,-153.8 298.36,-153.8 295.36,-149.8 183.64,-149.8 183.64,-113.8 322.36,-113.8 322.36,-149.8"/>
<text text-anchor="middle" x="253" y="-127.6" font-family="Times,serif" font-size="14.00">RefreshTokenModule</text>
</g>
<!-- DatabaseModule&#45;&gt;RefreshTokenModule -->
<g id="edge1" class="edge">
<title>DatabaseModule&#45;&gt;RefreshTokenModule</title>
<path fill="none" stroke="black" d="M79,-84.91C79,-104.14 79,-131.8 79,-131.8 79,-131.8 173.48,-131.8 173.48,-131.8"/>
<polygon fill="black" stroke="black" points="173.48,-135.3 183.48,-131.8 173.48,-128.3 173.48,-135.3"/>
</g>
<!-- RefreshTokenService  -->
<g id="node3" class="node">
<title>RefreshTokenService </title>
<polygon fill="#fb8072" stroke="black" points="323.28,-214.8 182.72,-214.8 182.72,-178.8 323.28,-178.8 323.28,-214.8"/>
<text text-anchor="middle" x="253" y="-192.6" font-family="Times,serif" font-size="14.00">RefreshTokenService </text>
</g>
<!-- RefreshTokenModule&#45;&gt;RefreshTokenService  -->
<g id="edge2" class="edge">
<title>RefreshTokenModule&#45;&gt;RefreshTokenService </title>
<path fill="none" stroke="black" stroke-dasharray="5,2" d="M253,-149.91C253,-149.91 253,-168.79 253,-168.79"/>
<polygon fill="black" stroke="black" points="249.5,-168.79 253,-178.79 256.5,-168.79 249.5,-168.79"/>
</g>
<!-- JwtRefreshTokenStrategy -->
<g id="node4" class="node">
<title>JwtRefreshTokenStrategy</title>
<ellipse fill="#fdb462" stroke="black" cx="477" cy="-66.8" rx="111.17" ry="18"/>
<text text-anchor="middle" x="477" y="-62.6" font-family="Times,serif" font-size="14.00">JwtRefreshTokenStrategy</text>
</g>
<!-- JwtRefreshTokenStrategy&#45;&gt;RefreshTokenModule -->
<g id="edge3" class="edge">
<title>JwtRefreshTokenStrategy&#45;&gt;RefreshTokenModule</title>
<path fill="none" stroke="black" d="M477,-84.91C477,-104.14 477,-131.8 477,-131.8 477,-131.8 332.65,-131.8 332.65,-131.8"/>
<polygon fill="black" stroke="black" points="332.65,-128.3 322.65,-131.8 332.65,-135.3 332.65,-128.3"/>
</g>
<!-- RefreshTokenService -->
<g id="node5" class="node">
<title>RefreshTokenService</title>
<ellipse fill="#fdb462" stroke="black" cx="253" cy="-66.8" rx="94.89" ry="18"/>
<text text-anchor="middle" x="253" y="-62.6" font-family="Times,serif" font-size="14.00">RefreshTokenService</text>
</g>
<!-- RefreshTokenService&#45;&gt;RefreshTokenModule -->
<g id="edge4" class="edge">
<title>RefreshTokenService&#45;&gt;RefreshTokenModule</title>
<path fill="none" stroke="black" d="M253,-84.91C253,-84.91 253,-103.79 253,-103.79"/>
<polygon fill="black" stroke="black" points="249.5,-103.79 253,-113.79 256.5,-103.79 249.5,-103.79"/>
</g>
</g>
</svg>
