<?xml version="1.0" encoding="UTF-8" standalone="no"?>
<!DOCTYPE svg PUBLIC "-//W3C//DTD SVG 1.1//EN"
 "http://www.w3.org/Graphics/SVG/1.1/DTD/svg11.dtd">
<!-- Generated by graphviz version 3.0.0 (20220226.1711)
 -->
<!-- Title: dependencies Pages: 1 -->
<svg width="184pt" height="174pt"
 viewBox="0.00 0.00 184.00 173.80" xmlns="http://www.w3.org/2000/svg" xmlns:xlink="http://www.w3.org/1999/xlink">
<g id="graph0" class="graph" transform="scale(1 1) rotate(0) translate(4 169.8)">
<title>dependencies</title>
<polygon fill="white" stroke="transparent" points="-4,4 -4,-169.8 180,-169.8 180,4 -4,4"/>
<text text-anchor="middle" x="88" y="-8.2" font-family="sans-serif" font-size="14.00">dependencies</text>
<g id="clust1" class="cluster">
<title>cluster_StatusModule</title>
<polygon fill="none" stroke="black" stroke-dasharray="1,5" points="8,-32.8 8,-157.8 168,-157.8 168,-32.8 8,-32.8"/>
</g>
<g id="clust6" class="cluster">
<title>cluster_StatusModule_providers</title>
<polygon fill="none" stroke="black" points="16,-40.8 16,-92.8 160,-92.8 160,-40.8 16,-40.8"/>
</g>
<!-- StatusService -->
<g id="node1" class="node">
<title>StatusService</title>
<ellipse fill="#fdb462" stroke="black" cx="88" cy="-66.8" rx="63.71" ry="18"/>
<text text-anchor="middle" x="88" y="-62.6" font-family="Times,serif" font-size="14.00">StatusService</text>
</g>
<!-- StatusModule -->
<g id="node2" class="node">
<title>StatusModule</title>
<polygon fill="#8dd3c7" stroke="black" points="134.78,-149.8 131.78,-153.8 110.78,-153.8 107.78,-149.8 41.22,-149.8 41.22,-113.8 134.78,-113.8 134.78,-149.8"/>
<text text-anchor="middle" x="88" y="-127.6" font-family="Times,serif" font-size="14.00">StatusModule</text>
</g>
<!-- StatusService&#45;&gt;StatusModule -->
<g id="edge1" class="edge">
<title>StatusService&#45;&gt;StatusModule</title>
<path fill="none" stroke="black" d="M88,-84.91C88,-84.91 88,-103.79 88,-103.79"/>
<polygon fill="black" stroke="black" points="84.5,-103.79 88,-113.79 91.5,-103.79 84.5,-103.79"/>
</g>
</g>
</svg>
