<?xml version="1.0" encoding="UTF-8" standalone="no"?>
<!DOCTYPE svg PUBLIC "-//W3C//DTD SVG 1.1//EN"
 "http://www.w3.org/Graphics/SVG/1.1/DTD/svg11.dtd">
<!-- Generated by graphviz version 3.0.0 (20220226.1711)
 -->
<!-- Title: dependencies Pages: 1 -->
<svg width="214pt" height="174pt"
 viewBox="0.00 0.00 214.00 173.80" xmlns="http://www.w3.org/2000/svg" xmlns:xlink="http://www.w3.org/1999/xlink">
<g id="graph0" class="graph" transform="scale(1 1) rotate(0) translate(4 169.8)">
<title>dependencies</title>
<polygon fill="white" stroke="transparent" points="-4,4 -4,-169.8 210,-169.8 210,4 -4,4"/>
<text text-anchor="middle" x="103" y="-8.2" font-family="sans-serif" font-size="14.00">dependencies</text>
<g id="clust1" class="cluster">
<title>cluster_TimezoneModule</title>
<polygon fill="none" stroke="black" stroke-dasharray="1,5" points="8,-32.8 8,-157.8 198,-157.8 198,-32.8 8,-32.8"/>
</g>
<g id="clust6" class="cluster">
<title>cluster_TimezoneModule_providers</title>
<polygon fill="none" stroke="black" points="16,-40.8 16,-92.8 190,-92.8 190,-40.8 16,-40.8"/>
</g>
<!-- TimezoneService -->
<g id="node1" class="node">
<title>TimezoneService</title>
<ellipse fill="#fdb462" stroke="black" cx="103" cy="-66.8" rx="78.7" ry="18"/>
<text text-anchor="middle" x="103" y="-62.6" font-family="Times,serif" font-size="14.00">TimezoneService</text>
</g>
<!-- TimezoneModule -->
<g id="node2" class="node">
<title>TimezoneModule</title>
<polygon fill="#8dd3c7" stroke="black" points="160.53,-149.8 157.53,-153.8 136.53,-153.8 133.53,-149.8 45.47,-149.8 45.47,-113.8 160.53,-113.8 160.53,-149.8"/>
<text text-anchor="middle" x="103" y="-127.6" font-family="Times,serif" font-size="14.00">TimezoneModule</text>
</g>
<!-- TimezoneService&#45;&gt;TimezoneModule -->
<g id="edge1" class="edge">
<title>TimezoneService&#45;&gt;TimezoneModule</title>
<path fill="none" stroke="black" d="M103,-84.91C103,-84.91 103,-103.79 103,-103.79"/>
<polygon fill="black" stroke="black" points="99.5,-103.79 103,-113.79 106.5,-103.79 99.5,-103.79"/>
</g>
</g>
</svg>
