<svg xmlns="http://www.w3.org/2000/svg" xmlns:xlink="http://www.w3.org/1999/xlink" version="1.1" id="Capa_1" x="0px" y="0px" viewBox="0 0 512 512" style="enable-background:new 0 0 512 512;" xml:space="preserve" width="512" height="512">
<g>
	<path d="M497,30h-45V15c0-8.284-6.716-15-15-15s-15,6.716-15,15v15h-91V15c0-8.284-6.716-15-15-15s-15,6.716-15,15v15h-90V15   c0-8.284-6.716-15-15-15s-15,6.716-15,15v15H91V15c0-8.284-6.716-15-15-15S61,6.716,61,15v15H15C6.716,30,0,36.716,0,45   c0,4.545,0,440.141,0,452c0,8.284,6.716,15,15,15h482c8.284,0,15-6.716,15-15c0-11.86,0-447.456,0-452   C512,36.716,505.284,30,497,30z M61,60v15c0,8.284,6.716,15,15,15s15-6.716,15-15V60h90v15c0,8.284,6.716,15,15,15s15-6.716,15-15   V60h90v15c0,8.284,6.716,15,15,15s15-6.716,15-15V60h91v15c0,8.284,6.716,15,15,15s15-6.716,15-15V60h30v60H30V60H61z M482,482H30   V150h452V482z"/>
	<path d="M256,452c74.439,0,135-61.009,135-136s-60.561-136-135-136s-135,61.009-135,136S181.561,452,256,452z M256,210   c57.897,0,105,47.551,105,106s-47.103,106-105,106s-105-47.551-105-106S198.103,210,256,210z"/>
	<path d="M230.394,371.606C233.322,374.536,237.161,376,241,376s7.678-1.464,10.606-4.394l69.687-69.687   c5.858-5.858,5.858-15.355,0-21.213c-5.857-5.858-15.355-5.858-21.213,0L241,339.787l-34.394-34.393   c-5.857-5.858-15.355-5.858-21.213,0c-5.858,5.858-5.858,15.355,0,21.213L230.394,371.606z"/>
</g></svg>