<svg id="Capa_1" enable-background="new 0 0 512 512" height="512" viewBox="0 0 512 512" width="512" xmlns="http://www.w3.org/2000/svg"><g><path d="m505.603 205.477-74.603-62.17v-76.307c0-8.284-6.716-15-15-15h-94.405l-55.771-48.335c-5.639-4.887-14.01-4.887-19.648 0l-55.771 48.335h-94.405c-8.284 0-15 6.716-15 15v76.307l-74.603 62.17c-3.419 2.849-5.397 7.071-5.397 11.523v280c0 8.284 6.716 15 15 15h480c8.284 0 15-6.716 15-15v-280c0-4.452-1.978-8.674-5.397-11.523zm-334.036 151.523-140.567 109.331v-218.662zm29.579 15h109.707l141.429 110h-392.564zm139.287-15 140.567-109.331v218.662zm131.653-140.403-41.086 31.956v-66.195zm-216.086-181.747 19.789 17.15h-39.578zm145 47.15v189.886l-90.146 70.114h-109.708l-90.146-70.114v-189.886zm-320 166.553-41.086-31.956 41.086-34.238z"/><path d="m188.989 298.742c18.421 14.352 41.367 22.609 64.612 23.252.142.004.282.006.423.006 8.092 0 14.762-6.445 14.986-14.585.229-8.281-6.299-15.181-14.579-15.409-35.261-.976-66.168-25.536-75.16-59.729-10.829-41.174 12.491-83.55 53.09-96.474 20.597-6.556 42.464-4.626 61.568 5.436 19.037 10.025 32.964 26.864 39.237 47.431 3.908 14.836 2.58 28.707-4.427 46.324-1.727 4.342-7.05 14.44-19.154 14.44-1.338 0-2.53-.997-3.121-1.592-1.708-1.716-2.72-4.269-2.707-6.827l.413-83.335c.041-8.284-6.642-15.033-14.926-15.074-.025 0-.05 0-.076 0-7.319 0-13.414 5.253-14.726 12.206-6.767-3.559-14.298-5.448-22.223-5.448-14.409 0-28.521 6.476-38.718 17.766-10.34 11.449-16.034 27.026-16.034 43.86 0 16.759 5.352 32.504 15.069 44.336 10.079 12.271 24.175 19.31 38.673 19.31 11.098 0 21.293-3.957 29.7-10.794 1.278 1.836 2.705 3.571 4.289 5.163 6.693 6.727 15.354 10.431 24.387 10.431 24.896 0 40.618-17.229 47.031-33.354 9.487-23.854 11.176-44.019 5.474-65.379-.041-.156-.085-.312-.132-.466-8.579-28.427-27.774-51.703-54.05-65.541-26.271-13.837-56.334-16.492-84.647-7.478-26.837 8.543-49.161 26.955-62.86 51.845-13.704 24.898-17.307 53.61-10.144 80.846 6.203 23.58 19.596 43.924 38.732 58.833zm62.221-54.106c-11.466 0-23.742-13.52-23.742-33.646 0-19.796 12.585-31.626 24.752-31.626 12.388 0 21.157 12.088 21.696 29.611l-.019 3.771c-.712 17.763-10.613 31.89-22.687 31.89z"/></g></svg>