<svg width="1244" height="852" viewBox="0 0 1244 852" fill="none" xmlns="http://www.w3.org/2000/svg">
<path d="M0 -43C0 -43 63.7485 271.878 304.215 406.591C344.889 429.378 389.391 444.466 435.402 452.08C494.007 461.75 622.989 497.562 656.747 627.166C700.839 796.447 953.791 986.597 1158.01 717.604C1362.23 448.61 1462.02 -43 1462.02 -43H0Z" fill="#E0E2EB"/>
<mask id="mask0_144_2" style="mask-type:alpha" maskUnits="userSpaceOnUse" x="0" y="-43" width="1463" height="895">
<path d="M0 -43C0 -43 63.7485 271.878 304.215 406.591C344.889 429.378 389.391 444.466 435.402 452.08C494.007 461.75 622.989 497.562 656.747 627.166C700.839 796.447 953.791 986.597 1158.01 717.604C1362.23 448.61 1462.02 -43 1462.02 -43H0Z" fill="#E0E2EB"/>
</mask>
<g mask="url(#mask0_144_2)">
<g clip-path="url(#clip0_144_2)">
<path d="M1055.24 803.395H837V833.926H1055.24V803.395Z" fill="#B8D8B8"/>
<path d="M1055.24 833.383H837V863.914H1055.24V833.383Z" fill="#A3C1A3"/>
<path d="M864.736 803.395V863.914" stroke="#617261" stroke-width="15.71" stroke-miterlimit="10"/>
<path d="M880.314 803.395V863.914" stroke="#617261" stroke-width="7.33" stroke-miterlimit="10"/>
<path d="M1027.89 803.395V863.914" stroke="#617261" stroke-width="15.71" stroke-miterlimit="10"/>
<path d="M1012.32 803.395V863.914" stroke="#617261" stroke-width="7.33" stroke-miterlimit="10"/>
</g>
<g clip-path="url(#clip1_144_2)">
<path d="M830.581 742.183C837.819 749.271 842.002 758.893 842.241 769.007C842.481 779.121 838.758 788.93 831.864 796.35L830.589 797.707H1038.95V742.214L830.581 742.183Z" fill="#F4F4F4"/>
<path d="M1038.95 770.145V797.676H830.55L831.864 796.35C838.507 789.231 842.211 779.872 842.233 770.145H1038.95Z" fill="#EAEAEA"/>
<path d="M828 797.668H1036.7C1037.71 797.65 1038.68 797.236 1039.39 796.515C1040.1 795.795 1040.49 794.825 1040.49 793.815V746.029C1040.49 745.019 1040.1 744.049 1039.39 743.329C1038.68 742.608 1037.71 742.194 1036.7 742.176H828" stroke="#798FB5" stroke-width="14.85" stroke-miterlimit="10"/>
</g>
<g clip-path="url(#clip2_144_2)">
<path d="M1067.24 675.938H849V706.469H1067.24V675.938Z" fill="#EDDCBC"/>
<path d="M1067.24 705.926H849V736.457H1067.24V705.926Z" fill="#FCECC3"/>
<path d="M876.736 675.938V736.457" stroke="#7F7763" stroke-width="15.71" stroke-miterlimit="10"/>
<path d="M892.314 675.938V736.457" stroke="#7F7763" stroke-width="7.33" stroke-miterlimit="10"/>
<path d="M1039.89 675.938V736.457" stroke="#7F7763" stroke-width="15.71" stroke-miterlimit="10"/>
<path d="M1024.32 675.938V736.457" stroke="#7F7763" stroke-width="7.33" stroke-miterlimit="10"/>
</g>
<g clip-path="url(#clip3_144_2)">
<path d="M1120 572.069V860.931C1120 863.336 1120.96 865.643 1122.66 867.344C1124.36 869.044 1126.67 870 1129.08 870H1174.92C1177.33 870 1179.64 869.044 1181.34 867.344C1183.04 865.643 1184 863.336 1184 860.931V572.069C1184 569.664 1183.04 567.357 1181.34 565.656C1179.64 563.956 1177.33 563 1174.92 563H1129.08C1126.67 563 1124.36 563.956 1122.66 565.656C1120.96 567.357 1120 569.664 1120 572.069V572.069ZM1136.79 574.79C1136.79 575.777 1136.5 576.741 1135.95 577.562C1135.4 578.382 1134.62 579.021 1133.71 579.399C1132.8 579.776 1131.8 579.875 1130.83 579.683C1129.86 579.49 1128.97 579.015 1128.27 578.317C1127.57 577.62 1127.1 576.731 1126.9 575.763C1126.71 574.796 1126.81 573.793 1127.19 572.881C1127.57 571.97 1128.21 571.191 1129.03 570.643C1129.85 570.095 1130.81 569.802 1131.8 569.802C1133.13 569.802 1134.4 570.328 1135.33 571.263C1136.27 572.199 1136.79 573.467 1136.79 574.79Z" fill="#A2A8C3"/>
<path d="M1169.48 847.326H1184V845.513H1169.48V847.326Z" fill="white"/>
<path d="M1162.67 835.536H1184V833.722H1162.67V835.536Z" fill="white"/>
<path d="M1169.48 823.746H1184V821.932H1169.48V823.746Z" fill="white"/>
<path d="M1162.67 811.956H1184V810.142H1162.67V811.956Z" fill="white"/>
<path d="M1169.48 800.165H1184V798.352H1169.48V800.165Z" fill="white"/>
<path d="M1162.67 788.375H1184V786.561H1162.67V788.375Z" fill="white"/>
<path d="M1169.48 776.585H1184V774.771H1169.48V776.585Z" fill="white"/>
<path d="M1162.67 764.795H1184V762.981H1162.67V764.795Z" fill="white"/>
<path d="M1169.48 753.004H1184V751.191H1169.48V753.004Z" fill="white"/>
<path d="M1162.67 741.214H1184V739.4H1162.67V741.214Z" fill="white"/>
<path d="M1169.48 729.424H1184V727.61H1169.48V729.424Z" fill="white"/>
<path d="M1162.67 717.634H1184V715.82H1162.67V717.634Z" fill="white"/>
<path d="M1169.48 705.843H1184V704.03H1169.48V705.843Z" fill="white"/>
<path d="M1162.67 694.053H1184V692.239H1162.67V694.053Z" fill="white"/>
<path d="M1169.48 682.263H1184V680.449H1169.48V682.263Z" fill="white"/>
<path d="M1162.67 670.473H1184V668.659H1162.67V670.473Z" fill="white"/>
<path d="M1169.48 658.682H1184V656.869H1169.48V658.682Z" fill="white"/>
<path d="M1162.67 646.892H1184V645.078H1162.67V646.892Z" fill="white"/>
<path d="M1169.48 635.102H1184V633.288H1169.48V635.102Z" fill="white"/>
<path d="M1162.67 623.312H1184V621.498H1162.67V623.312Z" fill="white"/>
<path d="M1169.48 611.521H1184V609.708H1169.48V611.521Z" fill="white"/>
<path d="M1162.67 599.731H1184V597.917H1162.67V599.731Z" fill="white"/>
<path d="M1169.48 587.941H1184V586.127H1169.48V587.941Z" fill="white"/>
<path d="M1162.67 576.151H1184V574.337H1162.67V576.151Z" fill="white"/>
</g>
<g clip-path="url(#clip4_144_2)">
<path d="M1050.65 614.726C1043.42 621.814 1039.23 631.436 1038.99 641.55C1038.75 651.664 1042.48 661.473 1049.37 668.893L1050.65 670.25H842.287V614.757L1050.65 614.726Z" fill="#F4F4F4"/>
<path d="M1050.65 670.219H842.287V642.689H1039.04C1039.05 652.41 1042.74 661.768 1049.37 668.893L1050.65 670.219Z" fill="#EAEAEA"/>
<path d="M1053.24 670.211H844.535C843.523 670.193 842.558 669.779 841.848 669.058C841.139 668.338 840.741 667.368 840.741 666.358V618.572C840.741 617.562 841.139 616.593 841.848 615.872C842.558 615.151 843.523 614.737 844.535 614.719H1053.24" stroke="#DB8A8A" stroke-width="14.85" stroke-miterlimit="10"/>
</g>
</g>
<path d="M678.206 573.719H559.891V681.253H678.206V573.719Z" fill="#939AB9"/>
<path d="M829.937 271H409.063C399.087 271 391 279.091 391 289.073V555.647C391 565.628 399.087 573.719 409.063 573.719H829.937C839.913 573.719 848 565.628 848 555.647V289.073C848 279.091 839.913 271 829.937 271Z" fill="#A2A8C3"/>
<path d="M683.173 681.253H554.021C550.779 681.253 548.15 683.882 548.15 687.126C548.15 690.37 550.779 693 554.021 693H683.173C686.415 693 689.043 690.37 689.043 687.126C689.043 683.882 686.415 681.253 683.173 681.253Z" fill="#838BAF"/>
<path d="M829.034 290.13H409.966V514.079H829.034V290.13Z" fill="#C3BEBB"/>
<path d="M620.657 406.041C528.524 375.097 441.83 465.12 410 514H829V290C797.942 341.574 712.791 436.986 620.657 406.041Z" fill="#B7B1AE"/>
<path d="M619.5 554.743C625.486 554.743 630.338 549.888 630.338 543.899C630.338 537.911 625.486 533.056 619.5 533.056C613.514 533.056 608.662 537.911 608.662 543.899C608.662 549.888 613.514 554.743 619.5 554.743Z" fill="#838BAF"/>
<g clip-path="url(#clip5_144_2)">
<path d="M656.346 413.374C649.962 421.06 645.715 430.223 644.015 439.979C643.718 441.593 643.485 443.226 643.333 444.865H595.788C595.618 443.232 595.378 441.606 595.075 439.998C593.31 430.158 589.027 420.913 582.624 413.121C575.05 403.972 570.944 392.549 571 380.785C571 352.498 594.009 329.725 621.89 331.043C646.785 332.214 666.986 352.929 668.134 378.438C668.774 391.107 664.573 403.556 656.346 413.374V413.374Z" fill="#FCECC3"/>
<path d="M637.262 456.264C637.262 460.758 635.434 465.068 632.179 468.245C628.925 471.423 624.511 473.208 619.908 473.208C615.305 473.208 610.891 471.423 607.636 468.245C604.382 465.068 602.553 460.758 602.553 456.264C602.553 456.159 602.553 456.061 602.553 455.956H637.262C637.262 456.061 637.262 456.159 637.262 456.264Z" fill="#999999"/>
<path d="M646.413 442.659C646.413 443.015 646.341 443.366 646.202 443.694C646.063 444.023 645.859 444.321 645.601 444.572C645.344 444.823 645.039 445.022 644.703 445.158C644.367 445.294 644.006 445.364 643.642 445.364H595.542C594.808 445.364 594.103 445.079 593.583 444.572C593.064 444.065 592.772 443.377 592.772 442.659V442.659C592.772 442.021 593.003 441.404 593.425 440.917C593.846 440.43 594.431 440.104 595.075 439.998C595.229 439.968 595.386 439.953 595.542 439.954H643.642C643.766 439.945 643.891 439.945 644.015 439.954C644.683 440.043 645.296 440.367 645.737 440.865C646.179 441.363 646.419 442.001 646.413 442.659V442.659Z" fill="#E6E6E6"/>
<path d="M643.258 447.909V448.242C643.258 448.915 642.984 449.561 642.496 450.037C642.008 450.513 641.347 450.78 640.658 450.78H598.527C598.005 450.781 597.494 450.628 597.062 450.341C596.629 450.054 596.296 449.647 596.104 449.172C595.987 448.875 595.927 448.56 595.927 448.242V447.909C595.926 447.575 595.993 447.245 596.123 446.937C596.254 446.628 596.445 446.348 596.687 446.112C596.929 445.876 597.215 445.689 597.531 445.562C597.847 445.435 598.186 445.37 598.527 445.37H640.658C641.21 445.37 641.748 445.541 642.194 445.859C642.639 446.177 642.97 446.625 643.138 447.139C643.216 447.388 643.257 447.648 643.258 447.909V447.909Z" fill="#CDCCCC"/>
<path d="M640.102 453.146V453.83C640.102 454.141 640.039 454.449 639.918 454.736C639.796 455.023 639.617 455.284 639.392 455.503C639.167 455.723 638.9 455.897 638.606 456.016C638.312 456.135 637.997 456.196 637.679 456.196H601.506C601.188 456.196 600.873 456.135 600.579 456.016C600.285 455.897 600.017 455.723 599.792 455.503C599.567 455.284 599.389 455.023 599.267 454.736C599.145 454.449 599.083 454.141 599.083 453.83V453.146C599.082 452.713 599.204 452.288 599.434 451.917C599.665 451.547 599.995 451.245 600.389 451.045C600.735 450.872 601.117 450.781 601.506 450.78H637.679C638.067 450.781 638.45 450.872 638.796 451.045C639.19 451.245 639.52 451.547 639.75 451.917C639.981 452.288 640.102 452.713 640.102 453.146V453.146Z" fill="#B3B3B3"/>
</g>
<path d="M1326.04 271H1002.96C992.489 271 984 279.458 984 289.893V484.107C984 494.542 992.489 503 1002.96 503H1326.04C1336.51 503 1345 494.542 1345 484.107V289.893C1345 279.458 1336.51 271 1326.04 271Z" fill="#BEA3B6"/>
<path d="M1327.56 288.381H1001.44V485.619H1327.56V288.381Z" fill="white"/>
<path d="M1171.33 288.381H1157.67V485.619H1171.33V288.381Z" fill="#E6E6E6"/>
<path d="M1171.33 485.619H1157.67V503H1171.33V485.619Z" fill="#A590A1"/>
<path d="M1171.33 271H1157.67V288.381H1171.33V271Z" fill="#A590A1"/>
<path d="M1135.3 310.296H1023.82C1022.77 310.296 1021.92 311.142 1021.92 312.186C1021.92 313.229 1022.77 314.075 1023.82 314.075H1135.3C1136.35 314.075 1137.2 313.229 1137.2 312.186C1137.2 311.142 1136.35 310.296 1135.3 310.296Z" fill="#B3B3B3"/>
<path d="M1135.3 326.922H1023.82C1022.77 326.922 1021.92 327.768 1021.92 328.811C1021.92 329.854 1022.77 330.7 1023.82 330.7H1135.3C1136.35 330.7 1137.2 329.854 1137.2 328.811C1137.2 327.768 1136.35 326.922 1135.3 326.922Z" fill="#B3B3B3"/>
<path d="M1135.3 343.547H1023.82C1022.77 343.547 1021.92 344.393 1021.92 345.436C1021.92 346.48 1022.77 347.326 1023.82 347.326H1135.3C1136.35 347.326 1137.2 346.48 1137.2 345.436C1137.2 344.393 1136.35 343.547 1135.3 343.547Z" fill="#B3B3B3"/>
<path d="M1135.3 360.173H1023.82C1022.77 360.173 1021.92 361.018 1021.92 362.062C1021.92 363.105 1022.77 363.951 1023.82 363.951H1135.3C1136.35 363.951 1137.2 363.105 1137.2 362.062C1137.2 361.018 1136.35 360.173 1135.3 360.173Z" fill="#B3B3B3"/>
<path d="M1135.3 376.798H1023.82C1022.77 376.798 1021.92 377.644 1021.92 378.687C1021.92 379.731 1022.77 380.577 1023.82 380.577H1135.3C1136.35 380.577 1137.2 379.731 1137.2 378.687C1137.2 377.644 1136.35 376.798 1135.3 376.798Z" fill="#B3B3B3"/>
<path d="M1135.3 393.423H1023.82C1022.77 393.423 1021.92 394.269 1021.92 395.313C1021.92 396.356 1022.77 397.202 1023.82 397.202H1135.3C1136.35 397.202 1137.2 396.356 1137.2 395.313C1137.2 394.269 1136.35 393.423 1135.3 393.423Z" fill="#B3B3B3"/>
<path d="M1135.3 410.049H1023.82C1022.77 410.049 1021.92 410.895 1021.92 411.938C1021.92 412.982 1022.77 413.827 1023.82 413.827H1135.3C1136.35 413.827 1137.2 412.982 1137.2 411.938C1137.2 410.895 1136.35 410.049 1135.3 410.049Z" fill="#B3B3B3"/>
<path d="M1135.3 426.674H1081.45C1080.41 426.674 1079.56 427.52 1079.56 428.564C1079.56 429.607 1080.41 430.453 1081.45 430.453H1135.3C1136.35 430.453 1137.2 429.607 1137.2 428.564C1137.2 427.52 1136.35 426.674 1135.3 426.674Z" fill="#B3B3B3"/>
<path d="M1135.3 443.3H1081.45C1080.41 443.3 1079.56 444.146 1079.56 445.189C1079.56 446.232 1080.41 447.078 1081.45 447.078H1135.3C1136.35 447.078 1137.2 446.232 1137.2 445.189C1137.2 444.146 1136.35 443.3 1135.3 443.3Z" fill="#B3B3B3"/>
<path d="M1135.3 459.925H1081.45C1080.41 459.925 1079.56 460.771 1079.56 461.814C1079.56 462.858 1080.41 463.704 1081.45 463.704H1135.3C1136.35 463.704 1137.2 462.858 1137.2 461.814C1137.2 460.771 1136.35 459.925 1135.3 459.925Z" fill="#B3B3B3"/>
<path d="M1305.18 310.296H1193.7C1192.65 310.296 1191.8 311.142 1191.8 312.186C1191.8 313.229 1192.65 314.075 1193.7 314.075H1305.18C1306.23 314.075 1307.08 313.229 1307.08 312.186C1307.08 311.142 1306.23 310.296 1305.18 310.296Z" fill="#B3B3B3"/>
<path d="M1305.18 326.922H1193.7C1192.65 326.922 1191.8 327.768 1191.8 328.811C1191.8 329.854 1192.65 330.7 1193.7 330.7H1305.18C1306.23 330.7 1307.08 329.854 1307.08 328.811C1307.08 327.768 1306.23 326.922 1305.18 326.922Z" fill="#B3B3B3"/>
<path d="M1305.18 343.547H1193.7C1192.65 343.547 1191.8 344.393 1191.8 345.436C1191.8 346.48 1192.65 347.326 1193.7 347.326H1305.18C1306.23 347.326 1307.08 346.48 1307.08 345.436C1307.08 344.393 1306.23 343.547 1305.18 343.547Z" fill="#B3B3B3"/>
<path d="M1305.18 360.173H1193.7C1192.65 360.173 1191.8 361.018 1191.8 362.062C1191.8 363.105 1192.65 363.951 1193.7 363.951H1305.18C1306.23 363.951 1307.08 363.105 1307.08 362.062C1307.08 361.018 1306.23 360.173 1305.18 360.173Z" fill="#B3B3B3"/>
<path d="M1305.18 376.798H1193.7C1192.65 376.798 1191.8 377.644 1191.8 378.687C1191.8 379.731 1192.65 380.577 1193.7 380.577H1305.18C1306.23 380.577 1307.08 379.731 1307.08 378.687C1307.08 377.644 1306.23 376.798 1305.18 376.798Z" fill="#B3B3B3"/>
<path d="M1305.18 393.423H1193.7C1192.65 393.423 1191.8 394.269 1191.8 395.313C1191.8 396.356 1192.65 397.202 1193.7 397.202H1305.18C1306.23 397.202 1307.08 396.356 1307.08 395.313C1307.08 394.269 1306.23 393.423 1305.18 393.423Z" fill="#B3B3B3"/>
<path d="M1305.18 410.049H1193.7C1192.65 410.049 1191.8 410.895 1191.8 411.938C1191.8 412.982 1192.65 413.827 1193.7 413.827H1305.18C1306.23 413.827 1307.08 412.982 1307.08 411.938C1307.08 410.895 1306.23 410.049 1305.18 410.049Z" fill="#B3B3B3"/>
<path d="M1305.18 426.674H1193.7C1192.65 426.674 1191.8 427.52 1191.8 428.564C1191.8 429.607 1192.65 430.453 1193.7 430.453H1305.18C1306.23 430.453 1307.08 429.607 1307.08 428.564C1307.08 427.52 1306.23 426.674 1305.18 426.674Z" fill="#B3B3B3"/>
<path d="M1305.18 443.3H1193.7C1192.65 443.3 1191.8 444.146 1191.8 445.189C1191.8 446.232 1192.65 447.078 1193.7 447.078H1305.18C1306.23 447.078 1307.08 446.232 1307.08 445.189C1307.08 444.146 1306.23 443.3 1305.18 443.3Z" fill="#B3B3B3"/>
<path d="M1305.18 459.925H1193.7C1192.65 459.925 1191.8 460.771 1191.8 461.814C1191.8 462.858 1192.65 463.704 1193.7 463.704H1305.18C1306.23 463.704 1307.08 462.858 1307.08 461.814C1307.08 460.771 1306.23 459.925 1305.18 459.925Z" fill="#B3B3B3"/>
<path d="M1143.26 390.401L1131.13 380.577L1119.75 390.401V288.381H1143.26V390.401Z" fill="#DB8A8A"/>
<path d="M1066.67 426.674H1021.92V463.704H1066.67V426.674Z" fill="#FCECC3"/>
<path d="M897 552C897 552 929.605 561.694 954.5 554.5C977.429 546.003 1010.68 557.459 1010.68 557.459" stroke="#C1C5D7" stroke-width="5" stroke-miterlimit="10"/>
<path d="M1027.35 536C1015.56 536 1006 545.626 1006 557.5C1006 569.374 1015.56 579 1027.35 579H1051.65C1063.44 579 1073 569.374 1073 557.5C1073 545.626 1063.44 536 1051.65 536H1027.35Z" fill="#B2B7CD"/>
<path d="M1015.35 557.376V557.382C1015.35 558.601 1016.33 559.59 1017.54 559.59H1024.87C1026.08 559.59 1027.06 558.601 1027.06 557.382V557.376C1027.06 556.156 1026.08 555.167 1024.87 555.167H1017.54C1016.33 555.167 1015.35 556.156 1015.35 557.376Z" fill="#E0E2EB"/>
<g clip-path="url(#clip6_144_2)">
<path d="M911.043 292.288H906V476.3H911.043V292.288Z" fill="#FCECC3"/>
<path d="M916.029 292.288H910.986V476.3H916.029V292.288Z" fill="#FAE09E"/>
<path d="M921.014 292.288H915.971V476.3H921.014V292.288Z" fill="#F8D477"/>
<path d="M926 292.288H920.957V476.3H926V292.288Z" fill="#F7CB5A"/>
<path d="M926 283.628H906V292.288H926V283.628Z" fill="#CDCCCC"/>
<path d="M906 283.628V278.216C906 276.302 906.753 274.467 908.092 273.114C909.432 271.76 911.248 271 913.143 271H918.857C920.752 271 922.568 271.76 923.908 273.114C925.247 274.467 926 276.302 926 278.216V283.628H906Z" fill="#F1C9E8"/>
<path d="M906 476.3L916 503L926 476.3" fill="#DACBA7"/>
<path d="M912.668 494.102H919.332L916 503L912.668 494.102Z" fill="#808081"/>
</g>
<defs>
<clipPath id="clip0_144_2">
<rect width="218.236" height="60.5191" fill="white" transform="translate(837 803.395)"/>
</clipPath>
<clipPath id="clip1_144_2">
<rect width="218.236" height="66.9378" fill="white" transform="translate(828 736.457)"/>
</clipPath>
<clipPath id="clip2_144_2">
<rect width="218.236" height="60.5191" fill="white" transform="translate(849 675.938)"/>
</clipPath>
<clipPath id="clip3_144_2">
<rect width="64" height="307" fill="white" transform="translate(1184 870) rotate(-180)"/>
</clipPath>
<clipPath id="clip4_144_2">
<rect width="218.236" height="66.9378" fill="white" transform="translate(835 609)"/>
</clipPath>
<clipPath id="clip5_144_2">
<rect width="97.1848" height="142.208" fill="white" transform="translate(571 331)"/>
</clipPath>
<clipPath id="clip6_144_2">
<rect width="20" height="232" fill="white" transform="translate(906 271)"/>
</clipPath>
</defs>
</svg>
